<svg xmlns="http://www.w3.org/2000/svg" xmlns:xlink="http://www.w3.org/1999/xlink" width="50" zoomAndPan="magnify" viewBox="0 0 37.5 30.000001" height="40" preserveAspectRatio="xMidYMid meet" version="1.0"><defs><g/><clipPath id="456d20bc86"><path d="M 5.1875 1.195312 L 31.828125 1.195312 L 31.828125 27.835938 L 5.1875 27.835938 Z M 5.1875 1.195312 " clip-rule="nonzero"/></clipPath><clipPath id="5f7363eb55"><path d="M 18.507812 1.195312 C 11.152344 1.195312 5.1875 7.160156 5.1875 14.515625 C 5.1875 21.871094 11.152344 27.835938 18.507812 27.835938 C 25.863281 27.835938 31.828125 21.871094 31.828125 14.515625 C 31.828125 7.160156 25.863281 1.195312 18.507812 1.195312 Z M 18.507812 1.195312 " clip-rule="nonzero"/></clipPath><clipPath id="5a7bc75cdc"><path d="M 0.1875 0.195312 L 26.828125 0.195312 L 26.828125 26.835938 L 0.1875 26.835938 Z M 0.1875 0.195312 " clip-rule="nonzero"/></clipPath><clipPath id="1114dd23df"><path d="M 13.507812 0.195312 C 6.152344 0.195312 0.1875 6.160156 0.1875 13.515625 C 0.1875 20.871094 6.152344 26.835938 13.507812 26.835938 C 20.863281 26.835938 26.828125 20.871094 26.828125 13.515625 C 26.828125 6.160156 20.863281 0.195312 13.507812 0.195312 Z M 13.507812 0.195312 " clip-rule="nonzero"/></clipPath><clipPath id="60d3fe6388"><rect x="0" width="27" y="0" height="27"/></clipPath><clipPath id="f5fab13af0"><path d="M 8.347656 4.355469 L 28.667969 4.355469 L 28.667969 24.675781 L 8.347656 24.675781 Z M 8.347656 4.355469 " clip-rule="nonzero"/></clipPath><clipPath id="93bedee4ca"><rect x="0" width="9" y="0" height="4"/></clipPath></defs><g clip-path="url(#456d20bc86)"><g clip-path="url(#5f7363eb55)"><g transform="matrix(1, 0, 0, 1, 5, 1)"><g clip-path="url(#60d3fe6388)"><g clip-path="url(#5a7bc75cdc)"><g clip-path="url(#1114dd23df)"><path fill="#e6e6e6" d="M 0.1875 0.195312 L 26.828125 0.195312 L 26.828125 26.835938 L 0.1875 26.835938 Z M 0.1875 0.195312 " fill-opacity="1" fill-rule="nonzero"/></g></g></g></g></g></g><g clip-path="url(#f5fab13af0)"><path fill="#e6e6e6" d="M 28.667969 14.515625 C 28.667969 15.183594 28.605469 15.84375 28.472656 16.5 C 28.34375 17.152344 28.152344 17.789062 27.894531 18.40625 C 27.640625 19.019531 27.328125 19.605469 26.957031 20.160156 C 26.585938 20.714844 26.164062 21.230469 25.691406 21.699219 C 25.222656 22.171875 24.707031 22.59375 24.152344 22.964844 C 23.597656 23.335938 23.011719 23.648438 22.394531 23.902344 C 21.78125 24.160156 21.144531 24.351562 20.488281 24.480469 C 19.835938 24.613281 19.175781 24.675781 18.507812 24.675781 C 17.839844 24.675781 17.179688 24.613281 16.527344 24.480469 C 15.871094 24.351562 15.234375 24.160156 14.621094 23.902344 C 14.003906 23.648438 13.417969 23.335938 12.863281 22.964844 C 12.308594 22.59375 11.792969 22.171875 11.324219 21.699219 C 10.851562 21.230469 10.429688 20.714844 10.058594 20.160156 C 9.6875 19.605469 9.375 19.019531 9.121094 18.40625 C 8.863281 17.789062 8.671875 17.152344 8.542969 16.5 C 8.410156 15.84375 8.347656 15.183594 8.347656 14.515625 C 8.347656 13.847656 8.410156 13.1875 8.542969 12.535156 C 8.671875 11.878906 8.863281 11.242188 9.121094 10.628906 C 9.375 10.011719 9.6875 9.425781 10.058594 8.871094 C 10.429688 8.316406 10.851562 7.800781 11.324219 7.332031 C 11.792969 6.859375 12.308594 6.4375 12.863281 6.066406 C 13.417969 5.695312 14.003906 5.382812 14.621094 5.128906 C 15.234375 4.871094 15.871094 4.679688 16.527344 4.550781 C 17.179688 4.417969 17.839844 4.355469 18.507812 4.355469 C 19.175781 4.355469 19.835938 4.417969 20.488281 4.550781 C 21.144531 4.679688 21.78125 4.871094 22.394531 5.128906 C 23.011719 5.382812 23.597656 5.695312 24.152344 6.066406 C 24.707031 6.4375 25.222656 6.859375 25.691406 7.332031 C 26.164062 7.800781 26.585938 8.316406 26.957031 8.871094 C 27.328125 9.425781 27.640625 10.011719 27.894531 10.628906 C 28.152344 11.242188 28.34375 11.878906 28.472656 12.535156 C 28.605469 13.1875 28.667969 13.847656 28.667969 14.515625 Z M 28.667969 14.515625 " fill-opacity="1" fill-rule="nonzero"/></g><path fill="#cccccc" d="M 23.0625 23.023438 C 23.0625 23.058594 22.945312 23.09375 22.714844 23.125 C 22.484375 23.160156 22.15625 23.1875 21.726562 23.214844 C 21.300781 23.238281 20.808594 23.257812 20.25 23.273438 C 19.691406 23.285156 19.113281 23.292969 18.507812 23.292969 C 17.902344 23.292969 17.324219 23.285156 16.765625 23.273438 C 16.207031 23.257812 15.714844 23.238281 15.289062 23.214844 C 14.859375 23.1875 14.53125 23.160156 14.300781 23.125 C 14.070312 23.09375 13.953125 23.058594 13.953125 23.023438 C 13.953125 22.988281 14.070312 22.953125 14.300781 22.917969 C 14.53125 22.886719 14.859375 22.855469 15.289062 22.832031 C 15.714844 22.808594 16.207031 22.789062 16.765625 22.773438 C 17.324219 22.761719 17.902344 22.753906 18.507812 22.753906 C 19.113281 22.753906 19.691406 22.761719 20.25 22.773438 C 20.808594 22.789062 21.300781 22.808594 21.726562 22.832031 C 22.15625 22.855469 22.484375 22.886719 22.714844 22.917969 C 22.945312 22.953125 23.0625 22.988281 23.0625 23.023438 Z M 23.0625 23.023438 " fill-opacity="1" fill-rule="nonzero"/><path fill="#ffe4af" d="M 25.753906 19.460938 C 23.175781 19.460938 13.832031 19.460938 11.253906 19.460938 C 11.160156 19.460938 11.082031 19.382812 11.082031 19.289062 L 11.082031 10.058594 C 11.082031 9.960938 11.160156 9.882812 11.253906 9.882812 L 25.753906 9.882812 C 25.847656 9.882812 25.925781 9.960938 25.925781 10.058594 L 25.925781 19.289062 C 25.925781 19.382812 25.847656 19.460938 25.753906 19.460938 Z M 25.753906 19.460938 " fill-opacity="1" fill-rule="evenodd"/><path fill="#ff3e1a" d="M 11.082031 10.058594 L 11.082031 8.089844 C 11.082031 7.996094 11.160156 7.914062 11.253906 7.914062 L 25.753906 7.914062 C 25.847656 7.914062 25.925781 7.996094 25.925781 8.089844 L 25.925781 10.058594 Z M 11.082031 10.058594 " fill-opacity="1" fill-rule="evenodd"/><path fill="#333333" d="M 16.964844 9.449219 L 16.210938 9.449219 C 15.949219 9.449219 15.746094 9.25 15.746094 8.988281 C 15.746094 8.734375 15.949219 8.523438 16.210938 8.523438 L 16.964844 8.523438 C 17.21875 8.523438 17.429688 8.734375 17.429688 8.988281 C 17.429688 9.25 17.21875 9.449219 16.964844 9.449219 Z M 18.882812 9.449219 L 18.125 9.449219 C 17.871094 9.449219 17.664062 9.25 17.664062 8.988281 C 17.664062 8.734375 17.871094 8.523438 18.125 8.523438 L 18.882812 8.523438 C 19.144531 8.523438 19.34375 8.734375 19.34375 8.988281 C 19.34375 9.238281 19.144531 9.449219 18.882812 9.449219 Z M 20.796875 9.449219 L 20.050781 9.449219 C 19.789062 9.449219 19.578125 9.238281 19.578125 8.988281 C 19.578125 8.734375 19.789062 8.523438 20.050781 8.523438 L 20.796875 8.523438 C 21.058594 8.523438 21.269531 8.734375 21.269531 8.988281 C 21.269531 9.25 21.058594 9.449219 20.796875 9.449219 Z M 20.796875 9.449219 " fill-opacity="1" fill-rule="evenodd"/><path fill="#ffffff" d="M 16.964844 9.160156 L 16.210938 9.160156 C 16.113281 9.160156 16.035156 9.082031 16.035156 8.988281 C 16.035156 8.890625 16.113281 8.8125 16.210938 8.8125 L 16.964844 8.8125 C 17.0625 8.8125 17.140625 8.890625 17.140625 8.988281 C 17.140625 9.082031 17.0625 9.160156 16.964844 9.160156 Z M 16.964844 9.160156 " fill-opacity="1" fill-rule="evenodd"/><path fill="#ffffff" d="M 18.882812 9.160156 L 18.125 9.160156 C 18.027344 9.160156 17.949219 9.082031 17.949219 8.988281 C 17.949219 8.890625 18.027344 8.8125 18.125 8.8125 L 18.882812 8.8125 C 18.976562 8.8125 19.054688 8.890625 19.054688 8.988281 C 19.054688 9.082031 18.976562 9.160156 18.882812 9.160156 Z M 18.882812 9.160156 " fill-opacity="1" fill-rule="evenodd"/><path fill="#ffffff" d="M 20.796875 9.160156 L 20.050781 9.160156 C 19.953125 9.160156 19.875 9.082031 19.875 8.988281 C 19.875 8.890625 19.953125 8.8125 20.050781 8.8125 L 20.796875 8.8125 C 20.894531 8.8125 20.972656 8.890625 20.972656 8.988281 C 20.972656 9.082031 20.902344 9.160156 20.796875 9.160156 Z M 20.796875 9.160156 " fill-opacity="1" fill-rule="evenodd"/><path fill="#ffbf18" d="M 24.507812 21.117188 L 12.5 21.117188 C 12.402344 21.117188 12.324219 21.039062 12.324219 20.941406 L 12.324219 11.503906 C 12.324219 11.40625 12.402344 11.328125 12.5 11.328125 L 24.507812 11.328125 C 24.601562 11.328125 24.679688 11.40625 24.679688 11.503906 L 24.679688 20.941406 C 24.679688 21.039062 24.601562 21.117188 24.507812 21.117188 Z M 24.507812 21.117188 " fill-opacity="1" fill-rule="evenodd"/><path fill="#ffb218" d="M 18.097656 17.121094 L 15.894531 17.121094 C 15.800781 17.121094 15.722656 17.042969 15.722656 16.945312 L 15.722656 15.832031 C 15.722656 15.734375 15.800781 15.65625 15.894531 15.65625 L 18.097656 15.65625 C 18.203125 15.65625 18.273438 15.734375 18.273438 15.832031 L 18.273438 16.945312 C 18.273438 17.050781 18.203125 17.121094 18.097656 17.121094 Z M 18.097656 17.121094 " fill-opacity="1" fill-rule="evenodd"/><path fill="#ffb218" d="M 18.097656 15.125 L 15.894531 15.125 C 15.800781 15.125 15.722656 15.046875 15.722656 14.953125 L 15.722656 13.835938 C 15.722656 13.742188 15.800781 13.664062 15.894531 13.664062 L 18.097656 13.664062 C 18.203125 13.664062 18.273438 13.742188 18.273438 13.835938 L 18.273438 14.953125 C 18.273438 15.054688 18.203125 15.125 18.097656 15.125 Z M 18.097656 15.125 " fill-opacity="1" fill-rule="evenodd"/><path fill="#ffb218" d="M 23.15625 17.121094 L 19.101562 17.121094 C 19.003906 17.121094 18.925781 17.042969 18.925781 16.945312 L 18.925781 15.832031 C 18.925781 15.734375 19.003906 15.65625 19.101562 15.65625 L 23.15625 15.65625 C 23.253906 15.65625 23.332031 15.734375 23.332031 15.832031 L 23.332031 16.945312 C 23.332031 17.050781 23.253906 17.121094 23.15625 17.121094 Z M 23.15625 17.121094 " fill-opacity="1" fill-rule="evenodd"/><path fill="#ffb218" d="M 23.15625 15.125 L 19.101562 15.125 C 19.003906 15.125 18.925781 15.046875 18.925781 14.953125 L 18.925781 13.835938 C 18.925781 13.742188 19.003906 13.664062 19.101562 13.664062 L 23.15625 13.664062 C 23.253906 13.664062 23.332031 13.742188 23.332031 13.835938 L 23.332031 14.953125 C 23.332031 15.054688 23.253906 15.125 23.15625 15.125 Z M 23.15625 15.125 " fill-opacity="1" fill-rule="evenodd"/><path fill="#ffb218" d="M 20.535156 19.6875 L 18.054688 19.6875 C 17.960938 19.6875 17.882812 19.609375 17.882812 19.515625 L 17.882812 18.070312 C 17.882812 17.972656 17.960938 17.894531 18.054688 17.894531 L 20.535156 17.894531 C 20.632812 17.894531 20.710938 17.972656 20.710938 18.070312 L 20.710938 19.515625 C 20.710938 19.609375 20.632812 19.6875 20.535156 19.6875 Z M 20.535156 19.6875 " fill-opacity="1" fill-rule="evenodd"/><path fill="#ffb218" d="M 18.167969 18.191406 L 20.421875 18.191406 L 20.421875 19.402344 L 18.167969 19.402344 Z M 18.167969 18.191406 " fill-opacity="1" fill-rule="evenodd"/><path fill="#ffb218" d="M 21.945312 20.601562 C 21.867188 20.601562 21.800781 20.558594 21.78125 20.480469 L 21.207031 18.703125 C 21.191406 18.644531 21.207031 18.574219 21.25 18.53125 C 21.304688 18.476562 21.363281 18.460938 21.433594 18.488281 L 23.210938 19.050781 C 23.289062 19.078125 23.332031 19.148438 23.332031 19.226562 C 23.332031 19.304688 23.269531 19.375 23.191406 19.390625 L 22.3125 19.582031 L 22.113281 20.472656 C 22.09375 20.542969 22.035156 20.601562 21.957031 20.601562 C 21.957031 20.601562 21.945312 20.601562 21.945312 20.601562 Z M 21.945312 20.601562 " fill-opacity="1" fill-rule="evenodd"/><path fill="#333333" d="M 20.886719 12.808594 L 16.121094 12.808594 C 16.027344 12.808594 15.949219 12.730469 15.949219 12.636719 C 15.949219 12.539062 16.027344 12.460938 16.121094 12.460938 L 20.886719 12.460938 C 20.980469 12.460938 21.058594 12.539062 21.058594 12.636719 C 21.058594 12.730469 20.980469 12.808594 20.886719 12.808594 Z M 16.253906 19.3125 L 15.050781 19.3125 C 14.957031 19.3125 14.878906 19.234375 14.878906 19.140625 C 14.878906 19.042969 14.957031 18.964844 15.050781 18.964844 L 16.253906 18.964844 C 16.347656 18.964844 16.425781 19.042969 16.425781 19.140625 C 16.425781 19.234375 16.347656 19.3125 16.253906 19.3125 Z M 17.253906 20.148438 L 15.050781 20.148438 C 14.957031 20.148438 14.878906 20.070312 14.878906 19.976562 C 14.878906 19.878906 14.957031 19.800781 15.050781 19.800781 L 17.253906 19.800781 C 17.351562 19.800781 17.429688 19.878906 17.429688 19.976562 C 17.429688 20.070312 17.351562 20.148438 17.253906 20.148438 Z M 14.285156 19.3125 L 13.519531 19.3125 C 13.421875 19.3125 13.34375 19.234375 13.34375 19.140625 C 13.34375 19.042969 13.421875 18.964844 13.519531 18.964844 L 14.285156 18.964844 C 14.378906 18.964844 14.460938 19.042969 14.460938 19.140625 C 14.460938 19.234375 14.378906 19.3125 14.285156 19.3125 Z M 14.285156 20.148438 L 13.519531 20.148438 C 13.421875 20.148438 13.34375 20.070312 13.34375 19.976562 C 13.34375 19.878906 13.421875 19.800781 13.519531 19.800781 L 14.285156 19.800781 C 14.378906 19.800781 14.460938 19.878906 14.460938 19.976562 C 14.460938 20.070312 14.378906 20.148438 14.285156 20.148438 Z M 14.449219 16.726562 L 13.519531 16.726562 C 13.421875 16.726562 13.34375 16.648438 13.34375 16.554688 C 13.34375 16.457031 13.421875 16.378906 13.519531 16.378906 L 14.449219 16.378906 C 14.546875 16.378906 14.625 16.457031 14.625 16.554688 C 14.625 16.648438 14.546875 16.726562 14.449219 16.726562 Z M 15.128906 15.953125 L 13.519531 15.953125 C 13.421875 15.953125 13.34375 15.875 13.34375 15.777344 C 13.34375 15.683594 13.421875 15.605469 13.519531 15.605469 L 15.128906 15.605469 C 15.226562 15.605469 15.304688 15.683594 15.304688 15.777344 C 15.304688 15.875 15.226562 15.953125 15.128906 15.953125 Z M 14.449219 14.734375 L 13.519531 14.734375 C 13.421875 14.734375 13.34375 14.65625 13.34375 14.558594 C 13.34375 14.464844 13.421875 14.386719 13.519531 14.386719 L 14.449219 14.386719 C 14.546875 14.386719 14.625 14.464844 14.625 14.558594 C 14.625 14.65625 14.546875 14.734375 14.449219 14.734375 Z M 15.128906 13.957031 L 13.519531 13.957031 C 13.421875 13.957031 13.34375 13.878906 13.34375 13.785156 C 13.34375 13.6875 13.421875 13.609375 13.519531 13.609375 L 15.128906 13.609375 C 15.226562 13.609375 15.304688 13.6875 15.304688 13.785156 C 15.304688 13.878906 15.226562 13.957031 15.128906 13.957031 Z M 15.128906 13.957031 " fill-opacity="1" fill-rule="evenodd"/><path fill="#ffffff" d="M 18.332031 16.902344 L 16.121094 16.902344 C 16.027344 16.902344 15.949219 16.824219 15.949219 16.726562 L 15.949219 15.605469 C 15.949219 15.507812 16.027344 15.429688 16.121094 15.429688 L 18.332031 15.429688 C 18.429688 15.429688 18.507812 15.507812 18.507812 15.605469 L 18.507812 16.726562 C 18.507812 16.824219 18.429688 16.902344 18.332031 16.902344 Z M 18.332031 16.902344 " fill-opacity="1" fill-rule="evenodd"/><path fill="#ffffff" d="M 18.332031 14.90625 L 16.121094 14.90625 C 16.027344 14.90625 15.949219 14.828125 15.949219 14.734375 L 15.949219 13.609375 C 15.949219 13.515625 16.027344 13.4375 16.121094 13.4375 L 18.332031 13.4375 C 18.429688 13.4375 18.507812 13.515625 18.507812 13.609375 L 18.507812 14.734375 C 18.507812 14.828125 18.429688 14.90625 18.332031 14.90625 Z M 18.332031 14.90625 " fill-opacity="1" fill-rule="evenodd"/><path fill="#ffffff" d="M 23.394531 16.902344 L 19.328125 16.902344 C 19.238281 16.902344 19.152344 16.824219 19.152344 16.726562 L 19.152344 15.605469 C 19.152344 15.507812 19.238281 15.429688 19.328125 15.429688 L 23.382812 15.429688 C 23.480469 15.429688 23.558594 15.507812 23.558594 15.605469 L 23.558594 16.726562 C 23.566406 16.824219 23.488281 16.902344 23.394531 16.902344 Z M 23.394531 16.902344 " fill-opacity="1" fill-rule="evenodd"/><path fill="#ffffff" d="M 23.394531 14.90625 L 19.328125 14.90625 C 19.238281 14.90625 19.152344 14.828125 19.152344 14.734375 L 19.152344 13.609375 C 19.152344 13.515625 19.238281 13.4375 19.328125 13.4375 L 23.382812 13.4375 C 23.480469 13.4375 23.558594 13.515625 23.558594 13.609375 L 23.558594 14.734375 C 23.566406 14.828125 23.488281 14.90625 23.394531 14.90625 Z M 23.394531 14.90625 " fill-opacity="1" fill-rule="evenodd"/><path fill="#333333" d="M 20.761719 19.46875 L 18.28125 19.46875 C 18.1875 19.46875 18.105469 19.390625 18.105469 19.296875 L 18.105469 17.851562 C 18.105469 17.753906 18.1875 17.675781 18.28125 17.675781 L 20.761719 17.675781 C 20.859375 17.675781 20.9375 17.753906 20.9375 17.851562 L 20.9375 19.296875 C 20.9375 19.390625 20.859375 19.46875 20.761719 19.46875 Z M 20.761719 19.46875 " fill-opacity="1" fill-rule="evenodd"/><path fill="#75e147" d="M 18.402344 17.964844 L 20.648438 17.964844 L 20.648438 19.175781 L 18.402344 19.175781 Z M 18.402344 17.964844 " fill-opacity="1" fill-rule="evenodd"/><path fill="#1d81ce" d="M 22.171875 20.382812 C 22.105469 20.382812 22.035156 20.332031 22.007812 20.261719 L 21.441406 18.476562 C 21.425781 18.417969 21.441406 18.347656 21.484375 18.304688 C 21.527344 18.261719 21.597656 18.242188 21.660156 18.261719 L 23.445312 18.835938 C 23.515625 18.851562 23.566406 18.921875 23.558594 19.007812 C 23.558594 19.085938 23.503906 19.148438 23.425781 19.164062 L 22.539062 19.367188 L 22.347656 20.246094 C 22.332031 20.324219 22.261719 20.375 22.183594 20.382812 C 22.183594 20.382812 22.183594 20.382812 22.171875 20.382812 Z M 22.171875 20.382812 " fill-opacity="1" fill-rule="evenodd"/><g transform="matrix(1, 0, 0, 1, 14, 23)"><g clip-path="url(#93bedee4ca)"><g fill="#e6e6e6" fill-opacity="1"><g transform="translate(1.200114, 2.539984)"><g><path d="M 0.4375 0.015625 C 0.332031 0.015625 0.25 -0.0078125 0.1875 -0.0625 C 0.132812 -0.113281 0.109375 -0.191406 0.109375 -0.296875 C 0.109375 -0.359375 0.117188 -0.410156 0.140625 -0.453125 C 0.171875 -0.492188 0.210938 -0.523438 0.265625 -0.546875 C 0.316406 -0.578125 0.382812 -0.597656 0.46875 -0.609375 C 0.539062 -0.617188 0.597656 -0.628906 0.640625 -0.640625 C 0.679688 -0.660156 0.707031 -0.679688 0.71875 -0.703125 C 0.738281 -0.722656 0.75 -0.75 0.75 -0.78125 C 0.75 -0.832031 0.726562 -0.867188 0.6875 -0.890625 C 0.65625 -0.910156 0.601562 -0.921875 0.53125 -0.921875 C 0.46875 -0.921875 0.410156 -0.90625 0.359375 -0.875 C 0.316406 -0.851562 0.273438 -0.816406 0.234375 -0.765625 L 0.21875 -0.765625 L 0.140625 -0.875 C 0.179688 -0.9375 0.234375 -0.984375 0.296875 -1.015625 C 0.367188 -1.046875 0.445312 -1.0625 0.53125 -1.0625 C 0.65625 -1.0625 0.742188 -1.035156 0.796875 -0.984375 C 0.859375 -0.929688 0.890625 -0.859375 0.890625 -0.765625 L 0.890625 -0.203125 C 0.890625 -0.148438 0.914062 -0.125 0.96875 -0.125 C 0.988281 -0.125 1.003906 -0.125 1.015625 -0.125 L 1.03125 -0.125 L 1.046875 -0.015625 C 1.035156 -0.00390625 1.019531 0 1 0 C 0.976562 0 0.960938 0 0.953125 0 C 0.890625 0 0.84375 -0.0078125 0.8125 -0.03125 C 0.78125 -0.0507812 0.765625 -0.0859375 0.765625 -0.140625 L 0.734375 -0.140625 C 0.710938 -0.0859375 0.675781 -0.046875 0.625 -0.015625 C 0.570312 0.00390625 0.507812 0.015625 0.4375 0.015625 Z M 0.46875 -0.109375 C 0.519531 -0.109375 0.566406 -0.117188 0.609375 -0.140625 C 0.648438 -0.171875 0.679688 -0.207031 0.703125 -0.25 C 0.734375 -0.300781 0.75 -0.359375 0.75 -0.421875 L 0.75 -0.5625 L 0.734375 -0.5625 C 0.703125 -0.539062 0.671875 -0.523438 0.640625 -0.515625 C 0.609375 -0.503906 0.5625 -0.492188 0.5 -0.484375 C 0.4375 -0.484375 0.390625 -0.472656 0.359375 -0.453125 C 0.328125 -0.429688 0.300781 -0.40625 0.28125 -0.375 C 0.269531 -0.351562 0.265625 -0.328125 0.265625 -0.296875 C 0.265625 -0.234375 0.28125 -0.1875 0.3125 -0.15625 C 0.351562 -0.125 0.40625 -0.109375 0.46875 -0.109375 Z M 0.46875 -0.109375 "/></g></g><g transform="translate(2.278429, 2.539984)"><g><path d="M 0.6875 0.015625 C 0.613281 0.015625 0.546875 0.00390625 0.484375 -0.015625 C 0.429688 -0.046875 0.390625 -0.0859375 0.359375 -0.140625 L 0.328125 -0.140625 L 0.328125 0 L 0.1875 0 L 0.1875 -1.46875 L 0.328125 -1.46875 L 0.328125 -0.890625 L 0.359375 -0.890625 C 0.429688 -1.003906 0.546875 -1.0625 0.703125 -1.0625 C 0.785156 -1.0625 0.859375 -1.039062 0.921875 -1 C 0.992188 -0.957031 1.046875 -0.894531 1.078125 -0.8125 C 1.109375 -0.738281 1.125 -0.640625 1.125 -0.515625 C 1.125 -0.398438 1.101562 -0.300781 1.0625 -0.21875 C 1.03125 -0.132812 0.984375 -0.0703125 0.921875 -0.03125 C 0.859375 0 0.78125 0.015625 0.6875 0.015625 Z M 0.65625 -0.125 C 0.863281 -0.125 0.96875 -0.253906 0.96875 -0.515625 C 0.96875 -0.660156 0.941406 -0.765625 0.890625 -0.828125 C 0.835938 -0.890625 0.757812 -0.921875 0.65625 -0.921875 C 0.5625 -0.921875 0.484375 -0.882812 0.421875 -0.8125 C 0.359375 -0.75 0.328125 -0.648438 0.328125 -0.515625 C 0.328125 -0.378906 0.359375 -0.28125 0.421875 -0.21875 C 0.484375 -0.15625 0.5625 -0.125 0.65625 -0.125 Z M 0.65625 -0.125 "/></g></g><g transform="translate(3.522131, 2.539984)"><g><path d="M 0.1875 0 L 0.1875 -1.046875 L 0.328125 -1.046875 L 0.328125 -0.875 L 0.34375 -0.875 C 0.394531 -0.988281 0.488281 -1.046875 0.625 -1.046875 C 0.695312 -1.046875 0.75 -1.035156 0.78125 -1.015625 L 0.75 -0.890625 L 0.71875 -0.875 C 0.6875 -0.894531 0.644531 -0.90625 0.59375 -0.90625 C 0.507812 -0.90625 0.441406 -0.875 0.390625 -0.8125 C 0.347656 -0.75 0.328125 -0.648438 0.328125 -0.515625 L 0.328125 0 Z M 0.1875 0 "/></g></g></g><g fill="#e6e6e6" fill-opacity="1"><g transform="translate(4.299916, 2.539984)"><g><path d="M 0.59375 0.015625 C 0.5 0.015625 0.414062 -0.00390625 0.34375 -0.046875 C 0.269531 -0.0859375 0.210938 -0.144531 0.171875 -0.21875 C 0.128906 -0.300781 0.109375 -0.398438 0.109375 -0.515625 C 0.109375 -0.628906 0.128906 -0.726562 0.171875 -0.8125 C 0.210938 -0.894531 0.269531 -0.957031 0.34375 -1 C 0.414062 -1.039062 0.5 -1.0625 0.59375 -1.0625 C 0.695312 -1.0625 0.785156 -1.039062 0.859375 -1 C 0.929688 -0.957031 0.984375 -0.894531 1.015625 -0.8125 C 1.054688 -0.726562 1.078125 -0.628906 1.078125 -0.515625 C 1.078125 -0.398438 1.054688 -0.300781 1.015625 -0.21875 C 0.984375 -0.144531 0.929688 -0.0859375 0.859375 -0.046875 C 0.785156 -0.00390625 0.695312 0.015625 0.59375 0.015625 Z M 0.59375 -0.125 C 0.695312 -0.125 0.773438 -0.15625 0.828125 -0.21875 C 0.890625 -0.28125 0.921875 -0.378906 0.921875 -0.515625 C 0.921875 -0.660156 0.890625 -0.765625 0.828125 -0.828125 C 0.773438 -0.890625 0.695312 -0.921875 0.59375 -0.921875 C 0.488281 -0.921875 0.410156 -0.890625 0.359375 -0.828125 C 0.304688 -0.765625 0.28125 -0.660156 0.28125 -0.515625 C 0.28125 -0.378906 0.304688 -0.28125 0.359375 -0.21875 C 0.410156 -0.15625 0.488281 -0.125 0.59375 -0.125 Z M 0.59375 -0.125 "/></g></g><g transform="translate(5.496364, 2.539984)"><g><path d="M 0.4375 0.015625 C 0.332031 0.015625 0.25 -0.0078125 0.1875 -0.0625 C 0.132812 -0.113281 0.109375 -0.191406 0.109375 -0.296875 C 0.109375 -0.359375 0.117188 -0.410156 0.140625 -0.453125 C 0.171875 -0.492188 0.210938 -0.523438 0.265625 -0.546875 C 0.316406 -0.578125 0.382812 -0.597656 0.46875 -0.609375 C 0.539062 -0.617188 0.597656 -0.628906 0.640625 -0.640625 C 0.679688 -0.660156 0.707031 -0.679688 0.71875 -0.703125 C 0.738281 -0.722656 0.75 -0.75 0.75 -0.78125 C 0.75 -0.832031 0.726562 -0.867188 0.6875 -0.890625 C 0.65625 -0.910156 0.601562 -0.921875 0.53125 -0.921875 C 0.46875 -0.921875 0.410156 -0.90625 0.359375 -0.875 C 0.316406 -0.851562 0.273438 -0.816406 0.234375 -0.765625 L 0.21875 -0.765625 L 0.140625 -0.875 C 0.179688 -0.9375 0.234375 -0.984375 0.296875 -1.015625 C 0.367188 -1.046875 0.445312 -1.0625 0.53125 -1.0625 C 0.65625 -1.0625 0.742188 -1.035156 0.796875 -0.984375 C 0.859375 -0.929688 0.890625 -0.859375 0.890625 -0.765625 L 0.890625 -0.203125 C 0.890625 -0.148438 0.914062 -0.125 0.96875 -0.125 C 0.988281 -0.125 1.003906 -0.125 1.015625 -0.125 L 1.03125 -0.125 L 1.046875 -0.015625 C 1.035156 -0.00390625 1.019531 0 1 0 C 0.976562 0 0.960938 0 0.953125 0 C 0.890625 0 0.84375 -0.0078125 0.8125 -0.03125 C 0.78125 -0.0507812 0.765625 -0.0859375 0.765625 -0.140625 L 0.734375 -0.140625 C 0.710938 -0.0859375 0.675781 -0.046875 0.625 -0.015625 C 0.570312 0.00390625 0.507812 0.015625 0.4375 0.015625 Z M 0.46875 -0.109375 C 0.519531 -0.109375 0.566406 -0.117188 0.609375 -0.140625 C 0.648438 -0.171875 0.679688 -0.207031 0.703125 -0.25 C 0.734375 -0.300781 0.75 -0.359375 0.75 -0.421875 L 0.75 -0.5625 L 0.734375 -0.5625 C 0.703125 -0.539062 0.671875 -0.523438 0.640625 -0.515625 C 0.609375 -0.503906 0.5625 -0.492188 0.5 -0.484375 C 0.4375 -0.484375 0.390625 -0.472656 0.359375 -0.453125 C 0.328125 -0.429688 0.300781 -0.40625 0.28125 -0.375 C 0.269531 -0.351562 0.265625 -0.328125 0.265625 -0.296875 C 0.265625 -0.234375 0.28125 -0.1875 0.3125 -0.15625 C 0.351562 -0.125 0.40625 -0.109375 0.46875 -0.109375 Z M 0.46875 -0.109375 "/></g></g><g transform="translate(6.57468, 2.539984)"><g><path d="M 0.546875 0.015625 C 0.460938 0.015625 0.382812 0 0.3125 -0.03125 C 0.25 -0.0703125 0.195312 -0.132812 0.15625 -0.21875 C 0.125 -0.300781 0.109375 -0.398438 0.109375 -0.515625 C 0.109375 -0.640625 0.128906 -0.738281 0.171875 -0.8125 C 0.210938 -0.894531 0.265625 -0.957031 0.328125 -1 C 0.390625 -1.039062 0.46875 -1.0625 0.5625 -1.0625 C 0.625 -1.0625 0.679688 -1.046875 0.734375 -1.015625 C 0.796875 -0.992188 0.847656 -0.953125 0.890625 -0.890625 L 0.90625 -0.90625 L 0.90625 -1.46875 L 1.0625 -1.46875 L 1.0625 0 L 0.90625 0 L 0.90625 -0.15625 L 0.890625 -0.15625 C 0.859375 -0.101562 0.8125 -0.0625 0.75 -0.03125 C 0.6875 0 0.617188 0.015625 0.546875 0.015625 Z M 0.59375 -0.125 C 0.6875 -0.125 0.757812 -0.15625 0.8125 -0.21875 C 0.875 -0.28125 0.90625 -0.378906 0.90625 -0.515625 C 0.90625 -0.648438 0.875 -0.75 0.8125 -0.8125 C 0.757812 -0.882812 0.6875 -0.921875 0.59375 -0.921875 C 0.488281 -0.921875 0.410156 -0.890625 0.359375 -0.828125 C 0.304688 -0.765625 0.28125 -0.660156 0.28125 -0.515625 C 0.28125 -0.253906 0.382812 -0.125 0.59375 -0.125 Z M 0.59375 -0.125 "/></g></g></g></g></g></svg>