<svg xmlns="http://www.w3.org/2000/svg" xmlns:xlink="http://www.w3.org/1999/xlink" width="50" zoomAndPan="magnify" viewBox="0 0 37.5 30.000001" height="40" preserveAspectRatio="xMidYMid meet" version="1.0"><defs><g/><clipPath id="a540a2b55c"><path d="M 5.1875 1.195312 L 31.828125 1.195312 L 31.828125 27.835938 L 5.1875 27.835938 Z M 5.1875 1.195312 " clip-rule="nonzero"/></clipPath><clipPath id="b3a808499c"><path d="M 18.507812 1.195312 C 11.152344 1.195312 5.1875 7.160156 5.1875 14.515625 C 5.1875 21.871094 11.152344 27.835938 18.507812 27.835938 C 25.863281 27.835938 31.828125 21.871094 31.828125 14.515625 C 31.828125 7.160156 25.863281 1.195312 18.507812 1.195312 Z M 18.507812 1.195312 " clip-rule="nonzero"/></clipPath><clipPath id="a26f41b08b"><path d="M 0.1875 0.195312 L 26.828125 0.195312 L 26.828125 26.835938 L 0.1875 26.835938 Z M 0.1875 0.195312 " clip-rule="nonzero"/></clipPath><clipPath id="f6c652d3c1"><path d="M 13.507812 0.195312 C 6.152344 0.195312 0.1875 6.160156 0.1875 13.515625 C 0.1875 20.871094 6.152344 26.835938 13.507812 26.835938 C 20.863281 26.835938 26.828125 20.871094 26.828125 13.515625 C 26.828125 6.160156 20.863281 0.195312 13.507812 0.195312 Z M 13.507812 0.195312 " clip-rule="nonzero"/></clipPath><clipPath id="ada04bfc80"><rect x="0" width="27" y="0" height="27"/></clipPath><clipPath id="7514613563"><path d="M 22 12 L 27.726562 12 L 27.726562 21 L 22 21 Z M 22 12 " clip-rule="nonzero"/></clipPath><clipPath id="765c0817fe"><path d="M 21 11 L 27.726562 11 L 27.726562 13 L 21 13 Z M 21 11 " clip-rule="nonzero"/></clipPath><clipPath id="95b844f1bb"><path d="M 9.582031 11 L 16 11 L 16 13 L 9.582031 13 Z M 9.582031 11 " clip-rule="nonzero"/></clipPath><clipPath id="3ed494a661"><path d="M 15 7.332031 L 23 7.332031 L 23 12 L 15 12 Z M 15 7.332031 " clip-rule="nonzero"/></clipPath><clipPath id="608d880180"><path d="M 22 16 L 27.726562 16 L 27.726562 17 L 22 17 Z M 22 16 " clip-rule="nonzero"/></clipPath><clipPath id="71ae45fe04"><path d="M 9.582031 21 L 27.726562 21 L 27.726562 21.847656 L 9.582031 21.847656 Z M 9.582031 21 " clip-rule="nonzero"/></clipPath><clipPath id="4cd6db8b78"><path d="M 10 12 L 27.726562 12 L 27.726562 21.847656 L 10 21.847656 Z M 10 12 " clip-rule="nonzero"/></clipPath><clipPath id="132ee28e33"><path d="M 13 20 L 24 20 L 24 21.847656 L 13 21.847656 Z M 13 20 " clip-rule="nonzero"/></clipPath><clipPath id="9d8b7e4976"><path d="M 9.582031 20 L 27.726562 20 L 27.726562 21.847656 L 9.582031 21.847656 Z M 9.582031 20 " clip-rule="nonzero"/></clipPath><clipPath id="cf08665521"><path d="M 12 11 L 25 11 L 25 21.847656 L 12 21.847656 Z M 12 11 " clip-rule="nonzero"/></clipPath><clipPath id="619259337b"><path d="M 22 16 L 27.726562 16 L 27.726562 18 L 22 18 Z M 22 16 " clip-rule="nonzero"/></clipPath><clipPath id="2d67f24f93"><path d="M 10 7.332031 L 27 7.332031 L 27 16 L 10 16 Z M 10 7.332031 " clip-rule="nonzero"/></clipPath><clipPath id="a9a2ba242b"><path d="M 9.582031 7.332031 L 21 7.332031 L 21 18 L 9.582031 18 Z M 9.582031 7.332031 " clip-rule="nonzero"/></clipPath><clipPath id="e290731dae"><path d="M 17 7.332031 L 27.726562 7.332031 L 27.726562 18 L 17 18 Z M 17 7.332031 " clip-rule="nonzero"/></clipPath><clipPath id="0b0209e081"><path d="M 0.480469 1 L 4 1 L 4 3.96875 L 0.480469 3.96875 Z M 0.480469 1 " clip-rule="nonzero"/></clipPath><clipPath id="fdb2a75e88"><path d="M 3 1 L 7 1 L 7 3.96875 L 3 3.96875 Z M 3 1 " clip-rule="nonzero"/></clipPath><clipPath id="556fcedde6"><rect x="0" width="8" y="0" height="4"/></clipPath></defs><g clip-path="url(#a540a2b55c)"><g clip-path="url(#b3a808499c)"><g transform="matrix(1, 0, 0, 1, 5, 1)"><g clip-path="url(#ada04bfc80)"><g clip-path="url(#a26f41b08b)"><g clip-path="url(#f6c652d3c1)"><path fill="#d9beff" d="M 0.1875 0.195312 L 26.828125 0.195312 L 26.828125 26.835938 L 0.1875 26.835938 Z M 0.1875 0.195312 " fill-opacity="1" fill-rule="nonzero"/></g></g></g></g></g></g><path fill="#cfcfcf" d="M 14.542969 12.996094 L 22.769531 12.996094 L 22.769531 20.34375 L 14.542969 20.34375 Z M 14.542969 12.996094 " fill-opacity="1" fill-rule="nonzero"/><g clip-path="url(#7514613563)"><path fill="#57a4db" d="M 22.769531 12.996094 L 27.089844 12.996094 L 27.089844 21 L 22.769531 21 Z M 22.769531 12.996094 " fill-opacity="1" fill-rule="nonzero"/></g><g clip-path="url(#765c0817fe)"><path fill="#e48c5e" d="M 21.765625 11.574219 L 27.023438 11.574219 L 27.503906 12.996094 L 21.765625 12.996094 Z M 21.765625 11.574219 " fill-opacity="1" fill-rule="nonzero"/></g><path fill="#ffffff" d="M 25.308594 14 L 25.90625 14 L 25.90625 15.390625 L 25.308594 15.390625 Z M 25.308594 14 " fill-opacity="1" fill-rule="nonzero"/><path fill="#ffffff" d="M 23.953125 14 L 24.550781 14 L 24.550781 15.390625 L 23.953125 15.390625 Z M 23.953125 14 " fill-opacity="1" fill-rule="nonzero"/><path fill="#ffffff" d="M 25.308594 17.941406 L 25.90625 17.941406 L 25.90625 19.335938 L 25.308594 19.335938 Z M 25.308594 17.941406 " fill-opacity="1" fill-rule="nonzero"/><path fill="#ffffff" d="M 23.953125 17.941406 L 24.550781 17.941406 L 24.550781 19.335938 L 23.953125 19.335938 Z M 23.953125 17.941406 " fill-opacity="1" fill-rule="nonzero"/><path fill="#57a4db" d="M 10.21875 12.996094 L 14.542969 12.996094 L 14.542969 21 L 10.21875 21 Z M 10.21875 12.996094 " fill-opacity="1" fill-rule="nonzero"/><g clip-path="url(#95b844f1bb)"><path fill="#e48c5e" d="M 15.542969 11.574219 L 10.289062 11.574219 L 9.808594 12.996094 L 15.542969 12.996094 Z M 15.542969 11.574219 " fill-opacity="1" fill-rule="nonzero"/></g><g clip-path="url(#3ed494a661)"><path fill="#e48c5e" d="M 15.042969 11.128906 L 15.042969 9.972656 L 18.65625 7.542969 L 22.265625 9.972656 L 22.265625 11.128906 Z M 15.042969 11.128906 " fill-opacity="1" fill-rule="nonzero"/></g><path fill="#57a4db" d="M 15.542969 11.128906 L 21.765625 11.128906 L 21.765625 12.019531 L 15.542969 12.019531 Z M 15.542969 11.128906 " fill-opacity="1" fill-rule="nonzero"/><path fill="#ffffff" d="M 14 12.019531 L 23.308594 12.019531 L 23.308594 13.523438 L 14 13.523438 Z M 14 12.019531 " fill-opacity="1" fill-rule="nonzero"/><path fill="#cfcfcf" d="M 14.363281 13.523438 L 15.925781 13.523438 L 15.925781 14.027344 L 14.363281 14.027344 Z M 14.363281 13.523438 " fill-opacity="1" fill-rule="nonzero"/><path fill="#e48c5e" d="M 14.542969 14.027344 L 15.746094 14.027344 L 15.746094 19.839844 L 14.542969 19.839844 Z M 14.542969 14.027344 " fill-opacity="1" fill-rule="nonzero"/><path fill="#cfcfcf" d="M 14.363281 19.839844 L 15.925781 19.839844 L 15.925781 20.34375 L 14.363281 20.34375 Z M 14.363281 19.839844 " fill-opacity="1" fill-rule="nonzero"/><path fill="#cfcfcf" d="M 21.382812 13.523438 L 22.949219 13.523438 L 22.949219 14.027344 L 21.382812 14.027344 Z M 21.382812 13.523438 " fill-opacity="1" fill-rule="nonzero"/><path fill="#e48c5e" d="M 21.5625 14.027344 L 22.765625 14.027344 L 22.765625 19.839844 L 21.5625 19.839844 Z M 21.5625 14.027344 " fill-opacity="1" fill-rule="nonzero"/><path fill="#cfcfcf" d="M 21.382812 19.839844 L 22.949219 19.839844 L 22.949219 20.34375 L 21.382812 20.34375 Z M 21.382812 19.839844 " fill-opacity="1" fill-rule="nonzero"/><path fill="#cfcfcf" d="M 10.21875 16.394531 L 14.542969 16.394531 L 14.542969 16.933594 L 10.21875 16.933594 Z M 10.21875 16.394531 " fill-opacity="1" fill-rule="nonzero"/><g clip-path="url(#608d880180)"><path fill="#cfcfcf" d="M 22.769531 16.394531 L 27.089844 16.394531 L 27.089844 16.933594 L 22.769531 16.933594 Z M 22.769531 16.394531 " fill-opacity="1" fill-rule="nonzero"/></g><path fill="#ffffff" d="M 11.40625 14 L 12.003906 14 L 12.003906 15.390625 L 11.40625 15.390625 Z M 11.40625 14 " fill-opacity="1" fill-rule="nonzero"/><path fill="#ffffff" d="M 12.757812 14 L 13.355469 14 L 13.355469 15.390625 L 12.757812 15.390625 Z M 12.757812 14 " fill-opacity="1" fill-rule="nonzero"/><path fill="#ffffff" d="M 11.40625 17.941406 L 12.003906 17.941406 L 12.003906 19.335938 L 11.40625 19.335938 Z M 11.40625 17.941406 " fill-opacity="1" fill-rule="nonzero"/><path fill="#ffffff" d="M 12.757812 17.941406 L 13.355469 17.941406 L 13.355469 19.335938 L 12.757812 19.335938 Z M 12.757812 17.941406 " fill-opacity="1" fill-rule="nonzero"/><path fill="#cfcfcf" d="M 13.808594 20.34375 L 23.503906 20.34375 L 23.503906 21 L 13.808594 21 Z M 13.808594 20.34375 " fill-opacity="1" fill-rule="nonzero"/><g clip-path="url(#71ae45fe04)"><path fill="#57a4db" d="M 9.808594 21 L 27.503906 21 L 27.503906 21.65625 L 9.808594 21.65625 Z M 9.808594 21 " fill-opacity="1" fill-rule="nonzero"/></g><path fill="#57a4db" d="M 18 16.394531 L 19.308594 16.394531 C 19.503906 16.394531 19.671875 16.460938 19.808594 16.601562 C 19.949219 16.738281 20.015625 16.902344 20.015625 17.097656 L 20.015625 20.34375 L 17.292969 20.34375 L 17.292969 17.097656 C 17.292969 16.902344 17.363281 16.738281 17.5 16.601562 C 17.640625 16.460938 17.804688 16.394531 18 16.394531 Z M 18 16.394531 " fill-opacity="1" fill-rule="nonzero"/><path fill="#ffffff" d="M 19.191406 14.890625 C 19.191406 15.035156 19.136719 15.160156 19.035156 15.265625 C 18.929688 15.367188 18.800781 15.421875 18.65625 15.421875 C 18.507812 15.421875 18.378906 15.367188 18.277344 15.265625 C 18.171875 15.160156 18.121094 15.035156 18.121094 14.890625 C 18.121094 14.742188 18.171875 14.617188 18.277344 14.511719 C 18.378906 14.410156 18.507812 14.355469 18.65625 14.355469 C 18.800781 14.355469 18.929688 14.410156 19.035156 14.511719 C 19.136719 14.617188 19.191406 14.742188 19.191406 14.890625 Z M 19.191406 14.890625 " fill-opacity="1" fill-rule="nonzero"/><path stroke-linecap="butt" transform="matrix(0.160861, 0, 0, 0.159871, 9.003587, 5.228814)" fill="none" stroke-linejoin="miter" d="M 33.31872 51.883209 L 43.032054 51.883209 L 43.032054 55.035163 L 33.31872 55.035163 Z M 33.31872 51.883209 " stroke="#000000" stroke-width="2" stroke-opacity="1" stroke-miterlimit="10"/><path stroke-linecap="butt" transform="matrix(0.160861, 0, 0, 0.159871, 9.003587, 5.228814)" fill="none" stroke-linejoin="miter" d="M 76.955871 51.883209 L 86.693488 51.883209 L 86.693488 55.035163 L 76.955871 55.035163 Z M 76.955871 51.883209 " stroke="#000000" stroke-width="2" stroke-opacity="1" stroke-miterlimit="10"/><path stroke-linecap="butt" transform="matrix(0.160861, 0, 0, 0.159871, 9.003587, 5.228814)" fill="none" stroke-linejoin="miter" d="M 33.31872 91.39259 L 43.032054 91.39259 L 43.032054 94.544545 L 33.31872 94.544545 Z M 33.31872 91.39259 " stroke="#000000" stroke-width="2" stroke-opacity="1" stroke-miterlimit="10"/><path stroke-linecap="butt" transform="matrix(0.160861, 0, 0, 0.159871, 9.003587, 5.228814)" fill="none" stroke-linejoin="miter" d="M 31.06037 42.476213 L 88.927554 42.476213 L 88.927554 51.883209 L 31.06037 51.883209 Z M 31.06037 42.476213 " stroke="#000000" stroke-width="2" stroke-opacity="1" stroke-miterlimit="10"/><path stroke-linecap="butt" transform="matrix(0.160861, 0, 0, 0.159871, 9.003587, 5.228814)" fill="none" stroke-linejoin="miter" d="M 40.652287 36.905317 L 79.335638 36.905317 L 79.335638 42.476213 L 40.652287 42.476213 Z M 40.652287 36.905317 " stroke="#000000" stroke-width="2" stroke-opacity="1" stroke-miterlimit="10"/><path stroke-linecap="butt" transform="matrix(0.160861, 0, 0, 0.159871, 9.003587, 5.228814)" fill="none" stroke-linejoin="miter" d="M 76.955871 91.39259 L 86.693488 91.39259 L 86.693488 94.544545 L 76.955871 94.544545 Z M 76.955871 91.39259 " stroke="#000000" stroke-width="2" stroke-opacity="1" stroke-miterlimit="10"/><path stroke-linecap="butt" transform="matrix(0.160861, 0, 0, 0.159871, 9.003587, 5.228814)" fill="none" stroke-linejoin="miter" d="M 34.435753 55.035163 L 41.91502 55.035163 L 41.91502 91.39259 L 34.435753 91.39259 Z M 34.435753 55.035163 " stroke="#000000" stroke-width="2" stroke-opacity="1" stroke-miterlimit="10"/><path stroke-linecap="butt" transform="matrix(0.160861, 0, 0, 0.159871, 9.003587, 5.228814)" fill="none" stroke-linejoin="miter" d="M 78.072904 55.035163 L 85.552171 55.035163 L 85.552171 91.39259 L 78.072904 91.39259 Z M 78.072904 55.035163 " stroke="#000000" stroke-width="2" stroke-opacity="1" stroke-miterlimit="10"/><g clip-path="url(#4cd6db8b78)"><path stroke-linecap="butt" transform="matrix(0.160861, 0, 0, 0.159871, 9.003587, 5.228814)" fill="none" stroke-linejoin="miter" d="M 31.06037 48.584652 L 7.578386 48.584652 L 7.578386 98.649415 L 112.433822 98.649415 L 112.433822 48.584652 L 88.927554 48.584652 " stroke="#000000" stroke-width="2" stroke-opacity="1" stroke-miterlimit="10"/></g><g clip-path="url(#132ee28e33)"><path stroke-linecap="butt" transform="matrix(0.160861, 0, 0, 0.159871, 9.003587, 5.228814)" fill="none" stroke-linejoin="miter" d="M 29.870487 94.544545 L 90.141721 94.544545 L 90.141721 98.649415 L 29.870487 98.649415 Z M 29.870487 94.544545 " stroke="#000000" stroke-width="2" stroke-opacity="1" stroke-miterlimit="10"/></g><g clip-path="url(#9d8b7e4976)"><path stroke-linecap="butt" transform="matrix(0.160861, 0, 0, 0.159871, 9.003587, 5.228814)" fill="none" stroke-linejoin="miter" d="M 5.004353 98.649415 L 115.007855 98.649415 L 115.007855 102.754286 L 5.004353 102.754286 Z M 5.004353 98.649415 " stroke="#000000" stroke-width="2" stroke-opacity="1" stroke-miterlimit="10"/></g><g clip-path="url(#cf08665521)"><path stroke-linecap="butt" transform="matrix(0.160861, 0, 0, 0.159871, 9.003587, 5.228814)" fill="none" stroke-linejoin="miter" d="M 55.90222 69.842019 L 64.085704 69.842019 C 65.299871 69.842019 66.319771 70.257392 67.193971 71.112574 C 68.043887 71.967755 68.456704 73.018407 68.456704 74.215661 L 68.456704 94.544545 L 51.53122 94.544545 L 51.53122 74.215661 C 51.53122 73.018407 51.96832 71.967755 52.818237 71.112574 C 53.668154 70.257392 54.712337 69.842019 55.90222 69.842019 Z M 55.90222 69.842019 " stroke="#000000" stroke-width="2" stroke-opacity="1" stroke-miterlimit="10"/></g><path stroke-linecap="butt" transform="matrix(0.160861, 0, 0, 0.159871, 9.003587, 5.228814)" fill="none" stroke-linejoin="miter" d="M 63.332921 60.435023 C 63.332921 61.339072 62.992954 62.120952 62.361587 62.780663 C 61.705937 63.415941 60.904587 63.758014 60.006104 63.758014 C 59.083337 63.758014 58.281987 63.415941 57.65062 62.780663 C 56.99497 62.120952 56.679287 61.339072 56.679287 60.435023 C 56.679287 59.50654 56.99497 58.72466 57.65062 58.064949 C 58.281987 57.429671 59.083337 57.087599 60.006104 57.087599 C 60.904587 57.087599 61.705937 57.429671 62.361587 58.064949 C 62.992954 58.72466 63.332921 59.50654 63.332921 60.435023 Z M 63.332921 60.435023 " stroke="#000000" stroke-width="2" stroke-opacity="1" stroke-miterlimit="10"/><path stroke-linecap="butt" transform="matrix(0.160861, 0, 0, 0.159871, 9.003587, 5.228814)" fill="none" stroke-linejoin="miter" d="M 14.936236 54.864127 L 18.651586 54.864127 L 18.651586 63.562544 L 14.936236 63.562544 Z M 14.936236 54.864127 " stroke="#000000" stroke-width="2" stroke-opacity="1" stroke-miterlimit="10"/><path stroke-linecap="butt" transform="matrix(0.160861, 0, 0, 0.159871, 9.003587, 5.228814)" fill="none" stroke-linejoin="miter" d="M 23.33827 54.864127 L 27.05362 54.864127 L 27.05362 63.562544 L 23.33827 63.562544 Z M 23.33827 54.864127 " stroke="#000000" stroke-width="2" stroke-opacity="1" stroke-miterlimit="10"/><path stroke-linecap="butt" transform="matrix(0.160861, 0, 0, 0.159871, 9.003587, 5.228814)" fill="none" stroke-linejoin="miter" d="M 7.554103 69.842019 L 34.435753 69.842019 L 34.435753 73.213877 L 7.554103 73.213877 Z M 7.554103 69.842019 " stroke="#000000" stroke-width="2" stroke-opacity="1" stroke-miterlimit="10"/><g clip-path="url(#619259337b)"><path stroke-linecap="butt" transform="matrix(0.160861, 0, 0, 0.159871, 9.003587, 5.228814)" fill="none" stroke-linejoin="miter" d="M 85.552171 69.842019 L 112.433822 69.842019 L 112.433822 73.213877 L 85.552171 73.213877 Z M 85.552171 69.842019 " stroke="#000000" stroke-width="2" stroke-opacity="1" stroke-miterlimit="10"/></g><path stroke-linecap="butt" transform="matrix(0.160861, 0, 0, 0.159871, 9.003587, 5.228814)" fill="none" stroke-linejoin="miter" d="M 14.936236 79.517785 L 18.651586 79.517785 L 18.651586 88.240636 L 14.936236 88.240636 Z M 14.936236 79.517785 " stroke="#000000" stroke-width="2" stroke-opacity="1" stroke-miterlimit="10"/><path stroke-linecap="butt" transform="matrix(0.160861, 0, 0, 0.159871, 9.003587, 5.228814)" fill="none" stroke-linejoin="miter" d="M 23.33827 79.517785 L 27.05362 79.517785 L 27.05362 88.240636 L 23.33827 88.240636 Z M 23.33827 79.517785 " stroke="#000000" stroke-width="2" stroke-opacity="1" stroke-miterlimit="10"/><path stroke-linecap="butt" transform="matrix(0.160861, 0, 0, 0.159871, 9.003587, 5.228814)" fill="none" stroke-linejoin="miter" d="M 92.934305 79.517785 L 96.649655 79.517785 L 96.649655 88.240636 L 92.934305 88.240636 Z M 92.934305 79.517785 " stroke="#000000" stroke-width="2" stroke-opacity="1" stroke-miterlimit="10"/><path stroke-linecap="butt" transform="matrix(0.160861, 0, 0, 0.159871, 9.003587, 5.228814)" fill="none" stroke-linejoin="miter" d="M 101.336338 79.517785 L 105.051688 79.517785 L 105.051688 88.240636 L 101.336338 88.240636 Z M 101.336338 79.517785 " stroke="#000000" stroke-width="2" stroke-opacity="1" stroke-miterlimit="10"/><path stroke-linecap="butt" transform="matrix(0.160861, 0, 0, 0.159871, 9.003587, 5.228814)" fill="none" stroke-linejoin="miter" d="M 92.934305 54.864127 L 96.649655 54.864127 L 96.649655 63.562544 L 92.934305 63.562544 Z M 92.934305 54.864127 " stroke="#000000" stroke-width="2" stroke-opacity="1" stroke-miterlimit="10"/><path stroke-linecap="butt" transform="matrix(0.160861, 0, 0, 0.159871, 9.003587, 5.228814)" fill="none" stroke-linejoin="miter" d="M 101.336338 54.864127 L 105.051688 54.864127 L 105.051688 63.562544 L 101.336338 63.562544 Z M 101.336338 54.864127 " stroke="#000000" stroke-width="2" stroke-opacity="1" stroke-miterlimit="10"/><g clip-path="url(#2d67f24f93)"><path stroke-linecap="butt" transform="matrix(0.160861, 0, 0, 0.159871, 9.003587, 5.228814)" fill="none" stroke-linejoin="miter" d="M 37.54402 29.672926 L 60.006104 14.47513 L 82.443904 29.672926 L 82.443904 36.905317 L 37.54402 36.905317 Z M 37.54402 29.672926 " stroke="#000000" stroke-width="2" stroke-opacity="1" stroke-miterlimit="10"/></g><g clip-path="url(#a9a2ba242b)"><path stroke-linecap="butt" transform="matrix(0.160861, 0, 0, 0.159871, 9.003587, 5.228814)" fill="none" stroke-linejoin="miter" d="M 31.06037 48.584652 L 5.004353 48.584652 L 7.991203 39.690765 L 40.652287 39.690765 L 40.652287 42.476213 " stroke="#000000" stroke-width="2" stroke-opacity="1" stroke-miterlimit="10"/></g><g clip-path="url(#e290731dae)"><path stroke-linecap="butt" transform="matrix(0.160861, 0, 0, 0.159871, 9.003587, 5.228814)" fill="none" stroke-linejoin="miter" d="M 88.927554 48.584652 L 114.983572 48.584652 L 112.021005 39.690765 L 79.335638 39.690765 L 79.335638 42.476213 " stroke="#000000" stroke-width="2" stroke-opacity="1" stroke-miterlimit="10"/></g><g fill="#000000" fill-opacity="1"><g transform="translate(14.915241, 13.0326)"><g><path d="M 0.359375 -0.0625 C 0.410156 -0.0625 0.445312 -0.0703125 0.46875 -0.09375 C 0.488281 -0.113281 0.5 -0.148438 0.5 -0.203125 L 0.5 -0.546875 L 0.421875 -0.5625 L 0.421875 -0.59375 L 0.640625 -0.59375 L 0.640625 -0.5625 L 0.5625 -0.546875 L 0.5625 -0.203125 C 0.5625 -0.128906 0.539062 -0.0703125 0.5 -0.03125 C 0.46875 0 0.414062 0.015625 0.34375 0.015625 C 0.257812 0.015625 0.191406 0 0.140625 -0.03125 C 0.0976562 -0.0703125 0.078125 -0.128906 0.078125 -0.203125 L 0.078125 -0.546875 L 0.03125 -0.5625 L 0.03125 -0.59375 L 0.3125 -0.59375 L 0.3125 -0.5625 L 0.21875 -0.546875 L 0.21875 -0.203125 C 0.21875 -0.148438 0.226562 -0.113281 0.25 -0.09375 C 0.28125 -0.0703125 0.316406 -0.0625 0.359375 -0.0625 Z M 0.359375 -0.0625 "/></g></g></g><g fill="#000000" fill-opacity="1"><g transform="translate(15.744766, 13.0326)"><g><path d="M 0.5 -0.546875 L 0.421875 -0.5625 L 0.421875 -0.59375 L 0.640625 -0.59375 L 0.640625 -0.5625 L 0.5625 -0.546875 L 0.5625 0 L 0.5 0 L 0.15625 -0.46875 L 0.15625 -0.046875 L 0.21875 -0.03125 L 0.21875 0 L 0.015625 0 L 0.015625 -0.03125 L 0.09375 -0.046875 L 0.09375 -0.546875 L 0.015625 -0.5625 L 0.015625 -0.59375 L 0.21875 -0.59375 L 0.5 -0.203125 Z M 0.5 -0.546875 "/></g></g></g><g fill="#000000" fill-opacity="1"><g transform="translate(16.70209, 13.0326)"><g><path d="M 0.234375 -0.046875 L 0.328125 -0.03125 L 0.328125 0 L 0.03125 0 L 0.03125 -0.03125 L 0.109375 -0.046875 L 0.109375 -0.546875 L 0.03125 -0.5625 L 0.03125 -0.59375 L 0.328125 -0.59375 L 0.328125 -0.5625 L 0.234375 -0.546875 Z M 0.234375 -0.046875 "/></g></g></g><g fill="#000000" fill-opacity="1"><g transform="translate(17.17474, 13.0326)"><g><path d="M 0.640625 -0.59375 L 0.640625 -0.5625 L 0.59375 -0.546875 L 0.359375 0.015625 L 0.296875 0.015625 L 0.0625 -0.546875 L 0.015625 -0.5625 L 0.015625 -0.59375 L 0.265625 -0.59375 L 0.265625 -0.5625 L 0.21875 -0.546875 L 0.359375 -0.15625 L 0.515625 -0.546875 L 0.46875 -0.5625 L 0.46875 -0.59375 Z M 0.640625 -0.59375 "/></g></g></g><g fill="#000000" fill-opacity="1"><g transform="translate(18.016288, 13.0326)"><g><path d="M 0.015625 -0.03125 L 0.078125 -0.046875 L 0.078125 -0.546875 L 0.015625 -0.5625 L 0.015625 -0.59375 L 0.515625 -0.59375 L 0.515625 -0.4375 L 0.484375 -0.4375 L 0.46875 -0.53125 C 0.425781 -0.53125 0.378906 -0.53125 0.328125 -0.53125 L 0.21875 -0.53125 L 0.21875 -0.328125 L 0.375 -0.328125 L 0.390625 -0.390625 L 0.4375 -0.390625 L 0.4375 -0.203125 L 0.390625 -0.203125 L 0.375 -0.28125 L 0.21875 -0.28125 L 0.21875 -0.046875 L 0.34375 -0.046875 C 0.414062 -0.046875 0.46875 -0.0507812 0.5 -0.0625 L 0.515625 -0.171875 L 0.546875 -0.171875 L 0.546875 0 L 0.015625 0 Z M 0.015625 -0.03125 "/></g></g></g><g fill="#000000" fill-opacity="1"><g transform="translate(18.7962, 13.0326)"><g><path d="M 0.21875 -0.25 L 0.21875 -0.046875 L 0.3125 -0.03125 L 0.3125 0 L 0.03125 0 L 0.03125 -0.03125 L 0.078125 -0.046875 L 0.078125 -0.546875 L 0.015625 -0.5625 L 0.015625 -0.59375 L 0.296875 -0.59375 C 0.378906 -0.59375 0.441406 -0.578125 0.484375 -0.546875 C 0.535156 -0.515625 0.5625 -0.472656 0.5625 -0.421875 C 0.5625 -0.335938 0.519531 -0.285156 0.4375 -0.265625 L 0.59375 -0.046875 L 0.65625 -0.03125 L 0.65625 0 L 0.46875 0 L 0.3125 -0.25 Z M 0.421875 -0.421875 C 0.421875 -0.460938 0.410156 -0.488281 0.390625 -0.5 C 0.367188 -0.519531 0.335938 -0.53125 0.296875 -0.53125 L 0.21875 -0.53125 L 0.21875 -0.296875 L 0.296875 -0.296875 C 0.335938 -0.296875 0.367188 -0.300781 0.390625 -0.3125 C 0.410156 -0.332031 0.421875 -0.367188 0.421875 -0.421875 Z M 0.421875 -0.421875 "/></g></g></g><g fill="#000000" fill-opacity="1"><g transform="translate(19.625724, 13.0326)"><g><path d="M 0.046875 -0.1875 L 0.078125 -0.1875 L 0.109375 -0.078125 C 0.117188 -0.0664062 0.132812 -0.0546875 0.15625 -0.046875 C 0.1875 -0.046875 0.210938 -0.046875 0.234375 -0.046875 C 0.316406 -0.046875 0.359375 -0.078125 0.359375 -0.140625 C 0.359375 -0.160156 0.351562 -0.175781 0.34375 -0.1875 C 0.332031 -0.195312 0.304688 -0.210938 0.265625 -0.234375 C 0.222656 -0.242188 0.1875 -0.253906 0.15625 -0.265625 C 0.132812 -0.285156 0.113281 -0.300781 0.09375 -0.3125 C 0.0820312 -0.320312 0.0703125 -0.335938 0.0625 -0.359375 C 0.0625 -0.378906 0.0625 -0.40625 0.0625 -0.4375 C 0.0625 -0.488281 0.078125 -0.523438 0.109375 -0.546875 C 0.140625 -0.578125 0.1875 -0.59375 0.25 -0.59375 C 0.3125 -0.59375 0.367188 -0.585938 0.421875 -0.578125 L 0.421875 -0.4375 L 0.375 -0.4375 L 0.359375 -0.515625 C 0.335938 -0.535156 0.300781 -0.546875 0.25 -0.546875 C 0.226562 -0.546875 0.203125 -0.535156 0.171875 -0.515625 C 0.148438 -0.503906 0.140625 -0.488281 0.140625 -0.46875 C 0.140625 -0.445312 0.148438 -0.425781 0.171875 -0.40625 C 0.191406 -0.394531 0.21875 -0.382812 0.25 -0.375 C 0.320312 -0.351562 0.367188 -0.332031 0.390625 -0.3125 C 0.410156 -0.300781 0.425781 -0.28125 0.4375 -0.25 C 0.457031 -0.226562 0.46875 -0.207031 0.46875 -0.1875 C 0.46875 -0.0507812 0.390625 0.015625 0.234375 0.015625 C 0.210938 0.015625 0.179688 0.0078125 0.140625 0 C 0.0976562 -0.0078125 0.0664062 -0.0195312 0.046875 -0.03125 Z M 0.046875 -0.1875 "/></g></g></g><g fill="#000000" fill-opacity="1"><g transform="translate(20.30597, 13.0326)"><g><path d="M 0.234375 -0.046875 L 0.328125 -0.03125 L 0.328125 0 L 0.03125 0 L 0.03125 -0.03125 L 0.109375 -0.046875 L 0.109375 -0.546875 L 0.03125 -0.5625 L 0.03125 -0.59375 L 0.328125 -0.59375 L 0.328125 -0.5625 L 0.234375 -0.546875 Z M 0.234375 -0.046875 "/></g></g></g><g fill="#000000" fill-opacity="1"><g transform="translate(20.875246, 13.0326)"><g><path d="M 0.140625 0 L 0.140625 -0.03125 L 0.21875 -0.046875 L 0.21875 -0.546875 C 0.144531 -0.546875 0.0976562 -0.539062 0.078125 -0.53125 L 0.0625 -0.421875 L 0.015625 -0.421875 L 0.015625 -0.59375 L 0.59375 -0.59375 L 0.59375 -0.421875 L 0.546875 -0.421875 L 0.53125 -0.53125 C 0.507812 -0.539062 0.460938 -0.546875 0.390625 -0.546875 L 0.359375 -0.546875 L 0.359375 -0.046875 L 0.46875 -0.03125 L 0.46875 0 Z M 0.140625 0 "/></g></g></g><g fill="#000000" fill-opacity="1"><g transform="translate(21.601514, 13.0326)"><g><path d="M 0.390625 -0.234375 L 0.390625 -0.046875 L 0.5 -0.03125 L 0.5 0 L 0.171875 0 L 0.171875 -0.03125 L 0.265625 -0.046875 L 0.265625 -0.21875 L 0.078125 -0.546875 L 0.015625 -0.5625 L 0.015625 -0.59375 L 0.328125 -0.59375 L 0.328125 -0.5625 L 0.234375 -0.546875 L 0.375 -0.296875 L 0.5 -0.546875 L 0.4375 -0.5625 L 0.4375 -0.59375 L 0.640625 -0.59375 L 0.640625 -0.5625 L 0.578125 -0.546875 Z M 0.390625 -0.234375 "/></g></g></g><g transform="matrix(1, 0, 0, 1, 18, 3)"><g clip-path="url(#556fcedde6)"><g clip-path="url(#0b0209e081)"><g fill="#d9beff" fill-opacity="1"><g transform="translate(0.508064, 3.203636)"><g><path d="M 0.4375 0.015625 C 0.332031 0.015625 0.25 -0.0078125 0.1875 -0.0625 C 0.132812 -0.113281 0.109375 -0.191406 0.109375 -0.296875 C 0.109375 -0.359375 0.117188 -0.410156 0.140625 -0.453125 C 0.171875 -0.492188 0.210938 -0.523438 0.265625 -0.546875 C 0.316406 -0.578125 0.382812 -0.597656 0.46875 -0.609375 C 0.539062 -0.617188 0.597656 -0.628906 0.640625 -0.640625 C 0.679688 -0.660156 0.707031 -0.679688 0.71875 -0.703125 C 0.738281 -0.722656 0.75 -0.75 0.75 -0.78125 C 0.75 -0.832031 0.726562 -0.867188 0.6875 -0.890625 C 0.65625 -0.910156 0.601562 -0.921875 0.53125 -0.921875 C 0.46875 -0.921875 0.410156 -0.90625 0.359375 -0.875 C 0.316406 -0.851562 0.273438 -0.816406 0.234375 -0.765625 L 0.21875 -0.765625 L 0.140625 -0.875 C 0.179688 -0.9375 0.234375 -0.984375 0.296875 -1.015625 C 0.367188 -1.046875 0.445312 -1.0625 0.53125 -1.0625 C 0.65625 -1.0625 0.742188 -1.035156 0.796875 -0.984375 C 0.859375 -0.929688 0.890625 -0.859375 0.890625 -0.765625 L 0.890625 -0.203125 C 0.890625 -0.148438 0.914062 -0.125 0.96875 -0.125 C 0.988281 -0.125 1.003906 -0.125 1.015625 -0.125 L 1.03125 -0.125 L 1.046875 -0.015625 C 1.035156 -0.00390625 1.019531 0 1 0 C 0.976562 0 0.960938 0 0.953125 0 C 0.890625 0 0.84375 -0.0078125 0.8125 -0.03125 C 0.78125 -0.0507812 0.765625 -0.0859375 0.765625 -0.140625 L 0.734375 -0.140625 C 0.710938 -0.0859375 0.675781 -0.046875 0.625 -0.015625 C 0.570312 0.00390625 0.507812 0.015625 0.4375 0.015625 Z M 0.46875 -0.109375 C 0.519531 -0.109375 0.566406 -0.117188 0.609375 -0.140625 C 0.648438 -0.171875 0.679688 -0.207031 0.703125 -0.25 C 0.734375 -0.300781 0.75 -0.359375 0.75 -0.421875 L 0.75 -0.5625 L 0.734375 -0.5625 C 0.703125 -0.539062 0.671875 -0.523438 0.640625 -0.515625 C 0.609375 -0.503906 0.5625 -0.492188 0.5 -0.484375 C 0.4375 -0.484375 0.390625 -0.472656 0.359375 -0.453125 C 0.328125 -0.429688 0.300781 -0.40625 0.28125 -0.375 C 0.269531 -0.351562 0.265625 -0.328125 0.265625 -0.296875 C 0.265625 -0.234375 0.28125 -0.1875 0.3125 -0.15625 C 0.351562 -0.125 0.40625 -0.109375 0.46875 -0.109375 Z M 0.46875 -0.109375 "/></g></g><g transform="translate(1.586379, 3.203636)"><g><path d="M 0.6875 0.015625 C 0.613281 0.015625 0.546875 0.00390625 0.484375 -0.015625 C 0.429688 -0.046875 0.390625 -0.0859375 0.359375 -0.140625 L 0.328125 -0.140625 L 0.328125 0 L 0.1875 0 L 0.1875 -1.46875 L 0.328125 -1.46875 L 0.328125 -0.890625 L 0.359375 -0.890625 C 0.429688 -1.003906 0.546875 -1.0625 0.703125 -1.0625 C 0.785156 -1.0625 0.859375 -1.039062 0.921875 -1 C 0.992188 -0.957031 1.046875 -0.894531 1.078125 -0.8125 C 1.109375 -0.738281 1.125 -0.640625 1.125 -0.515625 C 1.125 -0.398438 1.101562 -0.300781 1.0625 -0.21875 C 1.03125 -0.132812 0.984375 -0.0703125 0.921875 -0.03125 C 0.859375 0 0.78125 0.015625 0.6875 0.015625 Z M 0.65625 -0.125 C 0.863281 -0.125 0.96875 -0.253906 0.96875 -0.515625 C 0.96875 -0.660156 0.941406 -0.765625 0.890625 -0.828125 C 0.835938 -0.890625 0.757812 -0.921875 0.65625 -0.921875 C 0.5625 -0.921875 0.484375 -0.882812 0.421875 -0.8125 C 0.359375 -0.75 0.328125 -0.648438 0.328125 -0.515625 C 0.328125 -0.378906 0.359375 -0.28125 0.421875 -0.21875 C 0.484375 -0.15625 0.5625 -0.125 0.65625 -0.125 Z M 0.65625 -0.125 "/></g></g><g transform="translate(2.83008, 3.203636)"><g><path d="M 0.1875 0 L 0.1875 -1.046875 L 0.328125 -1.046875 L 0.328125 -0.875 L 0.34375 -0.875 C 0.394531 -0.988281 0.488281 -1.046875 0.625 -1.046875 C 0.695312 -1.046875 0.75 -1.035156 0.78125 -1.015625 L 0.75 -0.890625 L 0.71875 -0.875 C 0.6875 -0.894531 0.644531 -0.90625 0.59375 -0.90625 C 0.507812 -0.90625 0.441406 -0.875 0.390625 -0.8125 C 0.347656 -0.75 0.328125 -0.648438 0.328125 -0.515625 L 0.328125 0 Z M 0.1875 0 "/></g></g></g></g><g clip-path="url(#fdb2a75e88)"><g fill="#d9beff" fill-opacity="1"><g transform="translate(3.607866, 3.203636)"><g><path d="M 0.59375 0.015625 C 0.5 0.015625 0.414062 -0.00390625 0.34375 -0.046875 C 0.269531 -0.0859375 0.210938 -0.144531 0.171875 -0.21875 C 0.128906 -0.300781 0.109375 -0.398438 0.109375 -0.515625 C 0.109375 -0.628906 0.128906 -0.726562 0.171875 -0.8125 C 0.210938 -0.894531 0.269531 -0.957031 0.34375 -1 C 0.414062 -1.039062 0.5 -1.0625 0.59375 -1.0625 C 0.695312 -1.0625 0.785156 -1.039062 0.859375 -1 C 0.929688 -0.957031 0.984375 -0.894531 1.015625 -0.8125 C 1.054688 -0.726562 1.078125 -0.628906 1.078125 -0.515625 C 1.078125 -0.398438 1.054688 -0.300781 1.015625 -0.21875 C 0.984375 -0.144531 0.929688 -0.0859375 0.859375 -0.046875 C 0.785156 -0.00390625 0.695312 0.015625 0.59375 0.015625 Z M 0.59375 -0.125 C 0.695312 -0.125 0.773438 -0.15625 0.828125 -0.21875 C 0.890625 -0.28125 0.921875 -0.378906 0.921875 -0.515625 C 0.921875 -0.660156 0.890625 -0.765625 0.828125 -0.828125 C 0.773438 -0.890625 0.695312 -0.921875 0.59375 -0.921875 C 0.488281 -0.921875 0.410156 -0.890625 0.359375 -0.828125 C 0.304688 -0.765625 0.28125 -0.660156 0.28125 -0.515625 C 0.28125 -0.378906 0.304688 -0.28125 0.359375 -0.21875 C 0.410156 -0.15625 0.488281 -0.125 0.59375 -0.125 Z M 0.59375 -0.125 "/></g></g><g transform="translate(4.804314, 3.203636)"><g><path d="M 0.4375 0.015625 C 0.332031 0.015625 0.25 -0.0078125 0.1875 -0.0625 C 0.132812 -0.113281 0.109375 -0.191406 0.109375 -0.296875 C 0.109375 -0.359375 0.117188 -0.410156 0.140625 -0.453125 C 0.171875 -0.492188 0.210938 -0.523438 0.265625 -0.546875 C 0.316406 -0.578125 0.382812 -0.597656 0.46875 -0.609375 C 0.539062 -0.617188 0.597656 -0.628906 0.640625 -0.640625 C 0.679688 -0.660156 0.707031 -0.679688 0.71875 -0.703125 C 0.738281 -0.722656 0.75 -0.75 0.75 -0.78125 C 0.75 -0.832031 0.726562 -0.867188 0.6875 -0.890625 C 0.65625 -0.910156 0.601562 -0.921875 0.53125 -0.921875 C 0.46875 -0.921875 0.410156 -0.90625 0.359375 -0.875 C 0.316406 -0.851562 0.273438 -0.816406 0.234375 -0.765625 L 0.21875 -0.765625 L 0.140625 -0.875 C 0.179688 -0.9375 0.234375 -0.984375 0.296875 -1.015625 C 0.367188 -1.046875 0.445312 -1.0625 0.53125 -1.0625 C 0.65625 -1.0625 0.742188 -1.035156 0.796875 -0.984375 C 0.859375 -0.929688 0.890625 -0.859375 0.890625 -0.765625 L 0.890625 -0.203125 C 0.890625 -0.148438 0.914062 -0.125 0.96875 -0.125 C 0.988281 -0.125 1.003906 -0.125 1.015625 -0.125 L 1.03125 -0.125 L 1.046875 -0.015625 C 1.035156 -0.00390625 1.019531 0 1 0 C 0.976562 0 0.960938 0 0.953125 0 C 0.890625 0 0.84375 -0.0078125 0.8125 -0.03125 C 0.78125 -0.0507812 0.765625 -0.0859375 0.765625 -0.140625 L 0.734375 -0.140625 C 0.710938 -0.0859375 0.675781 -0.046875 0.625 -0.015625 C 0.570312 0.00390625 0.507812 0.015625 0.4375 0.015625 Z M 0.46875 -0.109375 C 0.519531 -0.109375 0.566406 -0.117188 0.609375 -0.140625 C 0.648438 -0.171875 0.679688 -0.207031 0.703125 -0.25 C 0.734375 -0.300781 0.75 -0.359375 0.75 -0.421875 L 0.75 -0.5625 L 0.734375 -0.5625 C 0.703125 -0.539062 0.671875 -0.523438 0.640625 -0.515625 C 0.609375 -0.503906 0.5625 -0.492188 0.5 -0.484375 C 0.4375 -0.484375 0.390625 -0.472656 0.359375 -0.453125 C 0.328125 -0.429688 0.300781 -0.40625 0.28125 -0.375 C 0.269531 -0.351562 0.265625 -0.328125 0.265625 -0.296875 C 0.265625 -0.234375 0.28125 -0.1875 0.3125 -0.15625 C 0.351562 -0.125 0.40625 -0.109375 0.46875 -0.109375 Z M 0.46875 -0.109375 "/></g></g><g transform="translate(5.882629, 3.203636)"><g><path d="M 0.546875 0.015625 C 0.460938 0.015625 0.382812 0 0.3125 -0.03125 C 0.25 -0.0703125 0.195312 -0.132812 0.15625 -0.21875 C 0.125 -0.300781 0.109375 -0.398438 0.109375 -0.515625 C 0.109375 -0.640625 0.128906 -0.738281 0.171875 -0.8125 C 0.210938 -0.894531 0.265625 -0.957031 0.328125 -1 C 0.390625 -1.039062 0.46875 -1.0625 0.5625 -1.0625 C 0.625 -1.0625 0.679688 -1.046875 0.734375 -1.015625 C 0.796875 -0.992188 0.847656 -0.953125 0.890625 -0.890625 L 0.90625 -0.90625 L 0.90625 -1.46875 L 1.0625 -1.46875 L 1.0625 0 L 0.90625 0 L 0.90625 -0.15625 L 0.890625 -0.15625 C 0.859375 -0.101562 0.8125 -0.0625 0.75 -0.03125 C 0.6875 0 0.617188 0.015625 0.546875 0.015625 Z M 0.59375 -0.125 C 0.6875 -0.125 0.757812 -0.15625 0.8125 -0.21875 C 0.875 -0.28125 0.90625 -0.378906 0.90625 -0.515625 C 0.90625 -0.648438 0.875 -0.75 0.8125 -0.8125 C 0.757812 -0.882812 0.6875 -0.921875 0.59375 -0.921875 C 0.488281 -0.921875 0.410156 -0.890625 0.359375 -0.828125 C 0.304688 -0.765625 0.28125 -0.660156 0.28125 -0.515625 C 0.28125 -0.253906 0.382812 -0.125 0.59375 -0.125 Z M 0.59375 -0.125 "/></g></g></g></g></g></g></svg>