<svg width="81" height="80" viewBox="0 0 81 80" fill="none" xmlns="http://www.w3.org/2000/svg">
<path d="M43.5325 66.915C57.3626 66.915 68.5741 55.7035 68.5741 41.8735C68.5741 28.0434 57.3626 16.8319 43.5325 16.8319C29.7025 16.8319 18.491 28.0434 18.491 41.8735C18.491 55.7035 29.7025 66.915 43.5325 66.915Z" fill="#CAC9FF"/>
<path d="M40.7881 28.311C29.045 35.1215 21.4729 44.0681 18.154 54.7019C14.8352 65.3358 21.9555 69.7799 30.9885 66.5371C40.0214 63.2943 54.1127 53.9964 61.5301 44.7244C68.9476 35.4524 67.2099 30.7483 64.7116 27.658C62.2134 24.5676 53.5916 20.8855 40.7881 28.311Z" fill="#FAB13D"/>
<path fill-rule="evenodd" clip-rule="evenodd" d="M16.8415 54.312C20.2798 43.2953 28.1129 34.0951 40.0989 27.1437C53.304 19.4852 62.7434 23.0416 65.7879 26.8077C67.164 28.51 68.4202 30.7806 68.2099 33.9514C68.0037 37.0605 66.4005 40.816 62.6057 45.5594C58.7872 50.3327 53.2971 55.0621 47.6518 58.997C42.0079 62.931 36.1164 66.1352 31.4493 67.8107C26.693 69.5182 22.0756 69.3315 19.0593 66.8708C15.971 64.3513 15.095 59.908 16.8415 54.312ZM18.154 54.702C21.4728 44.0681 29.0449 35.1216 40.7881 28.3111C53.5916 20.8856 62.2133 24.5677 64.7116 27.658C67.2098 30.7484 68.9476 35.4525 61.5301 44.7245C54.1127 53.9965 40.0214 63.2944 30.9884 66.5372C21.9555 69.78 14.8351 65.3359 18.154 54.702Z" fill="#B7690D"/>
<path d="M25.805 43.5275C21.4445 48.0552 19.2284 53.0026 19.135 58.1595C19.0415 63.3164 22.8067 64.388 26.4219 61.7939C30.0371 59.1997 29.7214 54.3082 31.8257 49.2356C33.93 44.163 36.9982 41.6313 36.3801 39.3246C35.9032 37.5447 30.5593 38.591 25.805 43.5275Z" fill="#FCC66F"/>
<path fill-rule="evenodd" clip-rule="evenodd" d="M25.0883 48.7065C25.7618 49.046 26.0248 49.8621 25.6756 50.5294C24.2548 53.2448 23.8969 55.3493 23.6209 56.9722C23.5873 57.1701 23.5548 57.3609 23.5218 57.5447C23.3893 58.2828 22.6764 58.7797 21.9294 58.6546C21.1824 58.5295 20.6843 57.8296 20.8168 57.0915C20.8476 56.9204 20.8785 56.7374 20.9114 56.5428C21.1903 54.8921 21.6099 52.4091 23.2366 49.3001C23.5858 48.6328 24.4148 48.367 25.0883 48.7065Z" fill="#FFDFAD"/>
<path fill-rule="evenodd" clip-rule="evenodd" d="M26.1818 67.5594C35.8377 62.8099 47.8582 54.1902 54.7379 45.5904C63.0216 35.2355 61.081 29.9819 58.2909 26.5306C57.5747 25.6447 56.408 24.7153 54.8273 23.9633C59.8725 23.9418 63.2872 25.8961 64.7115 27.6579C67.2098 30.7483 68.9475 35.4524 61.53 44.7244C54.1126 53.9964 40.0213 63.2942 30.9884 66.5371C29.3009 67.1429 27.6802 67.4804 26.1818 67.5594Z" fill="#EDA024"/>
<path d="M36.6033 51.8734C32.8176 47.7181 24.766 47.1732 21.2134 47.4201C21.9196 45.0691 24.009 42.7155 24.9654 41.8326C31.2902 43.7096 35.3593 49.3085 36.6033 51.8734Z" fill="#D08814"/>
<path d="M46.6506 44.5214C41.9901 38.7753 33.9153 35.4969 30.3627 35.7439C32.0445 33.3855 35.9988 31.3099 36.9553 30.427C44.068 32.0716 45.4066 41.9566 46.6506 44.5214Z" fill="#A56112"/>
<path d="M55.5812 34.0739C51.0818 28.1256 47.4053 27.6095 44.012 26.5741C45.3796 25.5202 49.3883 24.606 50.6007 24.1212C54.165 26.9815 54.9334 29.8491 55.5812 34.0739Z" fill="#9C5807"/>
<path fill-rule="evenodd" clip-rule="evenodd" d="M24.463 42.0256C24.4457 41.6518 24.7389 41.3327 25.1178 41.3128C26.6736 41.231 28.8582 41.9098 31.1001 43.4196C33.362 44.9429 35.7373 47.3466 37.6734 50.8113C37.856 51.138 37.7345 51.5509 37.402 51.7336C37.0695 51.9163 36.652 51.7995 36.4694 51.4728C34.6323 48.1853 32.3995 45.9416 30.32 44.5412C28.2206 43.1274 26.3306 42.606 25.1804 42.6664C24.8014 42.6863 24.4802 42.3994 24.463 42.0256Z" fill="#FFDFAC"/>
<path fill-rule="evenodd" clip-rule="evenodd" d="M37.2791 30.2069C37.4078 29.8538 37.8014 29.6684 38.1582 29.7928C39.5852 30.2901 41.4657 31.7853 43.2362 34.0892C45.0246 36.4165 46.7521 39.6338 47.8348 43.6742C47.9316 44.0354 47.7127 44.4079 47.3459 44.5062C46.9792 44.6044 46.6034 44.3913 46.5066 44.0301C45.4696 40.1598 43.8207 37.1015 42.1394 34.9136C40.4401 32.7024 38.7577 31.4428 37.692 31.0713C37.3352 30.947 37.1503 30.5599 37.2791 30.2069Z" fill="#FFDFAC"/>
<path fill-rule="evenodd" clip-rule="evenodd" d="M50.5643 24.0304C50.7223 23.6889 51.13 23.5363 51.4748 23.6897C52.945 24.3434 54.2452 25.7755 55.2027 27.5193C56.1681 29.2774 56.8287 31.4288 56.9666 33.6272C56.99 34.0007 56.7021 34.3244 56.3235 34.3504C55.9449 34.3764 55.619 34.0947 55.5956 33.7213C55.4703 31.7244 54.8675 29.7631 53.9939 28.1721C53.1123 26.5667 51.9979 25.4133 50.9026 24.9263C50.5578 24.773 50.4063 24.3719 50.5643 24.0304Z" fill="#FFDFAC"/>
<path d="M57.7004 42.6528C57.7135 43.3842 57.2807 43.9881 56.7336 44.0018C56.1865 44.0154 55.7324 43.4337 55.7193 42.7024C55.7062 41.971 56.139 41.3671 56.6861 41.3534C57.2332 41.3397 57.6873 41.9215 57.7004 42.6528Z" fill="#D48A15"/>
<path d="M53.5656 45.6066C53.5763 46.2007 53.2246 46.6913 52.7802 46.7024C52.3358 46.7135 51.967 46.2409 51.9563 45.6468C51.9456 45.0528 52.2973 44.5622 52.7417 44.5511C53.1861 44.5399 53.5549 45.0125 53.5656 45.6066Z" fill="#D48A15"/>
<path d="M57.3041 46.4065C57.3148 47.0006 56.9632 47.4912 56.5188 47.5023C56.0744 47.5134 55.7055 47.0408 55.6948 46.4468C55.6842 45.8527 56.0358 45.3621 56.4802 45.351C56.9246 45.3399 57.2935 45.8125 57.3041 46.4065Z" fill="#D48A15"/>
<path d="M54.4628 40.4932C54.4735 41.0873 54.1219 41.5779 53.6775 41.589C53.2331 41.6001 52.8642 41.1275 52.8535 40.5334C52.8429 39.9394 53.1945 39.4488 53.6389 39.4377C54.0833 39.4265 54.4522 39.8991 54.4628 40.4932Z" fill="#D48A15"/>
<path d="M60.5614 40.384C60.5721 40.978 60.2205 41.4686 59.7761 41.4797C59.3317 41.4909 58.9628 41.0183 58.9522 40.4242C58.9415 39.8301 59.2931 39.3395 59.7375 39.3284C60.1819 39.3173 60.5508 39.7899 60.5614 40.384Z" fill="#D48A15"/>
<path d="M58.3309 38.5388C58.3429 39.2087 57.9464 39.7619 57.4453 39.7745C56.9441 39.787 56.5282 39.2541 56.5161 38.5841C56.5041 37.9142 56.9006 37.3609 57.4018 37.3484C57.9029 37.3359 58.3189 37.8688 58.3309 38.5388Z" fill="#D48A15"/>
<path d="M63.5487 37.5296C63.5607 38.1995 63.1642 38.7528 62.6631 38.7653C62.1619 38.7778 61.7459 38.2449 61.7339 37.575C61.7219 36.905 62.1184 36.3518 62.6196 36.3393C63.1207 36.3267 63.5367 36.8597 63.5487 37.5296Z" fill="#D48A15"/>
<path d="M61.5668 35.1821C61.5788 35.852 61.1823 36.4053 60.6811 36.4178C60.18 36.4303 59.764 35.8974 59.752 35.2274C59.74 34.5575 60.1365 34.0042 60.6376 33.9917C61.1388 33.9792 61.5548 34.5121 61.5668 35.1821Z" fill="#D48A15"/>
<path d="M65.8702 33.572C65.8823 34.2419 65.4857 34.7951 64.9846 34.8077C64.4835 34.8202 64.0675 34.2873 64.0554 33.6173C64.0434 32.9474 64.4399 32.3941 64.9411 32.3816C65.4422 32.3691 65.8582 32.902 65.8702 33.572Z" fill="#D48A15"/>
<path d="M62.8552 40.66C62.8631 41.0985 62.6036 41.4605 62.2756 41.4687C61.9477 41.4769 61.6754 41.1281 61.6676 40.6897C61.6597 40.2513 61.9192 39.8892 62.2472 39.881C62.5751 39.8728 62.8474 40.2216 62.8552 40.66Z" fill="#D48A15"/>
<path d="M60.0801 44.1592C60.0879 44.5976 59.8284 44.9597 59.5005 44.9679C59.1725 44.9761 58.9003 44.6273 58.8924 44.1889C58.8845 43.7504 59.144 43.3884 59.472 43.3802C59.8 43.372 60.0722 43.7207 60.0801 44.1592Z" fill="#D48A15"/>
<path d="M51.9114 51.7266C51.9192 52.165 51.6597 52.5271 51.3318 52.5353C51.0038 52.5434 50.7316 52.1947 50.7237 51.7562C50.7158 51.3178 50.9753 50.9558 51.3033 50.9476C51.6313 50.9394 51.9035 51.2881 51.9114 51.7266Z" fill="#D48A15"/>
<path d="M54.8603 48.2865C54.8682 48.7249 54.6087 49.087 54.2807 49.0952C53.9528 49.1034 53.6805 48.7546 53.6727 48.3162C53.6648 47.8778 53.9243 47.5157 54.2523 47.5075C54.5802 47.4993 54.8525 47.8481 54.8603 48.2865Z" fill="#D48A15"/>
<path d="M52.0565 48.5006C52.0629 48.8571 51.8519 49.1515 51.5852 49.1582C51.3185 49.1648 51.0971 48.8812 51.0907 48.5247C51.0843 48.1682 51.2953 47.8737 51.562 47.8671C51.8287 47.8604 52.0501 48.144 52.0565 48.5006Z" fill="#D48A15"/>
<path d="M51.8691 43.0667C51.877 43.5051 51.6175 43.8671 51.2895 43.8753C50.9616 43.8835 50.6893 43.5348 50.6815 43.0963C50.6736 42.6579 50.9331 42.2958 51.2611 42.2876C51.589 42.2794 51.8613 42.6282 51.8691 43.0667Z" fill="#D48A15"/>
<path d="M55.8965 37.4111C55.9043 37.8496 55.6448 38.2116 55.3169 38.2198C54.9889 38.228 54.7167 37.8792 54.7088 37.4408C54.701 37.0024 54.9604 36.6403 55.2884 36.6321C55.6164 36.6239 55.8886 36.9727 55.8965 37.4111Z" fill="#D48A15"/>
<path d="M58.5788 33.7769C58.5867 34.2153 58.3272 34.5773 57.9993 34.5855C57.6713 34.5937 57.3991 34.245 57.3912 33.8065C57.3833 33.3681 57.6428 33.006 57.9708 32.9979C58.2987 32.9897 58.571 33.3384 58.5788 33.7769Z" fill="#D48A15"/>
<path d="M62.1982 32.0984C62.2061 32.5368 61.9466 32.8989 61.6186 32.9071C61.2907 32.9153 61.0184 32.5665 61.0106 32.1281C61.0027 31.6896 61.2622 31.3276 61.5902 31.3194C61.9181 31.3112 62.1904 31.66 62.1982 32.0984Z" fill="#D48A15"/>
<path d="M64.5166 31.1886C64.5245 31.627 64.265 31.9891 63.937 31.9973C63.609 32.0055 63.3368 31.6567 63.3289 31.2183C63.3211 30.7799 63.5806 30.4178 63.9085 30.4096C64.2365 30.4014 64.5087 30.7502 64.5166 31.1886Z" fill="#D48A15"/>
</svg>
