<svg xmlns="http://www.w3.org/2000/svg" xmlns:xlink="http://www.w3.org/1999/xlink" width="50" zoomAndPan="magnify" viewBox="0 0 37.5 37.499999" height="50" preserveAspectRatio="xMidYMid meet" version="1.0"><defs><clipPath id="48520ee207"><path d="M 3.699219 5.21875 L 16.988281 5.21875 L 16.988281 31.777344 L 3.699219 31.777344 Z M 3.699219 5.21875 " clip-rule="nonzero"/></clipPath><clipPath id="591e1b3033"><path d="M 20.019531 5.21875 L 33.304688 5.21875 L 33.304688 31.777344 L 20.019531 31.777344 Z M 20.019531 5.21875 " clip-rule="nonzero"/></clipPath></defs><g clip-path="url(#48520ee207)"><path fill="#f96b09" d="M 10.339844 5.21875 C 6.671875 5.21875 3.699219 8.195312 3.699219 11.859375 C 3.699219 19.191406 11.453125 17.367188 11.453125 19.203125 C 11.453125 23.203125 7.894531 28.914062 6.355469 30.453125 L 7.683594 31.777344 C 10.1875 29.277344 16.980469 22.75 16.980469 11.859375 C 16.980469 8.195312 14.007812 5.21875 10.339844 5.21875 " fill-opacity="1" fill-rule="nonzero"/></g><g clip-path="url(#591e1b3033)"><path fill="#f96b09" d="M 26.667969 5.21875 C 23 5.21875 20.027344 8.195312 20.027344 11.859375 C 20.027344 19.191406 27.777344 17.367188 27.777344 19.203125 C 27.777344 23.203125 24.222656 28.914062 22.683594 30.453125 L 24.011719 31.777344 C 26.511719 29.277344 33.308594 22.75 33.308594 11.859375 C 33.308594 8.195312 30.332031 5.21875 26.667969 5.21875 " fill-opacity="1" fill-rule="nonzero"/></g></svg>