<svg xmlns="http://www.w3.org/2000/svg" xmlns:xlink="http://www.w3.org/1999/xlink" width="70" zoomAndPan="magnify" viewBox="0 0 52.5 52.499999" height="70" preserveAspectRatio="xMidYMid meet" version="1.0"><defs><clipPath id="1a3e487761"><path d="M 8.066406 8.066406 L 42.941406 8.066406 L 42.941406 42.941406 L 8.066406 42.941406 Z M 8.066406 8.066406 " clip-rule="nonzero"/></clipPath><clipPath id="0acb4196fe"><path d="M 25.503906 8.066406 C 15.875 8.066406 8.066406 15.875 8.066406 25.503906 C 8.066406 35.136719 15.875 42.941406 25.503906 42.941406 C 35.136719 42.941406 42.941406 35.136719 42.941406 25.503906 C 42.941406 15.875 35.136719 8.066406 25.503906 8.066406 Z M 25.503906 8.066406 " clip-rule="nonzero"/></clipPath><clipPath id="4cb1947f76"><path d="M 0.0664062 0.0664062 L 34.941406 0.0664062 L 34.941406 34.941406 L 0.0664062 34.941406 Z M 0.0664062 0.0664062 " clip-rule="nonzero"/></clipPath><clipPath id="f34d598b7a"><path d="M 17.503906 0.0664062 C 7.875 0.0664062 0.0664062 7.875 0.0664062 17.503906 C 0.0664062 27.136719 7.875 34.941406 17.503906 34.941406 C 27.136719 34.941406 34.941406 27.136719 34.941406 17.503906 C 34.941406 7.875 27.136719 0.0664062 17.503906 0.0664062 Z M 17.503906 0.0664062 " clip-rule="nonzero"/></clipPath><clipPath id="194cc88584"><rect x="0" width="35" y="0" height="35"/></clipPath><clipPath id="3584ae5428"><path d="M 5.199219 5.199219 L 46.804688 5.199219 L 46.804688 46.804688 L 5.199219 46.804688 Z M 5.199219 5.199219 " clip-rule="nonzero"/></clipPath></defs><g clip-path="url(#1a3e487761)"><g clip-path="url(#0acb4196fe)"><g transform="matrix(1, 0, 0, 1, 8, 8)"><g clip-path="url(#194cc88584)"><g clip-path="url(#4cb1947f76)"><g clip-path="url(#f34d598b7a)"><path fill="#ffffff" d="M 0.0664062 0.0664062 L 34.941406 0.0664062 L 34.941406 34.941406 L 0.0664062 34.941406 Z M 0.0664062 0.0664062 " fill-opacity="1" fill-rule="nonzero"/></g></g></g></g></g></g><g clip-path="url(#3584ae5428)"><path fill="#5e17eb" d="M 26.003906 5.199219 C 14.527344 5.199219 5.199219 14.527344 5.199219 26.003906 C 5.199219 37.476562 14.527344 46.804688 26.003906 46.804688 C 37.476562 46.804688 46.804688 37.476562 46.804688 26.003906 C 46.804688 14.527344 37.476562 5.199219 26.003906 5.199219 Z M 37.691406 28.015625 L 28.015625 28.015625 L 28.015625 37.691406 C 28.015625 38.792969 27.117188 39.703125 26.003906 39.703125 C 24.886719 39.703125 23.988281 38.792969 23.988281 37.691406 L 23.988281 28.015625 L 14.3125 28.015625 C 13.210938 28.015625 12.300781 27.117188 12.300781 26.003906 C 12.300781 24.886719 13.210938 23.988281 14.3125 23.988281 L 23.988281 23.988281 L 23.988281 14.3125 C 23.988281 13.210938 24.886719 12.300781 26.003906 12.300781 C 27.117188 12.300781 28.015625 13.210938 28.015625 14.3125 L 28.015625 23.988281 L 37.691406 23.988281 C 38.792969 23.988281 39.703125 24.886719 39.703125 26.003906 C 39.703125 27.117188 38.792969 28.015625 37.691406 28.015625 Z M 37.691406 28.015625 " fill-opacity="1" fill-rule="nonzero"/></g></svg>