<svg xmlns="http://www.w3.org/2000/svg" xmlns:xlink="http://www.w3.org/1999/xlink" width="50" zoomAndPan="magnify" viewBox="0 0 37.5 30.000001" height="40" preserveAspectRatio="xMidYMid meet" version="1.0"><defs><g/><clipPath id="10dc088616"><path d="M 5.1875 1.195312 L 31.828125 1.195312 L 31.828125 27.835938 L 5.1875 27.835938 Z M 5.1875 1.195312 " clip-rule="nonzero"/></clipPath><clipPath id="14b7b4de4c"><path d="M 18.507812 1.195312 C 11.152344 1.195312 5.1875 7.160156 5.1875 14.515625 C 5.1875 21.871094 11.152344 27.835938 18.507812 27.835938 C 25.863281 27.835938 31.828125 21.871094 31.828125 14.515625 C 31.828125 7.160156 25.863281 1.195312 18.507812 1.195312 Z M 18.507812 1.195312 " clip-rule="nonzero"/></clipPath><clipPath id="bf4422b72f"><path d="M 0.1875 0.195312 L 26.828125 0.195312 L 26.828125 26.835938 L 0.1875 26.835938 Z M 0.1875 0.195312 " clip-rule="nonzero"/></clipPath><clipPath id="ce25ac3448"><path d="M 13.507812 0.195312 C 6.152344 0.195312 0.1875 6.160156 0.1875 13.515625 C 0.1875 20.871094 6.152344 26.835938 13.507812 26.835938 C 20.863281 26.835938 26.828125 20.871094 26.828125 13.515625 C 26.828125 6.160156 20.863281 0.195312 13.507812 0.195312 Z M 13.507812 0.195312 " clip-rule="nonzero"/></clipPath><clipPath id="98777ebffa"><rect x="0" width="27" y="0" height="27"/></clipPath><clipPath id="3746d2d5c7"><path d="M 8.371094 4.464844 L 27 4.464844 L 27 24.789062 L 8.371094 24.789062 Z M 8.371094 4.464844 " clip-rule="nonzero"/></clipPath><clipPath id="f7da7c6f7a"><path d="M 20 7 L 28.691406 7 L 28.691406 20 L 20 20 Z M 20 7 " clip-rule="nonzero"/></clipPath><clipPath id="7d5ed2cc3d"><path d="M 0.480469 0.226562 L 4 0.226562 L 4 3 L 0.480469 3 Z M 0.480469 0.226562 " clip-rule="nonzero"/></clipPath><clipPath id="ecade7a404"><path d="M 3 0.226562 L 7 0.226562 L 7 3 L 3 3 Z M 3 0.226562 " clip-rule="nonzero"/></clipPath><clipPath id="e3bc51452b"><rect x="0" width="8" y="0" height="4"/></clipPath></defs><g clip-path="url(#10dc088616)"><g clip-path="url(#14b7b4de4c)"><g transform="matrix(1, 0, 0, 1, 5, 1)"><g clip-path="url(#98777ebffa)"><g clip-path="url(#bf4422b72f)"><g clip-path="url(#ce25ac3448)"><path fill="#a4f8fc" d="M 0.1875 0.195312 L 26.828125 0.195312 L 26.828125 26.835938 L 0.1875 26.835938 Z M 0.1875 0.195312 " fill-opacity="1" fill-rule="nonzero"/></g></g></g></g></g></g><g clip-path="url(#3746d2d5c7)"><path fill="#219ebc" d="M 8.707031 10.214844 L 18.332031 4.613281 C 18.582031 4.46875 18.902344 4.554688 19.046875 4.804688 L 26.78125 18.3125 C 26.925781 18.566406 26.835938 18.890625 26.585938 19.035156 L 16.960938 24.636719 C 16.710938 24.785156 16.390625 24.695312 16.246094 24.445312 L 8.515625 10.9375 C 8.371094 10.6875 8.457031 10.359375 8.707031 10.214844 Z M 8.707031 10.214844 " fill-opacity="1" fill-rule="evenodd"/></g><path fill="#197389" d="M 24.105469 13.640625 L 25.199219 15.554688 L 22.605469 20.085938 L 20.574219 21.71875 L 20.960938 19.128906 Z M 24.105469 13.640625 " fill-opacity="1" fill-rule="evenodd"/><path fill="#cccccb" d="M 11.792969 5.851562 L 23.503906 5.851562 C 23.804688 5.851562 24.054688 6.101562 24.054688 6.410156 L 24.054688 22.84375 C 24.054688 23.148438 23.804688 23.398438 23.503906 23.398438 L 11.792969 23.398438 C 11.488281 23.398438 11.238281 23.148438 11.238281 22.84375 L 11.238281 6.410156 C 11.238281 6.101562 11.488281 5.851562 11.792969 5.851562 Z M 11.792969 5.851562 " fill-opacity="1" fill-rule="evenodd"/><path fill="#ffcd05" d="M 11.792969 5.851562 L 23.503906 5.851562 C 23.804688 5.851562 24.054688 6.101562 24.054688 6.410156 L 24.054688 10.78125 L 11.238281 10.78125 L 11.238281 6.410156 C 11.238281 6.101562 11.488281 5.851562 11.792969 5.851562 Z M 11.792969 5.851562 " fill-opacity="1" fill-rule="evenodd"/><path fill="#ffcd05" d="M 25.421875 10.515625 L 26.246094 9.074219 L 27.890625 10.03125 L 27.0625 11.472656 Z M 25.421875 10.515625 " fill-opacity="1" fill-rule="evenodd"/><path fill="#1d4f8a" d="M 12.632812 7.140625 C 12.632812 6.941406 12.792969 6.78125 12.992188 6.78125 L 13.757812 6.78125 C 13.953125 6.78125 14.113281 6.941406 14.113281 7.140625 C 14.113281 7.339844 13.953125 7.503906 13.757812 7.503906 L 13.351562 7.503906 L 13.351562 7.957031 L 13.757812 7.957031 C 13.953125 7.957031 14.113281 8.117188 14.113281 8.316406 C 14.113281 8.515625 13.953125 8.675781 13.757812 8.675781 L 13.351562 8.675781 L 13.351562 9.128906 L 13.757812 9.128906 C 13.953125 9.128906 14.113281 9.292969 14.113281 9.492188 C 14.113281 9.691406 13.953125 9.851562 13.757812 9.851562 L 12.992188 9.851562 C 12.792969 9.851562 12.632812 9.691406 12.632812 9.492188 Z M 20.65625 9.492188 C 20.65625 9.691406 20.496094 9.851562 20.300781 9.851562 C 20.101562 9.851562 19.941406 9.691406 19.941406 9.492188 L 19.941406 7.140625 C 19.941406 6.941406 20.101562 6.78125 20.300781 6.78125 C 20.421875 6.78125 20.53125 6.84375 20.59375 6.933594 L 21.367188 7.894531 L 22.160156 6.914062 C 22.285156 6.757812 22.511719 6.734375 22.664062 6.859375 C 22.75 6.933594 22.796875 7.035156 22.796875 7.140625 L 22.796875 9.492188 C 22.796875 9.691406 22.636719 9.851562 22.4375 9.851562 C 22.242188 9.851562 22.078125 9.691406 22.078125 9.492188 L 22.078125 8.15625 L 21.652344 8.6875 C 21.632812 8.707031 21.617188 8.726562 21.59375 8.746094 C 21.441406 8.871094 21.214844 8.847656 21.09375 8.691406 L 20.660156 8.15625 L 20.660156 9.492188 Z M 19.542969 9.492188 C 19.542969 9.691406 19.382812 9.851562 19.183594 9.851562 C 18.988281 9.851562 18.828125 9.691406 18.828125 9.492188 L 18.828125 8.773438 L 18.128906 8.773438 L 18.128906 9.492188 C 18.128906 9.691406 17.96875 9.851562 17.769531 9.851562 C 17.574219 9.851562 17.414062 9.691406 17.414062 9.492188 L 17.414062 7.996094 C 17.414062 7.671875 17.523438 7.378906 17.703125 7.160156 C 17.898438 6.925781 18.171875 6.78125 18.480469 6.78125 C 18.785156 6.78125 19.058594 6.925781 19.253906 7.160156 C 19.433594 7.378906 19.542969 7.671875 19.542969 7.996094 Z M 18.824219 8.050781 L 18.824219 7.996094 C 18.824219 7.847656 18.777344 7.714844 18.703125 7.625 C 18.640625 7.550781 18.5625 7.503906 18.476562 7.503906 C 18.394531 7.503906 18.3125 7.550781 18.253906 7.625 C 18.175781 7.714844 18.128906 7.847656 18.128906 7.996094 L 18.128906 8.050781 Z M 16.375 6.9375 C 16.496094 6.78125 16.71875 6.753906 16.875 6.875 C 17.03125 6.996094 17.0625 7.222656 16.941406 7.382812 L 16.214844 8.320312 L 16.917969 9.277344 C 17.039062 9.433594 17.007812 9.660156 16.847656 9.78125 C 16.6875 9.902344 16.464844 9.867188 16.34375 9.707031 L 15.757812 8.914062 L 15.152344 9.695312 C 15.03125 9.851562 14.808594 9.882812 14.652344 9.757812 C 14.496094 9.636719 14.464844 9.410156 14.585938 9.25 L 15.3125 8.3125 L 14.609375 7.355469 C 14.488281 7.199219 14.519531 6.972656 14.679688 6.851562 C 14.839844 6.734375 15.0625 6.765625 15.183594 6.925781 L 15.769531 7.722656 Z M 16.375 6.9375 " fill-opacity="1" fill-rule="nonzero"/><path fill="#ffffff" d="M 16.453125 20.183594 C 16.257812 20.183594 16.09375 20.019531 16.09375 19.820312 C 16.09375 19.621094 16.257812 19.460938 16.453125 19.460938 L 19.074219 19.460938 C 19.273438 19.460938 19.433594 19.621094 19.433594 19.820312 C 19.433594 20.019531 19.273438 20.183594 19.074219 20.183594 Z M 16.453125 13.097656 C 16.257812 13.097656 16.09375 12.933594 16.09375 12.734375 C 16.09375 12.535156 16.257812 12.371094 16.453125 12.371094 L 21.582031 12.371094 C 21.78125 12.371094 21.941406 12.535156 21.941406 12.734375 C 21.941406 12.933594 21.78125 13.097656 21.582031 13.097656 Z M 16.453125 14.558594 C 16.257812 14.558594 16.09375 14.394531 16.09375 14.195312 C 16.09375 13.996094 16.257812 13.835938 16.453125 13.835938 L 21.015625 13.835938 C 21.210938 13.835938 21.371094 13.996094 21.371094 14.195312 C 21.371094 14.394531 21.210938 14.558594 21.015625 14.558594 Z M 16.453125 16.460938 C 16.257812 16.460938 16.09375 16.300781 16.09375 16.101562 C 16.09375 15.902344 16.257812 15.738281 16.453125 15.738281 L 20.339844 15.738281 C 20.539062 15.738281 20.699219 15.902344 20.699219 16.101562 C 20.699219 16.300781 20.539062 16.460938 20.339844 16.460938 Z M 16.453125 17.925781 C 16.257812 17.925781 16.09375 17.761719 16.09375 17.5625 C 16.09375 17.363281 16.257812 17.203125 16.453125 17.203125 L 19.910156 17.203125 C 20.109375 17.203125 20.269531 17.363281 20.269531 17.5625 C 20.269531 17.761719 20.109375 17.925781 19.910156 17.925781 Z M 16.453125 21.644531 C 16.257812 21.644531 16.09375 21.484375 16.09375 21.28125 C 16.09375 21.082031 16.257812 20.921875 16.453125 20.921875 L 20.347656 20.921875 C 20.542969 20.921875 20.703125 21.082031 20.703125 21.28125 C 20.703125 21.484375 20.542969 21.644531 20.347656 21.644531 Z M 16.453125 21.644531 " fill-opacity="1" fill-rule="nonzero"/><path fill="#1d4f8a" d="M 13.027344 19.351562 L 14.894531 19.351562 C 15.035156 19.351562 15.152344 19.46875 15.152344 19.609375 L 15.152344 21.492188 C 15.152344 21.636719 15.035156 21.753906 14.894531 21.753906 L 13.027344 21.753906 C 12.886719 21.753906 12.769531 21.636719 12.769531 21.492188 L 12.769531 19.609375 C 12.769531 19.46875 12.886719 19.351562 13.027344 19.351562 Z M 13.027344 11.910156 L 14.894531 11.910156 C 15.035156 11.910156 15.152344 12.027344 15.152344 12.171875 L 15.152344 14.050781 C 15.152344 14.195312 15.035156 14.3125 14.894531 14.3125 L 13.027344 14.3125 C 12.886719 14.3125 12.769531 14.195312 12.769531 14.050781 L 12.769531 12.171875 C 12.769531 12.027344 12.886719 11.910156 13.027344 11.910156 Z M 13.027344 15.628906 L 14.894531 15.628906 C 15.035156 15.628906 15.152344 15.746094 15.152344 15.890625 L 15.152344 17.773438 C 15.152344 17.917969 15.035156 18.03125 14.894531 18.03125 L 13.027344 18.03125 C 12.886719 18.03125 12.769531 17.917969 12.769531 17.773438 L 12.769531 15.890625 C 12.769531 15.746094 12.886719 15.628906 13.027344 15.628906 Z M 13.027344 15.628906 " fill-opacity="1" fill-rule="evenodd"/><path fill="#959595" d="M 24.054688 13.726562 L 24.054688 17.554688 L 22.605469 20.085938 L 20.574219 21.71875 L 20.960938 19.128906 Z M 24.054688 13.726562 " fill-opacity="1" fill-rule="evenodd"/><g clip-path="url(#f7da7c6f7a)"><path fill="#1d4f8a" d="M 27.539062 7.675781 L 28.445312 8.203125 C 28.648438 8.320312 28.691406 8.628906 28.542969 8.890625 L 22.421875 19.582031 L 20.777344 18.625 L 26.898438 7.933594 C 27.046875 7.671875 27.335938 7.558594 27.539062 7.675781 Z M 27.539062 7.675781 " fill-opacity="1" fill-rule="evenodd"/></g><path fill="#ffcd05" d="M 22.421875 19.582031 L 20.390625 21.214844 L 20.777344 18.625 Z M 22.421875 19.582031 " fill-opacity="1" fill-rule="evenodd"/><g transform="matrix(1, 0, 0, 1, 18, 23)"><g clip-path="url(#e3bc51452b)"><g clip-path="url(#7d5ed2cc3d)"><g fill="#a4f8fc" fill-opacity="1"><g transform="translate(0.508064, 2.391322)"><g><path d="M 0.4375 0.015625 C 0.332031 0.015625 0.25 -0.0078125 0.1875 -0.0625 C 0.132812 -0.113281 0.109375 -0.191406 0.109375 -0.296875 C 0.109375 -0.359375 0.117188 -0.410156 0.140625 -0.453125 C 0.171875 -0.492188 0.210938 -0.523438 0.265625 -0.546875 C 0.316406 -0.578125 0.382812 -0.597656 0.46875 -0.609375 C 0.539062 -0.617188 0.597656 -0.628906 0.640625 -0.640625 C 0.679688 -0.660156 0.707031 -0.679688 0.71875 -0.703125 C 0.738281 -0.722656 0.75 -0.75 0.75 -0.78125 C 0.75 -0.832031 0.726562 -0.867188 0.6875 -0.890625 C 0.65625 -0.910156 0.601562 -0.921875 0.53125 -0.921875 C 0.46875 -0.921875 0.410156 -0.90625 0.359375 -0.875 C 0.316406 -0.851562 0.273438 -0.816406 0.234375 -0.765625 L 0.21875 -0.765625 L 0.140625 -0.875 C 0.179688 -0.9375 0.234375 -0.984375 0.296875 -1.015625 C 0.367188 -1.046875 0.445312 -1.0625 0.53125 -1.0625 C 0.65625 -1.0625 0.742188 -1.035156 0.796875 -0.984375 C 0.859375 -0.929688 0.890625 -0.859375 0.890625 -0.765625 L 0.890625 -0.203125 C 0.890625 -0.148438 0.914062 -0.125 0.96875 -0.125 C 0.988281 -0.125 1.003906 -0.125 1.015625 -0.125 L 1.03125 -0.125 L 1.046875 -0.015625 C 1.035156 -0.00390625 1.019531 0 1 0 C 0.976562 0 0.960938 0 0.953125 0 C 0.890625 0 0.84375 -0.0078125 0.8125 -0.03125 C 0.78125 -0.0507812 0.765625 -0.0859375 0.765625 -0.140625 L 0.734375 -0.140625 C 0.710938 -0.0859375 0.675781 -0.046875 0.625 -0.015625 C 0.570312 0.00390625 0.507812 0.015625 0.4375 0.015625 Z M 0.46875 -0.109375 C 0.519531 -0.109375 0.566406 -0.117188 0.609375 -0.140625 C 0.648438 -0.171875 0.679688 -0.207031 0.703125 -0.25 C 0.734375 -0.300781 0.75 -0.359375 0.75 -0.421875 L 0.75 -0.5625 L 0.734375 -0.5625 C 0.703125 -0.539062 0.671875 -0.523438 0.640625 -0.515625 C 0.609375 -0.503906 0.5625 -0.492188 0.5 -0.484375 C 0.4375 -0.484375 0.390625 -0.472656 0.359375 -0.453125 C 0.328125 -0.429688 0.300781 -0.40625 0.28125 -0.375 C 0.269531 -0.351562 0.265625 -0.328125 0.265625 -0.296875 C 0.265625 -0.234375 0.28125 -0.1875 0.3125 -0.15625 C 0.351562 -0.125 0.40625 -0.109375 0.46875 -0.109375 Z M 0.46875 -0.109375 "/></g></g><g transform="translate(1.586379, 2.391322)"><g><path d="M 0.6875 0.015625 C 0.613281 0.015625 0.546875 0.00390625 0.484375 -0.015625 C 0.429688 -0.046875 0.390625 -0.0859375 0.359375 -0.140625 L 0.328125 -0.140625 L 0.328125 0 L 0.1875 0 L 0.1875 -1.46875 L 0.328125 -1.46875 L 0.328125 -0.890625 L 0.359375 -0.890625 C 0.429688 -1.003906 0.546875 -1.0625 0.703125 -1.0625 C 0.785156 -1.0625 0.859375 -1.039062 0.921875 -1 C 0.992188 -0.957031 1.046875 -0.894531 1.078125 -0.8125 C 1.109375 -0.738281 1.125 -0.640625 1.125 -0.515625 C 1.125 -0.398438 1.101562 -0.300781 1.0625 -0.21875 C 1.03125 -0.132812 0.984375 -0.0703125 0.921875 -0.03125 C 0.859375 0 0.78125 0.015625 0.6875 0.015625 Z M 0.65625 -0.125 C 0.863281 -0.125 0.96875 -0.253906 0.96875 -0.515625 C 0.96875 -0.660156 0.941406 -0.765625 0.890625 -0.828125 C 0.835938 -0.890625 0.757812 -0.921875 0.65625 -0.921875 C 0.5625 -0.921875 0.484375 -0.882812 0.421875 -0.8125 C 0.359375 -0.75 0.328125 -0.648438 0.328125 -0.515625 C 0.328125 -0.378906 0.359375 -0.28125 0.421875 -0.21875 C 0.484375 -0.15625 0.5625 -0.125 0.65625 -0.125 Z M 0.65625 -0.125 "/></g></g><g transform="translate(2.83008, 2.391322)"><g><path d="M 0.1875 0 L 0.1875 -1.046875 L 0.328125 -1.046875 L 0.328125 -0.875 L 0.34375 -0.875 C 0.394531 -0.988281 0.488281 -1.046875 0.625 -1.046875 C 0.695312 -1.046875 0.75 -1.035156 0.78125 -1.015625 L 0.75 -0.890625 L 0.71875 -0.875 C 0.6875 -0.894531 0.644531 -0.90625 0.59375 -0.90625 C 0.507812 -0.90625 0.441406 -0.875 0.390625 -0.8125 C 0.347656 -0.75 0.328125 -0.648438 0.328125 -0.515625 L 0.328125 0 Z M 0.1875 0 "/></g></g></g></g><g clip-path="url(#ecade7a404)"><g fill="#a4f8fc" fill-opacity="1"><g transform="translate(3.607866, 2.391322)"><g><path d="M 0.59375 0.015625 C 0.5 0.015625 0.414062 -0.00390625 0.34375 -0.046875 C 0.269531 -0.0859375 0.210938 -0.144531 0.171875 -0.21875 C 0.128906 -0.300781 0.109375 -0.398438 0.109375 -0.515625 C 0.109375 -0.628906 0.128906 -0.726562 0.171875 -0.8125 C 0.210938 -0.894531 0.269531 -0.957031 0.34375 -1 C 0.414062 -1.039062 0.5 -1.0625 0.59375 -1.0625 C 0.695312 -1.0625 0.785156 -1.039062 0.859375 -1 C 0.929688 -0.957031 0.984375 -0.894531 1.015625 -0.8125 C 1.054688 -0.726562 1.078125 -0.628906 1.078125 -0.515625 C 1.078125 -0.398438 1.054688 -0.300781 1.015625 -0.21875 C 0.984375 -0.144531 0.929688 -0.0859375 0.859375 -0.046875 C 0.785156 -0.00390625 0.695312 0.015625 0.59375 0.015625 Z M 0.59375 -0.125 C 0.695312 -0.125 0.773438 -0.15625 0.828125 -0.21875 C 0.890625 -0.28125 0.921875 -0.378906 0.921875 -0.515625 C 0.921875 -0.660156 0.890625 -0.765625 0.828125 -0.828125 C 0.773438 -0.890625 0.695312 -0.921875 0.59375 -0.921875 C 0.488281 -0.921875 0.410156 -0.890625 0.359375 -0.828125 C 0.304688 -0.765625 0.28125 -0.660156 0.28125 -0.515625 C 0.28125 -0.378906 0.304688 -0.28125 0.359375 -0.21875 C 0.410156 -0.15625 0.488281 -0.125 0.59375 -0.125 Z M 0.59375 -0.125 "/></g></g><g transform="translate(4.804314, 2.391322)"><g><path d="M 0.4375 0.015625 C 0.332031 0.015625 0.25 -0.0078125 0.1875 -0.0625 C 0.132812 -0.113281 0.109375 -0.191406 0.109375 -0.296875 C 0.109375 -0.359375 0.117188 -0.410156 0.140625 -0.453125 C 0.171875 -0.492188 0.210938 -0.523438 0.265625 -0.546875 C 0.316406 -0.578125 0.382812 -0.597656 0.46875 -0.609375 C 0.539062 -0.617188 0.597656 -0.628906 0.640625 -0.640625 C 0.679688 -0.660156 0.707031 -0.679688 0.71875 -0.703125 C 0.738281 -0.722656 0.75 -0.75 0.75 -0.78125 C 0.75 -0.832031 0.726562 -0.867188 0.6875 -0.890625 C 0.65625 -0.910156 0.601562 -0.921875 0.53125 -0.921875 C 0.46875 -0.921875 0.410156 -0.90625 0.359375 -0.875 C 0.316406 -0.851562 0.273438 -0.816406 0.234375 -0.765625 L 0.21875 -0.765625 L 0.140625 -0.875 C 0.179688 -0.9375 0.234375 -0.984375 0.296875 -1.015625 C 0.367188 -1.046875 0.445312 -1.0625 0.53125 -1.0625 C 0.65625 -1.0625 0.742188 -1.035156 0.796875 -0.984375 C 0.859375 -0.929688 0.890625 -0.859375 0.890625 -0.765625 L 0.890625 -0.203125 C 0.890625 -0.148438 0.914062 -0.125 0.96875 -0.125 C 0.988281 -0.125 1.003906 -0.125 1.015625 -0.125 L 1.03125 -0.125 L 1.046875 -0.015625 C 1.035156 -0.00390625 1.019531 0 1 0 C 0.976562 0 0.960938 0 0.953125 0 C 0.890625 0 0.84375 -0.0078125 0.8125 -0.03125 C 0.78125 -0.0507812 0.765625 -0.0859375 0.765625 -0.140625 L 0.734375 -0.140625 C 0.710938 -0.0859375 0.675781 -0.046875 0.625 -0.015625 C 0.570312 0.00390625 0.507812 0.015625 0.4375 0.015625 Z M 0.46875 -0.109375 C 0.519531 -0.109375 0.566406 -0.117188 0.609375 -0.140625 C 0.648438 -0.171875 0.679688 -0.207031 0.703125 -0.25 C 0.734375 -0.300781 0.75 -0.359375 0.75 -0.421875 L 0.75 -0.5625 L 0.734375 -0.5625 C 0.703125 -0.539062 0.671875 -0.523438 0.640625 -0.515625 C 0.609375 -0.503906 0.5625 -0.492188 0.5 -0.484375 C 0.4375 -0.484375 0.390625 -0.472656 0.359375 -0.453125 C 0.328125 -0.429688 0.300781 -0.40625 0.28125 -0.375 C 0.269531 -0.351562 0.265625 -0.328125 0.265625 -0.296875 C 0.265625 -0.234375 0.28125 -0.1875 0.3125 -0.15625 C 0.351562 -0.125 0.40625 -0.109375 0.46875 -0.109375 Z M 0.46875 -0.109375 "/></g></g><g transform="translate(5.882629, 2.391322)"><g><path d="M 0.546875 0.015625 C 0.460938 0.015625 0.382812 0 0.3125 -0.03125 C 0.25 -0.0703125 0.195312 -0.132812 0.15625 -0.21875 C 0.125 -0.300781 0.109375 -0.398438 0.109375 -0.515625 C 0.109375 -0.640625 0.128906 -0.738281 0.171875 -0.8125 C 0.210938 -0.894531 0.265625 -0.957031 0.328125 -1 C 0.390625 -1.039062 0.46875 -1.0625 0.5625 -1.0625 C 0.625 -1.0625 0.679688 -1.046875 0.734375 -1.015625 C 0.796875 -0.992188 0.847656 -0.953125 0.890625 -0.890625 L 0.90625 -0.90625 L 0.90625 -1.46875 L 1.0625 -1.46875 L 1.0625 0 L 0.90625 0 L 0.90625 -0.15625 L 0.890625 -0.15625 C 0.859375 -0.101562 0.8125 -0.0625 0.75 -0.03125 C 0.6875 0 0.617188 0.015625 0.546875 0.015625 Z M 0.59375 -0.125 C 0.6875 -0.125 0.757812 -0.15625 0.8125 -0.21875 C 0.875 -0.28125 0.90625 -0.378906 0.90625 -0.515625 C 0.90625 -0.648438 0.875 -0.75 0.8125 -0.8125 C 0.757812 -0.882812 0.6875 -0.921875 0.59375 -0.921875 C 0.488281 -0.921875 0.410156 -0.890625 0.359375 -0.828125 C 0.304688 -0.765625 0.28125 -0.660156 0.28125 -0.515625 C 0.28125 -0.253906 0.382812 -0.125 0.59375 -0.125 Z M 0.59375 -0.125 "/></g></g></g></g></g></g></svg>