<svg xmlns="http://www.w3.org/2000/svg" xmlns:xlink="http://www.w3.org/1999/xlink" width="1080" zoomAndPan="magnify" viewBox="0 0 810 809.999993" height="1080" preserveAspectRatio="xMidYMid meet" version="1.0"><defs><g/><clipPath id="32f6605db3"><path d="M 31.566406 19.058594 L 797.316406 19.058594 L 797.316406 783 L 31.566406 783 Z M 31.566406 19.058594 " clip-rule="nonzero"/></clipPath><clipPath id="d21af83680"><path d="M 243 160 L 593 160 L 593 784.808594 L 243 784.808594 Z M 243 160 " clip-rule="nonzero"/></clipPath></defs><g clip-path="url(#32f6605db3)"><path fill="#fd661f" d="M 797.59375 402.089844 C 797.59375 190.53125 626.121094 19.058594 414.597656 19.058594 C 203.074219 19.058594 31.566406 190.53125 31.566406 402.089844 C 31.566406 581.710938 155.21875 732.453125 322.050781 773.84375 L 322.050781 519.144531 L 243.054688 519.144531 L 243.054688 402.089844 L 322.050781 402.089844 L 322.050781 351.65625 C 322.050781 221.296875 381.042969 160.863281 509.03125 160.863281 C 533.300781 160.863281 575.171875 165.605469 592.292969 170.386719 L 592.292969 276.472656 C 583.25 275.511719 567.539062 275.03125 548.046875 275.03125 C 485.242188 275.03125 460.972656 298.820312 460.972656 360.664062 L 460.972656 402.054688 L 586.070312 402.054688 L 564.585938 519.109375 L 460.972656 519.109375 L 460.972656 782.265625 C 650.628906 759.371094 797.59375 597.867188 797.59375 402.054688 Z M 797.59375 402.089844 " fill-opacity="1" fill-rule="nonzero"/></g><g clip-path="url(#d21af83680)"><path fill="#ffffff" d="M 564.617188 519.109375 L 586.105469 402.054688 L 461.003906 402.054688 L 461.003906 360.664062 C 461.003906 298.820312 485.277344 275.03125 548.082031 275.03125 C 567.574219 275.03125 583.285156 275.511719 592.328125 276.472656 L 592.328125 170.386719 C 575.207031 165.640625 533.335938 160.863281 509.066406 160.863281 C 381.078125 160.863281 322.085938 221.296875 322.085938 351.65625 L 322.085938 402.089844 L 243.085938 402.089844 L 243.085938 519.144531 L 322.085938 519.144531 L 322.085938 773.84375 C 351.71875 781.199219 382.695312 785.121094 414.628906 785.121094 C 430.339844 785.121094 445.8125 784.15625 461.039062 782.300781 L 461.039062 519.144531 L 564.652344 519.144531 Z M 564.617188 519.109375 " fill-opacity="1" fill-rule="nonzero"/></g><g fill="#fd661f" fill-opacity="1"><g transform="translate(536.221532, 603.188606)"><g><path d="M 3.609375 0 L 3.609375 -14.203125 L 0.796875 -14.203125 L 0.796875 -16.171875 L 3.609375 -16.171875 C 3.429688 -16.878906 3.34375 -17.546875 3.34375 -18.171875 C 3.34375 -19.222656 3.5625 -20.109375 4 -20.828125 C 4.445312 -21.546875 5.066406 -22.078125 5.859375 -22.421875 C 6.648438 -22.773438 7.5625 -22.953125 8.59375 -22.953125 C 10.207031 -22.953125 11.445312 -22.609375 12.3125 -21.921875 L 11.375 -20.234375 L 11.078125 -20.171875 C 10.441406 -20.679688 9.613281 -20.9375 8.59375 -20.9375 C 7.644531 -20.9375 6.929688 -20.691406 6.453125 -20.203125 C 5.972656 -19.710938 5.734375 -19.019531 5.734375 -18.125 C 5.734375 -17.5625 5.816406 -16.910156 5.984375 -16.171875 L 11.140625 -16.171875 L 11.140625 -14.203125 L 5.984375 -14.203125 L 5.984375 0 Z M 3.609375 0 "/></g></g><g transform="translate(547.735204, 603.188606)"><g><path d="M 6.4375 0.3125 C 5.289062 0.3125 4.390625 -0.0078125 3.734375 -0.65625 C 3.078125 -1.3125 2.75 -2.285156 2.75 -3.578125 L 2.75 -22.640625 L 5.140625 -22.640625 L 5.140625 -3.734375 C 5.140625 -3.054688 5.269531 -2.566406 5.53125 -2.265625 C 5.789062 -1.972656 6.191406 -1.828125 6.734375 -1.828125 C 7.066406 -1.828125 7.40625 -1.882812 7.75 -2 L 7.953125 -1.9375 L 8.234375 -0.0625 C 8.054688 0.0625 7.800781 0.15625 7.46875 0.21875 C 7.144531 0.28125 6.800781 0.3125 6.4375 0.3125 Z M 6.4375 0.3125 "/></g></g><g transform="translate(556.524266, 603.188606)"><g><path d="M 3.234375 6.859375 C 2.691406 6.859375 2.179688 6.8125 1.703125 6.71875 C 1.234375 6.625 0.828125 6.492188 0.484375 6.328125 L 0.921875 4.4375 L 1.1875 4.34375 C 1.414062 4.46875 1.707031 4.570312 2.0625 4.65625 C 2.414062 4.738281 2.78125 4.78125 3.15625 4.78125 C 3.800781 4.78125 4.335938 4.691406 4.765625 4.515625 C 5.203125 4.335938 5.570312 4.046875 5.875 3.640625 C 6.1875 3.234375 6.472656 2.675781 6.734375 1.96875 L 7.3125 0.375 L 0.828125 -16.15625 L 3.40625 -16.15625 L 8.484375 -2.96875 L 8.765625 -2.96875 L 13.6875 -16.15625 L 16.125 -16.15625 L 8.90625 2.53125 C 8.5 3.570312 8.039062 4.40625 7.53125 5.03125 C 7.019531 5.664062 6.414062 6.128906 5.71875 6.421875 C 5.03125 6.710938 4.203125 6.859375 3.234375 6.859375 Z M 3.234375 6.859375 "/></g></g></g><g fill="#fd661f" fill-opacity="1"><g transform="translate(573.25278, 603.188606)"><g><path d="M 6.671875 0.3125 C 5.078125 0.3125 3.832031 -0.101562 2.9375 -0.9375 C 2.039062 -1.769531 1.59375 -2.957031 1.59375 -4.5 C 1.59375 -5.457031 1.789062 -6.265625 2.1875 -6.921875 C 2.582031 -7.578125 3.195312 -8.113281 4.03125 -8.53125 C 4.863281 -8.945312 5.945312 -9.269531 7.28125 -9.5 C 8.445312 -9.6875 9.335938 -9.898438 9.953125 -10.140625 C 10.566406 -10.390625 10.976562 -10.664062 11.1875 -10.96875 C 11.394531 -11.269531 11.5 -11.648438 11.5 -12.109375 C 11.5 -12.847656 11.242188 -13.410156 10.734375 -13.796875 C 10.234375 -14.191406 9.429688 -14.390625 8.328125 -14.390625 C 7.273438 -14.390625 6.375 -14.1875 5.625 -13.78125 C 4.882812 -13.375 4.203125 -12.769531 3.578125 -11.96875 L 3.28125 -11.96875 L 2.109375 -13.625 C 2.796875 -14.488281 3.664062 -15.175781 4.71875 -15.6875 C 5.769531 -16.207031 6.972656 -16.46875 8.328125 -16.46875 C 10.222656 -16.46875 11.625 -16.046875 12.53125 -15.203125 C 13.4375 -14.367188 13.890625 -13.21875 13.890625 -11.75 L 13.890625 -3.171875 C 13.890625 -2.273438 14.269531 -1.828125 15.03125 -1.828125 C 15.28125 -1.828125 15.523438 -1.875 15.765625 -1.96875 L 15.96875 -1.90625 L 16.25 -0.25 C 16.070312 -0.132812 15.835938 -0.046875 15.546875 0.015625 C 15.265625 0.0859375 14.96875 0.125 14.65625 0.125 C 13.769531 0.125 13.097656 -0.0703125 12.640625 -0.46875 C 12.191406 -0.863281 11.90625 -1.441406 11.78125 -2.203125 L 11.46875 -2.234375 C 11.007812 -1.378906 10.390625 -0.738281 9.609375 -0.3125 C 8.828125 0.101562 7.847656 0.3125 6.671875 0.3125 Z M 7.1875 -1.59375 C 8.09375 -1.59375 8.875 -1.800781 9.53125 -2.21875 C 10.1875 -2.632812 10.691406 -3.21875 11.046875 -3.96875 C 11.398438 -4.71875 11.578125 -5.585938 11.578125 -6.578125 L 11.578125 -8.625 L 11.296875 -8.6875 C 10.929688 -8.4375 10.488281 -8.222656 9.96875 -8.046875 C 9.457031 -7.878906 8.738281 -7.726562 7.8125 -7.59375 C 6.875 -7.457031 6.128906 -7.257812 5.578125 -7 C 5.023438 -6.738281 4.628906 -6.40625 4.390625 -6 C 4.160156 -5.59375 4.046875 -5.09375 4.046875 -4.5 C 4.046875 -3.550781 4.320312 -2.828125 4.875 -2.328125 C 5.4375 -1.835938 6.207031 -1.59375 7.1875 -1.59375 Z M 7.1875 -1.59375 "/></g></g><g transform="translate(589.966647, 603.188606)"><g><path d="M 10.734375 0.3125 C 9.535156 0.3125 8.492188 0.0820312 7.609375 -0.375 C 6.722656 -0.84375 6.023438 -1.460938 5.515625 -2.234375 L 5.203125 -2.171875 L 5.203125 0 L 2.8125 0 L 2.8125 -22.640625 L 5.203125 -22.640625 L 5.203125 -13.734375 L 5.515625 -13.6875 C 6.742188 -15.539062 8.53125 -16.46875 10.875 -16.46875 C 12.195312 -16.46875 13.351562 -16.160156 14.34375 -15.546875 C 15.34375 -14.929688 16.117188 -13.992188 16.671875 -12.734375 C 17.222656 -11.484375 17.5 -9.929688 17.5 -8.078125 C 17.5 -6.234375 17.207031 -4.679688 16.625 -3.421875 C 16.050781 -2.171875 15.253906 -1.234375 14.234375 -0.609375 C 13.222656 0.00390625 12.054688 0.3125 10.734375 0.3125 Z M 10.171875 -1.828125 C 13.390625 -1.828125 15 -3.910156 15 -8.078125 C 15 -10.234375 14.578125 -11.8125 13.734375 -12.8125 C 12.898438 -13.820312 11.710938 -14.328125 10.171875 -14.328125 C 8.648438 -14.328125 7.441406 -13.8125 6.546875 -12.78125 C 5.648438 -11.75 5.203125 -10.179688 5.203125 -8.078125 C 5.203125 -5.972656 5.648438 -4.40625 6.546875 -3.375 C 7.441406 -2.34375 8.648438 -1.828125 10.171875 -1.828125 Z M 10.171875 -1.828125 "/></g></g><g transform="translate(609.24399, 603.188606)"><g><path d="M 2.8125 0 L 2.8125 -16.15625 L 5.078125 -16.15625 L 5.078125 -13.625 L 5.390625 -13.546875 C 6.140625 -15.378906 7.554688 -16.296875 9.640625 -16.296875 C 10.742188 -16.296875 11.566406 -16.097656 12.109375 -15.703125 L 11.5 -13.6875 L 11.203125 -13.625 C 10.597656 -13.925781 9.9375 -14.078125 9.21875 -14.078125 C 7.925781 -14.078125 6.929688 -13.59375 6.234375 -12.625 C 5.546875 -11.65625 5.203125 -10.085938 5.203125 -7.921875 L 5.203125 0 Z M 2.8125 0 "/></g></g></g><g fill="#fd661f" fill-opacity="1"><g transform="translate(621.299653, 603.188606)"><g><path d="M 9.265625 0.3125 C 7.742188 0.3125 6.421875 -0.0078125 5.296875 -0.65625 C 4.171875 -1.300781 3.300781 -2.25 2.6875 -3.5 C 2.070312 -4.757812 1.765625 -6.285156 1.765625 -8.078125 C 1.765625 -9.859375 2.070312 -11.378906 2.6875 -12.640625 C 3.300781 -13.898438 4.171875 -14.851562 5.296875 -15.5 C 6.421875 -16.144531 7.742188 -16.46875 9.265625 -16.46875 C 10.796875 -16.46875 12.125 -16.144531 13.25 -15.5 C 14.375 -14.851562 15.238281 -13.898438 15.84375 -12.640625 C 16.457031 -11.378906 16.765625 -9.859375 16.765625 -8.078125 C 16.765625 -6.285156 16.457031 -4.757812 15.84375 -3.5 C 15.238281 -2.25 14.375 -1.300781 13.25 -0.65625 C 12.125 -0.0078125 10.796875 0.3125 9.265625 0.3125 Z M 9.265625 -1.828125 C 10.878906 -1.828125 12.113281 -2.332031 12.96875 -3.34375 C 13.820312 -4.363281 14.25 -5.941406 14.25 -8.078125 C 14.25 -10.210938 13.820312 -11.785156 12.96875 -12.796875 C 12.113281 -13.816406 10.878906 -14.328125 9.265625 -14.328125 C 7.660156 -14.328125 6.425781 -13.816406 5.5625 -12.796875 C 4.707031 -11.773438 4.28125 -10.203125 4.28125 -8.078125 C 4.28125 -5.941406 4.707031 -4.363281 5.5625 -3.34375 C 6.425781 -2.332031 7.660156 -1.828125 9.265625 -1.828125 Z M 9.265625 -1.828125 "/></g></g><g transform="translate(639.844574, 603.188606)"><g><path d="M 6.671875 0.3125 C 5.078125 0.3125 3.832031 -0.101562 2.9375 -0.9375 C 2.039062 -1.769531 1.59375 -2.957031 1.59375 -4.5 C 1.59375 -5.457031 1.789062 -6.265625 2.1875 -6.921875 C 2.582031 -7.578125 3.195312 -8.113281 4.03125 -8.53125 C 4.863281 -8.945312 5.945312 -9.269531 7.28125 -9.5 C 8.445312 -9.6875 9.335938 -9.898438 9.953125 -10.140625 C 10.566406 -10.390625 10.976562 -10.664062 11.1875 -10.96875 C 11.394531 -11.269531 11.5 -11.648438 11.5 -12.109375 C 11.5 -12.847656 11.242188 -13.410156 10.734375 -13.796875 C 10.234375 -14.191406 9.429688 -14.390625 8.328125 -14.390625 C 7.273438 -14.390625 6.375 -14.1875 5.625 -13.78125 C 4.882812 -13.375 4.203125 -12.769531 3.578125 -11.96875 L 3.28125 -11.96875 L 2.109375 -13.625 C 2.796875 -14.488281 3.664062 -15.175781 4.71875 -15.6875 C 5.769531 -16.207031 6.972656 -16.46875 8.328125 -16.46875 C 10.222656 -16.46875 11.625 -16.046875 12.53125 -15.203125 C 13.4375 -14.367188 13.890625 -13.21875 13.890625 -11.75 L 13.890625 -3.171875 C 13.890625 -2.273438 14.269531 -1.828125 15.03125 -1.828125 C 15.28125 -1.828125 15.523438 -1.875 15.765625 -1.96875 L 15.96875 -1.90625 L 16.25 -0.25 C 16.070312 -0.132812 15.835938 -0.046875 15.546875 0.015625 C 15.265625 0.0859375 14.96875 0.125 14.65625 0.125 C 13.769531 0.125 13.097656 -0.0703125 12.640625 -0.46875 C 12.191406 -0.863281 11.90625 -1.441406 11.78125 -2.203125 L 11.46875 -2.234375 C 11.007812 -1.378906 10.390625 -0.738281 9.609375 -0.3125 C 8.828125 0.101562 7.847656 0.3125 6.671875 0.3125 Z M 7.1875 -1.59375 C 8.09375 -1.59375 8.875 -1.800781 9.53125 -2.21875 C 10.1875 -2.632812 10.691406 -3.21875 11.046875 -3.96875 C 11.398438 -4.71875 11.578125 -5.585938 11.578125 -6.578125 L 11.578125 -8.625 L 11.296875 -8.6875 C 10.929688 -8.4375 10.488281 -8.222656 9.96875 -8.046875 C 9.457031 -7.878906 8.738281 -7.726562 7.8125 -7.59375 C 6.875 -7.457031 6.128906 -7.257812 5.578125 -7 C 5.023438 -6.738281 4.628906 -6.40625 4.390625 -6 C 4.160156 -5.59375 4.046875 -5.09375 4.046875 -4.5 C 4.046875 -3.550781 4.320312 -2.828125 4.875 -2.328125 C 5.4375 -1.835938 6.207031 -1.59375 7.1875 -1.59375 Z M 7.1875 -1.59375 "/></g></g><g transform="translate(656.55844, 603.188606)"><g><path d="M 8.375 0.3125 C 7.082031 0.3125 5.9375 0.00390625 4.9375 -0.609375 C 3.945312 -1.234375 3.171875 -2.171875 2.609375 -3.421875 C 2.046875 -4.671875 1.765625 -6.222656 1.765625 -8.078125 C 1.765625 -9.921875 2.054688 -11.46875 2.640625 -12.71875 C 3.234375 -13.976562 4.046875 -14.914062 5.078125 -15.53125 C 6.109375 -16.15625 7.300781 -16.46875 8.65625 -16.46875 C 9.726562 -16.46875 10.691406 -16.265625 11.546875 -15.859375 C 12.410156 -15.453125 13.148438 -14.785156 13.765625 -13.859375 L 14.078125 -13.921875 L 14.078125 -22.640625 L 16.46875 -22.640625 L 16.46875 0 L 14.078125 0 L 14.078125 -2.359375 L 13.765625 -2.421875 C 13.242188 -1.617188 12.53125 -0.960938 11.625 -0.453125 C 10.71875 0.0546875 9.632812 0.3125 8.375 0.3125 Z M 9.125 -1.828125 C 10.625 -1.828125 11.820312 -2.34375 12.71875 -3.375 C 13.625 -4.40625 14.078125 -5.972656 14.078125 -8.078125 C 14.078125 -10.179688 13.625 -11.75 12.71875 -12.78125 C 11.820312 -13.8125 10.625 -14.328125 9.125 -14.328125 C 7.570312 -14.328125 6.375 -13.820312 5.53125 -12.8125 C 4.695312 -11.8125 4.28125 -10.234375 4.28125 -8.078125 C 4.28125 -3.910156 5.894531 -1.828125 9.125 -1.828125 Z M 9.125 -1.828125 "/></g></g></g></svg>