<svg xmlns="http://www.w3.org/2000/svg" xmlns:xlink="http://www.w3.org/1999/xlink" width="500" zoomAndPan="magnify" viewBox="0 0 375 374.999991" height="500" preserveAspectRatio="xMidYMid meet" version="1.0"><defs><g/><clipPath id="6e062ba5d6"><path d="M 27.207031 40.3125 L 337.707031 40.3125 L 337.707031 344.8125 L 27.207031 344.8125 Z M 27.207031 40.3125 " clip-rule="nonzero"/></clipPath><clipPath id="e81deadab9"><rect x="0" width="182" y="0" height="290"/></clipPath><clipPath id="3eefc80bfc"><path d="M 145 100 L 182 100 L 182 207.675781 L 145 207.675781 Z M 145 100 " clip-rule="nonzero"/></clipPath><clipPath id="114cc25bfc"><path d="M 181 71.175781 L 350.421875 71.175781 L 350.421875 147 L 181 147 Z M 181 71.175781 " clip-rule="nonzero"/></clipPath><clipPath id="abb0434aed"><path d="M 141.921875 106 L 171 106 L 171 138 L 141.921875 138 Z M 141.921875 106 " clip-rule="nonzero"/></clipPath></defs><path fill="#ff751f" d="M 36.613281 235.59375 C 36.613281 235.527344 36.59375 235.445312 36.59375 235.375 C 36.589844 235.367188 36.585938 235.359375 36.582031 235.347656 L 36.613281 235.59375 " fill-opacity="1" fill-rule="nonzero"/><g clip-path="url(#6e062ba5d6)"><path fill="#ff751f" d="M 242.304688 291.96875 C 241.929688 292.09375 241.367188 292.179688 241.214844 292.164062 C 241.105469 292.148438 240.988281 292.132812 240.875 292.117188 C 241.988281 291.71875 243.101562 291.335938 244.199219 290.90625 C 244.296875 290.886719 244.648438 290.777344 245.078125 290.640625 C 244.542969 290.925781 244.003906 291.21875 243.480469 291.515625 C 243.203125 291.664062 242.691406 291.84375 242.304688 291.96875 Z M 187.242188 300.039062 C 184.359375 299.722656 181.488281 299.289062 178.632812 298.777344 C 179.878906 298.75 181.105469 298.695312 182.238281 298.554688 C 182.894531 298.4375 183.554688 298.339844 184.21875 298.246094 C 189.308594 298.890625 194.5 299.234375 199.769531 299.234375 C 203.429688 299.234375 207.046875 299.058594 210.625 298.742188 C 209.46875 299.28125 208.328125 299.816406 207.230469 300.328125 C 200.578125 300.730469 193.890625 300.636719 187.242188 300.039062 Z M 109.285156 279.496094 L 108.695312 278.878906 C 108.851562 278.9375 108.984375 278.929688 109.171875 279.066406 C 109.335938 279.191406 109.558594 279.464844 109.753906 279.671875 Z M 96.082031 244.0625 C 93.859375 241.753906 92.226562 239.164062 90.058594 235.59375 C 87.945312 232.167969 86.621094 229.011719 84.789062 226.445312 C 83.585938 224.664062 82.464844 222.550781 81.558594 220.464844 L 81.671875 220.628906 L 81.609375 220.507812 C 82.363281 220.464844 83.226562 220.933594 84.3125 222.695312 C 86.136719 225.195312 88.085938 227.496094 89.957031 230.242188 C 90.160156 230.566406 90.390625 230.835938 90.605469 231.136719 C 93.546875 237.132812 96.703125 242.917969 100.453125 248.3125 C 99.167969 247.265625 97.671875 245.722656 96.082031 244.0625 Z M 123.671875 84.535156 L 123.984375 84.570312 L 123.171875 85.019531 Z M 132.261719 77.339844 L 132.859375 77.277344 L 131.566406 78.207031 C 131.371094 78.230469 130.953125 78.304688 131.011719 78.261719 C 131.386719 77.984375 131.839844 77.652344 132.261719 77.339844 Z M 139.949219 71.316406 C 140.167969 71.070312 140.796875 70.679688 141.433594 70.359375 C 145.03125 68.417969 146.835938 67.273438 147.460938 66.164062 C 147.679688 65.757812 148.558594 65.199219 149.382812 64.671875 C 149.746094 64.441406 150.714844 64.054688 151.386719 63.886719 C 151.921875 63.757812 152.710938 63.765625 152.859375 63.875 C 153.140625 64.070312 153.03125 64.382812 153.007812 64.285156 C 153.289062 64.777344 153.382812 64.949219 153.46875 65.101562 C 153.683594 65.753906 152.429688 66.644531 150.121094 67.65625 C 147.597656 68.691406 144.996094 69.785156 142.613281 71.234375 C 141.503906 71.847656 139.648438 72.472656 139.5625 72.253906 C 139.464844 72.023438 139.613281 71.683594 139.949219 71.316406 Z M 304.613281 118.882812 C 307.148438 122.886719 310.289062 127.0625 312.386719 133.582031 C 313.390625 136.730469 314.824219 139.636719 315.8125 142.273438 C 316 142.84375 316.152344 143.425781 316.320312 144.003906 C 315.492188 141.960938 314.574219 139.566406 313.605469 136.96875 C 312.746094 134.664062 311.488281 132.480469 310.507812 130.320312 C 309.222656 127.648438 308 124.945312 306.339844 122.472656 C 305.089844 120.484375 303.867188 118.472656 302.589844 116.496094 C 303.253906 117.277344 303.914062 118.058594 304.613281 118.882812 Z M 273.78125 90.804688 C 275.652344 92.167969 277.574219 93.628906 279.476562 95.390625 C 278.371094 94.296875 275.289062 91.65625 275.191406 91.5625 C 275.171875 91.511719 275.78125 91.855469 276.5 92.449219 C 277.207031 93.058594 278.097656 93.820312 278.796875 94.417969 C 280.898438 96.199219 282.855469 97.859375 284.910156 99.601562 C 286.785156 101.527344 288.738281 103.558594 290.960938 105.949219 C 291.976562 107.015625 293.335938 108.496094 292.789062 107.730469 C 292.585938 107.46875 291.507812 106.277344 290.773438 105.484375 C 289.710938 104.351562 288.613281 103.175781 287.550781 102.042969 C 287.214844 101.679688 286.75 101.113281 286.746094 101.066406 C 286.742188 101.027344 287.199219 101.445312 287.558594 101.820312 C 288.894531 103.230469 290.246094 104.648438 291.59375 106.066406 C 291.609375 106.085938 291.632812 106.117188 291.648438 106.132812 C 291.660156 106.144531 291.667969 106.144531 291.675781 106.152344 C 291.808594 106.292969 291.9375 106.429688 292.0625 106.5625 C 292.847656 107.332031 293.527344 108.1875 294.191406 109.058594 L 296.207031 111.640625 C 297.484375 113.253906 298.730469 114.832031 299.808594 116.195312 C 300.839844 117.582031 301.597656 118.820312 302.179688 119.550781 C 302.808594 120.375 303.578125 121.507812 304.488281 122.898438 C 305.363281 124.308594 306.539062 125.894531 307.441406 127.914062 C 308.433594 129.894531 309.421875 131.863281 310.410156 133.832031 C 310.890625 134.820312 311.429688 135.78125 311.859375 136.789062 L 313.042969 139.855469 C 313.515625 141.078125 313.765625 141.621094 313.785156 141.507812 C 313.808594 141.402344 313.542969 140.601562 313.148438 139.480469 C 313.023438 139.136719 312.875 138.730469 312.753906 138.390625 L 312.042969 136.535156 C 311.78125 135.925781 311.460938 135.347656 311.175781 134.75 C 310.585938 133.570312 310.003906 132.390625 309.417969 131.21875 C 308.835938 130.046875 308.257812 128.875 307.679688 127.710938 L 306.820312 125.957031 L 305.796875 124.300781 C 304.433594 122.089844 303.082031 119.886719 301.734375 117.6875 C 301.390625 117.140625 301.070312 116.578125 300.710938 116.042969 L 297.230469 111.390625 C 296.214844 110.039062 295.140625 108.609375 294.058594 107.167969 C 292.882812 105.808594 291.628906 104.492188 290.480469 103.199219 C 290.378906 103.078125 290.265625 102.964844 290.164062 102.84375 C 291.035156 103.300781 292.136719 104.050781 293.359375 105.136719 C 293.789062 105.589844 294.226562 106.054688 294.652344 106.503906 C 296.105469 108.328125 297.589844 110.242188 299.066406 112.183594 C 299.1875 112.382812 299.3125 112.558594 299.433594 112.769531 C 299.6875 113.070312 299.941406 113.367188 300.195312 113.667969 C 300.328125 113.847656 300.46875 114.023438 300.601562 114.199219 L 301.695312 115.671875 L 302.65625 117.234375 L 304.582031 120.339844 C 305.820312 122.4375 307.285156 124.429688 308.394531 126.648438 C 309.867188 129.550781 311.3125 132.527344 312.65625 135.371094 C 313.617188 137.679688 314.382812 140.074219 315.246094 142.417969 C 316.074219 144.78125 317.015625 147.09375 317.507812 149.519531 C 317.558594 149.738281 317.613281 149.960938 317.667969 150.183594 C 317.804688 151.121094 317.914062 152.074219 317.992188 153.035156 C 317.648438 151.84375 317.253906 150.425781 316.921875 149.28125 C 316.640625 148.320312 316.621094 148.34375 316.746094 148.832031 C 317.191406 150.523438 317.621094 152.140625 318.054688 153.773438 C 318.070312 154.019531 318.105469 154.257812 318.117188 154.503906 C 318.070312 156.152344 318.027344 157.679688 317.984375 159.292969 C 317.9375 161.574219 318.019531 163.640625 318.238281 165.550781 C 313.707031 135.328125 297.320312 108.863281 273.78125 90.804688 Z M 101.273438 248.917969 C 101.226562 248.890625 101.183594 248.863281 101.136719 248.832031 C 98.820312 245.527344 96.675781 242.113281 94.710938 238.601562 C 96.714844 242.160156 98.914062 245.597656 101.273438 248.917969 Z M 255.011719 79.007812 C 255.179688 79.039062 255.363281 79.085938 255.542969 79.125 C 255.820312 79.246094 256.09375 79.367188 256.378906 79.492188 C 258.03125 80.269531 259.449219 81.207031 261.234375 82.292969 C 262.101562 82.835938 262.984375 83.375 263.867188 83.921875 C 263.890625 83.957031 263.917969 83.996094 263.945312 84.03125 C 261.046875 82.234375 258.066406 80.558594 255.011719 79.007812 Z M 286.457031 98.832031 C 287.582031 99.71875 288.941406 101.070312 290.101562 102.773438 C 288.941406 101.429688 287.71875 100.117188 286.457031 98.832031 Z M 335.847656 203.359375 C 335.316406 201.765625 335.152344 198.917969 334.777344 196.785156 C 334.457031 195.082031 334.300781 193.121094 333.710938 192.085938 C 332.964844 190.757812 332.332031 188.980469 331.722656 186.980469 C 330.195312 181.96875 328.304688 179.113281 326.023438 178.523438 C 325.253906 178.324219 324.433594 179.132812 323.535156 181.5625 C 322.667969 183.902344 321.8125 186.429688 320.980469 189.015625 C 321.035156 188.5625 321.097656 187.925781 321.175781 187 C 321.289062 185.609375 321.398438 183.835938 321.382812 182.757812 C 321.375 182.277344 321.289062 182.628906 321.222656 183.097656 C 321.042969 184.386719 320.867188 187.246094 320.691406 189.527344 C 320.703125 189.621094 320.71875 189.699219 320.734375 189.757812 C 320.714844 189.824219 320.691406 189.886719 320.667969 189.957031 C 320.664062 189.972656 320.65625 189.992188 320.652344 190.007812 C 320.652344 189.957031 320.652344 189.90625 320.65625 189.855469 C 320.496094 189.59375 320.347656 190.234375 320.152344 191.414062 C 319.714844 192.632812 319.265625 193.90625 318.8125 195.242188 C 319.28125 191.066406 319.546875 186.828125 319.546875 182.53125 C 319.546875 179.019531 319.335938 175.5625 319.027344 172.132812 C 319.398438 173.757812 319.753906 175.320312 320.097656 176.847656 C 320.527344 178.582031 321.0625 178.816406 321.65625 178.160156 C 322.339844 177.40625 322.691406 175.738281 322.65625 172.582031 C 322.628906 170.335938 322.578125 168.148438 322.894531 166.09375 C 323.1875 160.917969 322.808594 155.707031 321.601562 150.644531 C 320.089844 144.972656 318.648438 139.433594 316.394531 133.808594 C 315.027344 129.398438 313.035156 125.414062 311.019531 121.542969 C 309.210938 117.570312 306.734375 114.054688 304.40625 110.5 C 302.511719 107.355469 300.167969 104.511719 297.839844 101.503906 C 296.703125 99.980469 295.546875 98.429688 294.367188 96.839844 C 293.074219 95.335938 291.753906 93.792969 290.394531 92.203125 C 287.828125 88.949219 285.082031 86.234375 282.394531 84.492188 C 279.0625 82.046875 275.324219 78.910156 271.066406 76.0625 C 266.699219 72.644531 262.152344 70.363281 258.203125 68.664062 C 256.019531 67.59375 252.789062 66.066406 249.761719 64.742188 C 246.277344 63.167969 243.183594 61.746094 240.109375 61.144531 C 237.480469 60.464844 234.8125 59.777344 232.035156 59.058594 C 229.25 58.402344 226.28125 57.992188 223.191406 57.296875 C 217.152344 55.757812 212.75 56.695312 206.671875 55.867188 C 205.160156 55.726562 203.816406 55.878906 202.304688 55.867188 C 199.257812 55.875 196.265625 55.882812 193.328125 55.894531 C 190.398438 56.136719 187.539062 56.542969 184.75 56.871094 C 179.140625 57.296875 173.972656 59.132812 169.035156 60.289062 C 167.179688 60.707031 165.273438 61.5625 163.316406 62.199219 C 162.707031 62.40625 161.792969 62.589844 160.984375 62.757812 C 160.609375 62.835938 160.125 62.886719 159.738281 62.910156 C 159.347656 62.9375 158.839844 62.960938 158.695312 62.914062 C 156.703125 62.21875 156.910156 61.195312 159.90625 59.859375 C 165.277344 57.144531 173.226562 55.570312 180.171875 53.929688 C 182.617188 53.570312 185.527344 53.445312 188.449219 53.28125 C 190.714844 53.15625 191.980469 52.816406 192.375 52.347656 C 192.746094 51.902344 193.046875 51.472656 193.292969 51.058594 C 193.574219 50.578125 194.9375 50.382812 197.523438 50.667969 C 201.203125 51.066406 203.476562 51.097656 203.972656 50.347656 C 204.339844 49.789062 206.546875 49.566406 209.578125 50.316406 C 214.273438 51.328125 217.398438 51.671875 218.421875 50.882812 C 219.019531 50.367188 220.957031 50.488281 223.441406 51.074219 C 227.046875 51.929688 231.171875 52.804688 234.417969 53.695312 C 237.652344 54.613281 240.246094 55.007812 243.203125 55.675781 C 243.84375 55.859375 244.726562 56.109375 245.4375 56.308594 L 256.832031 60.453125 C 260.425781 61.855469 262.492188 62.5625 264.121094 62.519531 C 265.25 62.554688 262.671875 59.542969 259.730469 57.605469 L 255.875 55.519531 C 253.125 54.0625 250.429688 52.621094 247.71875 51.324219 C 244.90625 50.261719 242.136719 49.21875 239.402344 48.1875 C 233.984375 45.921875 228.246094 45.078125 222.726562 43.574219 C 219.613281 42.878906 216.417969 42.652344 213.136719 41.996094 C 206.097656 40.40625 199.296875 40.679688 192.839844 40.3125 C 186.386719 40.917969 180.113281 40.839844 174.050781 42.238281 C 171.121094 42.800781 168.285156 43.34375 165.367188 43.90625 C 162.5 44.652344 159.546875 45.417969 156.339844 46.25 C 154.578125 46.679688 152.972656 47.1875 151.515625 47.671875 C 146.515625 49.882812 141.902344 51.851562 136.746094 54.386719 C 131.648438 57.195312 127.855469 59.277344 122.554688 62.753906 C 120.871094 63.773438 119.671875 64.878906 118.914062 65.6875 C 117.519531 67.089844 115.894531 68.507812 111.992188 70.996094 C 110.460938 71.929688 108.832031 73.101562 107.554688 74.09375 C 104.683594 76.210938 102.429688 78.824219 100.070312 81.0625 C 97.714844 83.316406 95.65625 85.636719 93.96875 88.082031 C 92.011719 90.847656 89.839844 93.390625 87.957031 96.375 C 86.09375 99.375 84.050781 102.441406 81.757812 105.773438 C 79.109375 110.59375 76.472656 115.101562 75.828125 118.496094 C 75.582031 119.816406 74.636719 122.0625 73.925781 123.964844 C 73.125 126.195312 72.003906 128.605469 71.535156 130.792969 C 70.707031 134.710938 69.570312 138.472656 68.859375 142.570312 C 68.351562 146.71875 67.203125 150.925781 66.6875 155.722656 C 66.519531 157.222656 66.449219 158.582031 66.40625 159.859375 C 65.722656 170.695312 67.222656 182.320312 69.601562 191.070312 C 71.199219 194.960938 71.738281 200.550781 73.492188 205.585938 C 74.390625 210.015625 75.292969 211.675781 76.3125 212.050781 C 77.03125 212.296875 77.699219 213.214844 78.582031 213.867188 C 79.300781 214.445312 79.933594 216.078125 80.460938 218.335938 L 80.351562 218.132812 L 80.460938 218.335938 L 77.355469 217.460938 C 77.113281 217.402344 77.175781 218.105469 77.441406 219 C 77.546875 219.351562 77.742188 219.828125 77.847656 219.960938 C 78.945312 221.25 79.734375 222.382812 81.21875 225.765625 C 82.003906 227.386719 82.914062 228.460938 83.753906 229.734375 L 86.746094 234.304688 C 87.898438 235.726562 89.054688 237.15625 90.230469 238.609375 C 90.773438 239.289062 91.417969 240.394531 92.011719 241.351562 C 92.175781 241.613281 92.453125 242.242188 92.464844 242.382812 C 92.496094 242.773438 92.558594 243.347656 92.355469 243.230469 C 91.957031 243 91.410156 242.429688 90.878906 241.847656 C 88.972656 239.640625 86.808594 237.339844 84.804688 234.886719 C 82.960938 232.316406 81.101562 229.730469 79.328125 227.261719 C 78.457031 226.207031 77.699219 224.40625 77.011719 222.777344 C 75.859375 220.175781 74.589844 217.714844 73.546875 214.738281 C 72.410156 209.855469 71.546875 211.023438 70.542969 208.746094 L 69.835938 207.128906 C 68.175781 203.699219 67.257812 200.066406 66.105469 196.433594 C 64.832031 192.808594 63.996094 189.089844 63.351562 185.304688 C 63.058594 183.796875 62.671875 182.449219 62.511719 180.570312 C 62.148438 176.8125 62.308594 173.621094 62.058594 170.351562 C 62 168.714844 61.941406 167.0625 61.882812 165.328125 C 62.03125 163.605469 62.226562 161.789062 62.507812 159.816406 C 62.71875 158.347656 62.613281 157.234375 62.558594 156.179688 C 62.515625 155.390625 62.296875 155.054688 62.207031 154.371094 C 61.945312 152.964844 62.597656 150.734375 63.621094 148.941406 C 64.160156 148.042969 64.582031 147.335938 65.140625 146.402344 C 65.449219 145.8125 65.96875 144.605469 66.074219 144.101562 C 66.535156 141.101562 67.355469 138.296875 68.226562 135.585938 C 68.308594 135.300781 67.875 135.40625 67.621094 135.804688 C 66.847656 137.148438 65.886719 138.671875 65.125 140.113281 C 64.402344 141.636719 63.664062 142.109375 63.851562 140.894531 C 64.324219 137.863281 65.085938 135.238281 65.769531 132.273438 C 66.480469 129.308594 67.402344 126.082031 69.460938 122.351562 C 70.488281 119.953125 71.503906 117.578125 72.484375 115.296875 C 73.613281 113.078125 74.695312 110.945312 75.707031 108.964844 C 77.558594 104.894531 79.15625 101.441406 79.941406 98.945312 C 80.269531 97.707031 81.933594 95.558594 84.175781 93.183594 C 85.222656 92 86.070312 91.03125 86.339844 90.425781 C 86.789062 89.453125 86.820312 88.792969 87.347656 87.761719 C 87.859375 86.742188 88.378906 85.625 89.578125 84.1875 C 92.597656 80.273438 95.695312 77.304688 98.421875 74.140625 C 101.097656 70.90625 104.042969 68.191406 107.285156 65.28125 C 112.050781 60.652344 117.992188 56.867188 124.285156 52.773438 C 125.753906 51.980469 127.367188 51.105469 128.695312 50.390625 C 134.101562 47.226562 132.105469 46.328125 124.59375 48.710938 C 121.128906 49.671875 118.027344 51.328125 114.746094 53.09375 C 112.089844 54.648438 109.25 55.910156 106.71875 57.738281 C 98.039062 63.0625 90.902344 69.152344 85.035156 75.335938 C 82.128906 78.804688 78.734375 82.15625 75.285156 86.039062 C 72.046875 90.050781 69.054688 93.707031 66.667969 97.609375 C 63.8125 102.726562 60.472656 107.605469 58.246094 113.070312 L 54.601562 121.089844 L 51.71875 129.386719 C 49.945312 134.011719 48.710938 139.078125 47.816406 143.613281 C 46.128906 150.371094 45.894531 157.527344 45.21875 164.246094 C 45.421875 171.046875 45.058594 177.539062 46.363281 183.277344 C 46.539062 184.285156 46.660156 185.644531 46.765625 186.949219 C 46.992188 191.582031 47.816406 195.796875 48.835938 199.890625 C 49.722656 204.003906 50.652344 208.007812 52.132812 212.09375 C 53.089844 215.027344 54.019531 217.867188 55.03125 220.605469 C 56.285156 223.25 57.511719 225.84375 58.722656 228.40625 C 61.105469 233.902344 64.402344 237.480469 67.632812 243.957031 C 68.429688 245.398438 69.308594 246.054688 70.183594 247.261719 C 73.507812 251.820312 76.882812 256.367188 80.851562 260.421875 C 84.984375 266.355469 89.222656 269.320312 93.1875 272.917969 C 96.738281 275.929688 100.582031 278.304688 104.042969 280.710938 C 107.851562 283.152344 112.558594 285.777344 115.605469 286.945312 C 116.226562 287.160156 117.265625 287.882812 118.3125 288.351562 C 121.46875 289.945312 123.695312 290.660156 126.089844 291.523438 C 130.753906 293.398438 135.90625 294.234375 141.625 296.355469 C 145.59375 297.328125 149.328125 298.085938 152.796875 298.734375 C 156.28125 299.34375 159.671875 299.296875 162.722656 299.4375 C 165.769531 299.519531 167.582031 299.066406 170.828125 298.828125 C 172.769531 298.761719 174.960938 298.8125 177.132812 298.800781 L 180.234375 299.277344 C 183.617188 299.71875 186.964844 300.480469 190.390625 300.5 C 193.796875 300.640625 197.207031 300.929688 200.613281 300.941406 C 202.519531 300.859375 204.425781 300.773438 206.328125 300.683594 C 202.726562 302.191406 198.121094 303.214844 192.84375 304.339844 C 190.003906 304.632812 187.289062 304.914062 184.320312 305.21875 C 182.808594 305.3125 181.234375 305.414062 179.546875 305.519531 C 177.867188 305.421875 176.070312 305.261719 174.105469 305.035156 C 173.328125 304.945312 172.695312 304.957031 172.070312 304.953125 C 167.3125 305.113281 162.324219 304.414062 157.996094 304.078125 C 153.542969 303.964844 148.703125 302.726562 143.789062 301.628906 C 140.472656 301.023438 137.097656 299.800781 134.703125 299.328125 C 128.613281 298.378906 120.855469 295.132812 112.90625 290.84375 C 102.171875 284.695312 92.625 278.3125 83.054688 268.714844 C 79.921875 265.546875 77.433594 262.851562 74.472656 259.59375 C 71.90625 257.015625 70.207031 254.226562 68.097656 251.59375 C 65.660156 248.523438 63.363281 245.535156 61.402344 242.171875 C 59.4375 238.824219 56.96875 235.496094 55.339844 231.292969 C 54.34375 229 53.347656 227.1875 52.363281 225.242188 C 50.757812 222.359375 49.644531 219.507812 48.433594 216.359375 C 43.34375 204.09375 40.867188 190.796875 39.28125 177.421875 C 39.113281 172.0625 38.5625 166.441406 39.101562 160.335938 C 39.527344 156.007812 40.066406 151.316406 40.242188 147.734375 C 41.089844 142.296875 42.042969 135.632812 43.941406 129.519531 C 45.761719 123.40625 47.105469 117.734375 49.441406 112.214844 C 49.851562 111.136719 50.0625 110.253906 50.109375 109.664062 C 50.269531 107.652344 50.449219 105.613281 50.425781 103.894531 C 50.402344 101.972656 47.359375 105.320312 44.332031 110.664062 C 41.078125 115.980469 38.8125 121.761719 36.277344 127.464844 C 34.832031 130.519531 33.917969 133.90625 33.101562 136.882812 C 31.722656 141.988281 30.355469 147.113281 29.660156 152.421875 C 28.757812 157.699219 27.820312 163.03125 27.605469 168.507812 C 27.371094 171.730469 27.355469 174.679688 27.246094 177.78125 C 27.53125 184.25 27.730469 190.742188 28.542969 197.175781 C 29.691406 203.574219 30.300781 210.074219 32.257812 216.328125 C 32.890625 218.84375 33.566406 221.53125 34.238281 224.195312 C 35.4375 228.945312 36.523438 232.574219 36.59375 235.375 C 37.941406 238.640625 39.140625 241.773438 40.90625 245.527344 C 42.105469 248.292969 43.324219 250.539062 44.28125 251.730469 C 46.601562 254.789062 49.550781 258.675781 52.816406 262.984375 C 55.855469 267.421875 59.71875 271.878906 63.492188 276.226562 C 66.621094 280.226562 71.308594 285.65625 74.671875 288.554688 C 74.90625 288.746094 75.390625 289.320312 75.746094 289.746094 C 76.09375 290.171875 76.46875 290.636719 76.796875 291.046875 C 78.386719 292.960938 79.808594 294.269531 80.621094 294.417969 C 81.261719 294.527344 82.328125 295.152344 84.042969 296.699219 C 90.113281 302.523438 95.917969 305.414062 100.863281 308.367188 C 105.011719 310.59375 109.710938 312.714844 114.808594 315.527344 C 118.460938 317.40625 122.214844 318.761719 125.710938 320.195312 C 129.191406 321.679688 132.664062 322.746094 136.066406 323.535156 C 140.011719 324.519531 144.207031 326.015625 148.546875 326.675781 C 149.8125 326.910156 151.394531 327.355469 152.9375 327.992188 C 154.023438 328.4375 153.789062 328.773438 152.296875 328.539062 C 146.546875 327.796875 141.035156 326.34375 135.21875 324.757812 C 132.285156 323.972656 129.304688 323.085938 127.011719 322.339844 C 123.75 321.410156 120.300781 320.332031 116.589844 319.039062 C 112.90625 317.703125 109.195312 315.726562 105.046875 313.640625 C 103.472656 312.828125 101.9375 312.140625 101.03125 311.90625 C 97.929688 310.921875 93.152344 307.984375 88.484375 305.1875 C 81.65625 300.589844 73.996094 294.71875 69.1875 291.132812 C 67.78125 290.167969 65.511719 287.945312 63.648438 286.292969 C 61.398438 284.4375 59.417969 282.246094 57.5 280.25 C 56.695312 279.425781 56.097656 279.023438 55.433594 278.472656 C 54.699219 277.863281 55.269531 279.675781 56.277344 281.324219 C 58.109375 284.46875 60.261719 287.175781 62.648438 289.648438 C 70.167969 298.09375 78.039062 304.851562 87.347656 312.179688 C 89.953125 314.027344 92.605469 315.910156 95.285156 317.804688 C 98.03125 319.605469 100.964844 321.199219 103.832031 322.890625 C 109.496094 326.402344 115.644531 329.121094 121.609375 331.800781 C 142.210938 340.652344 164.316406 344.769531 183.703125 344.484375 C 186.746094 344.4375 189.800781 344.390625 192.929688 344.339844 C 196.042969 344.066406 199.226562 343.777344 202.535156 343.484375 C 210.800781 343.085938 218.261719 341.144531 225.414062 339.628906 C 232.449219 337.554688 239.226562 335.507812 245.789062 332.726562 C 249.828125 330.890625 253.679688 329.140625 257.636719 327.34375 C 261.414062 325.261719 265.289062 323.128906 269.550781 320.785156 C 272.539062 319.292969 274.71875 317.375 277.117188 315.742188 C 293.679688 303.929688 307.65625 289.132812 318.050781 273.066406 C 321.054688 268.261719 324.132812 263.429688 326.433594 258.285156 C 327.632812 255.773438 328.820312 253.28125 329.988281 250.839844 C 330.882812 248.296875 331.757812 245.800781 332.601562 243.386719 C 333.320312 241.140625 334.019531 238.957031 334.691406 236.84375 C 335.113281 234.671875 335.523438 232.574219 335.914062 230.558594 C 336.523438 226.515625 337.292969 222.96875 337.0625 219.65625 C 336.832031 213.886719 337.410156 207.300781 335.847656 203.359375 " fill-opacity="1" fill-rule="nonzero"/></g><path fill="#ff751f" d="M 299.46875 112.820312 L 299.433594 112.769531 L 299.34375 112.660156 Z M 299.46875 112.820312 " fill-opacity="1" fill-rule="nonzero"/><path fill="#ff751f" d="M 320.671875 189.492188 L 320.65625 189.855469 L 320.667969 189.808594 Z M 320.671875 189.492188 " fill-opacity="1" fill-rule="nonzero"/><path fill="#ff751f" d="M 320.671875 189.5 L 320.667969 189.808594 C 320.675781 189.71875 320.683594 189.613281 320.691406 189.527344 C 320.6875 189.492188 320.675781 189.542969 320.671875 189.5 " fill-opacity="1" fill-rule="nonzero"/><path fill="#ff751f" d="M 322.601562 177.828125 C 322.679688 179.382812 322.75 181.027344 322.871094 182.234375 C 322.890625 182.460938 322.917969 182.570312 322.929688 182.515625 C 322.941406 182.460938 322.945312 182.0625 322.9375 181.929688 C 322.820312 180.058594 322.707031 178.207031 322.605469 176.550781 C 322.535156 176.292969 322.542969 176.746094 322.601562 177.828125 " fill-opacity="1" fill-rule="nonzero"/><path fill="#ff751f" d="M 313.28125 138.289062 C 313.28125 138.339844 313.671875 139.417969 313.882812 140.023438 L 314.558594 141.695312 C 314.429688 141.277344 314.34375 140.941406 314.15625 140.414062 C 313.746094 139.292969 313.289062 138.117188 313.28125 138.289062 " fill-opacity="1" fill-rule="nonzero"/><g transform="matrix(1, 0, 0, 1, 94, 78)"><g clip-path="url(#e81deadab9)"><g fill="#ffffff" fill-opacity="1"><g transform="translate(1.216872, 231.229647)"><g><path d="M 173.171875 -83.125 C 173.171875 -71.582031 171.003906 -60.757812 166.671875 -50.65625 C 162.347656 -40.550781 156.429688 -31.742188 148.921875 -24.234375 C 141.421875 -16.734375 132.617188 -10.816406 122.515625 -6.484375 C 112.421875 -2.160156 101.597656 0 90.046875 0 C 78.503906 0 67.679688 -2.160156 57.578125 -6.484375 C 47.472656 -10.816406 38.671875 -16.734375 31.171875 -24.234375 C 23.671875 -31.742188 17.753906 -40.550781 13.421875 -50.65625 C 9.085938 -60.757812 6.921875 -71.582031 6.921875 -83.125 L 6.921875 -166.25 C 6.921875 -171.25 8.75 -175.578125 12.40625 -179.234375 C 16.0625 -182.890625 20.394531 -184.71875 25.40625 -184.71875 C 30.40625 -184.71875 34.734375 -182.890625 38.390625 -179.234375 C 42.046875 -175.578125 43.875 -171.25 43.875 -166.25 L 43.875 -83.125 C 43.875 -76.769531 45.078125 -70.800781 47.484375 -65.21875 C 49.890625 -59.644531 53.207031 -54.738281 57.4375 -50.5 C 61.664062 -46.269531 66.570312 -42.953125 72.15625 -40.546875 C 77.738281 -38.140625 83.703125 -36.9375 90.046875 -36.9375 C 96.398438 -36.9375 102.363281 -38.140625 107.9375 -40.546875 C 113.519531 -42.953125 118.425781 -46.269531 122.65625 -50.5 C 126.894531 -54.738281 130.21875 -59.644531 132.625 -65.21875 C 135.03125 -70.800781 136.234375 -76.769531 136.234375 -83.125 L 136.234375 -166.25 C 136.234375 -171.25 138.0625 -175.578125 141.71875 -179.234375 C 145.375 -182.890625 149.703125 -184.71875 154.703125 -184.71875 C 159.703125 -184.71875 164.03125 -182.890625 167.6875 -179.234375 C 171.34375 -175.578125 173.171875 -171.25 173.171875 -166.25 Z M 173.171875 -83.125 "/></g></g></g></g></g><path fill="#05445e" d="M 283.363281 143.246094 C 253.386719 137.308594 222.230469 137.875 194.046875 150.949219 C 193.402344 159.371094 192.183594 167.710938 190.363281 175.960938 C 217.71875 171.359375 245.339844 167.789062 273.054688 169.980469 C 281.988281 170.683594 290.921875 171.777344 299.828125 172.953125 C 297.730469 164.128906 296.347656 155.179688 295.632812 146.140625 C 291.582031 145.027344 287.476562 144.0625 283.363281 143.246094 Z M 283.363281 143.246094 " fill-opacity="1" fill-rule="nonzero"/><g clip-path="url(#3eefc80bfc)"><path fill="#05445e" d="M 178.539062 163.453125 C 179.914062 156.578125 180.785156 149.628906 181.164062 142.617188 C 181.734375 128.289062 180.140625 114.007812 176.355469 100.171875 C 174.613281 101.296875 172.878906 102.433594 171.152344 103.574219 C 174.324219 115.4375 175.777344 127.628906 175.515625 139.902344 C 175.226562 147.902344 174.238281 155.832031 172.519531 163.660156 C 169.386719 165.148438 167 168.21875 165.914062 171.453125 C 165.082031 173.953125 165.367188 177.539062 168.035156 178.835938 C 167.117188 181.292969 166.136719 183.71875 165.089844 186.121094 C 159.320312 194.058594 152.757812 201.320312 145.492188 207.933594 C 147.238281 207.867188 148.972656 207.804688 150.714844 207.742188 C 151.25 207.726562 151.949219 207.398438 152.480469 206.925781 C 153.070312 206.402344 153.738281 206.125 154.222656 206.101562 C 154.710938 206.085938 155.015625 206.324219 154.898438 206.824219 C 154.820312 207.140625 154.789062 207.296875 154.710938 207.601562 C 154.773438 207.601562 154.8125 207.601562 154.875 207.59375 C 155.898438 207.554688 156.917969 207.523438 157.929688 207.484375 C 158.457031 207.46875 159.125 207.148438 159.625 206.675781 C 159.640625 206.660156 159.640625 206.660156 159.65625 206.644531 C 160.207031 206.125 160.851562 205.851562 161.328125 205.835938 C 161.816406 205.820312 162.136719 206.0625 162.035156 206.574219 C 161.941406 207.035156 162.226562 207.328125 162.75 207.3125 C 164.460938 207.25 166.167969 207.195312 167.878906 207.132812 C 169.582031 200.097656 170.910156 193 171.820312 185.816406 C 171.8125 185.816406 171.8125 185.816406 171.804688 185.816406 C 172.753906 183.421875 173.640625 181 174.472656 178.566406 C 177.730469 177.171875 180.472656 174.34375 181.359375 170.859375 C 182.019531 168.226562 181.25 164.671875 178.539062 163.453125 Z M 178.539062 163.453125 " fill-opacity="1" fill-rule="nonzero"/></g><g clip-path="url(#114cc25bfc)"><path fill="#05445e" d="M 328.027344 98.972656 C 300.257812 85.546875 271.539062 81.3125 242.386719 71.1875 C 221.273438 80.859375 200.835938 84.738281 181.179688 97.09375 C 181.484375 98.171875 181.773438 99.246094 182.050781 100.332031 C 185.503906 114.140625 186.941406 128.328125 186.421875 142.554688 C 186.390625 143.394531 186.34375 144.234375 186.289062 145.074219 C 187.199219 145.507812 188.117188 145.945312 189.027344 146.378906 C 189.035156 146.261719 189.035156 146.195312 189.042969 146.078125 C 189.765625 145.710938 190.136719 145.53125 190.859375 145.160156 C 213.257812 134.058594 238.101562 131.273438 262.730469 133.265625 C 274.84375 134.246094 286.917969 136.09375 298.5625 139.757812 C 299.308594 140.003906 299.683594 140.121094 300.429688 140.363281 C 316.980469 130.054688 333.554688 119.761719 350.726562 110.511719 C 343.226562 106.53125 335.660156 102.660156 328.027344 98.972656 Z M 328.027344 98.972656 " fill-opacity="1" fill-rule="nonzero"/></g><g clip-path="url(#abb0434aed)"><path fill="#05445e" d="M 166.441406 106.714844 C 158.1875 112.28125 150.054688 118.019531 141.921875 123.765625 C 151.414062 128.234375 160.859375 132.820312 170.304688 137.394531 C 170.320312 127.023438 169.023438 116.753906 166.441406 106.714844 Z M 166.441406 106.714844 " fill-opacity="1" fill-rule="nonzero"/></g></svg>