<svg xmlns="http://www.w3.org/2000/svg" xmlns:xlink="http://www.w3.org/1999/xlink" width="50" zoomAndPan="magnify" viewBox="0 0 37.5 30.000001" height="40" preserveAspectRatio="xMidYMid meet" version="1.0"><defs><g/><clipPath id="1276795f44"><path d="M 5.1875 1.195312 L 31.828125 1.195312 L 31.828125 27.835938 L 5.1875 27.835938 Z M 5.1875 1.195312 " clip-rule="nonzero"/></clipPath><clipPath id="53d8034b68"><path d="M 18.507812 1.195312 C 11.152344 1.195312 5.1875 7.160156 5.1875 14.515625 C 5.1875 21.871094 11.152344 27.835938 18.507812 27.835938 C 25.863281 27.835938 31.828125 21.871094 31.828125 14.515625 C 31.828125 7.160156 25.863281 1.195312 18.507812 1.195312 Z M 18.507812 1.195312 " clip-rule="nonzero"/></clipPath><clipPath id="71a97e47ae"><path d="M 0.1875 0.195312 L 26.828125 0.195312 L 26.828125 26.835938 L 0.1875 26.835938 Z M 0.1875 0.195312 " clip-rule="nonzero"/></clipPath><clipPath id="fc9837eda6"><path d="M 13.507812 0.195312 C 6.152344 0.195312 0.1875 6.160156 0.1875 13.515625 C 0.1875 20.871094 6.152344 26.835938 13.507812 26.835938 C 20.863281 26.835938 26.828125 20.871094 26.828125 13.515625 C 26.828125 6.160156 20.863281 0.195312 13.507812 0.195312 Z M 13.507812 0.195312 " clip-rule="nonzero"/></clipPath><clipPath id="61b282db9a"><rect x="0" width="27" y="0" height="27"/></clipPath><clipPath id="f01b6fc04a"><path d="M 9.625 6.953125 L 27.042969 6.953125 L 27.042969 22.195312 L 9.625 22.195312 Z M 9.625 6.953125 " clip-rule="nonzero"/></clipPath><clipPath id="cce3a16192"><path d="M 0.550781 1 L 4 1 L 4 3 L 0.550781 3 Z M 0.550781 1 " clip-rule="nonzero"/></clipPath><clipPath id="49006d9d08"><path d="M 3 1 L 7.519531 1 L 7.519531 3 L 3 3 Z M 3 1 " clip-rule="nonzero"/></clipPath><clipPath id="82d72b6806"><rect x="0" width="8" y="0" height="4"/></clipPath></defs><g clip-path="url(#1276795f44)"><g clip-path="url(#53d8034b68)"><g transform="matrix(1, 0, 0, 1, 5, 1)"><g clip-path="url(#61b282db9a)"><g clip-path="url(#71a97e47ae)"><g clip-path="url(#fc9837eda6)"><path fill="#c1d9ae" d="M 0.1875 0.195312 L 26.828125 0.195312 L 26.828125 26.835938 L 0.1875 26.835938 Z M 0.1875 0.195312 " fill-opacity="1" fill-rule="nonzero"/></g></g></g></g></g></g><g clip-path="url(#f01b6fc04a)"><path fill="#000000" d="M 26.597656 10.390625 C 26.742188 10.429688 26.863281 10.519531 26.9375 10.640625 C 27.015625 10.765625 27.042969 10.914062 27.007812 11.066406 L 25.417969 17.761719 L 25.644531 19.136719 C 25.671875 19.289062 25.628906 19.4375 25.546875 19.554688 C 25.464844 19.667969 25.335938 19.753906 25.1875 19.78125 L 11.433594 22.167969 C 11.285156 22.195312 11.140625 22.15625 11.027344 22.078125 C 10.910156 21.996094 10.824219 21.867188 10.800781 21.714844 L 9.648438 14.707031 C 9.621094 14.554688 9.664062 14.40625 9.746094 14.289062 C 9.828125 14.171875 9.957031 14.089844 10.105469 14.0625 L 10.832031 13.9375 L 12.378906 7.402344 C 12.414062 7.253906 12.507812 7.128906 12.632812 7.058594 C 12.753906 6.984375 12.898438 6.960938 13.046875 6.996094 Z M 26.597656 10.390625 " fill-opacity="1" fill-rule="evenodd"/></g><path fill="#7ac143" d="M 24.992188 17.691406 L 26.585938 10.960938 C 26.59375 10.933594 26.585938 10.90625 26.570312 10.878906 C 26.554688 10.855469 26.527344 10.832031 26.496094 10.824219 L 12.945312 7.429688 C 12.910156 7.421875 12.875 7.425781 12.851562 7.445312 C 12.824219 7.457031 12.808594 7.480469 12.800781 7.507812 L 11.21875 14.171875 C 11.21875 14.179688 11.21875 14.1875 11.214844 14.195312 L 11.164062 14.414062 C 11.15625 14.441406 11.164062 14.46875 11.179688 14.496094 L 11.175781 14.496094 C 11.195312 14.519531 11.222656 14.542969 11.253906 14.550781 C 12.777344 14.941406 14.3125 15.339844 15.851562 15.734375 C 15.902344 15.71875 15.964844 15.722656 16.015625 15.75 C 16.035156 15.761719 16.050781 15.773438 16.066406 15.789062 C 16.375 15.867188 16.683594 15.945312 16.992188 16.027344 C 17.035156 16.007812 17.085938 16.007812 17.136719 16.023438 C 17.171875 16.039062 17.199219 16.058594 17.222656 16.085938 C 17.996094 16.28125 18.769531 16.476562 19.539062 16.671875 C 19.5625 16.660156 19.589844 16.652344 19.617188 16.652344 C 19.683594 16.652344 19.746094 16.683594 19.789062 16.730469 C 21.464844 17.152344 23.140625 17.558594 24.804688 17.945312 C 24.839844 17.953125 24.871094 17.949219 24.898438 17.929688 C 24.921875 17.917969 24.941406 17.894531 24.949219 17.867188 L 24.984375 17.710938 C 24.988281 17.703125 24.988281 17.699219 24.992188 17.691406 Z M 24.417969 10.832031 C 24.535156 10.859375 24.605469 10.980469 24.578125 11.101562 C 24.503906 11.414062 24.558594 11.726562 24.710938 11.984375 C 24.859375 12.238281 25.105469 12.433594 25.410156 12.507812 C 25.527344 12.539062 25.597656 12.660156 25.570312 12.777344 L 24.859375 15.773438 C 24.832031 15.890625 24.714844 15.964844 24.597656 15.9375 C 24.292969 15.859375 23.988281 15.917969 23.742188 16.074219 C 23.492188 16.226562 23.300781 16.480469 23.226562 16.792969 C 23.199219 16.914062 23.082031 16.984375 22.964844 16.957031 L 13.332031 14.542969 C 13.214844 14.515625 13.144531 14.394531 13.171875 14.273438 C 13.246094 13.960938 13.191406 13.648438 13.039062 13.390625 L 13.03125 13.382812 C 12.882812 13.132812 12.640625 12.941406 12.339844 12.867188 C 12.222656 12.835938 12.152344 12.714844 12.179688 12.597656 L 12.890625 9.601562 C 12.917969 9.484375 13.035156 9.410156 13.152344 9.4375 C 13.457031 9.515625 13.761719 9.457031 14.007812 9.300781 C 14.257812 9.148438 14.449219 8.894531 14.519531 8.582031 C 14.550781 8.464844 14.667969 8.390625 14.78125 8.417969 L 19.601562 9.625 Z M 24.417969 10.832031 " fill-opacity="1" fill-rule="evenodd"/><path fill="#9ed276" d="M 24.488281 15.464844 L 25.101562 12.875 C 24.777344 12.742188 24.511719 12.507812 24.339844 12.214844 C 24.167969 11.921875 24.085938 11.574219 24.121094 11.214844 L 14.875 8.898438 C 14.75 9.234375 14.519531 9.503906 14.234375 9.683594 C 13.949219 9.859375 13.609375 9.945312 13.261719 9.910156 L 12.648438 12.5 C 12.96875 12.628906 13.226562 12.859375 13.402344 13.148438 L 13.410156 13.160156 C 13.582031 13.453125 13.664062 13.800781 13.628906 14.160156 L 22.871094 16.476562 C 23 16.140625 23.230469 15.871094 23.515625 15.691406 C 23.800781 15.515625 24.140625 15.429688 24.488281 15.464844 Z M 22.847656 12.921875 C 22.863281 12.921875 22.878906 12.925781 22.890625 12.929688 C 23.074219 12.984375 23.222656 13.105469 23.316406 13.261719 C 23.40625 13.417969 23.445312 13.609375 23.402344 13.800781 C 23.402344 13.816406 23.398438 13.828125 23.394531 13.84375 C 23.34375 14.03125 23.226562 14.183594 23.074219 14.277344 C 22.921875 14.375 22.734375 14.410156 22.550781 14.371094 C 22.535156 14.367188 22.519531 14.363281 22.507812 14.359375 C 22.324219 14.308594 22.175781 14.1875 22.082031 14.03125 C 21.988281 13.875 21.953125 13.683594 21.992188 13.492188 C 21.996094 13.476562 22 13.460938 22.003906 13.449219 C 22.054688 13.261719 22.171875 13.105469 22.324219 13.011719 C 22.476562 12.917969 22.664062 12.878906 22.847656 12.921875 Z M 20.746094 11.515625 C 21.039062 12.007812 21.148438 12.617188 21.003906 13.222656 C 20.863281 13.824219 20.492188 14.3125 20.015625 14.613281 C 19.535156 14.914062 18.945312 15.023438 18.355469 14.878906 C 17.769531 14.730469 17.292969 14.351562 17 13.859375 C 16.710938 13.367188 16.601562 12.757812 16.746094 12.152344 C 16.886719 11.550781 17.257812 11.0625 17.734375 10.761719 C 18.214844 10.460938 18.804688 10.351562 19.394531 10.496094 C 19.980469 10.644531 20.457031 11.023438 20.746094 11.515625 Z M 15.667969 11.34375 L 15.675781 11.359375 C 15.765625 11.519531 15.796875 11.710938 15.75 11.90625 C 15.703125 12.105469 15.582031 12.265625 15.425781 12.363281 L 15.410156 12.371094 C 15.253906 12.464844 15.066406 12.496094 14.878906 12.449219 C 14.6875 12.402344 14.53125 12.277344 14.433594 12.113281 C 14.339844 11.953125 14.304688 11.753906 14.351562 11.554688 C 14.398438 11.355469 14.519531 11.195312 14.675781 11.097656 L 14.691406 11.085938 C 14.84375 10.996094 15.035156 10.960938 15.222656 11.007812 C 15.414062 11.058594 15.570312 11.183594 15.667969 11.34375 Z M 15.667969 11.34375 " fill-opacity="1" fill-rule="evenodd"/><path fill="#7ac143" d="M 22.976562 13.714844 C 22.996094 13.636719 22.984375 13.554688 22.945312 13.492188 C 22.90625 13.429688 22.847656 13.378906 22.769531 13.359375 L 22.765625 13.359375 C 22.691406 13.339844 22.613281 13.355469 22.546875 13.394531 C 22.488281 13.429688 22.4375 13.496094 22.417969 13.574219 C 22.398438 13.65625 22.414062 13.734375 22.453125 13.800781 C 22.492188 13.863281 22.550781 13.914062 22.628906 13.933594 C 22.707031 13.953125 22.785156 13.9375 22.847656 13.898438 C 22.910156 13.859375 22.957031 13.796875 22.976562 13.71875 Z M 22.976562 13.714844 " fill-opacity="1" fill-rule="evenodd"/><path fill="#7ac143" d="M 19.789062 14.234375 C 20.171875 13.992188 20.46875 13.601562 20.582031 13.117188 C 20.699219 12.632812 20.613281 12.144531 20.378906 11.75 L 20.378906 11.746094 C 20.144531 11.351562 19.761719 11.050781 19.292969 10.929688 C 18.820312 10.8125 18.34375 10.902344 17.960938 11.140625 C 17.574219 11.382812 17.28125 11.773438 17.164062 12.257812 C 17.050781 12.746094 17.136719 13.230469 17.371094 13.625 L 17.371094 13.628906 C 17.605469 14.023438 17.984375 14.324219 18.457031 14.445312 C 18.929688 14.5625 19.402344 14.472656 19.789062 14.234375 Z M 19.625 11.792969 C 19.71875 11.957031 19.742188 12.15625 19.695312 12.390625 C 19.671875 12.511719 19.558594 12.589844 19.441406 12.566406 C 19.324219 12.542969 19.246094 12.425781 19.269531 12.304688 C 19.292969 12.179688 19.289062 12.085938 19.25 12.019531 C 19.21875 11.964844 19.15625 11.921875 19.058594 11.890625 L 19.050781 11.890625 L 19.03125 11.882812 L 19.027344 11.882812 C 18.980469 11.875 18.933594 11.875 18.890625 11.890625 C 18.84375 11.902344 18.800781 11.929688 18.769531 11.964844 C 18.738281 11.996094 18.714844 12.035156 18.707031 12.078125 C 18.699219 12.113281 18.699219 12.15625 18.710938 12.199219 C 18.738281 12.285156 18.875 12.402344 19.011719 12.515625 C 19.199219 12.671875 19.390625 12.828125 19.453125 13.050781 C 19.488281 13.171875 19.488281 13.289062 19.464844 13.398438 C 19.433594 13.523438 19.375 13.636719 19.289062 13.722656 C 19.207031 13.8125 19.097656 13.878906 18.984375 13.914062 C 18.925781 13.929688 18.863281 13.941406 18.800781 13.941406 L 18.761719 14.101562 C 18.734375 14.21875 18.617188 14.292969 18.5 14.265625 C 18.386719 14.234375 18.3125 14.113281 18.339844 13.996094 L 18.378906 13.832031 C 18.269531 13.769531 18.183594 13.683594 18.125 13.582031 C 18.03125 13.417969 18.007812 13.21875 18.054688 12.984375 C 18.078125 12.863281 18.191406 12.785156 18.308594 12.808594 C 18.425781 12.832031 18.503906 12.949219 18.480469 13.070312 C 18.457031 13.195312 18.460938 13.289062 18.496094 13.355469 C 18.53125 13.410156 18.59375 13.453125 18.691406 13.484375 L 18.699219 13.484375 L 18.71875 13.492188 C 18.765625 13.5 18.816406 13.5 18.859375 13.484375 C 18.90625 13.472656 18.945312 13.445312 18.980469 13.410156 C 19.011719 13.378906 19.035156 13.339844 19.042969 13.296875 C 19.050781 13.261719 19.050781 13.21875 19.039062 13.175781 C 19.011719 13.089844 18.875 12.972656 18.738281 12.859375 C 18.550781 12.703125 18.359375 12.546875 18.296875 12.324219 C 18.261719 12.203125 18.257812 12.085938 18.285156 11.976562 C 18.3125 11.851562 18.375 11.738281 18.460938 11.652344 C 18.542969 11.5625 18.648438 11.5 18.765625 11.460938 C 18.824219 11.445312 18.886719 11.433594 18.949219 11.433594 L 18.988281 11.273438 C 19.015625 11.15625 19.132812 11.082031 19.25 11.109375 C 19.363281 11.140625 19.4375 11.261719 19.40625 11.378906 L 19.367188 11.542969 C 19.480469 11.605469 19.566406 11.691406 19.625 11.792969 Z M 19.625 11.792969 " fill-opacity="1" fill-rule="evenodd"/><path fill="#7ac143" d="M 15.332031 11.800781 C 15.347656 11.722656 15.335938 11.648438 15.300781 11.585938 L 15.296875 11.578125 C 15.257812 11.511719 15.195312 11.460938 15.121094 11.441406 C 15.046875 11.425781 14.972656 11.4375 14.910156 11.472656 L 14.902344 11.476562 C 14.839844 11.515625 14.789062 11.582031 14.769531 11.660156 C 14.753906 11.738281 14.765625 11.820312 14.804688 11.882812 C 14.84375 11.949219 14.90625 11.996094 14.980469 12.015625 C 15.054688 12.035156 15.128906 12.023438 15.191406 11.988281 L 15.199219 11.980469 C 15.261719 11.941406 15.3125 11.878906 15.332031 11.800781 Z M 15.332031 11.800781 " fill-opacity="1" fill-rule="evenodd"/><path fill="#9ed276" d="M 15.605469 16.097656 L 12.503906 15.324219 C 12.46875 15.617188 12.351562 15.894531 12.171875 16.121094 C 11.984375 16.363281 11.726562 16.550781 11.421875 16.648438 L 11.855469 19.28125 C 12.203125 19.269531 12.539062 19.378906 12.808594 19.578125 C 13.078125 19.773438 13.289062 20.0625 13.394531 20.40625 L 22.773438 18.773438 C 22.769531 18.605469 22.792969 18.441406 22.835938 18.285156 C 22.867188 18.164062 22.914062 18.050781 22.972656 17.945312 L 19.828125 17.15625 C 19.78125 17.605469 19.605469 18.019531 19.335938 18.359375 C 19.011719 18.761719 18.550781 19.050781 18.011719 19.144531 C 17.414062 19.246094 16.832031 19.09375 16.375 18.757812 C 15.917969 18.425781 15.585938 17.910156 15.484375 17.296875 C 15.441406 17.042969 15.445312 16.789062 15.484375 16.546875 C 15.507812 16.394531 15.550781 16.242188 15.605469 16.097656 Z M 13.648438 16.863281 C 13.84375 16.832031 14.035156 16.882812 14.183594 16.992188 C 14.335938 17.101562 14.445312 17.269531 14.476562 17.472656 C 14.511719 17.671875 14.460938 17.871094 14.351562 18.023438 C 14.246094 18.179688 14.082031 18.292969 13.886719 18.328125 L 13.882812 18.328125 C 13.6875 18.359375 13.496094 18.308594 13.347656 18.199219 C 13.199219 18.089844 13.085938 17.921875 13.054688 17.71875 L 13.054688 17.714844 C 13.023438 17.515625 13.070312 17.320312 13.179688 17.164062 C 13.285156 17.011719 13.449219 16.898438 13.644531 16.863281 Z M 13.648438 16.863281 " fill-opacity="1" fill-rule="evenodd"/><path fill="#7ac143" d="M 16.03125 16.207031 C 15.976562 16.335938 15.933594 16.476562 15.910156 16.621094 C 15.878906 16.816406 15.878906 17.019531 15.914062 17.222656 C 15.992188 17.714844 16.261719 18.125 16.628906 18.394531 C 16.992188 18.664062 17.460938 18.785156 17.941406 18.703125 C 18.371094 18.628906 18.742188 18.394531 19 18.074219 C 19.230469 17.789062 19.375 17.429688 19.402344 17.050781 L 17.296875 16.523438 C 17.300781 16.527344 17.304688 16.53125 17.308594 16.539062 C 17.367188 16.609375 17.535156 16.65625 17.707031 16.707031 C 17.941406 16.773438 18.175781 16.84375 18.316406 17.019531 C 18.398438 17.117188 18.445312 17.226562 18.464844 17.335938 C 18.484375 17.460938 18.46875 17.589844 18.425781 17.703125 C 18.382812 17.820312 18.3125 17.921875 18.21875 18.003906 C 18.171875 18.042969 18.117188 18.078125 18.0625 18.105469 L 18.085938 18.265625 C 18.105469 18.386719 18.027344 18.5 17.910156 18.523438 C 17.792969 18.542969 17.679688 18.460938 17.660156 18.339844 L 17.632812 18.171875 C 17.507812 18.160156 17.398438 18.117188 17.300781 18.046875 C 17.152344 17.933594 17.054688 17.761719 17.007812 17.527344 C 16.984375 17.40625 17.058594 17.289062 17.175781 17.261719 C 17.292969 17.238281 17.40625 17.316406 17.433594 17.433594 C 17.457031 17.558594 17.5 17.644531 17.554688 17.6875 C 17.613281 17.726562 17.695312 17.738281 17.8125 17.722656 C 17.859375 17.710938 17.902344 17.691406 17.9375 17.660156 C 17.976562 17.628906 18.003906 17.585938 18.019531 17.542969 C 18.035156 17.5 18.042969 17.457031 18.035156 17.410156 C 18.027344 17.375 18.011719 17.339844 17.984375 17.304688 C 17.929688 17.234375 17.757812 17.183594 17.589844 17.136719 C 17.355469 17.066406 17.117188 17 16.976562 16.824219 C 16.898438 16.726562 16.851562 16.621094 16.832031 16.507812 C 16.824219 16.472656 16.820312 16.4375 16.820312 16.402344 Z M 16.03125 16.207031 " fill-opacity="1" fill-rule="evenodd"/><path fill="#7ac143" d="M 11.835938 15.84375 C 11.972656 15.667969 12.0625 15.449219 12.082031 15.214844 L 11.171875 14.988281 C 11.15625 14.984375 11.144531 14.980469 11.128906 14.976562 C 10.996094 14.9375 10.882812 14.847656 10.8125 14.734375 C 10.753906 14.636719 10.722656 14.523438 10.726562 14.40625 L 10.175781 14.503906 C 10.140625 14.507812 10.113281 14.527344 10.09375 14.550781 C 10.078125 14.574219 10.070312 14.605469 10.074219 14.632812 L 11.230469 21.648438 C 11.234375 21.671875 11.25 21.695312 11.273438 21.707031 C 11.296875 21.726562 11.324219 21.734375 11.355469 21.730469 L 25.117188 19.339844 C 25.152344 19.335938 25.179688 19.316406 25.199219 19.289062 C 25.214844 19.265625 25.222656 19.238281 25.21875 19.210938 L 25.074219 18.339844 C 24.96875 18.390625 24.847656 18.410156 24.722656 18.382812 C 24.710938 18.382812 24.699219 18.378906 24.683594 18.375 L 23.417969 18.054688 C 23.34375 18.160156 23.289062 18.28125 23.253906 18.40625 C 23.207031 18.570312 23.195312 18.746094 23.222656 18.921875 C 23.246094 19.046875 23.164062 19.160156 23.046875 19.179688 L 13.269531 20.878906 C 13.148438 20.898438 13.039062 20.816406 13.019531 20.695312 C 12.964844 20.378906 12.792969 20.113281 12.558594 19.941406 C 12.320312 19.769531 12.019531 19.6875 11.710938 19.742188 C 11.699219 19.742188 11.6875 19.746094 11.675781 19.746094 C 11.5625 19.746094 11.46875 19.65625 11.460938 19.542969 L 10.960938 16.519531 C 10.941406 16.398438 11.023438 16.28125 11.140625 16.261719 C 11.425781 16.214844 11.667969 16.058594 11.835938 15.84375 Z M 11.835938 15.84375 " fill-opacity="1" fill-rule="evenodd"/><path fill="#7ac143" d="M 13.707031 17.304688 C 13.632812 17.320312 13.570312 17.367188 13.53125 17.425781 C 13.492188 17.484375 13.472656 17.558594 13.480469 17.632812 L 13.484375 17.65625 C 13.5 17.730469 13.542969 17.792969 13.597656 17.835938 C 13.65625 17.878906 13.726562 17.898438 13.804688 17.886719 L 13.824219 17.882812 C 13.898438 17.871094 13.960938 17.824219 14 17.765625 C 14.042969 17.707031 14.0625 17.625 14.050781 17.546875 C 14.035156 17.464844 13.992188 17.398438 13.933594 17.355469 C 13.875 17.3125 13.804688 17.292969 13.726562 17.300781 Z M 13.707031 17.304688 " fill-opacity="1" fill-rule="evenodd"/><g transform="matrix(1, 0, 0, 1, 17, 21)"><g clip-path="url(#82d72b6806)"><g clip-path="url(#cce3a16192)"><g fill="#c1d9ae" fill-opacity="1"><g transform="translate(0.636518, 2.950121)"><g><path d="M 0.4375 0.015625 C 0.332031 0.015625 0.25 -0.0078125 0.1875 -0.0625 C 0.132812 -0.113281 0.109375 -0.191406 0.109375 -0.296875 C 0.109375 -0.359375 0.117188 -0.410156 0.140625 -0.453125 C 0.171875 -0.492188 0.210938 -0.523438 0.265625 -0.546875 C 0.316406 -0.578125 0.382812 -0.597656 0.46875 -0.609375 C 0.539062 -0.617188 0.597656 -0.628906 0.640625 -0.640625 C 0.679688 -0.660156 0.707031 -0.679688 0.71875 -0.703125 C 0.738281 -0.722656 0.75 -0.75 0.75 -0.78125 C 0.75 -0.832031 0.726562 -0.867188 0.6875 -0.890625 C 0.65625 -0.910156 0.601562 -0.921875 0.53125 -0.921875 C 0.46875 -0.921875 0.410156 -0.90625 0.359375 -0.875 C 0.316406 -0.851562 0.273438 -0.816406 0.234375 -0.765625 L 0.21875 -0.765625 L 0.140625 -0.875 C 0.179688 -0.9375 0.234375 -0.984375 0.296875 -1.015625 C 0.367188 -1.046875 0.445312 -1.0625 0.53125 -1.0625 C 0.65625 -1.0625 0.742188 -1.035156 0.796875 -0.984375 C 0.859375 -0.929688 0.890625 -0.859375 0.890625 -0.765625 L 0.890625 -0.203125 C 0.890625 -0.148438 0.914062 -0.125 0.96875 -0.125 C 0.988281 -0.125 1.003906 -0.125 1.015625 -0.125 L 1.03125 -0.125 L 1.046875 -0.015625 C 1.035156 -0.00390625 1.019531 0 1 0 C 0.976562 0 0.960938 0 0.953125 0 C 0.890625 0 0.84375 -0.0078125 0.8125 -0.03125 C 0.78125 -0.0507812 0.765625 -0.0859375 0.765625 -0.140625 L 0.734375 -0.140625 C 0.710938 -0.0859375 0.675781 -0.046875 0.625 -0.015625 C 0.570312 0.00390625 0.507812 0.015625 0.4375 0.015625 Z M 0.46875 -0.109375 C 0.519531 -0.109375 0.566406 -0.117188 0.609375 -0.140625 C 0.648438 -0.171875 0.679688 -0.207031 0.703125 -0.25 C 0.734375 -0.300781 0.75 -0.359375 0.75 -0.421875 L 0.75 -0.5625 L 0.734375 -0.5625 C 0.703125 -0.539062 0.671875 -0.523438 0.640625 -0.515625 C 0.609375 -0.503906 0.5625 -0.492188 0.5 -0.484375 C 0.4375 -0.484375 0.390625 -0.472656 0.359375 -0.453125 C 0.328125 -0.429688 0.300781 -0.40625 0.28125 -0.375 C 0.269531 -0.351562 0.265625 -0.328125 0.265625 -0.296875 C 0.265625 -0.234375 0.28125 -0.1875 0.3125 -0.15625 C 0.351562 -0.125 0.40625 -0.109375 0.46875 -0.109375 Z M 0.46875 -0.109375 "/></g></g><g transform="translate(1.714834, 2.950121)"><g><path d="M 0.6875 0.015625 C 0.613281 0.015625 0.546875 0.00390625 0.484375 -0.015625 C 0.429688 -0.046875 0.390625 -0.0859375 0.359375 -0.140625 L 0.328125 -0.140625 L 0.328125 0 L 0.1875 0 L 0.1875 -1.46875 L 0.328125 -1.46875 L 0.328125 -0.890625 L 0.359375 -0.890625 C 0.429688 -1.003906 0.546875 -1.0625 0.703125 -1.0625 C 0.785156 -1.0625 0.859375 -1.039062 0.921875 -1 C 0.992188 -0.957031 1.046875 -0.894531 1.078125 -0.8125 C 1.109375 -0.738281 1.125 -0.640625 1.125 -0.515625 C 1.125 -0.398438 1.101562 -0.300781 1.0625 -0.21875 C 1.03125 -0.132812 0.984375 -0.0703125 0.921875 -0.03125 C 0.859375 0 0.78125 0.015625 0.6875 0.015625 Z M 0.65625 -0.125 C 0.863281 -0.125 0.96875 -0.253906 0.96875 -0.515625 C 0.96875 -0.660156 0.941406 -0.765625 0.890625 -0.828125 C 0.835938 -0.890625 0.757812 -0.921875 0.65625 -0.921875 C 0.5625 -0.921875 0.484375 -0.882812 0.421875 -0.8125 C 0.359375 -0.75 0.328125 -0.648438 0.328125 -0.515625 C 0.328125 -0.378906 0.359375 -0.28125 0.421875 -0.21875 C 0.484375 -0.15625 0.5625 -0.125 0.65625 -0.125 Z M 0.65625 -0.125 "/></g></g><g transform="translate(2.958535, 2.950121)"><g><path d="M 0.1875 0 L 0.1875 -1.046875 L 0.328125 -1.046875 L 0.328125 -0.875 L 0.34375 -0.875 C 0.394531 -0.988281 0.488281 -1.046875 0.625 -1.046875 C 0.695312 -1.046875 0.75 -1.035156 0.78125 -1.015625 L 0.75 -0.890625 L 0.71875 -0.875 C 0.6875 -0.894531 0.644531 -0.90625 0.59375 -0.90625 C 0.507812 -0.90625 0.441406 -0.875 0.390625 -0.8125 C 0.347656 -0.75 0.328125 -0.648438 0.328125 -0.515625 L 0.328125 0 Z M 0.1875 0 "/></g></g></g></g><g clip-path="url(#49006d9d08)"><g fill="#c1d9ae" fill-opacity="1"><g transform="translate(3.736321, 2.950121)"><g><path d="M 0.59375 0.015625 C 0.5 0.015625 0.414062 -0.00390625 0.34375 -0.046875 C 0.269531 -0.0859375 0.210938 -0.144531 0.171875 -0.21875 C 0.128906 -0.300781 0.109375 -0.398438 0.109375 -0.515625 C 0.109375 -0.628906 0.128906 -0.726562 0.171875 -0.8125 C 0.210938 -0.894531 0.269531 -0.957031 0.34375 -1 C 0.414062 -1.039062 0.5 -1.0625 0.59375 -1.0625 C 0.695312 -1.0625 0.785156 -1.039062 0.859375 -1 C 0.929688 -0.957031 0.984375 -0.894531 1.015625 -0.8125 C 1.054688 -0.726562 1.078125 -0.628906 1.078125 -0.515625 C 1.078125 -0.398438 1.054688 -0.300781 1.015625 -0.21875 C 0.984375 -0.144531 0.929688 -0.0859375 0.859375 -0.046875 C 0.785156 -0.00390625 0.695312 0.015625 0.59375 0.015625 Z M 0.59375 -0.125 C 0.695312 -0.125 0.773438 -0.15625 0.828125 -0.21875 C 0.890625 -0.28125 0.921875 -0.378906 0.921875 -0.515625 C 0.921875 -0.660156 0.890625 -0.765625 0.828125 -0.828125 C 0.773438 -0.890625 0.695312 -0.921875 0.59375 -0.921875 C 0.488281 -0.921875 0.410156 -0.890625 0.359375 -0.828125 C 0.304688 -0.765625 0.28125 -0.660156 0.28125 -0.515625 C 0.28125 -0.378906 0.304688 -0.28125 0.359375 -0.21875 C 0.410156 -0.15625 0.488281 -0.125 0.59375 -0.125 Z M 0.59375 -0.125 "/></g></g><g transform="translate(4.932769, 2.950121)"><g><path d="M 0.4375 0.015625 C 0.332031 0.015625 0.25 -0.0078125 0.1875 -0.0625 C 0.132812 -0.113281 0.109375 -0.191406 0.109375 -0.296875 C 0.109375 -0.359375 0.117188 -0.410156 0.140625 -0.453125 C 0.171875 -0.492188 0.210938 -0.523438 0.265625 -0.546875 C 0.316406 -0.578125 0.382812 -0.597656 0.46875 -0.609375 C 0.539062 -0.617188 0.597656 -0.628906 0.640625 -0.640625 C 0.679688 -0.660156 0.707031 -0.679688 0.71875 -0.703125 C 0.738281 -0.722656 0.75 -0.75 0.75 -0.78125 C 0.75 -0.832031 0.726562 -0.867188 0.6875 -0.890625 C 0.65625 -0.910156 0.601562 -0.921875 0.53125 -0.921875 C 0.46875 -0.921875 0.410156 -0.90625 0.359375 -0.875 C 0.316406 -0.851562 0.273438 -0.816406 0.234375 -0.765625 L 0.21875 -0.765625 L 0.140625 -0.875 C 0.179688 -0.9375 0.234375 -0.984375 0.296875 -1.015625 C 0.367188 -1.046875 0.445312 -1.0625 0.53125 -1.0625 C 0.65625 -1.0625 0.742188 -1.035156 0.796875 -0.984375 C 0.859375 -0.929688 0.890625 -0.859375 0.890625 -0.765625 L 0.890625 -0.203125 C 0.890625 -0.148438 0.914062 -0.125 0.96875 -0.125 C 0.988281 -0.125 1.003906 -0.125 1.015625 -0.125 L 1.03125 -0.125 L 1.046875 -0.015625 C 1.035156 -0.00390625 1.019531 0 1 0 C 0.976562 0 0.960938 0 0.953125 0 C 0.890625 0 0.84375 -0.0078125 0.8125 -0.03125 C 0.78125 -0.0507812 0.765625 -0.0859375 0.765625 -0.140625 L 0.734375 -0.140625 C 0.710938 -0.0859375 0.675781 -0.046875 0.625 -0.015625 C 0.570312 0.00390625 0.507812 0.015625 0.4375 0.015625 Z M 0.46875 -0.109375 C 0.519531 -0.109375 0.566406 -0.117188 0.609375 -0.140625 C 0.648438 -0.171875 0.679688 -0.207031 0.703125 -0.25 C 0.734375 -0.300781 0.75 -0.359375 0.75 -0.421875 L 0.75 -0.5625 L 0.734375 -0.5625 C 0.703125 -0.539062 0.671875 -0.523438 0.640625 -0.515625 C 0.609375 -0.503906 0.5625 -0.492188 0.5 -0.484375 C 0.4375 -0.484375 0.390625 -0.472656 0.359375 -0.453125 C 0.328125 -0.429688 0.300781 -0.40625 0.28125 -0.375 C 0.269531 -0.351562 0.265625 -0.328125 0.265625 -0.296875 C 0.265625 -0.234375 0.28125 -0.1875 0.3125 -0.15625 C 0.351562 -0.125 0.40625 -0.109375 0.46875 -0.109375 Z M 0.46875 -0.109375 "/></g></g><g transform="translate(6.011084, 2.950121)"><g><path d="M 0.546875 0.015625 C 0.460938 0.015625 0.382812 0 0.3125 -0.03125 C 0.25 -0.0703125 0.195312 -0.132812 0.15625 -0.21875 C 0.125 -0.300781 0.109375 -0.398438 0.109375 -0.515625 C 0.109375 -0.640625 0.128906 -0.738281 0.171875 -0.8125 C 0.210938 -0.894531 0.265625 -0.957031 0.328125 -1 C 0.390625 -1.039062 0.46875 -1.0625 0.5625 -1.0625 C 0.625 -1.0625 0.679688 -1.046875 0.734375 -1.015625 C 0.796875 -0.992188 0.847656 -0.953125 0.890625 -0.890625 L 0.90625 -0.90625 L 0.90625 -1.46875 L 1.0625 -1.46875 L 1.0625 0 L 0.90625 0 L 0.90625 -0.15625 L 0.890625 -0.15625 C 0.859375 -0.101562 0.8125 -0.0625 0.75 -0.03125 C 0.6875 0 0.617188 0.015625 0.546875 0.015625 Z M 0.59375 -0.125 C 0.6875 -0.125 0.757812 -0.15625 0.8125 -0.21875 C 0.875 -0.28125 0.90625 -0.378906 0.90625 -0.515625 C 0.90625 -0.648438 0.875 -0.75 0.8125 -0.8125 C 0.757812 -0.882812 0.6875 -0.921875 0.59375 -0.921875 C 0.488281 -0.921875 0.410156 -0.890625 0.359375 -0.828125 C 0.304688 -0.765625 0.28125 -0.660156 0.28125 -0.515625 C 0.28125 -0.253906 0.382812 -0.125 0.59375 -0.125 Z M 0.59375 -0.125 "/></g></g></g></g></g></g></svg>