<svg xmlns="http://www.w3.org/2000/svg" xmlns:xlink="http://www.w3.org/1999/xlink" width="500" zoomAndPan="magnify" viewBox="0 0 375 374.999991" height="500" preserveAspectRatio="xMidYMid meet" version="1.0"><defs><clipPath id="dd4d0eac76"><path d="M 45.851562 44.851562 L 287.148438 44.851562 L 287.148438 286.148438 L 45.851562 286.148438 Z M 45.851562 44.851562 " clip-rule="nonzero"/></clipPath><clipPath id="35ef86bd59"><path d="M 166.5 44.851562 C 99.867188 44.851562 45.851562 98.867188 45.851562 165.5 C 45.851562 232.132812 99.867188 286.148438 166.5 286.148438 C 233.132812 286.148438 287.148438 232.132812 287.148438 165.5 C 287.148438 98.867188 233.132812 44.851562 166.5 44.851562 Z M 166.5 44.851562 " clip-rule="nonzero"/></clipPath><clipPath id="1b8f59d5a3"><path d="M 0.851562 0.851562 L 242.148438 0.851562 L 242.148438 242.148438 L 0.851562 242.148438 Z M 0.851562 0.851562 " clip-rule="nonzero"/></clipPath><clipPath id="198c116b91"><path d="M 121.5 0.851562 C 54.867188 0.851562 0.851562 54.867188 0.851562 121.5 C 0.851562 188.132812 54.867188 242.148438 121.5 242.148438 C 188.132812 242.148438 242.148438 188.132812 242.148438 121.5 C 242.148438 54.867188 188.132812 0.851562 121.5 0.851562 Z M 121.5 0.851562 " clip-rule="nonzero"/></clipPath><clipPath id="ca632f0517"><rect x="0" width="243" y="0" height="243"/></clipPath><clipPath id="3d6cb4a9a0"><path d="M 61.300781 60.300781 L 270.835938 60.300781 L 270.835938 269.835938 L 61.300781 269.835938 Z M 61.300781 60.300781 " clip-rule="nonzero"/></clipPath><clipPath id="3b6d501c97"><path d="M 0.203125 2 L 332.238281 2 L 332.238281 329 L 0.203125 329 Z M 0.203125 2 " clip-rule="nonzero"/></clipPath><clipPath id="5e0d90355f"><rect x="0" width="338" y="0" height="330"/></clipPath></defs><g transform="matrix(1, 0, 0, 1, 21, 22)"><g clip-path="url(#5e0d90355f)"><g clip-path="url(#dd4d0eac76)"><g clip-path="url(#35ef86bd59)"><g transform="matrix(1, 0, 0, 1, 45, 44)"><g clip-path="url(#ca632f0517)"><g clip-path="url(#1b8f59d5a3)"><g clip-path="url(#198c116b91)"><path fill="#ebebeb" d="M 0.851562 0.851562 L 242.148438 0.851562 L 242.148438 242.148438 L 0.851562 242.148438 Z M 0.851562 0.851562 " fill-opacity="1" fill-rule="nonzero"/></g></g></g></g></g></g><g clip-path="url(#3d6cb4a9a0)"><path fill="#ff8234" d="M 166.5 264.980469 C 111.640625 264.980469 67.011719 220.34375 67.011719 165.503906 C 67.011719 129.265625 86.496094 97.484375 115.539062 80.09375 C 116.644531 80.902344 118.03125 81.457031 119.796875 81.457031 C 119.796875 81.457031 121.703125 81.457031 109.511719 90.980469 C 97.316406 100.511719 98.453125 113.730469 102.261719 105.410156 C 106.078125 97.082031 109.511719 100.132812 103.410156 111.953125 C 97.316406 123.773438 106.621094 119.957031 109.773438 127.195312 C 112.941406 134.433594 114.082031 125.675781 115.601562 139.398438 C 115.601562 139.398438 119.429688 143.96875 126.28125 141.683594 C 133.140625 139.398438 125.136719 147.769531 117.894531 154.640625 C 110.648438 161.503906 112.933594 163.78125 116.75 167.976562 C 120.5625 172.175781 122.09375 175.597656 118.660156 180.179688 C 115.230469 184.75 123.996094 186.269531 126.28125 188.9375 C 128.566406 191.605469 128.183594 200.378906 122.851562 204.191406 C 117.523438 207.996094 125.519531 216.382812 124.367188 228.203125 C 123.222656 240.011719 123.503906 244.964844 128.890625 245.730469 C 134.285156 246.496094 128.183594 235.441406 130.46875 230.488281 C 132.757812 225.535156 135.433594 233.921875 140.765625 220.582031 C 140.765625 220.582031 150.300781 222.867188 154.476562 208.378906 C 154.476562 208.378906 162.863281 207.230469 164.394531 202.660156 C 165.925781 198.089844 164.011719 195.039062 176.203125 185.132812 C 188.394531 175.214844 167.816406 167.59375 156.773438 167.214844 C 156.773438 167.214844 152.722656 168.867188 159.824219 156.160156 C 162.917969 150.609375 153.722656 151.96875 151.4375 147.019531 C 149.152344 142.0625 143.816406 136.347656 133.140625 137.484375 C 122.46875 138.628906 119.40625 142.449219 119.042969 135.960938 C 118.660156 129.476562 123.605469 126.4375 118.269531 125.675781 C 112.941406 124.90625 115.601562 124.523438 121.332031 119.1875 C 121.332031 119.1875 117.894531 116.894531 114.464844 120.335938 C 111.03125 123.773438 104.929688 118.433594 112.175781 110.816406 C 119.429688 103.183594 130.851562 97.460938 130.089844 111.953125 C 129.332031 126.4375 134.667969 105.410156 134.667969 105.410156 C 134.667969 105.410156 142.671875 95.179688 152.585938 94.421875 C 162.480469 93.660156 156.390625 93.277344 156.390625 89.839844 C 156.390625 86.421875 160.960938 95.558594 166.5 93.277344 C 172.015625 90.980469 160.578125 90.226562 161.726562 86.421875 C 162.863281 82.605469 169.359375 83.742188 172.015625 88.707031 C 174.683594 93.660156 177.734375 86.039062 170.878906 78.023438 C 164.011719 70.027344 165.160156 74.984375 158.675781 78.40625 C 152.203125 81.835938 154.871094 83.742188 153.722656 78.023438 C 152.585938 72.316406 152.203125 78.40625 149.152344 75.367188 C 146.089844 72.316406 154.589844 73.722656 159.058594 74.214844 C 163.527344 74.699219 162.109375 71.546875 162.109375 71.546875 L 166.5 69.648438 C 166.5 69.648438 169.359375 73.835938 172.78125 73.070312 C 176.203125 72.316406 170.496094 66.96875 173.917969 67.734375 C 177.351562 68.496094 181.921875 65.449219 182.304688 70.027344 C 182.6875 74.597656 179.636719 80.699219 192.222656 73.835938 C 194.765625 72.449219 196.464844 71.546875 197.625 71.007812 C 198.480469 71.289062 199.3125 71.585938 200.15625 71.898438 C 200.234375 72.808594 200.527344 73.992188 202.128906 74.984375 C 207.082031 78.023438 205.5625 75.355469 212.035156 79.171875 C 218.519531 82.988281 214.320312 87.175781 219.273438 87.9375 C 224.226562 88.707031 228.808594 95.558594 225.003906 95.941406 C 221.1875 96.324219 220.804688 91.757812 215.097656 90.980469 C 209.367188 90.226562 217.382812 92.882812 221.1875 96.324219 C 225.003906 99.75 225.003906 103.8125 221.1875 105.410156 C 217.382812 107 220.195312 115.765625 226.410156 114.621094 C 232.625 113.472656 230.328125 107 233.757812 108.527344 C 237.195312 110.046875 236.046875 113.851562 241.765625 116.148438 C 247.496094 118.433594 241 121.472656 247.867188 121.855469 C 254.734375 122.242188 258.15625 124.90625 252.054688 127.574219 C 245.953125 130.257812 249.011719 132.53125 243.667969 126.046875 C 238.332031 119.574219 238.859375 125.773438 238.332031 119.574219 C 237.8125 113.371094 229.191406 119.1875 224.621094 119.957031 C 220.039062 120.71875 223.855469 125.289062 219.65625 126.046875 C 215.457031 126.8125 213.554688 125.675781 214.703125 135.582031 C 215.839844 145.5 213.183594 147.769531 208.601562 147.769531 C 204.03125 147.769531 212.429688 153.109375 214.703125 159.972656 C 216.988281 166.832031 217.382812 171.027344 227.289062 168.363281 C 237.195312 165.691406 234.144531 165.691406 235.292969 171.027344 C 236.429688 176.363281 240.628906 167.976562 241.382812 173.3125 C 242.148438 178.648438 231.859375 179.796875 237.566406 183.21875 C 243.285156 186.644531 239.109375 194.65625 236.429688 196.558594 C 233.757812 198.472656 235.664062 205.316406 229.957031 208.378906 C 224.226562 211.429688 232.625 216.753906 229.191406 220.199219 C 225.769531 223.632812 216.605469 227.820312 220.039062 236.210938 C 223.484375 244.582031 223.484375 239.628906 230.722656 233.527344 C 237.949219 227.4375 244.0625 217.148438 247.496094 217.53125 C 248.722656 217.667969 249.308594 218.625 250.035156 219.433594 C 232.289062 246.824219 201.472656 264.980469 166.5 264.980469 Z M 166.5 60.304688 C 108.484375 60.304688 61.292969 107.492188 61.292969 165.503906 C 61.292969 223.5 108.484375 270.699219 166.5 270.699219 C 224.496094 270.699219 271.6875 223.5 271.6875 165.503906 C 271.6875 107.492188 224.496094 60.304688 166.5 60.304688 " fill-opacity="1" fill-rule="nonzero"/></g><g clip-path="url(#3b6d501c97)"><path fill="#022554" d="M 163.992188 186.21875 L 165.414062 181.539062 L 159.503906 181.488281 L 121.546875 180.796875 L 83.59375 180.136719 L 65.125 177.644531 C 54.960938 176.269531 45.988281 175.152344 45.1875 175.152344 L 43.714844 175.152344 L 30.804688 194.820312 L 17.863281 214.488281 L 15.667969 214.96875 C 14.453125 215.242188 11.285156 215.578125 8.644531 215.71875 L 3.839844 215.988281 L 3.566406 214.007812 L 3.269531 212.054688 L 9.574219 191.246094 C 13.03125 179.8125 15.851562 170.265625 15.851562 170.015625 C 15.851562 169.769531 12.828125 169.027344 9.125 168.367188 L 2.367188 167.164062 L 0.203125 164.523438 L 0.683594 164.042969 C 0.960938 163.769531 4.386719 162.644531 8.28125 161.550781 C 12.179688 160.453125 15.441406 159.480469 15.550781 159.386719 C 15.65625 159.292969 14.019531 153.625 11.886719 146.773438 C 9.753906 139.925781 6.730469 130.023438 5.160156 124.792969 L 2.308594 115.304688 L 3.328125 114.253906 L 4.347656 113.234375 L 8.734375 113.414062 L 13.117188 113.625 L 15.640625 114.824219 L 18.160156 116.054688 L 30.324219 134.132812 C 37.023438 144.082031 42.96875 152.695312 43.535156 153.261719 L 44.554688 154.28125 L 51.582031 153.171875 C 55.441406 152.550781 64.230469 151.378906 71.101562 150.589844 L 83.59375 149.148438 L 101.851562 148.695312 L 136.921875 147.765625 C 146.171875 147.519531 155.53125 147.054688 157.734375 146.714844 L 161.726562 146.085938 L 161.214844 138.757812 C 160.921875 134.726562 160.304688 130.457031 159.863281 129.269531 L 159.054688 127.105469 L 153.199219 127.105469 L 152.597656 125.574219 L 152.027344 124.042969 L 153.347656 123.171875 C 154.085938 122.707031 155.671875 122.308594 156.863281 122.300781 L 159.023438 122.300781 L 159.023438 121.582031 C 159.023438 121.183594 158.113281 118.503906 157.011719 115.605469 C 155.910156 112.710938 154.742188 109.898438 154.398438 109.359375 C 154.054688 108.820312 153.746094 107.929688 153.738281 107.410156 L 153.738281 106.476562 L 152.058594 106.148438 L 150.375 105.816406 L 150.945312 107.347656 L 151.546875 108.851562 L 147.492188 108.851562 L 147.492188 105.90625 L 149.894531 105.007812 C 151.214844 104.503906 152.296875 103.808594 152.296875 103.445312 C 152.296875 103.082031 151.566406 100.46875 150.675781 97.648438 L 149.054688 92.515625 L 146.921875 92.515625 C 145.742188 92.515625 144.09375 92.265625 143.257812 91.945312 L 141.726562 91.34375 L 141.726562 88.609375 L 144.128906 87.710938 C 145.449219 87.207031 146.53125 86.570312 146.53125 86.296875 C 146.53125 86.027344 145.378906 82.875 143.980469 79.300781 C 142.578125 75.730469 141.042969 72.382812 140.554688 71.855469 L 139.65625 70.894531 L 139.984375 72.304688 L 140.285156 73.71875 L 138.125 74.046875 L 135.960938 74.378906 L 135.960938 71.195312 L 137.882812 70.683594 L 139.804688 70.203125 L 139.804688 68.914062 C 139.804688 68.207031 139.324219 66.535156 138.726562 65.21875 L 137.613281 62.816406 L 135.121094 62.546875 L 132.597656 62.246094 L 132.296875 60.65625 L 132 59.03125 L 133.949219 58.433594 L 135.902344 57.800781 L 133.859375 52.335938 C 132.746094 49.328125 129.257812 40.816406 126.113281 33.417969 C 122.96875 26.019531 118.886719 16.585938 117.042969 12.460938 L 113.710938 4.953125 L 114.222656 3.570312 L 114.761719 2.191406 L 119.808594 2.191406 L 125.8125 5.554688 C 129.121094 7.402344 132.472656 9.671875 133.289062 10.597656 C 134.105469 11.523438 136.503906 15.089844 138.605469 18.523438 C 140.707031 21.960938 148.171875 33.851562 155.179688 44.949219 C 162.1875 56.046875 173.519531 74.210938 180.375 85.308594 C 187.230469 96.40625 193.464844 106.503906 194.246094 107.738281 L 195.6875 109.960938 L 197.398438 108.429688 L 199.109375 106.867188 L 209.5625 106.65625 L 220.039062 106.449219 L 221.242188 107.226562 L 222.441406 108.007812 L 222.441406 121.222656 L 221.242188 122.003906 L 220.039062 122.78125 L 212.203125 123.261719 L 204.335938 123.742188 L 210.761719 133.984375 L 217.160156 144.253906 L 220.519531 145.722656 L 223.882812 147.226562 L 260.398438 147.617188 L 296.914062 148.035156 L 306.402344 150.019531 L 315.921875 152.03125 L 322.257812 155.003906 C 325.75 156.636719 329.59375 158.902344 330.785156 160.015625 L 332.945312 162.03125 L 332.945312 165.183594 L 330.996094 167.285156 C 329.914062 168.445312 326.792969 170.507812 324.089844 171.878906 L 319.195312 174.371094 L 310.367188 176.621094 L 301.535156 178.84375 L 290.578125 179.894531 L 279.617188 180.917969 L 251.269531 180.945312 L 222.921875 181.007812 L 220.25 182.148438 L 217.609375 183.320312 L 211.421875 193.410156 L 205.238281 203.5 L 212.625 203.980469 L 220.039062 204.460938 L 221.242188 205.238281 L 222.441406 206.019531 L 222.441406 219.292969 L 220.339844 220.402344 L 218.238281 221.546875 L 208.300781 221.035156 L 198.390625 220.523438 L 197.191406 219.53125 L 196.019531 218.570312 L 190.824219 226.890625 C 187.96875 231.46875 182.113281 240.828125 177.792969 247.699219 C 173.46875 254.570312 168.214844 262.910156 166.140625 266.226562 C 164.066406 269.542969 161.089844 274.335938 159.503906 276.886719 L 144.699219 300.519531 L 132.78125 319.496094 L 129.804688 321.328125 L 126.832031 323.128906 L 125.691406 322.710938 L 124.523438 322.257812 L 124.972656 323.429688 L 125.390625 324.570312 L 122.210938 326.734375 L 119.027344 328.894531 L 113.800781 328.894531 L 113.351562 327.695312 L 112.871094 326.492188 L 119.175781 311.597656 C 122.644531 303.40625 127.6875 291.183594 130.378906 284.425781 L 135.273438 272.140625 L 133.53125 270.851562 L 131.820312 269.589844 L 132.417969 268.027344 L 133.019531 266.4375 L 136.863281 266.4375 L 138.214844 263.792969 C 138.953125 262.339844 139.859375 260.179688 140.226562 258.988281 L 139.925781 258.75 L 137.882812 258.75 L 137.882812 255.027344 L 139.894531 254.726562 L 141.9375 254.425781 L 144.21875 248.328125 L 146.503906 242.234375 L 144.609375 241.722656 L 142.6875 241.242188 L 142.6875 237.398438 L 144.371094 238.089844 C 145.296875 238.472656 146.761719 239.007812 147.644531 239.261719 L 148.125 237.371094 C 148.535156 236.710938 149.800781 233.496094 150.945312 230.222656 L 153.019531 224.277344 L 150.253906 223.285156 L 147.492188 222.324219 L 147.492188 219.535156 L 151.1875 218.902344 L 154.851562 218.273438 L 156.53125 213.289062 C 157.445312 210.542969 158.386719 207.8125 158.632812 207.222656 L 159.082031 206.140625 L 156.171875 205.570312 L 153.257812 205 L 153.257812 201.277344 L 157.042969 200.617188 Z M 163.992188 186.21875 " fill-opacity="1" fill-rule="nonzero"/></g></g></g></svg>