<svg xmlns="http://www.w3.org/2000/svg" xmlns:xlink="http://www.w3.org/1999/xlink" width="500" zoomAndPan="magnify" viewBox="0 0 375 112.499997" height="150" preserveAspectRatio="xMidYMid meet" version="1.0"><defs><g/><clipPath id="7fa5427c9a"><path d="M 18.464844 18.074219 L 78.074219 18.074219 L 78.074219 77.683594 L 18.464844 77.683594 Z M 18.464844 18.074219 " clip-rule="nonzero"/></clipPath><clipPath id="bf2045ed1a"><path d="M 1.082031 1.292969 L 95.542969 1.292969 L 95.542969 94.503906 L 1.082031 94.503906 Z M 1.082031 1.292969 " clip-rule="nonzero"/></clipPath><clipPath id="b90fb043b1"><path d="M 115 16 L 364.121094 16 L 364.121094 80 L 115 80 Z M 115 16 " clip-rule="nonzero"/></clipPath><clipPath id="30fb5e47f8"><rect x="0" width="250" y="0" height="64"/></clipPath><clipPath id="b572d1e063"><rect x="0" width="365" y="0" height="95"/></clipPath></defs><g transform="matrix(1, 0, 0, 1, 3, 8)"><g clip-path="url(#b572d1e063)"><g clip-path="url(#7fa5427c9a)"><path fill="#ff8234" d="M 48.390625 76.300781 C 32.785156 76.300781 20.089844 63.605469 20.089844 48 C 20.089844 37.691406 25.632812 28.652344 33.894531 23.703125 C 34.207031 23.933594 34.601562 24.089844 35.105469 24.089844 C 35.105469 24.089844 35.648438 24.089844 32.179688 26.800781 C 28.710938 29.511719 29.03125 33.273438 30.117188 30.90625 C 31.203125 28.535156 32.179688 29.40625 30.445312 32.765625 C 28.710938 36.128906 31.355469 35.042969 32.253906 37.105469 C 33.15625 39.164062 33.480469 36.671875 33.914062 40.574219 C 33.914062 40.574219 35 41.875 36.949219 41.226562 C 38.902344 40.574219 36.625 42.957031 34.5625 44.910156 C 32.503906 46.863281 33.152344 47.511719 34.238281 48.707031 C 35.324219 49.902344 35.757812 50.875 34.78125 52.175781 C 33.808594 53.476562 36.300781 53.910156 36.949219 54.667969 C 37.601562 55.429688 37.492188 57.921875 35.972656 59.007812 C 34.457031 60.089844 36.734375 62.476562 36.40625 65.839844 C 36.082031 69.199219 36.160156 70.609375 37.691406 70.824219 C 39.226562 71.042969 37.492188 67.898438 38.140625 66.488281 C 38.792969 65.082031 39.554688 67.464844 41.070312 63.671875 C 41.070312 63.671875 43.785156 64.320312 44.972656 60.199219 C 44.972656 60.199219 47.355469 59.875 47.792969 58.574219 C 48.226562 57.273438 47.683594 56.40625 51.152344 53.585938 C 54.621094 50.765625 48.765625 48.597656 45.625 48.488281 C 45.625 48.488281 44.472656 48.960938 46.492188 45.34375 C 47.375 43.765625 44.757812 44.152344 44.105469 42.742188 C 43.457031 41.332031 41.9375 39.707031 38.902344 40.03125 C 35.867188 40.355469 34.996094 41.441406 34.890625 39.597656 C 34.78125 37.753906 36.1875 36.890625 34.671875 36.671875 C 33.15625 36.453125 33.914062 36.34375 35.542969 34.824219 C 35.542969 34.824219 34.5625 34.171875 33.589844 35.152344 C 32.613281 36.128906 30.875 34.613281 32.9375 32.445312 C 35 30.273438 38.25 28.644531 38.035156 32.765625 C 37.816406 36.890625 39.335938 30.90625 39.335938 30.90625 C 39.335938 30.90625 41.613281 27.996094 44.433594 27.78125 C 47.25 27.5625 45.515625 27.453125 45.515625 26.476562 C 45.515625 25.503906 46.816406 28.105469 48.390625 27.453125 C 49.960938 26.800781 46.707031 26.585938 47.035156 25.503906 C 47.355469 24.417969 49.203125 24.742188 49.960938 26.152344 C 50.71875 27.5625 51.589844 25.394531 49.636719 23.113281 C 47.683594 20.839844 48.011719 22.25 46.167969 23.222656 C 44.324219 24.199219 45.082031 24.742188 44.757812 23.113281 C 44.433594 21.492188 44.324219 23.222656 43.457031 22.359375 C 42.585938 21.492188 45.003906 21.890625 46.273438 22.03125 C 47.546875 22.167969 47.144531 21.273438 47.144531 21.273438 L 48.390625 20.730469 C 48.390625 20.730469 49.203125 21.921875 50.179688 21.707031 C 51.152344 21.492188 49.527344 19.96875 50.5 20.1875 C 51.480469 20.40625 52.777344 19.539062 52.886719 20.839844 C 52.996094 22.140625 52.128906 23.875 55.710938 21.921875 C 56.433594 21.53125 56.917969 21.273438 57.246094 21.121094 C 57.488281 21.199219 57.726562 21.285156 57.96875 21.371094 C 57.988281 21.632812 58.074219 21.96875 58.527344 22.25 C 59.9375 23.113281 59.503906 22.355469 61.34375 23.441406 C 63.191406 24.527344 61.996094 25.71875 63.40625 25.9375 C 64.8125 26.152344 66.117188 28.105469 65.035156 28.214844 C 63.949219 28.320312 63.839844 27.023438 62.21875 26.800781 C 60.585938 26.585938 62.867188 27.34375 63.949219 28.320312 C 65.035156 29.296875 65.035156 30.453125 63.949219 30.90625 C 62.867188 31.359375 63.667969 33.851562 65.433594 33.527344 C 67.203125 33.199219 66.550781 31.359375 67.527344 31.792969 C 68.503906 32.226562 68.175781 33.308594 69.804688 33.960938 C 71.433594 34.613281 69.585938 35.476562 71.539062 35.585938 C 73.492188 35.695312 74.464844 36.453125 72.730469 37.210938 C 70.996094 37.976562 71.867188 38.621094 70.34375 36.777344 C 68.828125 34.9375 68.976562 36.699219 68.828125 34.9375 C 68.679688 33.171875 66.226562 34.824219 64.925781 35.042969 C 63.625 35.261719 64.707031 36.5625 63.511719 36.777344 C 62.320312 36.996094 61.777344 36.671875 62.105469 39.488281 C 62.429688 42.3125 61.671875 42.957031 60.367188 42.957031 C 59.070312 42.957031 61.457031 44.476562 62.105469 46.429688 C 62.753906 48.378906 62.867188 49.574219 65.683594 48.816406 C 68.503906 48.054688 67.636719 48.054688 67.960938 49.574219 C 68.285156 51.09375 69.480469 48.707031 69.695312 50.222656 C 69.914062 51.742188 66.984375 52.070312 68.609375 53.042969 C 70.234375 54.015625 69.046875 56.296875 68.285156 56.835938 C 67.527344 57.382812 68.066406 59.328125 66.445312 60.199219 C 64.8125 61.066406 67.203125 62.582031 66.226562 63.5625 C 65.253906 64.539062 62.648438 65.730469 63.625 68.117188 C 64.601562 70.5 64.601562 69.089844 66.660156 67.355469 C 68.71875 65.621094 70.457031 62.695312 71.433594 62.804688 C 71.78125 62.84375 71.949219 63.113281 72.15625 63.34375 C 67.109375 71.136719 58.339844 76.300781 48.390625 76.300781 Z M 48.390625 18.074219 C 31.886719 18.074219 18.460938 31.5 18.460938 48 C 18.460938 64.5 31.886719 77.929688 48.390625 77.929688 C 64.890625 77.929688 78.316406 64.5 78.316406 48 C 78.316406 31.5 64.890625 18.074219 48.390625 18.074219 " fill-opacity="1" fill-rule="nonzero"/></g><g clip-path="url(#bf2045ed1a)"><path fill="#ffffff" d="M 47.679688 53.894531 L 48.082031 52.5625 L 46.402344 52.550781 L 35.605469 52.351562 L 24.804688 52.164062 L 19.550781 51.457031 C 16.660156 51.066406 14.105469 50.746094 13.878906 50.746094 L 13.460938 50.746094 L 9.789062 56.34375 L 6.105469 61.9375 L 5.480469 62.074219 C 5.136719 62.152344 4.234375 62.246094 3.484375 62.289062 L 2.117188 62.363281 L 2.039062 61.800781 L 1.953125 61.246094 L 3.75 55.324219 C 4.730469 52.074219 5.535156 49.355469 5.535156 49.285156 C 5.535156 49.214844 4.675781 49.003906 3.621094 48.816406 L 1.699219 48.472656 L 1.082031 47.722656 L 1.21875 47.585938 C 1.296875 47.507812 2.273438 47.1875 3.382812 46.878906 C 4.488281 46.566406 5.417969 46.289062 5.449219 46.261719 C 5.480469 46.234375 5.011719 44.621094 4.40625 42.675781 C 3.800781 40.726562 2.941406 37.910156 2.492188 36.421875 L 1.679688 33.722656 L 1.972656 33.421875 L 2.261719 33.132812 L 3.507812 33.183594 L 4.757812 33.242188 L 5.472656 33.585938 L 6.191406 33.933594 L 9.652344 39.078125 C 11.558594 41.90625 13.25 44.359375 13.410156 44.519531 L 13.699219 44.808594 L 15.699219 44.492188 C 16.796875 44.316406 19.296875 43.984375 21.253906 43.757812 L 24.804688 43.347656 L 30 43.222656 L 39.976562 42.957031 C 42.609375 42.886719 45.273438 42.753906 45.898438 42.65625 L 47.035156 42.476562 L 46.886719 40.394531 C 46.804688 39.246094 46.628906 38.03125 46.503906 37.695312 L 46.273438 37.078125 L 44.609375 37.078125 L 44.4375 36.644531 L 44.273438 36.207031 L 44.648438 35.960938 C 44.859375 35.828125 45.3125 35.714844 45.648438 35.710938 L 46.265625 35.710938 L 46.265625 35.507812 C 46.265625 35.394531 46.003906 34.632812 45.691406 33.808594 C 45.378906 32.984375 45.046875 32.183594 44.949219 32.03125 C 44.851562 31.875 44.765625 31.625 44.761719 31.476562 L 44.761719 31.210938 L 44.28125 31.117188 L 43.804688 31.023438 L 43.96875 31.457031 L 44.136719 31.886719 L 42.984375 31.886719 L 42.984375 31.046875 L 43.667969 30.792969 C 44.042969 30.648438 44.351562 30.449219 44.351562 30.347656 C 44.351562 30.242188 44.144531 29.5 43.890625 28.699219 L 43.429688 27.238281 L 42.820312 27.238281 C 42.484375 27.238281 42.019531 27.167969 41.78125 27.074219 L 41.34375 26.90625 L 41.34375 26.128906 L 42.027344 25.871094 C 42.402344 25.726562 42.710938 25.546875 42.710938 25.46875 C 42.710938 25.390625 42.382812 24.496094 41.984375 23.480469 C 41.585938 22.460938 41.148438 21.511719 41.011719 21.359375 L 40.753906 21.085938 L 40.847656 21.488281 L 40.933594 21.890625 L 40.320312 21.984375 L 39.703125 22.078125 L 39.703125 21.171875 L 40.25 21.027344 L 40.796875 20.890625 L 40.796875 20.523438 C 40.796875 20.320312 40.660156 19.847656 40.488281 19.472656 L 40.175781 18.789062 L 39.464844 18.710938 L 38.746094 18.625 L 38.660156 18.175781 L 38.578125 17.710938 L 39.132812 17.542969 L 39.6875 17.363281 L 39.105469 15.808594 C 38.789062 14.953125 37.796875 12.53125 36.902344 10.425781 C 36.007812 8.320312 34.847656 5.636719 34.324219 4.464844 L 33.375 2.328125 L 33.519531 1.933594 L 33.671875 1.542969 L 35.109375 1.542969 L 36.816406 2.5 C 37.757812 3.023438 38.710938 3.671875 38.945312 3.933594 C 39.175781 4.195312 39.859375 5.210938 40.457031 6.1875 C 41.054688 7.164062 43.179688 10.546875 45.171875 13.707031 C 47.164062 16.863281 50.386719 22.03125 52.339844 25.1875 C 54.289062 28.34375 56.0625 31.21875 56.285156 31.570312 L 56.695312 32.199219 L 57.183594 31.765625 L 57.667969 31.320312 L 60.640625 31.261719 L 63.625 31.203125 L 63.964844 31.421875 L 64.308594 31.644531 L 64.308594 35.40625 L 63.964844 35.625 L 63.625 35.847656 L 61.394531 35.984375 L 59.15625 36.121094 L 60.984375 39.035156 L 62.804688 41.957031 L 63.761719 42.375 L 64.71875 42.800781 L 75.105469 42.914062 L 85.492188 43.03125 L 88.191406 43.597656 L 90.898438 44.167969 L 92.703125 45.015625 C 93.695312 45.480469 94.789062 46.125 95.128906 46.441406 L 95.742188 47.015625 L 95.742188 47.910156 L 95.1875 48.507812 C 94.882812 48.839844 93.992188 49.425781 93.222656 49.816406 L 91.832031 50.523438 L 89.320312 51.164062 L 86.808594 51.796875 L 83.691406 52.097656 L 80.570312 52.386719 L 72.507812 52.394531 L 64.445312 52.414062 L 63.683594 52.738281 L 62.929688 53.070312 L 61.171875 55.941406 L 59.410156 58.8125 L 61.511719 58.949219 L 63.625 59.085938 L 63.964844 59.304688 L 64.308594 59.527344 L 64.308594 63.304688 L 63.707031 63.621094 L 63.109375 63.945312 L 60.285156 63.800781 L 57.464844 63.65625 L 57.121094 63.371094 L 56.789062 63.097656 L 55.3125 65.464844 C 54.5 66.769531 52.832031 69.429688 51.605469 71.386719 C 50.375 73.339844 48.878906 75.710938 48.289062 76.65625 C 47.699219 77.601562 46.851562 78.964844 46.402344 79.6875 L 42.191406 86.414062 L 38.796875 91.8125 L 37.953125 92.332031 L 37.105469 92.84375 L 36.78125 92.726562 L 36.449219 92.597656 L 36.578125 92.929688 L 36.695312 93.253906 L 35.792969 93.871094 L 34.886719 94.484375 L 33.398438 94.484375 L 33.273438 94.144531 L 33.136719 93.800781 L 34.929688 89.566406 C 35.914062 87.234375 37.351562 83.757812 38.117188 81.832031 L 39.507812 78.339844 L 39.011719 77.972656 L 38.523438 77.613281 L 38.695312 77.167969 L 38.867188 76.714844 L 39.960938 76.714844 L 40.34375 75.964844 C 40.554688 75.550781 40.8125 74.9375 40.917969 74.597656 L 40.832031 74.53125 L 40.25 74.53125 L 40.25 73.46875 L 40.824219 73.386719 L 41.402344 73.300781 L 42.054688 71.566406 L 42.703125 69.832031 L 42.164062 69.6875 L 41.617188 69.550781 L 41.617188 68.457031 L 42.097656 68.652344 C 42.359375 68.761719 42.777344 68.914062 43.027344 68.984375 L 43.164062 68.445312 C 43.28125 68.257812 43.640625 67.34375 43.96875 66.414062 L 44.554688 64.722656 L 43.769531 64.441406 L 42.984375 64.167969 L 42.984375 63.371094 L 44.035156 63.195312 L 45.078125 63.015625 L 45.554688 61.597656 C 45.816406 60.816406 46.082031 60.039062 46.152344 59.871094 L 46.28125 59.5625 L 45.453125 59.402344 L 44.625 59.238281 L 44.625 58.179688 L 45.699219 57.992188 Z M 47.679688 53.894531 " fill-opacity="1" fill-rule="nonzero"/></g><g clip-path="url(#b90fb043b1)"><g transform="matrix(1, 0, 0, 1, 115, 16)"><g clip-path="url(#30fb5e47f8)"><g fill="#ffffff" fill-opacity="1"><g transform="translate(0.641139, 49.536763)"><g><path d="M 6.3125 -33.34375 L 2.109375 -33.921875 L 2.109375 -36.375 L 28.296875 -36.375 L 28.78125 -28.046875 L 25.609375 -28.046875 L 24.140625 -33.484375 L 11.546875 -33.828125 L 11.546875 -19.625 L 20.40625 -19.78125 L 21.25 -23.84375 L 23.84375 -23.84375 L 23.84375 -12.390625 L 21.296875 -12.390625 L 20.40625 -16.640625 L 11.546875 -16.84375 L 11.546875 -2.890625 L 19.1875 -2.40625 L 19.1875 0 L 2.40625 0 L 2.40625 -2.40625 L 6.3125 -2.890625 Z M 6.3125 -33.34375 "/></g></g></g><g fill="#ffffff" fill-opacity="1"><g transform="translate(30.936683, 49.536763)"><g><path d="M 5.78125 -36.515625 L 1.8125 -37.0625 L 1.8125 -39.15625 L 9.6875 -40.09375 L 9.796875 -40.09375 L 10.875 -39.359375 L 10.875 -2.796875 L 15.03125 -2.40625 L 15.03125 0 L 1.8125 0 L 1.8125 -2.40625 L 5.78125 -2.84375 Z M 5.78125 -36.515625 "/></g></g></g><g fill="#ffffff" fill-opacity="1"><g transform="translate(47.234606, 49.536763)"><g><path d="M 6.171875 12.1875 C 5.609375 12.1875 5.054688 12.15625 4.515625 12.09375 C 3.984375 12.03125 3.601562 11.929688 3.375 11.796875 L 3.375 7.53125 C 3.570312 7.664062 3.957031 7.765625 4.53125 7.828125 C 5.101562 7.898438 5.648438 7.9375 6.171875 7.9375 C 7.734375 7.9375 9.109375 7.390625 10.296875 6.296875 C 11.492188 5.203125 12.644531 3.101562 13.75 0 L 11.40625 0 L 2.109375 -24.234375 L -0.140625 -24.875 L -0.140625 -27.171875 L 11.65625 -27.171875 L 11.65625 -24.875 L 7.875 -24.28125 L 12.671875 -9.84375 L 14.9375 -2.6875 L 17.03125 -9.890625 L 21.390625 -24.28125 L 18.109375 -24.875 L 18.109375 -27.171875 L 27.953125 -27.171875 L 27.953125 -24.875 L 25.5 -24.28125 C 20.707031 -9.59375 17.882812 -1.253906 17.03125 0.734375 C 15.925781 3.535156 14.914062 5.726562 14 7.3125 C 13.082031 8.894531 12.003906 10.101562 10.765625 10.9375 C 9.523438 11.769531 7.992188 12.1875 6.171875 12.1875 Z M 6.171875 12.1875 "/></g></g></g><g fill="#ffffff" fill-opacity="1"><g transform="translate(75.229835, 49.536763)"><g><path d="M 14.203125 -36.671875 L 19.578125 -36.671875 L 31.484375 -2.890625 L 34.515625 -2.40625 L 34.515625 0 L 21.59375 0 L 21.59375 -2.40625 L 25.65625 -2.890625 L 23.34375 -10.140625 L 9.0625 -10.140625 L 6.75 -2.890625 L 10.96875 -2.40625 L 10.96875 0 L -0.640625 0 L -0.640625 -2.40625 L 2.40625 -2.890625 Z M 17.28125 -28.828125 L 16.0625 -33.140625 L 14.875 -28.734375 L 9.9375 -13.015625 L 22.421875 -13.015625 Z M 17.28125 -28.828125 "/></g></g></g><g fill="#ffffff" fill-opacity="1"><g transform="translate(109.098195, 49.536763)"><g><path d="M -0.09375 -39.15625 L 7.734375 -40.09375 L 7.828125 -40.09375 L 8.953125 -39.359375 L 8.953125 -24.625 C 9.929688 -25.570312 11.097656 -26.351562 12.453125 -26.96875 C 13.804688 -27.59375 15.316406 -27.90625 16.984375 -27.90625 C 18.941406 -27.90625 20.726562 -27.429688 22.34375 -26.484375 C 23.957031 -25.535156 25.242188 -24.066406 26.203125 -22.078125 C 27.171875 -20.085938 27.65625 -17.570312 27.65625 -14.53125 C 27.65625 -11.726562 27.078125 -9.179688 25.921875 -6.890625 C 24.765625 -4.609375 23.109375 -2.800781 20.953125 -1.46875 C 18.796875 -0.132812 16.300781 0.53125 13.46875 0.53125 C 11.207031 0.53125 9.144531 0.3125 7.28125 -0.125 C 5.425781 -0.5625 4.304688 -0.960938 3.921875 -1.328125 L 3.921875 -36.5625 L -0.09375 -37.109375 Z M 14.984375 -24.421875 C 13.742188 -24.421875 12.59375 -24.132812 11.53125 -23.5625 C 10.46875 -23 9.609375 -22.359375 8.953125 -21.640625 L 8.953125 -3.625 C 9.148438 -3.164062 9.710938 -2.796875 10.640625 -2.515625 C 11.578125 -2.242188 12.632812 -2.109375 13.8125 -2.109375 C 16.320312 -2.109375 18.34375 -3.117188 19.875 -5.140625 C 21.40625 -7.160156 22.171875 -10.113281 22.171875 -14 C 22.171875 -17.488281 21.5 -20.097656 20.15625 -21.828125 C 18.820312 -23.554688 17.097656 -24.421875 14.984375 -24.421875 Z M 14.984375 -24.421875 "/></g></g></g><g fill="#ffffff" fill-opacity="1"><g transform="translate(138.806418, 49.536763)"><g><path d="M 2.296875 -2.40625 L 5.96875 -2.6875 L 5.96875 -23.40625 L 2.453125 -24.28125 L 2.453125 -26.921875 L 9.203125 -27.8125 L 9.296875 -27.8125 L 10.375 -26.921875 L 10.375 -26.046875 L 10.234375 -22.21875 L 10.375 -22.21875 C 10.707031 -22.78125 11.296875 -23.5 12.140625 -24.375 C 12.984375 -25.257812 14.070312 -26.066406 15.40625 -26.796875 C 16.75 -27.535156 18.207031 -27.90625 19.78125 -27.90625 C 20.425781 -27.90625 20.960938 -27.820312 21.390625 -27.65625 L 21.390625 -22.171875 C 21.160156 -22.335938 20.789062 -22.492188 20.28125 -22.640625 C 19.78125 -22.785156 19.222656 -22.859375 18.609375 -22.859375 C 15.890625 -22.859375 13.375 -22.023438 11.0625 -20.359375 L 11.0625 -2.734375 L 17.28125 -2.34375 L 17.28125 0 L 2.296875 0 Z M 2.296875 -2.40625 "/></g></g></g><g fill="#ffffff" fill-opacity="1"><g transform="translate(161.222181, 49.536763)"><g><path d="M 2.203125 -13.65625 C 2.203125 -16.59375 2.804688 -19.140625 4.015625 -21.296875 C 5.222656 -23.453125 6.8125 -25.09375 8.78125 -26.21875 C 10.757812 -27.34375 12.875 -27.90625 15.125 -27.90625 C 19.238281 -27.90625 22.332031 -26.597656 24.40625 -23.984375 C 26.476562 -21.378906 27.515625 -17.953125 27.515625 -13.703125 C 27.515625 -10.734375 26.910156 -8.171875 25.703125 -6.015625 C 24.492188 -3.867188 22.898438 -2.238281 20.921875 -1.125 C 18.953125 -0.0195312 16.84375 0.53125 14.59375 0.53125 C 10.476562 0.53125 7.382812 -0.769531 5.3125 -3.375 C 3.238281 -5.988281 2.203125 -9.414062 2.203125 -13.65625 Z M 14.875 -2.25 C 17.132812 -2.25 18.863281 -3.175781 20.0625 -5.03125 C 21.269531 -6.894531 21.875 -9.65625 21.875 -13.3125 C 21.875 -16.9375 21.316406 -19.804688 20.203125 -21.921875 C 19.097656 -24.046875 17.320312 -25.109375 14.875 -25.109375 C 12.625 -25.109375 10.882812 -24.175781 9.65625 -22.3125 C 8.4375 -20.457031 7.828125 -17.703125 7.828125 -14.046875 C 7.828125 -10.421875 8.398438 -7.546875 9.546875 -5.421875 C 10.691406 -3.304688 12.46875 -2.25 14.875 -2.25 Z M 14.875 -2.25 "/></g></g></g><g fill="#ffffff" fill-opacity="1"><g transform="translate(190.979351, 49.536763)"><g><path d="M 2.203125 -7.34375 C 2.203125 -10.40625 3.734375 -12.660156 6.796875 -14.109375 C 9.867188 -15.566406 13.753906 -16.347656 18.453125 -16.453125 L 18.453125 -17.8125 C 18.453125 -19.351562 18.285156 -20.5625 17.953125 -21.4375 C 17.628906 -22.320312 17.066406 -22.96875 16.265625 -23.375 C 15.472656 -23.78125 14.34375 -23.984375 12.875 -23.984375 C 11.207031 -23.984375 9.710938 -23.742188 8.390625 -23.265625 C 7.066406 -22.796875 5.753906 -22.222656 4.453125 -21.546875 L 3.234375 -24.078125 C 3.660156 -24.441406 4.441406 -24.914062 5.578125 -25.5 C 6.722656 -26.09375 8.046875 -26.613281 9.546875 -27.0625 C 11.046875 -27.519531 12.546875 -27.75 14.046875 -27.75 C 16.367188 -27.75 18.207031 -27.429688 19.5625 -26.796875 C 20.914062 -26.160156 21.882812 -25.140625 22.46875 -23.734375 C 23.050781 -22.335938 23.34375 -20.460938 23.34375 -18.109375 L 23.34375 -2.40625 L 26.234375 -2.40625 L 26.234375 -0.25 C 25.585938 -0.0820312 24.765625 0.078125 23.765625 0.234375 C 22.773438 0.398438 21.898438 0.484375 21.140625 0.484375 C 20.234375 0.484375 19.613281 0.34375 19.28125 0.0625 C 18.957031 -0.207031 18.796875 -0.816406 18.796875 -1.765625 L 18.796875 -3.375 C 17.816406 -2.394531 16.617188 -1.5 15.203125 -0.6875 C 13.785156 0.125 12.175781 0.53125 10.375 0.53125 C 8.03125 0.53125 6.082031 -0.144531 4.53125 -1.5 C 2.976562 -2.851562 2.203125 -4.800781 2.203125 -7.34375 Z M 12.484375 -2.796875 C 13.328125 -2.796875 14.300781 -3.054688 15.40625 -3.578125 C 16.519531 -4.097656 17.535156 -4.71875 18.453125 -5.4375 L 18.453125 -13.859375 C 14.898438 -13.859375 12.21875 -13.3125 10.40625 -12.21875 C 8.59375 -11.125 7.6875 -9.695312 7.6875 -7.9375 C 7.6875 -6.164062 8.117188 -4.863281 8.984375 -4.03125 C 9.847656 -3.207031 11.015625 -2.796875 12.484375 -2.796875 Z M 12.484375 -2.796875 "/></g></g></g><g fill="#ffffff" fill-opacity="1"><g transform="translate(218.436216, 49.536763)"><g><path d="M 12.78125 0.53125 C 10.820312 0.53125 9.023438 0.0390625 7.390625 -0.9375 C 5.753906 -1.914062 4.457031 -3.414062 3.5 -5.4375 C 2.539062 -7.457031 2.0625 -9.953125 2.0625 -12.921875 C 2.0625 -15.691406 2.628906 -18.21875 3.765625 -20.5 C 4.910156 -22.789062 6.550781 -24.597656 8.6875 -25.921875 C 10.820312 -27.242188 13.34375 -27.90625 16.25 -27.90625 C 17.914062 -27.90625 19.4375 -27.722656 20.8125 -27.359375 L 20.8125 -36.515625 L 15.8125 -37.109375 L 15.8125 -39.21875 L 24.625 -40.09375 L 24.765625 -40.09375 L 25.84375 -39.3125 L 25.84375 -2.5 L 28.6875 -2.5 L 28.6875 -0.25 C 27.644531 -0.0195312 26.738281 0.15625 25.96875 0.28125 C 25.195312 0.414062 24.390625 0.484375 23.546875 0.484375 C 22.703125 0.484375 22.097656 0.335938 21.734375 0.046875 C 21.378906 -0.242188 21.203125 -0.863281 21.203125 -1.8125 L 21.203125 -3.375 C 20.285156 -2.269531 19.082031 -1.34375 17.59375 -0.59375 C 16.113281 0.15625 14.507812 0.53125 12.78125 0.53125 Z M 14.734375 -2.9375 C 16.003906 -2.9375 17.191406 -3.222656 18.296875 -3.796875 C 19.410156 -4.367188 20.25 -5.03125 20.8125 -5.78125 L 20.8125 -23.6875 C 20.539062 -24.082031 19.925781 -24.429688 18.96875 -24.734375 C 18.007812 -25.046875 16.988281 -25.203125 15.90625 -25.203125 C 13.363281 -25.203125 11.332031 -24.234375 9.8125 -22.296875 C 8.289062 -20.359375 7.53125 -17.363281 7.53125 -13.3125 C 7.53125 -9.789062 8.195312 -7.179688 9.53125 -5.484375 C 10.875 -3.785156 12.609375 -2.9375 14.734375 -2.9375 Z M 14.734375 -2.9375 "/></g></g></g></g></g></g></g></g></svg>