<svg width="1136" height="380" viewBox="0 0 1136 380" fill="none" xmlns="http://www.w3.org/2000/svg">
<g clip-path="url(#clip0_8_7901)">
<rect x="-14" y="-12" width="1154" height="401" rx="16" fill="#DF1C25"/>
<g opacity="0.2">
<path fill-rule="evenodd" clip-rule="evenodd" d="M724.702 282.616C816.397 307.709 914.088 321.198 978.89 391.314C1055.22 473.9 1111.44 581.474 1095.21 683.506C1078.46 788.836 989.294 859.474 896.05 912.183C800.82 966.014 692.223 997.237 576.822 976.539C447.117 953.276 299.726 907.94 235.791 793.763C173.504 682.528 238.372 561.138 283.295 452.346C318.982 365.922 370.526 284.079 460.546 249.464C542.357 218.006 634.688 257.982 724.702 282.616Z" stroke="white"/>
<path fill-rule="evenodd" clip-rule="evenodd" d="M787.429 242.282C907.725 276.933 980.577 396.617 1036.41 506.139C1085.02 601.515 1096.26 704.518 1072.56 801.638C1049.58 895.828 1002.04 989.272 909.698 1025.4C823.455 1059.15 728.153 989.052 631.522 974.201C503.562 954.536 353.002 1020.42 261.816 925.834C168.479 829.016 196.191 678.873 235.236 563.134C270.358 459.026 363.178 395.904 459.465 339.956C559.731 281.696 666.956 207.581 787.429 242.282Z" stroke="white"/>
<path fill-rule="evenodd" clip-rule="evenodd" d="M807.338 268.414C922.622 276.766 1045.86 352.319 1094.01 456.805C1139.48 555.464 1055.47 645.704 1025.97 742.842C1000.49 826.76 1004.89 924.221 935.647 978.349C856.892 1039.91 745.363 1080.23 642.425 1042.65C542.839 1006.29 517.647 887.585 455.204 802.944C385.2 708.053 229.855 628.605 260.356 524.755C291.221 419.669 466.984 466.07 568.06 418.701C657.64 376.719 703.303 260.877 807.338 268.414Z" stroke="white"/>
<path fill-rule="evenodd" clip-rule="evenodd" d="M754.596 249.117C865.363 274.163 952.624 369.307 1002.71 469.383C1047.61 559.085 1011.64 650.806 1002.88 745.168C992.174 860.523 1043.36 1010.05 946.722 1072.67C849.512 1135.66 713.278 1044.99 592.269 1011.23C469.977 977.121 316.186 984.186 248.69 877.966C181.392 772.056 250.311 649.734 295.087 543.546C330.457 459.661 393.946 399.056 471.609 349.293C557.422 294.31 647.214 224.837 754.596 249.117Z" stroke="white"/>
<path fill-rule="evenodd" clip-rule="evenodd" d="M733.32 290.999C817.748 325.202 915.293 328.491 974.026 397.552C1039.29 474.292 1053.13 572.016 1052.23 665.987C1051.04 788.711 1064.27 930.63 968.17 1003.32C865.753 1080.79 710.219 1069.39 576.853 1025.56C448.973 983.536 337.298 892.707 275.902 775.822C219.652 668.733 244.147 553.031 271.113 443.492C296.997 338.35 318.133 209.571 423.89 174.679C525.988 140.995 627.02 247.934 733.32 290.999Z" stroke="white"/>
<path fill-rule="evenodd" clip-rule="evenodd" d="M716.907 343.347C832.355 371.98 990.723 336.91 1047.36 439.815C1104.61 543.839 966.532 630.416 932.509 735.097C904.721 820.591 948.51 942.706 869.27 987.736C789.865 1032.86 687.729 952.408 592.264 928.448C490.27 902.85 361.021 930.032 299.823 844.817C238.349 759.217 312.418 659.373 330.21 563.553C348.82 463.324 315.535 331.136 404.624 280.404C493.953 229.535 609.396 316.682 716.907 343.347Z" stroke="white"/>
<path fill-rule="evenodd" clip-rule="evenodd" d="M729.505 311.964C812.64 339.868 876.177 398.644 933.337 464.948C1004.06 546.989 1090.2 629.257 1090.16 730.306C1090.11 846.59 1040.97 971.548 933.116 1015.81C828.964 1058.55 710.862 973.119 597.157 932.623C496.764 896.869 386.302 879.556 319.403 797.241C246.274 707.262 204.074 588.351 234.97 486.975C264.519 390.019 369.803 343.682 468.251 308.842C550.454 279.751 641.402 282.392 729.505 311.964Z" stroke="white"/>
<path fill-rule="evenodd" clip-rule="evenodd" d="M724.196 293.305C821.98 322.814 886.752 409.455 943.035 493.658C999.975 578.846 1049.06 670.352 1039.86 765.568C1029.67 871.007 991.763 987.031 891.635 1025.56C795.391 1062.59 687.435 985.322 586.394 940.05C507.89 904.875 435.777 863.879 382.353 797.368C321.331 721.4 258.276 635.697 270.194 546.397C282.65 453.071 360.562 388.74 443.024 342.77C526.608 296.174 625.206 263.433 724.196 293.305Z" stroke="white"/>
</g>
</g>
<defs>
<clipPath id="clip0_8_7901">
<rect width="1214" height="542" fill="white" transform="translate(-47 -153)"/>
</clipPath>
</defs>
</svg>
