<svg width="109" height="31" viewBox="0 0 109 31" fill="none" xmlns="http://www.w3.org/2000/svg">
<g clip-path="url(#clip0_8_8175)">
<rect x="78.8104" y="0.0885026" width="29.1892" height="29.1892" rx="14.5946" transform="rotate(-0.173721 78.8104 0.0885026)" fill="#FFE75C"/>
<path d="M101.305 29.6926C101.41 30.114 101.418 30.554 101.328 30.979C101.238 31.4042 101.052 31.8031 100.786 32.1459C100.519 32.4886 100.177 32.7663 99.7871 32.9576C99.397 33.149 98.9687 33.2491 98.5341 33.2504L92.5977 33.2684L89.821 34.8336L89.8207 34.7505C88.5546 34.7544 87.827 34.3414 88.3734 29.6903C88.1203 28.3833 86.9424 23.2392 86.2873 19.4012C85.6954 15.8951 86.9992 14.6042 90.6047 12.5591C92.1268 7.98796 96.1127 8.24572 96.889 10.9833C97.6653 13.7208 100.233 25.3576 101.305 29.6926Z" fill="#66BCFF"/>
<path d="M101.305 29.6925C100.758 27.4524 99.7909 23.304 98.8866 19.4252L94.2361 19.0865L90.653 21.6297L88.5858 24.4173L87.5316 25.8528C87.9106 27.6367 88.2261 29.0887 88.3526 29.711C87.8062 34.3622 88.534 34.7752 89.8001 34.7713L93.4696 33.2034L101.978 32.5757C101.768 31.6423 101.536 30.6674 101.305 29.6925Z" fill="#EB459F"/>
<path d="M91.7849 27.3846C92.0419 25.8354 91.9022 24.5215 91.4723 24.4501C91.0426 24.3788 90.4858 25.5769 90.2286 27.1264C89.9713 28.6756 90.1113 29.9893 90.541 30.0606C90.9706 30.132 91.5276 28.9339 91.7849 27.3846Z" fill="black"/>
<path d="M89.0604 23.5441C89.2668 23.1699 89.4942 22.7956 89.7215 22.4628C92.0568 19.0723 94.254 18.1523 96.3712 18.1459L99.0073 18.1379C99.0467 18.1389 99.0852 18.1491 99.1199 18.1677C99.1544 18.1863 99.1842 18.213 99.2065 18.2453C99.2288 18.2776 99.2432 18.3147 99.2485 18.3537C99.2538 18.3927 99.2498 18.4324 99.2368 18.4693L98.8866 19.4252C94.8391 19.4375 93.4065 19.3173 90.0546 22.8561L88.5858 24.4173L89.0604 23.5441Z" fill="#D11583"/>
<path d="M90.055 22.9807C88.665 23.2339 87.5671 23.9638 86.9483 25.2526C86.7726 25.6101 86.5182 25.9231 86.2039 26.1681L82.4759 28.8986C82.0569 29.1979 81.7656 29.6436 81.6594 30.1475C81.5534 30.6514 81.6403 31.1767 81.903 31.6195C82.0862 31.9303 82.3479 32.1873 82.6616 32.3648C82.9756 32.5424 83.3306 32.6343 83.6911 32.6311L85.2479 32.6264C88.4804 30.8108 89.9712 29.5816 90.7371 28.8735C91.5029 28.1655 92.3501 26.8967 92.2004 25.4442C92.0507 23.9917 91.6316 22.6853 90.055 22.9807Z" fill="white"/>
<path d="M91.1848 12.246C90.6841 11.4173 90.0165 10.3192 89.7659 9.80103C89.5152 9.28287 88.9137 9.40924 89.7717 11.7314C87.6937 10.9489 87.2587 11.2409 87.1558 11.5318C87.0529 11.8227 87.51 11.9666 88.3832 12.4621C89.2565 12.9576 90.1924 13.5567 90.1924 13.5567L91.1848 12.246Z" fill="#66BCFF"/>
<path d="M93.3437 12.3017C93.6952 11.8647 93.8185 11.387 93.6104 11.2215C93.4024 11.0561 93.1741 11.1398 92.864 11.5559C92.7302 11.7251 92.5852 11.8851 92.4296 12.0346C92.0777 12.3678 92.1615 12.6166 92.328 12.7614C92.4945 12.9062 92.9921 12.7387 93.3437 12.3017Z" fill="black"/>
<path d="M96.8684 11.0041C96.8684 11.0041 94.395 9.8907 93.3343 9.20894C92.2736 8.52718 91.7309 7.51174 92.2075 7.24045C92.6841 6.96917 93.5995 7.60985 94.2455 8.43817C94.2203 6.96451 94.4684 6.65242 94.8627 6.63047C95.257 6.60852 95.3001 7.18956 95.3234 8.01976C95.3466 8.84997 95.4932 9.18163 96.1176 9.74017C96.4914 10.0747 96.7534 10.5158 96.8684 11.0041Z" fill="#3442D9"/>
<path d="M87.8189 17.9228C87.2377 17.9245 86.738 17.4279 87.192 16.5547C87.646 15.6816 89.1377 14.8053 89.8632 14.471C90.5886 14.1366 90.922 14.4677 90.9435 14.7168C90.965 14.9658 90.8621 15.3397 90.3452 16.0055C89.8283 16.6713 88.8775 17.9196 87.8189 17.9228Z" fill="white"/>
<path d="M88.2751 17.8591L87.9226 17.9225L87.4193 16.2219L87.7089 15.9097L88.2751 17.8591Z" fill="#8CD9FF"/>
<path d="M89.5593 16.9419L89.2698 17.2334L88.682 15.1387L88.9927 14.9302L89.5593 16.9419Z" fill="#8CD9FF"/>
<path d="M90.7174 15.4855L90.4485 15.8599L90.029 14.4082L90.3817 14.3448L90.7174 15.4855Z" fill="#8CD9FF"/>
<path d="M90.2566 14.1584C90.6414 14.3407 91.037 14.4992 91.4414 14.6322" stroke="black" stroke-linecap="round" stroke-linejoin="round"/>
<path d="M99.5383 22.1631C99.1401 21.8493 98.6528 21.6691 98.1462 21.6484C97.0669 21.6517 96.4681 22.7121 96.2637 23.7298C96.2307 23.8931 96.143 24.0399 96.0148 24.1461C95.8866 24.2524 95.726 24.3112 95.5597 24.3132L95.4144 24.3136C95.3207 24.2967 95.2314 24.261 95.1519 24.2085C95.0723 24.1563 95.0042 24.0884 94.9516 24.009C94.8991 23.9297 94.8629 23.8406 94.8458 23.747C94.8285 23.6532 94.8305 23.5571 94.8514 23.4643C95.2398 21.4912 96.5229 20.2211 98.1419 20.2162C98.4097 20.2187 98.6688 20.3122 98.8769 20.4814C99.0847 20.6503 99.2291 20.885 99.2863 21.1468L99.5383 22.1631Z" fill="white"/>
<path d="M101.305 29.6925C101.351 29.878 101.359 30.071 101.329 30.2595C101.298 30.4483 101.23 30.6289 101.127 30.7903C101.025 30.9517 100.891 31.0905 100.733 31.1985C100.575 31.3067 100.397 31.3816 100.21 31.4187L99.6913 31.4618C98.5082 31.4653 97.2812 30.7633 96.3226 29.5416C96.2653 29.4654 96.2233 29.3787 96.1994 29.2864C96.1755 29.1939 96.17 29.0978 96.1832 29.0034C96.1964 28.9089 96.2281 28.8179 96.2764 28.7357C96.3247 28.6534 96.3889 28.5816 96.4651 28.5241C96.54 28.4638 96.6267 28.4196 96.7194 28.394C96.8121 28.3686 96.9092 28.3623 97.0045 28.3755C97.0998 28.3889 97.1912 28.4214 97.2736 28.4716C97.3557 28.5216 97.4269 28.5878 97.4824 28.6663C98.1492 29.5153 98.9605 30.0317 99.6869 30.0295C100.413 30.0273 100.848 29.6109 101.158 29.0703C101.2 29.2985 101.263 29.5058 101.305 29.6925Z" fill="#2331B5"/>
<path d="M99.896 23.7603C99.7495 23.7616 99.607 23.8083 99.4881 23.8942C99.3695 23.9801 99.2804 24.101 99.2332 24.2398L98.3686 26.5879C98.2931 26.8084 98.2955 27.0481 98.3754 27.267C98.4556 27.486 98.6083 27.6707 98.8081 27.7905C98.8986 27.8456 99.0004 27.88 99.1057 27.8904C99.2111 27.9011 99.3176 27.8877 99.4173 27.8515C99.5168 27.8153 99.6069 27.7571 99.681 27.6813C99.7551 27.6056 99.8111 27.5141 99.8448 27.4137L100.401 25.8968C100.253 25.2122 100.085 24.507 99.896 23.7603Z" fill="#5865F2"/>
<path d="M98.8082 27.7904C98.6083 27.6706 98.4556 27.486 98.3754 27.267C98.2955 27.0481 98.2931 26.8083 98.3686 26.5879L98.6157 25.9437C98.6571 25.8312 98.7224 25.7291 98.8068 25.6442C98.8915 25.5594 98.9934 25.494 99.1056 25.4521C99.2179 25.4105 99.3379 25.3935 99.4574 25.4025C99.5768 25.4114 99.693 25.4462 99.7975 25.5042C99.9687 25.6035 100.1 25.759 100.169 25.9445C100.237 26.1299 100.239 26.3333 100.174 26.5201L99.8449 27.4137C99.8111 27.514 99.7551 27.6055 99.6811 27.6813C99.607 27.7571 99.5169 27.8153 99.4173 27.8515C99.3176 27.8877 99.2112 27.9011 99.1057 27.8904C99.0004 27.8799 98.8986 27.8458 98.8082 27.7904Z" fill="#FFE75C"/>
</g>
<g clip-path="url(#clip1_8_8175)">
<rect x="63.2429" y="0.135713" width="29.1892" height="29.1892" rx="14.5946" transform="rotate(-0.173721 63.2429 0.135713)" fill="#3442D9"/>
<path d="M69.7533 11.5869C68.8937 8.76659 68.433 7.41879 69.9665 6.58386C71.4999 5.74894 76.1719 6.29521 78.3529 6.80752C80.5339 7.31983 80.8469 7.85856 79.4212 10.0008L69.7533 11.5869Z" fill="#FFF4B3"/>
<path d="M68.834 36.9754C68.4765 28.5907 68.6629 21.6158 68.9215 17.8996C67.528 16.9905 66.8824 16.2867 66.6114 15.8932C66.5551 15.8174 66.5262 15.7247 66.5298 15.6302C66.5333 15.536 66.5687 15.4456 66.6305 15.3742C68.8224 12.6069 70.7039 10.1934 72.6724 9.06655C74.6409 7.93971 77.3384 7.64093 81.648 11.9038C81.6892 11.9584 81.7098 12.0258 81.7063 12.0941C81.7027 12.1627 81.6751 12.2275 81.6284 12.2775C81.2881 12.6172 80.9288 12.9372 80.5519 13.2355C81.4284 14.7896 82.7017 17.1521 82.7017 17.1521L83.6981 17.149C84.3365 17.1471 84.9498 17.3989 85.4027 17.8492C85.8557 18.2993 86.1112 18.9108 86.1131 19.5495C86.1397 21.4798 85.6901 23.806 84.8067 26.7976C88.8018 30.0236 87.847 36.897 87.847 36.897L68.834 36.9754Z" fill="#29CC7A"/>
<path d="M84.8067 26.7976C84.9299 26.3613 85.0532 25.9666 85.1558 25.5511L82.0268 27.3042C82.0268 27.3042 77.0558 23.9774 68.7261 21.927C68.5925 25.7882 68.5876 31.0189 68.834 36.9754L87.8471 36.9177C87.8471 36.9177 88.8018 30.0236 84.8067 26.7976Z" fill="#8CD9FF"/>
<path d="M85.5977 27.5632C85.3549 27.2872 85.0903 27.0313 84.8067 26.7976C84.9299 26.3613 85.0532 25.9666 85.1557 25.5511L82.0268 27.3042C82.0268 27.3042 77.0558 23.9774 68.7261 21.927C68.7068 22.4044 68.6876 22.9234 68.6892 23.4423C75.0695 26.0591 78.508 30.5737 78.9217 36.9448L83.6335 36.9305C84.4527 33.2748 85.1072 30.0763 85.5977 27.5632Z" fill="#BAE8FF"/>
<path d="M71.2302 19.4908L71.3133 19.4906C71.3546 19.4489 71.3961 19.4281 71.4167 19.3657L73.2048 13.5276C73.2168 13.5031 73.2235 13.4763 73.2241 13.4489C73.2246 13.4217 73.2193 13.3945 73.2083 13.3697C73.1974 13.3446 73.1809 13.3222 73.1605 13.3042C73.1399 13.2862 73.1158 13.273 73.0894 13.2654C73.0633 13.2578 73.0356 13.256 73.0087 13.26C72.9817 13.2643 72.956 13.2743 72.9332 13.2895C72.9106 13.3048 72.8916 13.3248 72.8773 13.3482C72.8633 13.3715 72.8544 13.3977 72.8516 13.4249L71.1252 19.076C70.3709 18.757 69.6472 18.37 68.963 17.9202L68.9215 17.9203C68.9218 18.0449 68.9015 18.1902 68.9019 18.3148C69.6204 18.774 70.3788 19.1677 71.168 19.491L71.2302 19.4908Z" fill="black"/>
<path d="M78.9233 10.0854L71.4941 10.6476C79.8015 12.2 80.1551 12.4272 78.9233 10.0854Z" fill="black"/>
<path d="M77.0826 15.49C77.3691 15.3733 77.4191 14.8309 77.1941 14.2789C76.9691 13.727 76.5545 13.3742 76.2678 13.4908C75.9811 13.6077 75.9313 14.1499 76.1563 14.7019C76.3811 15.254 76.7959 15.6069 77.0826 15.49Z" fill="black"/>
<path d="M79.2258 16.6312C79.5938 15.931 79.5467 15.1818 79.1205 14.9579C78.6943 14.7338 78.0506 15.1199 77.6824 15.8199C77.3144 16.5201 77.3617 17.2693 77.7877 17.4934C78.2139 17.7174 78.8579 17.3314 79.2258 16.6312Z" stroke="white" stroke-miterlimit="10"/>
<path d="M82.2823 16.6261C82.6503 15.9261 82.6032 15.1769 82.177 14.9528C81.7508 14.7289 81.1071 15.1148 80.7391 15.815C80.3711 16.5153 80.4182 17.2644 80.8444 17.4883C81.2706 17.7123 81.9144 17.3263 82.2823 16.6261Z" stroke="white" stroke-miterlimit="10"/>
<path d="M80.1792 15.3803C80.3703 15.3025 80.3499 14.8092 80.1335 14.2783C79.9173 13.7476 79.587 13.3803 79.3958 13.4583C79.2049 13.5361 79.2253 14.0295 79.4415 14.5604C79.6579 15.0911 79.9883 15.4583 80.1792 15.3803Z" fill="black"/>
<path d="M82.1732 20.8068C80.5706 20.8168 79.0138 20.2715 77.768 19.2634C76.4779 18.2087 76.9964 18.0826 77.8059 18.0594C78.6153 18.0362 82.4973 18.1697 83.6186 18.3323C84.74 18.495 84.9543 20.7153 82.1732 20.8068Z" fill="#912869"/>
<path d="M82.1732 20.8068C80.5706 20.8168 79.0138 20.2715 77.768 19.2634C76.4779 18.2087 76.9964 18.0826 77.8059 18.0594C78.6153 18.0362 82.4973 18.1697 83.6186 18.3323C84.74 18.495 84.9543 20.7153 82.1732 20.8068Z" fill="#611B46"/>
<path d="M82.0972 23.1318L82.0118 22.3641C82.5981 22.3156 83.169 22.1516 83.6917 21.8816" stroke="black" stroke-linecap="round" stroke-linejoin="round"/>
<path d="M82.9408 20.7007C81.8167 19.6248 80.299 18.8198 77.4974 19.0152C79.9119 21.2288 82.4223 20.8476 82.9408 20.7007Z" fill="#EB459F"/>
<path d="M79.3561 15.896L80.6222 15.8922" stroke="white" stroke-miterlimit="10"/>
<path d="M77.4472 16.1508L72.0853 13.9876C71.9729 13.9444 71.8516 13.9292 71.7321 13.9428C71.6124 13.9567 71.4979 13.9992 71.3981 14.0667C71.2985 14.1343 71.2165 14.225 71.1596 14.3311C71.1024 14.4371 71.0718 14.5553 71.0703 14.6757C71.0683 14.8175 71.109 14.9564 71.1872 15.0747C71.2651 15.1928 71.3771 15.2848 71.5082 15.3386L71.8616 15.5036" stroke="white" stroke-miterlimit="10" stroke-linecap="round"/>
<path d="M76.3181 13.4351C76.7393 13.4446 77.1597 13.3873 77.563 13.2653" stroke="black" stroke-miterlimit="10" stroke-linecap="round"/>
<path d="M79.4317 13.4257C79.6972 13.4317 79.9604 13.3741 80.1991 13.2573" stroke="black" stroke-miterlimit="10" stroke-linecap="round"/>
<path d="M70.4569 10.8582C77.8667 10.732 80.3757 9.8941 82.4906 9.11969C84.6054 8.34527 84.3961 7.74396 82.7772 7.81114C81.1584 7.87831 75.6228 10.0123 70.4569 10.8582Z" fill="#FFF4B3"/>
<path d="M70.4568 10.8583L72.9885 10.643L79.0666 9.42068L77.5468 7.9308L70.3027 7.95276L70.4568 10.8583Z" fill="#FFF4B3"/>
<path d="M82.7473 18.4803L81.2941 18.4017C81.4628 19.273 81.8793 19.7283 82.2317 19.582C82.5841 19.4356 82.7063 18.6672 82.7473 18.4803Z" fill="white"/>
<path d="M78.2633 18.3071C78.4531 19.3028 78.8283 19.8206 79.1807 19.6535C79.5331 19.4864 79.6136 18.6558 79.6748 18.3235L78.2633 18.3071Z" fill="white"/>
<path d="M79.9147 8.44256C76.7181 9.30937 73.4775 10.0051 70.2068 10.5269" stroke="#FFC619" stroke-width="2" stroke-miterlimit="10" stroke-linecap="round"/>
</g>
<g clip-path="url(#clip2_8_8175)">
<rect x="41.8406" y="1.17352" width="29.1892" height="29.1892" rx="14.5946" transform="rotate(-0.173721 41.8406 1.17352)" fill="#7196FF"/>
<path d="M52.8166 26.0908L52.1773 26.7285L56.8476 31.3313L57.4869 30.6935L52.8166 26.0908Z" fill="#2E3338"/>
<path d="M55.7278 26.0889L55.0885 26.7266L59.7587 31.3293L60.3981 30.6916L55.7278 26.0889Z" fill="#2E3338"/>
<path d="M60.971 25.274C62.1731 24.0692 62.9145 22.4869 63.0677 20.799C63.221 19.1111 62.7763 17.423 61.8105 16.025L58.7807 11.6356L55.2122 11.6465L55.2292 17.2569C55.2307 17.7443 55.0368 18.2122 54.6904 18.5579C54.3438 18.9035 53.873 19.0985 53.3814 19.1L47.6443 19.1174L47.6481 20.3881C47.6538 22.2564 48.4064 24.0461 49.7409 25.365C51.0754 26.6838 52.883 27.4242 54.7672 27.4236L55.812 27.4204C57.7479 27.3984 59.5989 26.6284 60.971 25.274Z" fill="#FFD836"/>
<path d="M58.7744 9.58324C59.7208 9.58037 60.6296 9.9504 61.3008 10.6119C61.972 11.2735 62.3507 12.1723 62.3536 13.1107L62.3564 14.0295L55.2193 14.0511L55.2165 13.1128C55.2189 12.1778 55.5945 11.2816 56.2612 10.6203C56.9278 9.95892 57.8314 9.58608 58.7744 9.58324Z" fill="#FFD836"/>
<path d="M63.3973 12.7165C63.5696 12.8844 63.7058 13.0851 63.7979 13.3065C63.8901 13.528 63.9363 13.7656 63.9335 14.0051L60.5227 14.0154C60.396 14.0133 60.2725 13.9745 60.1678 13.9038C60.0629 13.833 59.9812 13.7335 59.9327 13.6173C59.8842 13.5012 59.8709 13.3735 59.8946 13.25C59.9183 13.1265 59.9778 13.0125 60.0659 12.9221L60.754 12.2358L60.751 11.2584C60.7505 11.1321 60.7993 11.0105 60.8872 10.9191C60.9752 10.8277 61.0954 10.7737 61.2226 10.7682C61.3526 10.7748 61.4771 10.8224 61.5779 10.904L63.3973 12.7165Z" fill="#FF9A15"/>
<path d="M58.7744 9.58309L57.7294 9.58626C56.4433 9.58856 55.2085 9.08632 54.2947 8.18916L53.7803 7.62381L53.7813 7.97569C53.7848 9.1163 54.2451 10.2088 55.061 11.0129C55.8768 11.8169 56.9814 12.2667 58.1318 12.2632L58.7627 12.2613L58.7744 9.58309Z" fill="#FFD836"/>
<path d="M53.7123 11.2014L56.571 11.1927L56.5796 14.0272L53.7123 11.2014Z" fill="#FFD836"/>
<path d="M49.3084 21.8492C49.845 22.9768 50.799 23.856 51.9724 24.3042C53.1458 24.7524 54.4482 24.7353 55.6091 24.2561C56.7699 23.777 57.7002 22.8728 58.2063 21.7315C58.7124 20.5901 58.7556 19.2993 58.3269 18.1272L49.3084 21.8492Z" fill="#FF9A15"/>
<path d="M44.4801 15.9992L46.715 18.2992C47.0083 18.5846 47.2418 18.9248 47.402 19.3C47.5622 19.6754 47.6459 20.0783 47.6482 20.4858L49.2452 20.481L49.2418 19.3668C49.2381 18.7441 49.0262 18.1403 48.6395 17.6498C48.2527 17.1593 47.7128 16.8098 47.1043 16.656L44.4801 15.9992Z" fill="#FFD836"/>
<path d="M48.6911 19.8181L48.5142 19.9945C48.4416 20.064 48.35 20.1107 48.2508 20.1287C48.1515 20.1468 48.0491 20.1355 47.9565 20.0961C47.8636 20.0567 47.7847 19.991 47.7295 19.9074C47.6742 19.8237 47.645 19.7258 47.6456 19.6257L47.63 14.4845L48.678 15.5174C49.2481 16.0896 49.5689 16.8607 49.5714 17.665C49.5738 18.4693 49.2577 19.2425 48.6911 19.8181Z" fill="#FFD836"/>
<path d="M58.9993 12.2606C59.2498 12.2599 59.4522 12.058 59.4514 11.8096C59.4507 11.5613 59.2471 11.3606 58.9966 11.3614C58.7461 11.3621 58.5437 11.5641 58.5445 11.8124C58.5452 12.0607 58.7488 12.2614 58.9993 12.2606Z" fill="#202225"/>
</g>
<g clip-path="url(#clip3_8_8175)">
<rect x="20.9232" y="1.72339" width="29.1892" height="29.1892" rx="14.5946" transform="rotate(-0.173721 20.9232 1.72339)" fill="#FF78B9"/>
<path d="M44.7227 35.9592C45.7083 33.8764 43.0382 30.5464 38.7587 28.521C34.4793 26.4957 30.211 26.5422 29.2254 28.6251C28.2397 30.7077 30.9098 34.0379 35.1894 36.0632C39.4687 38.0884 43.737 38.0418 44.7227 35.9592Z" fill="black"/>
<path d="M45.2418 24.4416C43.9732 23.6567 43.911 23.6776 43.2015 22.4136C42.4919 21.1496 41.5975 20.5296 40.5592 20.3875L41.8744 29.7033C44.5751 30.4839 46.2315 29.1089 46.601 27.7586C46.9706 26.4083 46.5311 25.2264 45.2418 24.4416Z" fill="#3442D9"/>
<path d="M43.9793 25.67C43.6218 24.1559 42.6824 22.3944 41.5783 21.0693C41.1826 20.5906 40.9013 20.0279 40.7557 19.424C40.61 18.8203 40.6037 18.1912 40.7374 17.5847L41.1878 15.5076C41.5045 14.066 41.3287 12.5599 40.6889 11.2299C40.0489 9.89983 38.9816 8.82265 37.6576 8.17042C36.8978 7.7992 36.0715 7.58297 35.2271 7.53433C33.6383 7.42278 32.0685 7.93473 30.8509 8.96149C29.6333 9.98827 28.8638 11.4491 28.7054 13.0339C28.6718 13.3024 28.6587 13.5731 28.6664 13.8435L28.6691 14.7361L28.7219 18.4722C28.772 20.1506 28.4213 21.8166 27.6988 23.3323C27.3988 23.9337 27.171 24.5686 27.0195 25.2233L37.2023 35.986C42.0361 35.1618 45.0524 30.4824 43.9793 25.67Z" fill="#3442D9"/>
<path d="M37.2231 35.9858C42.0362 35.1617 45.0525 30.4823 43.9793 25.6699C43.6428 24.2387 42.7868 22.5808 41.7658 21.2969" stroke="black" stroke-miterlimit="10" stroke-linecap="round"/>
<path d="M40.7422 25.9912C41.6922 24.4108 42.0665 24.6172 43.7699 25.0687C45.1409 25.4174 46.7269 28.2148 44.6348 29.6326C42.5426 31.0504 38.2642 30.2123 40.7422 25.9912Z" fill="#3442D9"/>
<path d="M35.9962 21.3533C36.1871 21.2064 36.217 20.9255 36.0632 20.7254C35.9094 20.5256 35.6301 20.4826 35.4394 20.6293C35.2487 20.7763 35.2186 21.0572 35.3724 21.257C35.5262 21.4571 35.8055 21.5 35.9962 21.3533Z" fill="black"/>
<path d="M38.6112 21.5076C38.8019 21.3609 38.832 21.0798 38.6782 20.88C38.5244 20.6801 38.2451 20.637 38.0541 20.7839C37.8634 20.9306 37.8333 21.2117 37.9871 21.4116C38.1409 21.6114 38.4202 21.6546 38.6112 21.5076Z" fill="black"/>
<path d="M38.3406 21.1829C40.5671 23.0027 39.6577 24.3132 41.451 27.0061" stroke="white" stroke-miterlimit="10" stroke-linecap="round"/>
<path d="M35.8414 25.2795C37.2085 24.3206 37.6228 24.0495 38.1418 24.0687L39.4913 24.1891L39.1551 29.6699L35.7299 29.5765L35.8414 25.2795Z" fill="#FFC619"/>
<path d="M42.4794 23.8687C42.5051 23.7962 42.5134 23.7185 42.504 23.6422C42.4946 23.5658 42.4676 23.4926 42.4253 23.4284C42.3828 23.3642 42.3262 23.3106 42.2596 23.272C42.1929 23.2334 42.1183 23.2108 42.0415 23.2058L39.7572 22.8806C39.5915 22.8635 39.4248 22.9038 39.2853 22.995C39.1457 23.0861 39.0417 23.2224 38.9907 23.3811L37.7183 28.159C37.6928 28.2318 37.6843 28.3092 37.6937 28.3856C37.703 28.4619 37.73 28.5351 37.7724 28.5993C37.8149 28.6635 37.8715 28.7171 37.9383 28.7558C38.0048 28.7944 38.0794 28.817 38.1562 28.8219L40.4404 29.1471C40.6063 29.1643 40.7729 29.1239 40.9125 29.0328C41.0519 28.9416 41.1559 28.8054 41.2069 28.6466L42.4794 23.8687Z" fill="black"/>
<path d="M42.3741 23.3917L42.6241 23.6815L41.9393 23.7459L42.3741 23.3917Z" fill="black"/>
<path d="M43.5046 26.5432C43.2125 26.0667 42.9409 25.4655 42.1518 25.3434L42.051 26.34L43.5046 26.5432Z" fill="#FFC619"/>
<path d="M42.7085 24.1379C42.7301 24.0653 42.7354 23.9889 42.7242 23.914C42.713 23.8391 42.6856 23.7676 42.6439 23.7044C42.6022 23.6413 42.5472 23.5881 42.4827 23.5484C42.4183 23.5088 42.3457 23.4837 42.2706 23.475L39.9656 23.1498C39.8005 23.1364 39.6354 23.1784 39.4968 23.269C39.3581 23.3597 39.2532 23.4937 39.1991 23.6503L37.9267 28.4283C37.9051 28.5008 37.8997 28.5772 37.9109 28.6521C37.9222 28.727 37.9496 28.7985 37.9913 28.8617C38.033 28.9249 38.088 28.9782 38.1524 29.0177C38.2171 29.0574 38.2894 29.0825 38.3646 29.0912L40.6695 29.3955C40.8311 29.4216 40.9966 29.3868 41.1342 29.2984C41.2717 29.2098 41.372 29.0737 41.4153 28.9158L42.7085 24.1379Z" fill="white"/>
<path d="M42.0085 26.0289L42.9429 26.1713C43.1323 26.1917 43.3059 26.2856 43.4267 26.4326C43.5476 26.5798 43.6057 26.7686 43.5888 26.9581C43.5843 27.0567 43.5593 27.1533 43.5153 27.2417C43.4712 27.3298 43.4092 27.4081 43.3332 27.4708C43.257 27.5337 43.1687 27.5798 43.0735 27.6063C42.9785 27.6329 42.8789 27.6392 42.7813 27.6248L42.096 27.5231C41.8832 27.4932 41.6861 27.3938 41.5353 27.2404C41.3848 27.0869 41.2891 26.8881 41.2632 26.6746C41.2577 26.5795 41.2742 26.4844 41.3113 26.3967C41.3484 26.309 41.4052 26.231 41.4771 26.1685C41.5491 26.1062 41.6345 26.0611 41.7266 26.037C41.8187 26.0128 41.9152 26.01 42.0085 26.0289Z" fill="#FFC619"/>
<path d="M41.7014 27.4204L42.3451 27.5223C42.4529 27.5356 42.5564 27.5721 42.6485 27.6293C42.7406 27.6865 42.8191 27.7633 42.8786 27.8538C42.9382 27.9445 42.9773 28.0471 42.9932 28.1544C43.0091 28.2617 43.0013 28.3711 42.9707 28.4752C42.927 28.6426 42.8216 28.7874 42.6755 28.8802C42.5295 28.973 42.3538 29.0072 42.1835 28.9757L41.7889 28.9146C41.5736 28.8856 41.3736 28.787 41.2195 28.6339C41.0655 28.4807 40.9657 28.2814 40.9353 28.0662C40.929 27.9689 40.9457 27.8717 40.9839 27.7819C41.0222 27.6923 41.0809 27.6128 41.1554 27.5499C41.23 27.4872 41.3181 27.4428 41.413 27.4203C41.5078 27.3978 41.6066 27.3979 41.7014 27.4204Z" fill="#FFC619"/>
<path d="M39.6951 29.7928L37.4525 29.4882L37.5535 28.5746L39.7962 28.8999L39.6951 29.7928Z" fill="#FFC619"/>
<path d="M40.2237 26.1588L38.8116 25.9555C38.7444 25.9466 38.6812 25.9183 38.6294 25.8745C38.5777 25.8304 38.5398 25.7724 38.5203 25.7073L38.3946 25.3341L38.2885 24.5664L37.5287 27.2671L39.8129 27.5922C40.0256 27.62 40.2413 27.5754 40.4255 27.4656C40.6097 27.3559 40.7516 27.1875 40.8282 26.9872C40.8526 26.8923 40.8556 26.7931 40.8373 26.6968C40.8187 26.6006 40.7792 26.5095 40.7215 26.4304C40.6637 26.3511 40.589 26.2857 40.5031 26.2389C40.4171 26.1918 40.3217 26.1645 40.2237 26.1588Z" fill="#FFC619"/>
<path d="M39.7713 27.5716L37.5287 27.2671L37.637 28.7612L39.3606 29.0051C39.5709 29.0358 39.7852 28.992 39.9667 28.8816C40.1482 28.7713 40.2855 28.6008 40.3551 28.4001C40.3832 28.3066 40.3898 28.208 40.3743 28.1115C40.3587 28.0151 40.3212 27.9236 40.2651 27.8437C40.2089 27.764 40.1352 27.698 40.0495 27.6507C39.9641 27.6036 39.8689 27.5765 39.7713 27.5716Z" fill="#FFC619"/>
<path d="M55.6988 36.6771C55.7542 34.4352 53.9058 34.0879 52.6373 33.303C51.3687 32.5181 49.8692 30.8621 48.3091 29.746C46.7489 28.6298 45.3998 28.6547 42.7662 29.4722L45.7936 35.3164C47.4983 36.1831 47.8748 37.1367 48.792 38.4209C49.7092 39.705 50.9354 40.1995 52.1593 39.9674C52.806 41.0241 52.9313 41.2728 53.8643 40.9378C54.7974 40.6029 56.3312 39.8925 56.7426 38.6666C57.1541 37.4407 56.5515 37.235 55.6988 36.6771Z" fill="#66BCFF"/>
<path d="M45.6586 31.8711C45.3823 32.7631 45.2043 33.6823 45.1272 34.6127" stroke="black" stroke-width="2" stroke-miterlimit="10" stroke-linecap="round"/>
<path d="M46.916 42.661C45.0323 44.3687 43.4326 43.8962 42.6851 43.8154C41.9376 43.7346 42.019 43.1947 41.9553 42.7383C41.8917 42.2818 41.8481 41.597 41.8481 41.597C39.9588 41.4781 39.7266 40.1919 39.6816 39.0504C39.6367 37.9089 39.3456 37.7438 39.1978 36.9347C36.9191 36.5325 34.7639 35.6112 32.8987 34.2417C31.0334 32.8724 29.5089 31.0918 28.4426 29.0382L30.4101 27.6L34.8192 30.4511C37.7841 29.342 39.4222 28.7766 41.0201 28.668C42.6181 28.5593 44.1974 29.1565 44.723 31.3759C45.2487 33.5953 45.313 34.28 45.7936 35.3372C45.919 35.6066 46.1277 35.9796 46.3365 36.3734C46.9212 37.5547 47.5282 39.2135 46.3506 41.0229C46.4965 41.5827 46.6856 42.1305 46.916 42.661Z" fill="#8CD9FF"/>
<path d="M31.6726 33.2212C31.6059 31.7477 32.1632 30.7081 33.1798 30.539L30.6005 28.7617L28.7349 29.5769C29.2163 30.9039 30.4454 32.3531 31.6726 33.2212Z" fill="black"/>
<path d="M35.882 24.9889C35.2785 24.4718 34.822 24.5147 34.0964 24.8282C33.3263 24.1248 32.3297 24.0241 31.2929 24.3801C30.2562 24.7361 28.6593 25.2184 27.726 25.4703C27.674 25.4899 27.6173 25.4941 27.5629 25.4824C27.5085 25.4705 27.4586 25.4435 27.4191 25.4044C27.3797 25.365 27.3524 25.3153 27.3404 25.261C27.3282 25.2066 27.3321 25.1499 27.3513 25.0978L28.0287 22.6049C25.8128 24.2722 25.0971 27.8238 25.8086 29.752C26.5202 31.6802 29.5921 31.6502 30.5661 31.1075C31.54 30.5649 31.8716 30.3978 32.9931 30.602C34.1146 30.8062 34.9868 30.9488 36.4571 29.8235L37.328 29.5303C37.6544 27.6404 37.3597 26.2713 35.882 24.9889Z" fill="#3442D9"/>
<path d="M35.8821 24.9888C35.2786 24.4717 34.8221 24.5146 34.0966 24.8281C33.3264 24.1247 32.3298 24.024 31.293 24.38C30.2563 24.736 28.6595 25.2182 27.7262 25.4702" stroke="black" stroke-miterlimit="10" stroke-linecap="round"/>
<path d="M34.0964 24.8282C34.7179 25.3064 35.2359 25.9055 35.6197 26.5891C36.0035 27.273 36.2449 28.0274 36.3295 28.8067" stroke="black" stroke-miterlimit="10" stroke-linecap="round"/>
<path d="M40.3839 24.1865C40.3932 24.1578 40.3962 24.1275 40.3926 24.0974C40.389 24.0675 40.3789 24.0387 40.3629 24.0132C40.347 23.9875 40.3258 23.9656 40.3006 23.9491C40.2754 23.9325 40.247 23.9216 40.2171 23.9171L40.0095 23.9178C39.9518 23.9053 39.8914 23.9158 39.8412 23.9469C39.7909 23.978 39.7547 24.0273 39.7402 24.0846L39.5554 24.7702C39.546 24.8005 39.5436 24.8325 39.5485 24.8638C39.5533 24.8951 39.5652 24.9248 39.5832 24.9509C39.6013 24.9768 39.6252 24.9983 39.6529 25.0138C39.6805 25.0291 39.7115 25.0379 39.7431 25.0394L39.9506 25.0388C40.0052 25.0457 40.0604 25.0325 40.1062 25.0018C40.1518 24.9712 40.1848 24.9252 40.1992 24.872L40.3839 24.1865Z" fill="#29CC7A"/>
<path d="M37.0507 20.2112C37.2101 19.8859 37.4461 19.6042 37.7381 19.39C38.0304 19.1758 38.3701 19.0357 38.7282 18.9815C38.7698 18.9813 38.7904 18.9398 38.7696 18.9191C38.4967 17.9236 38.6196 17.3628 38.9702 16.6352C38.9737 16.6299 38.976 16.6239 38.9768 16.6177C38.9776 16.6114 38.977 16.605 38.9751 16.599C38.973 16.593 38.9697 16.5875 38.9651 16.583C38.9607 16.5785 38.9553 16.5751 38.9493 16.573C37.7854 16.0784 37.347 15.2494 37.2206 14.6271C37.1997 14.5857 37.1373 14.5651 37.1167 14.6067C36.6009 15.6461 35.8953 15.6897 35.2931 15.6085C35.2516 15.6086 35.231 15.6502 35.2518 15.6709C35.8573 16.8315 35.4239 17.6631 34.8237 18.2461C34.8206 18.2542 34.819 18.263 34.8195 18.2717C34.8199 18.2805 34.8222 18.289 34.8262 18.2969C34.8301 18.3047 34.8356 18.3116 34.8424 18.3171C34.8491 18.3226 34.857 18.3267 34.8655 18.329C36.0285 18.533 36.6535 19.2991 36.9468 20.1908C36.9677 20.2322 37.03 20.2528 37.0507 20.2112Z" fill="#FFC619"/>
<path d="M39.7714 27.5716L38.5878 27.4092" stroke="black" stroke-miterlimit="10" stroke-linecap="round"/>
<path d="M41.9299 27.5028L42.5945 27.6046" stroke="black" stroke-miterlimit="10" stroke-linecap="round"/>
<path d="M37.1789 14.5857C37.6943 13.4218 37.6503 12.6124 37.5036 12.1562" stroke="black" stroke-miterlimit="10" stroke-linecap="round"/>
<path d="M38.8456 16.6148C39.1695 16.6635 39.5003 16.6418 39.8151 16.5513C40.1302 16.4608 40.4219 16.3036 40.6706 16.0904" stroke="black" stroke-miterlimit="10" stroke-linecap="round"/>
<path d="M37.0507 20.2112C37.0528 20.3656 37.0323 20.5197 36.9898 20.668" stroke="black" stroke-miterlimit="10" stroke-linecap="round"/>
<path d="M34.9276 18.2666C34.1613 18.8086 32.9986 18.7291 32.1884 18.4825" stroke="black" stroke-miterlimit="10" stroke-linecap="round"/>
<path d="M35.2931 15.6085C35.0007 15.0074 34.4589 14.3241 33.9601 14.0973" stroke="black" stroke-miterlimit="10" stroke-linecap="round"/>
<path d="M38.7697 18.919C39.0378 19.0611 39.3246 19.165 39.6216 19.2278" stroke="black" stroke-miterlimit="10" stroke-linecap="round"/>
<path d="M36.5419 16.7049C36.8989 18.0738 37.3553 17.9894 37.5616 17.5736C37.7679 17.1579 37.9117 16.6385 38.2439 16.679C38.5761 16.7195 38.4949 17.301 38.103 18.1324C37.7111 18.9639 37.0682 19.1526 36.4641 18.428C35.86 17.7033 35.8371 16.9977 35.8148 16.4996C35.7925 16.0015 36.3111 15.8754 36.5419 16.7049Z" fill="#C40655"/>
<path d="M35.7247 21.0248C35.9825 23.8885 34.5337 25.2628 34.0857 28.1079" stroke="white" stroke-miterlimit="10" stroke-linecap="round"/>
<path d="M39.0318 36.956C38.6545 35.7324 38.4817 33.4912 39.4928 31.5163" stroke="black" stroke-width="2" stroke-miterlimit="10" stroke-linecap="round"/>
<path d="M28.5349 25.2394L27.0004 25.7422" stroke="black" stroke-miterlimit="10" stroke-linecap="round"/>
<path d="M43.7905 25.0064L44.8292 25.2938" stroke="black" stroke-miterlimit="10" stroke-linecap="round"/>
</g>
<g clip-path="url(#clip4_8_8175)">
<rect x="0.00439453" y="1.78681" width="29.1892" height="29.1892" rx="14.5946" transform="rotate(-0.173721 0.00439453 1.78681)" fill="url(#paint0_linear_8_8175)"/>
<path d="M26.5187 13.372C28.0294 7.55434 28.7608 6.52114 32.2967 14.0094L26.5187 13.372Z" fill="#D4E1FF"/>
<path d="M12.0856 25.835L11.947 25.9552C14.0567 27.9328 17.2688 33.021 22.1304 32.7491C22.1304 32.7491 26.0824 39.9186 30.3084 39.1127C34.5344 38.306 37.6518 32.3444 37.6518 32.3444C38.7906 30.2867 39.5946 28.0608 40.0337 25.7503C39.9726 25.2153 39.7729 24.7988 39.3952 24.542C36.3718 22.5479 14.2842 24.222 12.0856 25.835Z" fill="#1C1B29"/>
<path d="M18.4527 11.095L22.8823 12.2716C24.1977 11.7046 25.6164 11.4168 27.0487 11.4265C33.7971 11.406 37.4064 16.8707 37.4268 23.5957C37.4472 30.3216 33.8711 35.808 27.1227 35.8284C20.3735 35.8489 16.7843 30.3842 16.7639 23.6584C16.7568 22.668 16.8334 21.6788 16.9928 20.7013C17.4422 18.1205 17.3128 15.4707 16.6117 12.9456C16.5435 12.6903 16.5434 12.4216 16.6115 12.1663C16.6797 11.911 16.8136 11.6781 17 11.4908C17.1863 11.3035 17.4185 11.1683 17.6735 11.0989C17.9284 11.0294 18.1971 11.0281 18.4527 11.095Z" fill="#B3CAFF"/>
<path d="M37.1978 26.5134C33.9269 27.9714 30.5481 26.4532 27.2872 24.5988C23.7276 22.5661 21.429 17.3948 20.4516 15.7513C19.4743 14.1069 18.0832 13.7945 17.1237 11.3972C16.897 11.5775 16.728 11.8201 16.6372 12.0951C16.5463 12.3702 16.5378 12.6657 16.6125 12.9456C17.3131 15.4709 17.443 18.1204 16.9928 20.7021C16.8335 21.6794 16.7569 22.6683 16.7639 23.6584C16.7843 30.3842 20.3936 35.8489 27.1227 35.8285C32.8594 35.8111 36.3011 31.8326 37.1978 26.5126L37.1978 26.5134Z" fill="#8DAEF7"/>
<path d="M36.5964 24.5103C36.6122 29.748 33.5089 34.0035 29.6775 34.0151C25.8469 34.0267 22.737 29.7901 22.7212 24.5524C22.6949 15.9028 28.0955 22.9691 31.9269 22.9575C35.7575 22.9459 36.6727 17.0907 36.5964 24.5103Z" fill="#FCFDFF"/>
<path d="M29.7789 29.5814C30.1508 29.549 30.408 29.0275 30.3555 28.4161C30.3023 27.8047 29.9577 27.3357 29.5865 27.3674C29.2154 27.4006 28.9574 27.9221 29.0107 28.5327C29.064 29.144 29.4077 29.6139 29.7789 29.5814ZM34.3361 28.5543C34.4451 27.9505 34.2361 27.4071 33.8687 27.3415C33.5021 27.2751 33.1161 27.711 33.007 28.3148C32.8988 28.9179 33.1077 29.4612 33.4744 29.5276C33.841 29.594 34.227 29.1581 34.3361 28.5543Z" fill="#1C1B29"/>
<path d="M49.855 89.583C47.0378 90.187 38.5776 82.1777 38.5776 82.1777C40.9221 89.471 41.3257 91.6523 41.7283 93.5355C42.131 95.4195 41.8935 95.7971 41.7392 97.1266C41.5841 98.4562 41.584 98.4169 42.383 100.081C43.182 101.744 43.7022 102.914 43.8631 103.767C43.9241 104.262 43.9055 104.764 43.8081 105.254L8.33706 105.362C8.33706 105.362 8.15546 104.569 8.90333 102.364C9.65121 100.16 11.3725 98.3301 12.3206 96.9378C13.2694 95.5463 13.2103 95.6855 12.9506 95.111C11.7512 92.2973 13.6784 92.907 14.4796 88.6785C15.28 84.4501 15.4777 64.2926 17.2583 56.0546C19.0398 47.8158 21.7933 45.8628 21.9712 39.0576C18.6068 35.9338 10.2651 27.8044 11.947 25.9543C13.8577 27.7341 19.5769 28.5902 24.2415 28.5367C24.6507 28.5296 25.0517 28.6517 25.3874 28.8857C25.7231 29.1197 25.9765 29.4537 26.1114 29.8401C26.9126 32.2379 28.9319 36.9737 32.0864 36.3486C35.241 35.7243 37.5655 30.0826 38.215 28.0371C38.3519 27.5906 38.6377 27.2046 39.0249 26.9434C39.4473 26.6277 39.7923 26.2199 40.0338 25.751C40.4828 29.6575 34.0229 40.0327 34.0229 40.0327C34.0229 40.0327 35.6735 54.0742 38.9034 58.6866C42.1325 63.2998 51.1646 63.2724 51.3957 67.6761C51.6276 72.079 52.652 88.979 49.855 89.583Z" fill="#BD4070"/>
<path d="M22.4008 30.2081C20.058 30.0762 16.9012 29.6888 11.8318 27.1849C12.654 30.138 19.1249 36.3879 21.9712 39.0576C21.9348 41.1683 21.5591 43.2594 20.8585 45.2509C23.4297 48.8736 26.5195 46.5033 27.1065 56.6989C27.3575 61.0431 30.5708 66.8062 33.9246 73.0455C37.2783 79.2847 37.6999 67.7963 37.5438 62.1429C37.4549 59.0678 36.8286 55.2608 36.1619 51.6323C34.7366 46.1409 34.0229 40.0327 34.0229 40.0327C34.0229 40.0327 38.5467 32.7579 39.7629 28.112C39.4533 28.3058 39.2115 28.5909 39.0711 28.9273C37.8481 31.7071 36.4781 34.4199 34.967 37.0542C33.4064 39.6979 30.4926 41.0157 27.122 35.8284C23.7521 30.6403 24.9221 30.3596 22.4008 30.2081Z" fill="#A12C66"/>
<path d="M23.8402 20.4829C27.3392 22.1582 28.5567 24.2977 31.3553 24.2096C34.1538 24.1216 35.241 22.7691 36.367 20.9608C35.9075 19.9698 34.6662 22.9492 31.9268 22.9575C29.1875 22.9658 25.6037 19.3068 23.8402 20.4829Z" fill="#8DAEF7"/>
</g>
<defs>
<linearGradient id="paint0_linear_8_8175" x1="14.599" y1="31.1084" x2="14.599" y2="10.2001" gradientUnits="userSpaceOnUse">
<stop stop-color="#7196FF"/>
<stop offset="1" stop-color="#2A5EE8"/>
</linearGradient>
<clipPath id="clip0_8_8175">
<rect x="78.8104" y="0.0885026" width="29.1892" height="29.1892" rx="14.5946" transform="rotate(-0.173721 78.8104 0.0885026)" fill="white"/>
</clipPath>
<clipPath id="clip1_8_8175">
<rect x="63.2429" y="0.135713" width="29.1892" height="29.1892" rx="14.5946" transform="rotate(-0.173721 63.2429 0.135713)" fill="white"/>
</clipPath>
<clipPath id="clip2_8_8175">
<rect x="41.8406" y="1.17352" width="29.1892" height="29.1892" rx="14.5946" transform="rotate(-0.173721 41.8406 1.17352)" fill="white"/>
</clipPath>
<clipPath id="clip3_8_8175">
<rect x="20.9232" y="1.72339" width="29.1892" height="29.1892" rx="14.5946" transform="rotate(-0.173721 20.9232 1.72339)" fill="white"/>
</clipPath>
<clipPath id="clip4_8_8175">
<rect x="0.00439453" y="1.78681" width="29.1892" height="29.1892" rx="14.5946" transform="rotate(-0.173721 0.00439453 1.78681)" fill="white"/>
</clipPath>
</defs>
</svg>
