<svg width="1440" height="727" viewBox="0 0 1440 727" fill="none" xmlns="http://www.w3.org/2000/svg">
<rect y="-125" width="1440" height="852" rx="50" fill="#D2E6E4"/>
<g opacity="0.6">
<path fill-rule="evenodd" clip-rule="evenodd" d="M711.499 -566.171C798.162 -548.693 891.47 -542.827 948.843 -480.031C1016.42 -406.065 1062.74 -306.571 1039.53 -207.13C1015.58 -104.474 924.278 -29.9464 830.368 27.6125C734.458 86.3972 627.317 124.384 517.444 112.867C393.954 99.9237 255.021 67.0142 201.742 -38.2776C149.837 -140.855 221.431 -262.485 272.84 -370.529C313.679 -456.359 369.487 -538.933 458.947 -578.832C540.248 -615.093 626.425 -583.328 711.499 -566.171Z" stroke="white"/>
<path fill-rule="evenodd" clip-rule="evenodd" d="M774.031 -606.789C886.854 -582.376 947.934 -473.23 993.435 -372.568C1033.06 -284.907 1036.28 -187.247 1006.42 -92.6813C977.463 -0.967538 925.014 91.8108 833.804 133.041C748.618 171.548 662.368 111.439 570.787 104.24C449.516 94.7079 300.289 168.601 219.784 84.778C137.38 -1.02246 174.977 -146.571 220.918 -260.049C262.242 -362.123 355.892 -429.193 452.34 -489.655C552.773 -552.616 661.044 -631.238 774.031 -606.789Z" stroke="white"/>
<path fill-rule="evenodd" clip-rule="evenodd" d="M791.034 -582.878C900.868 -583.243 1013.4 -520.004 1051.86 -423.7C1088.19 -332.765 1001.08 -240.503 965.704 -145.598C935.138 -63.6082 932.21 29.153 861.901 85.858C781.937 150.35 672.132 196.927 576.269 168.483C483.529 140.966 468.098 29.4211 414.483 -46.8965C354.374 -132.456 211.374 -197.092 248.21 -298.481C285.486 -401.076 450.471 -369.48 550.778 -422.033C639.677 -468.609 691.919 -582.548 791.034 -582.878Z" stroke="white"/>
<path fill-rule="evenodd" clip-rule="evenodd" d="M741.82 -597.179C846.015 -581.288 922.572 -496.806 963.188 -404.93C999.593 -322.578 958.438 -232.452 943.142 -141.774C924.442 -30.9218 962.484 108.065 865.392 174.807C767.725 241.943 643.962 165.267 530.602 141.807C416.04 118.098 268.31 135.959 211.483 39.4778C154.823 -56.7206 229.757 -178.43 280.396 -282.997C320.399 -365.601 385.612 -428.024 463.6 -481.125C549.77 -539.798 640.811 -612.585 741.82 -597.179Z" stroke="white"/>
<path fill-rule="evenodd" clip-rule="evenodd" d="M718.533 -556.186C796.965 -529.61 890.24 -533.53 941.479 -471.78C998.416 -403.164 1004.52 -310.77 996.752 -220.895C986.609 -103.52 988.877 31.1561 891.414 107.584C787.542 189.037 639.267 189.405 514.625 157.175C395.11 126.272 294.711 47.551 244.428 -59.7121C198.36 -157.985 230.333 -270.337 264.224 -376.977C296.754 -479.338 326.468 -603.944 430.417 -644.948C530.77 -684.534 619.783 -589.646 718.533 -556.186Z" stroke="white"/>
<path fill-rule="evenodd" clip-rule="evenodd" d="M699.104 -505.535C807.894 -486.49 962.595 -531.563 1009.43 -437.126C1056.77 -341.662 917.777 -248.736 877.398 -146.021C844.419 -62.1331 877.502 51.6322 798.076 100.503C718.484 149.476 626.291 79.8423 536.353 63.8234C440.263 46.709 314.112 82.1157 261.594 4.95071C208.838 -72.563 287.328 -173.551 311.464 -266.603C336.71 -363.936 314.458 -488.109 403.763 -543.155C493.311 -598.35 597.793 -523.27 699.104 -505.535Z" stroke="white"/>
<path fill-rule="evenodd" clip-rule="evenodd" d="M714.449 -540.362C793.046 -519.41 850.332 -467.092 900.868 -407.007C963.4 -332.662 1040.86 -259.227 1033.31 -161.263C1024.62 -48.5281 967.644 76.2167 859.691 127.04C755.446 176.117 647.195 101.958 539.869 71.0423C445.108 43.7462 339.205 35.0664 280.408 -39.8253C216.137 -121.691 184.029 -233.872 221.548 -334.417C257.432 -430.578 363.043 -483.224 461.166 -524.222C543.097 -558.455 631.155 -562.567 714.449 -540.362Z" stroke="white"/>
<path fill-rule="evenodd" clip-rule="evenodd" d="M710.036 -555.033C802.06 -533.8 858.066 -455.279 906.075 -378.482C954.645 -300.788 995.183 -216.452 979.297 -124.312C961.704 -22.2783 916.627 91.9411 817.328 136.238C721.881 178.817 623.581 112.443 529.584 76.3033C456.553 48.2244 390.107 14.0872 343.547 -45.9205C290.366 -114.461 235.943 -192.205 254.011 -278.86C272.894 -369.422 352.695 -436.893 435.524 -487.055C519.481 -537.9 616.879 -576.527 710.036 -555.033Z" stroke="white"/>
</g>
</svg>
