<svg xmlns="http://www.w3.org/2000/svg" xmlns:xlink="http://www.w3.org/1999/xlink" width="1080" zoomAndPan="magnify" viewBox="0 0 810 809.999993" height="1080" preserveAspectRatio="xMidYMid meet" version="1.0"><defs><g/><clipPath id="1d52d9f5e7"><path d="M 37.515625 37.515625 L 774 37.515625 L 774 774 L 37.515625 774 Z M 37.515625 37.515625 " clip-rule="nonzero"/></clipPath></defs><g clip-path="url(#1d52d9f5e7)"><path fill="#fd661f" d="M 253.058594 40.046875 C 213.910156 41.882812 187.175781 48.160156 163.804688 57.316406 C 139.601562 66.746094 119.105469 79.367188 98.71875 99.863281 C 78.292969 120.355469 65.742188 140.882812 56.414062 165.121094 C 47.363281 188.5625 41.226562 215.296875 39.492188 254.480469 C 37.757812 293.699219 37.375 306.214844 37.550781 406.148438 C 37.722656 506.050781 38.175781 518.601562 40.046875 557.855469 C 41.917969 597.003906 48.160156 623.703125 57.316406 647.109375 C 66.746094 671.3125 79.367188 691.773438 99.863281 712.195312 C 120.355469 732.621094 140.882812 745.136719 165.121094 754.5 C 188.527344 763.550781 215.296875 769.722656 254.445312 771.421875 C 293.699219 773.15625 306.214844 773.535156 406.117188 773.328125 C 506.050781 773.15625 518.566406 772.703125 557.820312 770.832031 C 596.96875 768.960938 623.667969 762.683594 647.074219 753.5625 C 671.277344 744.097656 691.773438 731.511719 712.160156 711.015625 C 732.550781 690.523438 745.101562 669.996094 754.464844 645.757812 C 763.515625 622.351562 769.6875 595.582031 771.386719 556.46875 C 773.085938 517.214844 773.5 504.664062 773.328125 404.761719 C 773.15625 304.863281 772.667969 292.34375 770.832031 253.09375 C 768.960938 213.910156 762.71875 187.210938 753.5625 163.804688 C 744.097656 139.601562 731.511719 119.140625 711.015625 98.71875 C 690.523438 78.328125 669.996094 65.742188 645.757812 56.414062 C 622.351562 47.363281 595.582031 41.191406 556.433594 39.492188 C 517.179688 37.757812 504.628906 37.375 404.726562 37.550781 C 304.828125 37.722656 292.308594 38.175781 253.058594 40.046875 M 257.359375 705.15625 C 221.503906 703.597656 202.015625 697.632812 189.011719 692.636719 C 171.8125 685.980469 159.574219 678.003906 146.640625 665.210938 C 133.738281 652.34375 125.765625 640.105469 119.035156 622.976562 C 114.007812 610.007812 107.941406 590.554688 106.242188 554.664062 C 104.402344 515.898438 103.988281 504.246094 103.816406 406.011719 C 103.640625 307.808594 103.988281 296.160156 105.6875 257.359375 C 107.210938 221.503906 113.210938 202.015625 118.203125 189.046875 C 124.863281 171.847656 132.804688 159.605469 145.632812 146.671875 C 158.496094 133.773438 170.738281 125.800781 187.902344 119.070312 C 200.871094 114.007812 220.324219 107.976562 256.179688 106.277344 C 294.980469 104.4375 306.597656 104.058594 404.832031 103.847656 C 503.066406 103.640625 514.71875 103.988281 553.519531 105.722656 C 589.375 107.28125 608.863281 113.210938 621.832031 118.238281 C 639.03125 124.898438 651.304688 132.804688 664.203125 145.667969 C 677.105469 158.53125 685.113281 170.738281 691.804688 187.9375 C 696.867188 200.871094 702.902344 220.359375 704.601562 256.179688 C 706.441406 294.980469 706.855469 306.632812 707.027344 404.832031 C 707.203125 503.066406 706.855469 514.71875 705.15625 553.484375 C 703.597656 589.339844 697.632812 608.863281 692.640625 621.832031 C 685.980469 638.996094 678.039062 651.269531 665.175781 664.171875 C 652.3125 677.035156 640.105469 685.042969 622.90625 691.773438 C 609.972656 696.835938 590.484375 702.867188 554.664062 704.566406 C 515.863281 706.40625 504.246094 706.820312 405.976562 706.996094 C 307.777344 707.167969 296.125 706.820312 257.324219 705.121094 M 557.300781 208.777344 C 557.335938 233.152344 577.167969 252.882812 601.511719 252.816406 C 625.886719 252.78125 645.617188 232.980469 645.585938 208.605469 C 645.550781 184.226562 625.714844 164.496094 601.339844 164.53125 C 576.960938 164.566406 557.230469 184.398438 557.265625 208.742188 M 216.511719 405.804688 C 216.71875 510.140625 301.464844 594.542969 405.769531 594.332031 C 510.105469 594.125 594.542969 509.414062 594.332031 405.074219 C 594.125 300.769531 509.378906 216.335938 405.039062 216.511719 C 300.738281 216.71875 216.300781 301.464844 216.511719 405.804688 M 282.773438 405.664062 C 282.671875 337.941406 337.457031 282.914062 405.179688 282.808594 C 472.898438 282.671875 527.929688 337.457031 528.070312 405.214844 C 528.207031 472.933594 473.386719 527.964844 405.664062 528.070312 C 337.941406 528.207031 282.914062 473.386719 282.808594 405.664062 " fill-opacity="1" fill-rule="nonzero"/></g><g fill="#fd661f" fill-opacity="1"><g transform="translate(357.47209, 92.251748)"><g><path d="M 3.609375 0 L 3.609375 -14.203125 L 0.796875 -14.203125 L 0.796875 -16.171875 L 3.609375 -16.171875 C 3.429688 -16.878906 3.34375 -17.546875 3.34375 -18.171875 C 3.34375 -19.222656 3.5625 -20.109375 4 -20.828125 C 4.445312 -21.546875 5.066406 -22.078125 5.859375 -22.421875 C 6.648438 -22.773438 7.5625 -22.953125 8.59375 -22.953125 C 10.207031 -22.953125 11.445312 -22.609375 12.3125 -21.921875 L 11.375 -20.234375 L 11.078125 -20.171875 C 10.441406 -20.679688 9.613281 -20.9375 8.59375 -20.9375 C 7.644531 -20.9375 6.929688 -20.691406 6.453125 -20.203125 C 5.972656 -19.710938 5.734375 -19.019531 5.734375 -18.125 C 5.734375 -17.5625 5.816406 -16.910156 5.984375 -16.171875 L 11.140625 -16.171875 L 11.140625 -14.203125 L 5.984375 -14.203125 L 5.984375 0 Z M 3.609375 0 "/></g></g><g transform="translate(368.985761, 92.251748)"><g><path d="M 6.4375 0.3125 C 5.289062 0.3125 4.390625 -0.0078125 3.734375 -0.65625 C 3.078125 -1.3125 2.75 -2.285156 2.75 -3.578125 L 2.75 -22.640625 L 5.140625 -22.640625 L 5.140625 -3.734375 C 5.140625 -3.054688 5.269531 -2.566406 5.53125 -2.265625 C 5.789062 -1.972656 6.191406 -1.828125 6.734375 -1.828125 C 7.066406 -1.828125 7.40625 -1.882812 7.75 -2 L 7.953125 -1.9375 L 8.234375 -0.0625 C 8.054688 0.0625 7.800781 0.15625 7.46875 0.21875 C 7.144531 0.28125 6.800781 0.3125 6.4375 0.3125 Z M 6.4375 0.3125 "/></g></g><g transform="translate(377.774823, 92.251748)"><g><path d="M 3.234375 6.859375 C 2.691406 6.859375 2.179688 6.8125 1.703125 6.71875 C 1.234375 6.625 0.828125 6.492188 0.484375 6.328125 L 0.921875 4.4375 L 1.1875 4.34375 C 1.414062 4.46875 1.707031 4.570312 2.0625 4.65625 C 2.414062 4.738281 2.78125 4.78125 3.15625 4.78125 C 3.800781 4.78125 4.335938 4.691406 4.765625 4.515625 C 5.203125 4.335938 5.570312 4.046875 5.875 3.640625 C 6.1875 3.234375 6.472656 2.675781 6.734375 1.96875 L 7.3125 0.375 L 0.828125 -16.15625 L 3.40625 -16.15625 L 8.484375 -2.96875 L 8.765625 -2.96875 L 13.6875 -16.15625 L 16.125 -16.15625 L 8.90625 2.53125 C 8.5 3.570312 8.039062 4.40625 7.53125 5.03125 C 7.019531 5.664062 6.414062 6.128906 5.71875 6.421875 C 5.03125 6.710938 4.203125 6.859375 3.234375 6.859375 Z M 3.234375 6.859375 "/></g></g></g><g fill="#fd661f" fill-opacity="1"><g transform="translate(394.503338, 92.251748)"><g><path d="M 6.671875 0.3125 C 5.078125 0.3125 3.832031 -0.101562 2.9375 -0.9375 C 2.039062 -1.769531 1.59375 -2.957031 1.59375 -4.5 C 1.59375 -5.457031 1.789062 -6.265625 2.1875 -6.921875 C 2.582031 -7.578125 3.195312 -8.113281 4.03125 -8.53125 C 4.863281 -8.945312 5.945312 -9.269531 7.28125 -9.5 C 8.445312 -9.6875 9.335938 -9.898438 9.953125 -10.140625 C 10.566406 -10.390625 10.976562 -10.664062 11.1875 -10.96875 C 11.394531 -11.269531 11.5 -11.648438 11.5 -12.109375 C 11.5 -12.847656 11.242188 -13.410156 10.734375 -13.796875 C 10.234375 -14.191406 9.429688 -14.390625 8.328125 -14.390625 C 7.273438 -14.390625 6.375 -14.1875 5.625 -13.78125 C 4.882812 -13.375 4.203125 -12.769531 3.578125 -11.96875 L 3.28125 -11.96875 L 2.109375 -13.625 C 2.796875 -14.488281 3.664062 -15.175781 4.71875 -15.6875 C 5.769531 -16.207031 6.972656 -16.46875 8.328125 -16.46875 C 10.222656 -16.46875 11.625 -16.046875 12.53125 -15.203125 C 13.4375 -14.367188 13.890625 -13.21875 13.890625 -11.75 L 13.890625 -3.171875 C 13.890625 -2.273438 14.269531 -1.828125 15.03125 -1.828125 C 15.28125 -1.828125 15.523438 -1.875 15.765625 -1.96875 L 15.96875 -1.90625 L 16.25 -0.25 C 16.070312 -0.132812 15.835938 -0.046875 15.546875 0.015625 C 15.265625 0.0859375 14.96875 0.125 14.65625 0.125 C 13.769531 0.125 13.097656 -0.0703125 12.640625 -0.46875 C 12.191406 -0.863281 11.90625 -1.441406 11.78125 -2.203125 L 11.46875 -2.234375 C 11.007812 -1.378906 10.390625 -0.738281 9.609375 -0.3125 C 8.828125 0.101562 7.847656 0.3125 6.671875 0.3125 Z M 7.1875 -1.59375 C 8.09375 -1.59375 8.875 -1.800781 9.53125 -2.21875 C 10.1875 -2.632812 10.691406 -3.21875 11.046875 -3.96875 C 11.398438 -4.71875 11.578125 -5.585938 11.578125 -6.578125 L 11.578125 -8.625 L 11.296875 -8.6875 C 10.929688 -8.4375 10.488281 -8.222656 9.96875 -8.046875 C 9.457031 -7.878906 8.738281 -7.726562 7.8125 -7.59375 C 6.875 -7.457031 6.128906 -7.257812 5.578125 -7 C 5.023438 -6.738281 4.628906 -6.40625 4.390625 -6 C 4.160156 -5.59375 4.046875 -5.09375 4.046875 -4.5 C 4.046875 -3.550781 4.320312 -2.828125 4.875 -2.328125 C 5.4375 -1.835938 6.207031 -1.59375 7.1875 -1.59375 Z M 7.1875 -1.59375 "/></g></g><g transform="translate(411.217205, 92.251748)"><g><path d="M 10.734375 0.3125 C 9.535156 0.3125 8.492188 0.0820312 7.609375 -0.375 C 6.722656 -0.84375 6.023438 -1.460938 5.515625 -2.234375 L 5.203125 -2.171875 L 5.203125 0 L 2.8125 0 L 2.8125 -22.640625 L 5.203125 -22.640625 L 5.203125 -13.734375 L 5.515625 -13.6875 C 6.742188 -15.539062 8.53125 -16.46875 10.875 -16.46875 C 12.195312 -16.46875 13.351562 -16.160156 14.34375 -15.546875 C 15.34375 -14.929688 16.117188 -13.992188 16.671875 -12.734375 C 17.222656 -11.484375 17.5 -9.929688 17.5 -8.078125 C 17.5 -6.234375 17.207031 -4.679688 16.625 -3.421875 C 16.050781 -2.171875 15.253906 -1.234375 14.234375 -0.609375 C 13.222656 0.00390625 12.054688 0.3125 10.734375 0.3125 Z M 10.171875 -1.828125 C 13.390625 -1.828125 15 -3.910156 15 -8.078125 C 15 -10.234375 14.578125 -11.8125 13.734375 -12.8125 C 12.898438 -13.820312 11.710938 -14.328125 10.171875 -14.328125 C 8.648438 -14.328125 7.441406 -13.8125 6.546875 -12.78125 C 5.648438 -11.75 5.203125 -10.179688 5.203125 -8.078125 C 5.203125 -5.972656 5.648438 -4.40625 6.546875 -3.375 C 7.441406 -2.34375 8.648438 -1.828125 10.171875 -1.828125 Z M 10.171875 -1.828125 "/></g></g><g transform="translate(430.494548, 92.251748)"><g><path d="M 2.8125 0 L 2.8125 -16.15625 L 5.078125 -16.15625 L 5.078125 -13.625 L 5.390625 -13.546875 C 6.140625 -15.378906 7.554688 -16.296875 9.640625 -16.296875 C 10.742188 -16.296875 11.566406 -16.097656 12.109375 -15.703125 L 11.5 -13.6875 L 11.203125 -13.625 C 10.597656 -13.925781 9.9375 -14.078125 9.21875 -14.078125 C 7.925781 -14.078125 6.929688 -13.59375 6.234375 -12.625 C 5.546875 -11.65625 5.203125 -10.085938 5.203125 -7.921875 L 5.203125 0 Z M 2.8125 0 "/></g></g></g><g fill="#fd661f" fill-opacity="1"><g transform="translate(442.550211, 92.251748)"><g><path d="M 9.265625 0.3125 C 7.742188 0.3125 6.421875 -0.0078125 5.296875 -0.65625 C 4.171875 -1.300781 3.300781 -2.25 2.6875 -3.5 C 2.070312 -4.757812 1.765625 -6.285156 1.765625 -8.078125 C 1.765625 -9.859375 2.070312 -11.378906 2.6875 -12.640625 C 3.300781 -13.898438 4.171875 -14.851562 5.296875 -15.5 C 6.421875 -16.144531 7.742188 -16.46875 9.265625 -16.46875 C 10.796875 -16.46875 12.125 -16.144531 13.25 -15.5 C 14.375 -14.851562 15.238281 -13.898438 15.84375 -12.640625 C 16.457031 -11.378906 16.765625 -9.859375 16.765625 -8.078125 C 16.765625 -6.285156 16.457031 -4.757812 15.84375 -3.5 C 15.238281 -2.25 14.375 -1.300781 13.25 -0.65625 C 12.125 -0.0078125 10.796875 0.3125 9.265625 0.3125 Z M 9.265625 -1.828125 C 10.878906 -1.828125 12.113281 -2.332031 12.96875 -3.34375 C 13.820312 -4.363281 14.25 -5.941406 14.25 -8.078125 C 14.25 -10.210938 13.820312 -11.785156 12.96875 -12.796875 C 12.113281 -13.816406 10.878906 -14.328125 9.265625 -14.328125 C 7.660156 -14.328125 6.425781 -13.816406 5.5625 -12.796875 C 4.707031 -11.773438 4.28125 -10.203125 4.28125 -8.078125 C 4.28125 -5.941406 4.707031 -4.363281 5.5625 -3.34375 C 6.425781 -2.332031 7.660156 -1.828125 9.265625 -1.828125 Z M 9.265625 -1.828125 "/></g></g><g transform="translate(461.095132, 92.251748)"><g><path d="M 6.671875 0.3125 C 5.078125 0.3125 3.832031 -0.101562 2.9375 -0.9375 C 2.039062 -1.769531 1.59375 -2.957031 1.59375 -4.5 C 1.59375 -5.457031 1.789062 -6.265625 2.1875 -6.921875 C 2.582031 -7.578125 3.195312 -8.113281 4.03125 -8.53125 C 4.863281 -8.945312 5.945312 -9.269531 7.28125 -9.5 C 8.445312 -9.6875 9.335938 -9.898438 9.953125 -10.140625 C 10.566406 -10.390625 10.976562 -10.664062 11.1875 -10.96875 C 11.394531 -11.269531 11.5 -11.648438 11.5 -12.109375 C 11.5 -12.847656 11.242188 -13.410156 10.734375 -13.796875 C 10.234375 -14.191406 9.429688 -14.390625 8.328125 -14.390625 C 7.273438 -14.390625 6.375 -14.1875 5.625 -13.78125 C 4.882812 -13.375 4.203125 -12.769531 3.578125 -11.96875 L 3.28125 -11.96875 L 2.109375 -13.625 C 2.796875 -14.488281 3.664062 -15.175781 4.71875 -15.6875 C 5.769531 -16.207031 6.972656 -16.46875 8.328125 -16.46875 C 10.222656 -16.46875 11.625 -16.046875 12.53125 -15.203125 C 13.4375 -14.367188 13.890625 -13.21875 13.890625 -11.75 L 13.890625 -3.171875 C 13.890625 -2.273438 14.269531 -1.828125 15.03125 -1.828125 C 15.28125 -1.828125 15.523438 -1.875 15.765625 -1.96875 L 15.96875 -1.90625 L 16.25 -0.25 C 16.070312 -0.132812 15.835938 -0.046875 15.546875 0.015625 C 15.265625 0.0859375 14.96875 0.125 14.65625 0.125 C 13.769531 0.125 13.097656 -0.0703125 12.640625 -0.46875 C 12.191406 -0.863281 11.90625 -1.441406 11.78125 -2.203125 L 11.46875 -2.234375 C 11.007812 -1.378906 10.390625 -0.738281 9.609375 -0.3125 C 8.828125 0.101562 7.847656 0.3125 6.671875 0.3125 Z M 7.1875 -1.59375 C 8.09375 -1.59375 8.875 -1.800781 9.53125 -2.21875 C 10.1875 -2.632812 10.691406 -3.21875 11.046875 -3.96875 C 11.398438 -4.71875 11.578125 -5.585938 11.578125 -6.578125 L 11.578125 -8.625 L 11.296875 -8.6875 C 10.929688 -8.4375 10.488281 -8.222656 9.96875 -8.046875 C 9.457031 -7.878906 8.738281 -7.726562 7.8125 -7.59375 C 6.875 -7.457031 6.128906 -7.257812 5.578125 -7 C 5.023438 -6.738281 4.628906 -6.40625 4.390625 -6 C 4.160156 -5.59375 4.046875 -5.09375 4.046875 -4.5 C 4.046875 -3.550781 4.320312 -2.828125 4.875 -2.328125 C 5.4375 -1.835938 6.207031 -1.59375 7.1875 -1.59375 Z M 7.1875 -1.59375 "/></g></g><g transform="translate(477.808998, 92.251748)"><g><path d="M 8.375 0.3125 C 7.082031 0.3125 5.9375 0.00390625 4.9375 -0.609375 C 3.945312 -1.234375 3.171875 -2.171875 2.609375 -3.421875 C 2.046875 -4.671875 1.765625 -6.222656 1.765625 -8.078125 C 1.765625 -9.921875 2.054688 -11.46875 2.640625 -12.71875 C 3.234375 -13.976562 4.046875 -14.914062 5.078125 -15.53125 C 6.109375 -16.15625 7.300781 -16.46875 8.65625 -16.46875 C 9.726562 -16.46875 10.691406 -16.265625 11.546875 -15.859375 C 12.410156 -15.453125 13.148438 -14.785156 13.765625 -13.859375 L 14.078125 -13.921875 L 14.078125 -22.640625 L 16.46875 -22.640625 L 16.46875 0 L 14.078125 0 L 14.078125 -2.359375 L 13.765625 -2.421875 C 13.242188 -1.617188 12.53125 -0.960938 11.625 -0.453125 C 10.71875 0.0546875 9.632812 0.3125 8.375 0.3125 Z M 9.125 -1.828125 C 10.625 -1.828125 11.820312 -2.34375 12.71875 -3.375 C 13.625 -4.40625 14.078125 -5.972656 14.078125 -8.078125 C 14.078125 -10.179688 13.625 -11.75 12.71875 -12.78125 C 11.820312 -13.8125 10.625 -14.328125 9.125 -14.328125 C 7.570312 -14.328125 6.375 -13.820312 5.53125 -12.8125 C 4.695312 -11.8125 4.28125 -10.234375 4.28125 -8.078125 C 4.28125 -3.910156 5.894531 -1.828125 9.125 -1.828125 Z M 9.125 -1.828125 "/></g></g></g></svg>