<svg xmlns="http://www.w3.org/2000/svg" xmlns:xlink="http://www.w3.org/1999/xlink" width="50" zoomAndPan="magnify" viewBox="0 0 37.5 30.000001" height="40" preserveAspectRatio="xMidYMid meet" version="1.0"><defs><g/><clipPath id="abf645ddfc"><path d="M 2.015625 0.820312 L 34.675781 0.820312 L 34.675781 26 L 2.015625 26 Z M 2.015625 0.820312 " clip-rule="nonzero"/></clipPath><clipPath id="5c0af49a2a"><path d="M 18 23 L 22 23 L 22 28.402344 L 18 28.402344 Z M 18 23 " clip-rule="nonzero"/></clipPath><clipPath id="015fe3d15e"><path d="M 0.472656 1 L 4 1 L 4 3 L 0.472656 3 Z M 0.472656 1 " clip-rule="nonzero"/></clipPath><clipPath id="52b8bc9270"><rect x="0" width="8" y="0" height="4"/></clipPath></defs><g clip-path="url(#abf645ddfc)"><path fill="#fd661f" d="M 12.902344 25.035156 C 12.878906 23.722656 12.644531 22.441406 12.449219 21.152344 C 12.265625 19.964844 12.132812 18.773438 11.980469 17.585938 C 11.921875 17.105469 11.878906 16.628906 11.820312 16.148438 C 11.777344 15.828125 11.710938 15.753906 11.375 15.703125 C 11.15625 15.671875 10.929688 15.664062 10.707031 15.644531 C 10.089844 15.59375 9.46875 15.539062 8.847656 15.492188 C 8.265625 15.449219 7.683594 15.433594 7.105469 15.371094 C 6.082031 15.257812 5.058594 15.121094 4.035156 14.988281 C 3.558594 14.925781 3.082031 14.84375 2.609375 14.777344 C 2.492188 14.761719 2.375 14.785156 2.257812 14.777344 C 2.128906 14.769531 2.019531 14.636719 2.082031 14.539062 C 2.171875 14.394531 2.296875 14.269531 2.425781 14.160156 C 2.53125 14.074219 2.667969 14.035156 2.785156 13.96875 C 3.246094 13.710938 3.691406 13.421875 4.167969 13.199219 C 5.992188 12.355469 7.863281 11.625 9.703125 10.824219 C 11.125 10.207031 12.574219 9.65625 14.007812 9.066406 C 14.605469 8.820312 15.1875 8.546875 15.78125 8.292969 C 16.796875 7.859375 17.820312 7.441406 18.832031 6.996094 C 20.296875 6.355469 21.753906 5.703125 23.210938 5.042969 C 25.074219 4.195312 26.984375 3.472656 28.894531 2.742188 C 29.773438 2.40625 30.644531 2.054688 31.523438 1.722656 C 31.828125 1.609375 32.144531 1.507812 32.460938 1.433594 C 32.660156 1.390625 32.722656 1.492188 32.625 1.671875 C 32.582031 1.753906 32.511719 1.820312 32.445312 1.882812 C 32.042969 2.261719 31.660156 2.652344 31.3125 3.082031 C 30.753906 3.777344 30.125 4.414062 29.550781 5.097656 C 28.847656 5.933594 28.148438 6.773438 27.492188 7.644531 C 27.011719 8.28125 26.609375 8.976562 26.160156 9.636719 C 25.136719 11.132812 23.980469 12.519531 22.796875 13.890625 C 22.304688 14.460938 21.878906 15.082031 21.441406 15.695312 C 21.222656 15.996094 21.25 16.074219 21.585938 16.21875 C 21.933594 16.363281 22.285156 16.5 22.644531 16.605469 C 24.789062 17.222656 26.9375 17.839844 29.089844 18.433594 C 30.390625 18.792969 31.707031 19.109375 33.015625 19.445312 C 33.046875 19.453125 33.082031 19.464844 33.117188 19.472656 C 33.335938 19.507812 33.386719 19.472656 33.339844 19.257812 C 33.230469 18.75 33.085938 18.253906 32.984375 17.746094 C 32.710938 16.398438 32.535156 15.035156 32.433594 13.660156 C 32.355469 12.617188 32.277344 11.574219 32.238281 10.53125 C 32.175781 8.902344 32.320312 7.292969 32.601562 5.6875 C 32.808594 4.53125 32.921875 3.359375 33.070312 2.191406 C 33.117188 1.84375 33.144531 1.492188 33.179688 1.140625 C 33.191406 1.011719 33.175781 0.871094 33.355469 0.84375 C 33.511719 0.820312 33.695312 0.9375 33.71875 1.109375 C 33.738281 1.257812 33.738281 1.417969 33.710938 1.566406 C 33.507812 2.746094 33.328125 3.933594 33.078125 5.105469 C 32.816406 6.347656 32.792969 7.601562 32.777344 8.859375 C 32.769531 9.65625 32.769531 10.457031 32.8125 11.253906 C 32.855469 12.015625 32.941406 12.773438 33.039062 13.53125 C 33.203125 14.8125 33.359375 16.097656 33.574219 17.371094 C 33.695312 18.085938 33.933594 18.78125 34.113281 19.488281 C 34.164062 19.6875 34.261719 19.828125 34.457031 19.898438 C 34.523438 19.921875 34.589844 19.953125 34.644531 20 C 34.769531 20.097656 34.773438 20.203125 34.667969 20.328125 C 34.484375 20.539062 34.316406 20.773438 34.109375 20.957031 C 33.84375 21.199219 33.578125 21.410156 33.148438 21.3125 C 31.023438 20.808594 28.898438 20.292969 26.804688 19.65625 C 25.199219 19.164062 23.570312 18.753906 21.933594 18.367188 C 21.722656 18.320312 21.582031 18.359375 21.429688 18.496094 C 20.378906 19.398438 19.320312 20.296875 18.269531 21.199219 C 17.636719 21.742188 16.996094 22.277344 16.378906 22.839844 C 15.542969 23.597656 14.726562 24.375 13.910156 25.152344 C 13.792969 25.261719 13.707031 25.410156 13.632812 25.554688 C 13.550781 25.707031 13.476562 25.828125 13.289062 25.683594 C 13.265625 25.664062 13.222656 25.660156 13.1875 25.664062 C 12.96875 25.695312 12.933594 25.535156 12.90625 25.386719 C 12.886719 25.269531 12.902344 25.152344 12.902344 25.035156 Z M 12.988281 15.007812 C 13.011719 15.226562 13.027344 15.367188 13.042969 15.507812 C 13.128906 16.3125 13.191406 17.125 13.300781 17.925781 C 13.464844 19.125 13.660156 20.320312 13.847656 21.519531 C 13.945312 22.144531 14.050781 22.769531 14.160156 23.394531 C 14.175781 23.464844 14.226562 23.53125 14.257812 23.601562 C 14.3125 23.558594 14.375 23.527344 14.417969 23.476562 C 15.296875 22.449219 16.171875 21.417969 17.058594 20.394531 C 17.949219 19.363281 18.84375 18.339844 19.746094 17.316406 C 19.925781 17.113281 20.136719 16.941406 20.320312 16.742188 C 20.371094 16.6875 20.421875 16.5625 20.394531 16.507812 C 20.273438 16.253906 20.355469 16.054688 20.511719 15.859375 C 21.234375 14.945312 21.921875 14.007812 22.6875 13.128906 C 23.550781 12.136719 24.386719 11.121094 25.171875 10.066406 C 25.90625 9.074219 26.59375 8.050781 27.324219 7.058594 C 27.925781 6.242188 28.5625 5.457031 29.175781 4.660156 C 29.242188 4.574219 29.292969 4.472656 29.347656 4.382812 C 29.242188 4.425781 29.132812 4.460938 29.039062 4.519531 C 27.945312 5.210938 26.859375 5.910156 25.765625 6.601562 C 23.488281 8.035156 21.203125 9.457031 18.9375 10.90625 C 17.242188 11.988281 15.570312 13.105469 13.890625 14.210938 C 13.648438 14.371094 13.410156 14.546875 13.1875 14.734375 C 13.089844 14.820312 13.027344 14.949219 12.988281 15.007812 Z M 12.519531 14.21875 C 12.519531 14.210938 12.523438 14.199219 12.527344 14.191406 C 12.671875 14.167969 12.839844 14.183594 12.960938 14.113281 C 13.683594 13.675781 14.402344 13.230469 15.113281 12.769531 C 15.921875 12.25 16.71875 11.703125 17.527344 11.183594 C 18.40625 10.617188 19.296875 10.070312 20.183594 9.515625 C 20.769531 9.148438 21.359375 8.785156 21.953125 8.425781 C 22.53125 8.070312 23.117188 7.722656 23.695312 7.363281 C 24.648438 6.765625 25.597656 6.15625 26.554688 5.558594 C 27.300781 5.089844 28.0625 4.644531 28.796875 4.160156 C 29.238281 3.871094 29.640625 3.523438 30.050781 3.195312 C 30.273438 3.019531 30.480469 2.824219 30.691406 2.636719 C 30.710938 2.617188 30.71875 2.582031 30.734375 2.554688 C 30.703125 2.554688 30.667969 2.546875 30.640625 2.558594 C 30.585938 2.574219 30.53125 2.601562 30.476562 2.625 C 29.292969 3.171875 28.109375 3.714844 26.925781 4.265625 C 26.019531 4.6875 25.121094 5.117188 24.214844 5.535156 C 23.5 5.863281 22.78125 6.183594 22.0625 6.503906 C 21.054688 6.949219 20.046875 7.394531 19.035156 7.835938 C 18.648438 8.003906 18.25 8.140625 17.863281 8.3125 C 17.230469 8.589844 16.609375 8.890625 15.976562 9.167969 C 15.492188 9.378906 14.996094 9.558594 14.507812 9.757812 C 14.222656 9.871094 13.945312 9.992188 13.667969 10.117188 C 13.179688 10.339844 12.699219 10.582031 12.207031 10.796875 C 11.457031 11.125 10.695312 11.4375 9.941406 11.761719 C 9.824219 11.8125 9.71875 11.894531 9.601562 11.941406 C 9.191406 12.113281 8.777344 12.265625 8.367188 12.4375 C 7.632812 12.742188 6.898438 13.054688 6.164062 13.367188 C 6.058594 13.414062 5.964844 13.496094 5.867188 13.5625 C 5.980469 13.582031 6.089844 13.617188 6.203125 13.628906 C 7.117188 13.71875 8.027344 13.8125 8.941406 13.894531 C 10.132812 14.007812 11.324219 14.109375 12.519531 14.21875 Z M 20.277344 17.863281 C 20.207031 17.902344 20.066406 17.941406 19.96875 18.03125 C 19.546875 18.417969 19.109375 18.796875 18.730469 19.226562 C 17.976562 20.078125 17.257812 20.960938 16.527344 21.832031 C 16.496094 21.867188 16.484375 21.925781 16.464844 21.972656 C 16.503906 21.949219 16.546875 21.929688 16.578125 21.902344 C 17.152344 21.417969 17.726562 20.933594 18.300781 20.453125 C 19.089844 19.789062 19.882812 19.128906 20.667969 18.460938 C 20.785156 18.359375 20.867188 18.222656 20.964844 18.101562 C 20.816406 18.03125 20.671875 17.960938 20.519531 17.902344 C 20.46875 17.878906 20.40625 17.882812 20.277344 17.863281 Z M 20.277344 17.863281 " fill-opacity="1" fill-rule="nonzero"/></g><path fill="#fd661f" d="M 21.558594 26.5 C 21.550781 26.390625 21.527344 26.332031 21.546875 26.300781 C 21.679688 26.066406 21.824219 25.835938 21.964844 25.605469 C 23.0625 23.8125 24.347656 22.15625 25.660156 20.515625 C 25.691406 20.476562 25.714844 20.429688 25.75 20.410156 C 25.808594 20.378906 25.890625 20.34375 25.933594 20.363281 C 25.980469 20.386719 26.023438 20.484375 26.011719 20.535156 C 25.984375 20.660156 25.941406 20.785156 25.871094 20.890625 C 25.621094 21.257812 25.367188 21.621094 25.097656 21.976562 C 24.324219 23.007812 23.542969 24.035156 22.761719 25.0625 C 22.457031 25.464844 22.144531 25.859375 21.832031 26.253906 C 21.769531 26.332031 21.683594 26.390625 21.558594 26.5 Z M 21.558594 26.5 " fill-opacity="1" fill-rule="nonzero"/><path fill="#fd661f" d="M 10.203125 18.375 C 10.160156 18.476562 10.144531 18.519531 10.125 18.5625 C 9.972656 18.871094 9.78125 19.144531 9.53125 19.378906 C 8.59375 20.25 7.597656 21.046875 6.550781 21.78125 C 6.148438 22.066406 5.761719 22.371094 5.363281 22.660156 C 5.324219 22.691406 5.261719 22.695312 5.210938 22.710938 C 5.222656 22.65625 5.214844 22.59375 5.246094 22.550781 C 5.296875 22.472656 5.363281 22.402344 5.425781 22.335938 C 6.53125 21.199219 7.726562 20.160156 8.953125 19.164062 C 9.28125 18.898438 9.632812 18.664062 9.980469 18.421875 C 10.027344 18.386719 10.105469 18.394531 10.203125 18.375 Z M 10.203125 18.375 " fill-opacity="1" fill-rule="nonzero"/><path fill="#fd661f" d="M 7.960938 18.269531 C 8.023438 18.289062 8.085938 18.292969 8.101562 18.324219 C 8.121094 18.351562 8.105469 18.421875 8.078125 18.449219 C 8.011719 18.53125 7.9375 18.609375 7.855469 18.671875 C 7.054688 19.265625 6.265625 19.878906 5.441406 20.4375 C 4.929688 20.785156 4.355469 21.042969 3.808594 21.332031 C 3.757812 21.359375 3.683594 21.339844 3.617188 21.34375 C 3.640625 21.292969 3.652344 21.234375 3.683594 21.191406 C 3.773438 21.066406 3.855469 20.933594 3.964844 20.835938 C 4.441406 20.433594 4.898438 20.003906 5.414062 19.660156 C 5.976562 19.28125 6.59375 18.988281 7.1875 18.660156 C 7.351562 18.570312 7.515625 18.480469 7.683594 18.394531 C 7.777344 18.347656 7.871094 18.308594 7.960938 18.269531 Z M 7.960938 18.269531 " fill-opacity="1" fill-rule="nonzero"/><g clip-path="url(#5c0af49a2a)"><path fill="#fd661f" d="M 18.273438 28.390625 C 18.253906 28.347656 18.226562 28.3125 18.234375 28.292969 C 18.253906 28.226562 18.285156 28.160156 18.320312 28.101562 C 19.148438 26.683594 20.054688 25.316406 21.015625 23.984375 C 21.035156 23.957031 21.050781 23.914062 21.078125 23.902344 C 21.160156 23.871094 21.28125 23.804688 21.316406 23.835938 C 21.382812 23.894531 21.441406 24.019531 21.421875 24.097656 C 21.390625 24.230469 21.3125 24.355469 21.234375 24.46875 C 20.753906 25.164062 20.273438 25.859375 19.78125 26.542969 C 19.433594 27.03125 19.066406 27.503906 18.703125 27.976562 C 18.613281 28.097656 18.507812 28.207031 18.402344 28.320312 C 18.375 28.351562 18.324219 28.363281 18.273438 28.390625 Z M 18.273438 28.390625 " fill-opacity="1" fill-rule="nonzero"/></g><path fill="#fd661f" d="M 25.796875 23.121094 C 25.730469 23.257812 25.671875 23.398438 25.59375 23.527344 C 25.1875 24.15625 24.78125 24.785156 24.367188 25.414062 C 24.097656 25.824219 23.824219 26.230469 23.53125 26.628906 C 23.449219 26.742188 23.3125 26.816406 23.199219 26.90625 C 23.105469 26.730469 23.269531 26.632812 23.335938 26.515625 C 23.945312 25.421875 24.574219 24.335938 25.316406 23.320312 C 25.390625 23.21875 25.46875 23.113281 25.5625 23.023438 C 25.59375 22.992188 25.667969 22.984375 25.714844 22.996094 C 25.746094 23.003906 25.765625 23.066406 25.796875 23.121094 Z M 25.796875 23.121094 " fill-opacity="1" fill-rule="nonzero"/><path fill="#fd661f" d="M 7.160156 27.09375 C 7.136719 27.054688 7.101562 27.027344 7.105469 27.003906 C 7.121094 26.933594 7.140625 26.867188 7.171875 26.804688 C 7.445312 26.269531 7.835938 25.839844 8.316406 25.492188 C 8.347656 25.464844 8.398438 25.464844 8.441406 25.453125 C 8.433594 25.5 8.4375 25.542969 8.425781 25.585938 C 8.292969 25.996094 8.039062 26.332031 7.742188 26.632812 C 7.605469 26.777344 7.4375 26.890625 7.285156 27.015625 C 7.25 27.042969 7.207031 27.0625 7.160156 27.09375 Z M 7.160156 27.09375 " fill-opacity="1" fill-rule="nonzero"/><path fill="#fd661f" d="M 5.539062 16.792969 C 5.4375 16.921875 5.363281 17.027344 5.273438 17.117188 C 5.183594 17.210938 5.113281 17.371094 4.941406 17.3125 C 4.863281 17.28125 4.953125 17.0625 5.113281 16.933594 C 5.203125 16.863281 5.304688 16.804688 5.40625 16.753906 C 5.429688 16.742188 5.476562 16.773438 5.539062 16.792969 Z M 5.539062 16.792969 " fill-opacity="1" fill-rule="nonzero"/><g transform="matrix(1, 0, 0, 1, 5, 3)"><g clip-path="url(#52b8bc9270)"><g clip-path="url(#015fe3d15e)"><g fill="#ffffff" fill-opacity="1"><g transform="translate(0.473858, 2.516173)"><g><path d="M 0.4375 0.015625 C 0.332031 0.015625 0.25 -0.0078125 0.1875 -0.0625 C 0.132812 -0.113281 0.109375 -0.191406 0.109375 -0.296875 C 0.109375 -0.359375 0.117188 -0.410156 0.140625 -0.453125 C 0.171875 -0.492188 0.210938 -0.523438 0.265625 -0.546875 C 0.316406 -0.578125 0.382812 -0.597656 0.46875 -0.609375 C 0.539062 -0.617188 0.597656 -0.628906 0.640625 -0.640625 C 0.679688 -0.660156 0.707031 -0.679688 0.71875 -0.703125 C 0.738281 -0.722656 0.75 -0.75 0.75 -0.78125 C 0.75 -0.832031 0.726562 -0.867188 0.6875 -0.890625 C 0.65625 -0.910156 0.601562 -0.921875 0.53125 -0.921875 C 0.46875 -0.921875 0.410156 -0.90625 0.359375 -0.875 C 0.316406 -0.851562 0.273438 -0.816406 0.234375 -0.765625 L 0.21875 -0.765625 L 0.140625 -0.875 C 0.179688 -0.9375 0.234375 -0.984375 0.296875 -1.015625 C 0.367188 -1.046875 0.445312 -1.0625 0.53125 -1.0625 C 0.65625 -1.0625 0.742188 -1.035156 0.796875 -0.984375 C 0.859375 -0.929688 0.890625 -0.859375 0.890625 -0.765625 L 0.890625 -0.203125 C 0.890625 -0.148438 0.914062 -0.125 0.96875 -0.125 C 0.988281 -0.125 1.003906 -0.125 1.015625 -0.125 L 1.03125 -0.125 L 1.046875 -0.015625 C 1.035156 -0.00390625 1.019531 0 1 0 C 0.976562 0 0.960938 0 0.953125 0 C 0.890625 0 0.84375 -0.0078125 0.8125 -0.03125 C 0.78125 -0.0507812 0.765625 -0.0859375 0.765625 -0.140625 L 0.734375 -0.140625 C 0.710938 -0.0859375 0.675781 -0.046875 0.625 -0.015625 C 0.570312 0.00390625 0.507812 0.015625 0.4375 0.015625 Z M 0.46875 -0.109375 C 0.519531 -0.109375 0.566406 -0.117188 0.609375 -0.140625 C 0.648438 -0.171875 0.679688 -0.207031 0.703125 -0.25 C 0.734375 -0.300781 0.75 -0.359375 0.75 -0.421875 L 0.75 -0.5625 L 0.734375 -0.5625 C 0.703125 -0.539062 0.671875 -0.523438 0.640625 -0.515625 C 0.609375 -0.503906 0.5625 -0.492188 0.5 -0.484375 C 0.4375 -0.484375 0.390625 -0.472656 0.359375 -0.453125 C 0.328125 -0.429688 0.300781 -0.40625 0.28125 -0.375 C 0.269531 -0.351562 0.265625 -0.328125 0.265625 -0.296875 C 0.265625 -0.234375 0.28125 -0.1875 0.3125 -0.15625 C 0.351562 -0.125 0.40625 -0.109375 0.46875 -0.109375 Z M 0.46875 -0.109375 "/></g></g><g transform="translate(1.552173, 2.516173)"><g><path d="M 0.6875 0.015625 C 0.613281 0.015625 0.546875 0.00390625 0.484375 -0.015625 C 0.429688 -0.046875 0.390625 -0.0859375 0.359375 -0.140625 L 0.328125 -0.140625 L 0.328125 0 L 0.1875 0 L 0.1875 -1.46875 L 0.328125 -1.46875 L 0.328125 -0.890625 L 0.359375 -0.890625 C 0.429688 -1.003906 0.546875 -1.0625 0.703125 -1.0625 C 0.785156 -1.0625 0.859375 -1.039062 0.921875 -1 C 0.992188 -0.957031 1.046875 -0.894531 1.078125 -0.8125 C 1.109375 -0.738281 1.125 -0.640625 1.125 -0.515625 C 1.125 -0.398438 1.101562 -0.300781 1.0625 -0.21875 C 1.03125 -0.132812 0.984375 -0.0703125 0.921875 -0.03125 C 0.859375 0 0.78125 0.015625 0.6875 0.015625 Z M 0.65625 -0.125 C 0.863281 -0.125 0.96875 -0.253906 0.96875 -0.515625 C 0.96875 -0.660156 0.941406 -0.765625 0.890625 -0.828125 C 0.835938 -0.890625 0.757812 -0.921875 0.65625 -0.921875 C 0.5625 -0.921875 0.484375 -0.882812 0.421875 -0.8125 C 0.359375 -0.75 0.328125 -0.648438 0.328125 -0.515625 C 0.328125 -0.378906 0.359375 -0.28125 0.421875 -0.21875 C 0.484375 -0.15625 0.5625 -0.125 0.65625 -0.125 Z M 0.65625 -0.125 "/></g></g><g transform="translate(2.795875, 2.516173)"><g><path d="M 0.1875 0 L 0.1875 -1.046875 L 0.328125 -1.046875 L 0.328125 -0.875 L 0.34375 -0.875 C 0.394531 -0.988281 0.488281 -1.046875 0.625 -1.046875 C 0.695312 -1.046875 0.75 -1.035156 0.78125 -1.015625 L 0.75 -0.890625 L 0.71875 -0.875 C 0.6875 -0.894531 0.644531 -0.90625 0.59375 -0.90625 C 0.507812 -0.90625 0.441406 -0.875 0.390625 -0.8125 C 0.347656 -0.75 0.328125 -0.648438 0.328125 -0.515625 L 0.328125 0 Z M 0.1875 0 "/></g></g></g></g><g fill="#ffffff" fill-opacity="1"><g transform="translate(3.57366, 2.516173)"><g><path d="M 0.59375 0.015625 C 0.5 0.015625 0.414062 -0.00390625 0.34375 -0.046875 C 0.269531 -0.0859375 0.210938 -0.144531 0.171875 -0.21875 C 0.128906 -0.300781 0.109375 -0.398438 0.109375 -0.515625 C 0.109375 -0.628906 0.128906 -0.726562 0.171875 -0.8125 C 0.210938 -0.894531 0.269531 -0.957031 0.34375 -1 C 0.414062 -1.039062 0.5 -1.0625 0.59375 -1.0625 C 0.695312 -1.0625 0.785156 -1.039062 0.859375 -1 C 0.929688 -0.957031 0.984375 -0.894531 1.015625 -0.8125 C 1.054688 -0.726562 1.078125 -0.628906 1.078125 -0.515625 C 1.078125 -0.398438 1.054688 -0.300781 1.015625 -0.21875 C 0.984375 -0.144531 0.929688 -0.0859375 0.859375 -0.046875 C 0.785156 -0.00390625 0.695312 0.015625 0.59375 0.015625 Z M 0.59375 -0.125 C 0.695312 -0.125 0.773438 -0.15625 0.828125 -0.21875 C 0.890625 -0.28125 0.921875 -0.378906 0.921875 -0.515625 C 0.921875 -0.660156 0.890625 -0.765625 0.828125 -0.828125 C 0.773438 -0.890625 0.695312 -0.921875 0.59375 -0.921875 C 0.488281 -0.921875 0.410156 -0.890625 0.359375 -0.828125 C 0.304688 -0.765625 0.28125 -0.660156 0.28125 -0.515625 C 0.28125 -0.378906 0.304688 -0.28125 0.359375 -0.21875 C 0.410156 -0.15625 0.488281 -0.125 0.59375 -0.125 Z M 0.59375 -0.125 "/></g></g><g transform="translate(4.770108, 2.516173)"><g><path d="M 0.4375 0.015625 C 0.332031 0.015625 0.25 -0.0078125 0.1875 -0.0625 C 0.132812 -0.113281 0.109375 -0.191406 0.109375 -0.296875 C 0.109375 -0.359375 0.117188 -0.410156 0.140625 -0.453125 C 0.171875 -0.492188 0.210938 -0.523438 0.265625 -0.546875 C 0.316406 -0.578125 0.382812 -0.597656 0.46875 -0.609375 C 0.539062 -0.617188 0.597656 -0.628906 0.640625 -0.640625 C 0.679688 -0.660156 0.707031 -0.679688 0.71875 -0.703125 C 0.738281 -0.722656 0.75 -0.75 0.75 -0.78125 C 0.75 -0.832031 0.726562 -0.867188 0.6875 -0.890625 C 0.65625 -0.910156 0.601562 -0.921875 0.53125 -0.921875 C 0.46875 -0.921875 0.410156 -0.90625 0.359375 -0.875 C 0.316406 -0.851562 0.273438 -0.816406 0.234375 -0.765625 L 0.21875 -0.765625 L 0.140625 -0.875 C 0.179688 -0.9375 0.234375 -0.984375 0.296875 -1.015625 C 0.367188 -1.046875 0.445312 -1.0625 0.53125 -1.0625 C 0.65625 -1.0625 0.742188 -1.035156 0.796875 -0.984375 C 0.859375 -0.929688 0.890625 -0.859375 0.890625 -0.765625 L 0.890625 -0.203125 C 0.890625 -0.148438 0.914062 -0.125 0.96875 -0.125 C 0.988281 -0.125 1.003906 -0.125 1.015625 -0.125 L 1.03125 -0.125 L 1.046875 -0.015625 C 1.035156 -0.00390625 1.019531 0 1 0 C 0.976562 0 0.960938 0 0.953125 0 C 0.890625 0 0.84375 -0.0078125 0.8125 -0.03125 C 0.78125 -0.0507812 0.765625 -0.0859375 0.765625 -0.140625 L 0.734375 -0.140625 C 0.710938 -0.0859375 0.675781 -0.046875 0.625 -0.015625 C 0.570312 0.00390625 0.507812 0.015625 0.4375 0.015625 Z M 0.46875 -0.109375 C 0.519531 -0.109375 0.566406 -0.117188 0.609375 -0.140625 C 0.648438 -0.171875 0.679688 -0.207031 0.703125 -0.25 C 0.734375 -0.300781 0.75 -0.359375 0.75 -0.421875 L 0.75 -0.5625 L 0.734375 -0.5625 C 0.703125 -0.539062 0.671875 -0.523438 0.640625 -0.515625 C 0.609375 -0.503906 0.5625 -0.492188 0.5 -0.484375 C 0.4375 -0.484375 0.390625 -0.472656 0.359375 -0.453125 C 0.328125 -0.429688 0.300781 -0.40625 0.28125 -0.375 C 0.269531 -0.351562 0.265625 -0.328125 0.265625 -0.296875 C 0.265625 -0.234375 0.28125 -0.1875 0.3125 -0.15625 C 0.351562 -0.125 0.40625 -0.109375 0.46875 -0.109375 Z M 0.46875 -0.109375 "/></g></g><g transform="translate(5.848424, 2.516173)"><g><path d="M 0.546875 0.015625 C 0.460938 0.015625 0.382812 0 0.3125 -0.03125 C 0.25 -0.0703125 0.195312 -0.132812 0.15625 -0.21875 C 0.125 -0.300781 0.109375 -0.398438 0.109375 -0.515625 C 0.109375 -0.640625 0.128906 -0.738281 0.171875 -0.8125 C 0.210938 -0.894531 0.265625 -0.957031 0.328125 -1 C 0.390625 -1.039062 0.46875 -1.0625 0.5625 -1.0625 C 0.625 -1.0625 0.679688 -1.046875 0.734375 -1.015625 C 0.796875 -0.992188 0.847656 -0.953125 0.890625 -0.890625 L 0.90625 -0.90625 L 0.90625 -1.46875 L 1.0625 -1.46875 L 1.0625 0 L 0.90625 0 L 0.90625 -0.15625 L 0.890625 -0.15625 C 0.859375 -0.101562 0.8125 -0.0625 0.75 -0.03125 C 0.6875 0 0.617188 0.015625 0.546875 0.015625 Z M 0.59375 -0.125 C 0.6875 -0.125 0.757812 -0.15625 0.8125 -0.21875 C 0.875 -0.28125 0.90625 -0.378906 0.90625 -0.515625 C 0.90625 -0.648438 0.875 -0.75 0.8125 -0.8125 C 0.757812 -0.882812 0.6875 -0.921875 0.59375 -0.921875 C 0.488281 -0.921875 0.410156 -0.890625 0.359375 -0.828125 C 0.304688 -0.765625 0.28125 -0.660156 0.28125 -0.515625 C 0.28125 -0.253906 0.382812 -0.125 0.59375 -0.125 Z M 0.59375 -0.125 "/></g></g></g></g></g></svg>