<svg xmlns="http://www.w3.org/2000/svg" xmlns:xlink="http://www.w3.org/1999/xlink" width="1300" zoomAndPan="magnify" viewBox="0 0 974.88 374.999991" height="500" preserveAspectRatio="xMidYMid meet" version="1.0"><defs><g/><clipPath id="f1e7a9e479"><path d="M 64 0.0234375 L 914 0.0234375 L 914 367 L 64 367 Z M 64 0.0234375 " clip-rule="nonzero"/></clipPath><clipPath id="af0f6ee851"><path d="M 5 92 L 483 92 L 483 366.457031 L 5 366.457031 Z M 5 92 " clip-rule="nonzero"/></clipPath><clipPath id="058010fb15"><rect x="0" width="478" y="0" height="275"/></clipPath><clipPath id="d1975e81b5"><path d="M 145 0.0234375 L 704 0.0234375 L 704 251 L 145 251 Z M 145 0.0234375 " clip-rule="nonzero"/></clipPath><clipPath id="a4056d4448"><path d="M 413.460938 69.160156 L 438.492188 69.160156 L 438.492188 94.191406 L 413.460938 94.191406 Z M 413.460938 69.160156 " clip-rule="nonzero"/></clipPath><clipPath id="93a04acbbf"><path d="M 416.460938 69.160156 L 435.496094 69.160156 C 436.289062 69.160156 437.050781 69.476562 437.613281 70.039062 C 438.179688 70.601562 438.492188 71.363281 438.492188 72.160156 L 438.492188 91.195312 C 438.492188 91.988281 438.179688 92.753906 437.613281 93.316406 C 437.050781 93.878906 436.289062 94.191406 435.496094 94.191406 L 416.460938 94.191406 C 415.664062 94.191406 414.902344 93.878906 414.339844 93.316406 C 413.777344 92.753906 413.460938 91.988281 413.460938 91.195312 L 413.460938 72.160156 C 413.460938 71.363281 413.777344 70.601562 414.339844 70.039062 C 414.902344 69.476562 415.664062 69.160156 416.460938 69.160156 Z M 416.460938 69.160156 " clip-rule="nonzero"/></clipPath><clipPath id="1c9be14b9e"><path d="M 0.460938 0.160156 L 25.492188 0.160156 L 25.492188 25.191406 L 0.460938 25.191406 Z M 0.460938 0.160156 " clip-rule="nonzero"/></clipPath><clipPath id="1d26494800"><path d="M 3.460938 0.160156 L 22.496094 0.160156 C 23.289062 0.160156 24.050781 0.476562 24.613281 1.039062 C 25.179688 1.601562 25.492188 2.363281 25.492188 3.160156 L 25.492188 22.195312 C 25.492188 22.988281 25.179688 23.753906 24.613281 24.316406 C 24.050781 24.878906 23.289062 25.191406 22.496094 25.191406 L 3.460938 25.191406 C 2.664062 25.191406 1.902344 24.878906 1.339844 24.316406 C 0.777344 23.753906 0.460938 22.988281 0.460938 22.195312 L 0.460938 3.160156 C 0.460938 2.363281 0.777344 1.601562 1.339844 1.039062 C 1.902344 0.476562 2.664062 0.160156 3.460938 0.160156 Z M 3.460938 0.160156 " clip-rule="nonzero"/></clipPath><clipPath id="ad83482a67"><rect x="0" width="26" y="0" height="26"/></clipPath><clipPath id="b33da250a1"><path d="M 287 0.0234375 L 601 0.0234375 L 601 206 L 287 206 Z M 287 0.0234375 " clip-rule="nonzero"/></clipPath><clipPath id="173dd0ce2c"><path d="M 287.777344 79.144531 L 554.605469 -17.90625 L 600.640625 108.664062 L 333.8125 205.714844 Z M 287.777344 79.144531 " clip-rule="nonzero"/></clipPath><clipPath id="6a8ca2aba9"><path d="M 17 42 L 313.71875 42 L 313.71875 127 L 17 127 Z M 17 42 " clip-rule="nonzero"/></clipPath><clipPath id="a487c9c80b"><path d="M 0.777344 79.144531 L 267.605469 -17.90625 L 313.640625 108.664062 L 46.8125 205.714844 Z M 0.777344 79.144531 " clip-rule="nonzero"/></clipPath><clipPath id="94c350ee76"><path d="M 268.996094 -18.414062 L 2.167969 78.636719 L 48.203125 205.210938 L 315.03125 108.160156 Z M 268.996094 -18.414062 " clip-rule="nonzero"/></clipPath><clipPath id="4d79c99c83"><rect x="0" width="314" y="0" height="206"/></clipPath><clipPath id="ba19640e54"><rect x="0" width="850" y="0" height="367"/></clipPath></defs><g fill="#ffffff" fill-opacity="1"><g transform="translate(447.959969, 303.403959)"><g><path d="M 3.5625 0.171875 C 2.707031 0.171875 2.039062 -0.0507812 1.5625 -0.5 C 1.09375 -0.945312 0.859375 -1.582031 0.859375 -2.40625 C 0.859375 -2.914062 0.960938 -3.34375 1.171875 -3.6875 C 1.378906 -4.039062 1.703125 -4.328125 2.140625 -4.546875 C 2.585938 -4.773438 3.171875 -4.945312 3.890625 -5.0625 C 4.515625 -5.164062 4.988281 -5.28125 5.3125 -5.40625 C 5.632812 -5.539062 5.851562 -5.6875 5.96875 -5.84375 C 6.082031 -6.007812 6.140625 -6.21875 6.140625 -6.46875 C 6.140625 -6.851562 6.003906 -7.148438 5.734375 -7.359375 C 5.460938 -7.566406 5.03125 -7.671875 4.4375 -7.671875 C 3.882812 -7.671875 3.40625 -7.5625 3 -7.34375 C 2.601562 -7.132812 2.238281 -6.816406 1.90625 -6.390625 L 1.75 -6.390625 L 1.125 -7.265625 C 1.488281 -7.734375 1.953125 -8.101562 2.515625 -8.375 C 3.078125 -8.644531 3.71875 -8.78125 4.4375 -8.78125 C 5.457031 -8.78125 6.207031 -8.554688 6.6875 -8.109375 C 7.164062 -7.671875 7.40625 -7.054688 7.40625 -6.265625 L 7.40625 -1.703125 C 7.40625 -1.222656 7.609375 -0.984375 8.015625 -0.984375 C 8.148438 -0.984375 8.28125 -1.003906 8.40625 -1.046875 L 8.515625 -1.015625 L 8.671875 -0.140625 C 8.578125 -0.078125 8.453125 -0.03125 8.296875 0 C 8.140625 0.0390625 7.984375 0.0625 7.828125 0.0625 C 7.347656 0.0625 6.988281 -0.0390625 6.75 -0.25 C 6.507812 -0.457031 6.351562 -0.765625 6.28125 -1.171875 L 6.125 -1.1875 C 5.875 -0.738281 5.539062 -0.398438 5.125 -0.171875 C 4.707031 0.0546875 4.1875 0.171875 3.5625 0.171875 Z M 3.84375 -0.859375 C 4.320312 -0.859375 4.734375 -0.96875 5.078125 -1.1875 C 5.429688 -1.40625 5.703125 -1.710938 5.890625 -2.109375 C 6.078125 -2.515625 6.171875 -2.984375 6.171875 -3.515625 L 6.171875 -4.609375 L 6.03125 -4.640625 C 5.832031 -4.503906 5.59375 -4.390625 5.3125 -4.296875 C 5.039062 -4.203125 4.660156 -4.117188 4.171875 -4.046875 C 3.671875 -3.984375 3.269531 -3.878906 2.96875 -3.734375 C 2.675781 -3.597656 2.46875 -3.421875 2.34375 -3.203125 C 2.21875 -2.984375 2.15625 -2.71875 2.15625 -2.40625 C 2.15625 -1.894531 2.300781 -1.507812 2.59375 -1.25 C 2.894531 -0.988281 3.3125 -0.859375 3.84375 -0.859375 Z M 3.84375 -0.859375 "/></g></g></g><g fill="#ffffff" fill-opacity="1"><g transform="translate(456.870764, 303.403959)"><g><path d="M 5.734375 0.171875 C 5.085938 0.171875 4.53125 0.046875 4.0625 -0.203125 C 3.59375 -0.453125 3.21875 -0.78125 2.9375 -1.1875 L 2.78125 -1.15625 L 2.78125 0 L 1.5 0 L 1.5 -12.078125 L 2.78125 -12.078125 L 2.78125 -7.328125 L 2.9375 -7.296875 C 3.59375 -8.285156 4.546875 -8.78125 5.796875 -8.78125 C 6.503906 -8.78125 7.125 -8.613281 7.65625 -8.28125 C 8.1875 -7.957031 8.597656 -7.460938 8.890625 -6.796875 C 9.191406 -6.128906 9.34375 -5.300781 9.34375 -4.3125 C 9.34375 -3.332031 9.1875 -2.503906 8.875 -1.828125 C 8.5625 -1.160156 8.132812 -0.660156 7.59375 -0.328125 C 7.050781 0.00390625 6.429688 0.171875 5.734375 0.171875 Z M 5.421875 -0.984375 C 7.140625 -0.984375 8 -2.09375 8 -4.3125 C 8 -5.457031 7.773438 -6.296875 7.328125 -6.828125 C 6.878906 -7.367188 6.242188 -7.640625 5.421875 -7.640625 C 4.617188 -7.640625 3.976562 -7.363281 3.5 -6.8125 C 3.019531 -6.269531 2.78125 -5.4375 2.78125 -4.3125 C 2.78125 -3.1875 3.019531 -2.347656 3.5 -1.796875 C 3.976562 -1.253906 4.617188 -0.984375 5.421875 -0.984375 Z M 5.421875 -0.984375 "/></g></g></g><g fill="#ffffff" fill-opacity="1"><g transform="translate(467.148238, 303.403959)"><g><path d="M 1.5 0 L 1.5 -8.625 L 2.71875 -8.625 L 2.71875 -7.265625 L 2.875 -7.234375 C 3.28125 -8.210938 4.035156 -8.703125 5.140625 -8.703125 C 5.734375 -8.703125 6.175781 -8.59375 6.46875 -8.375 L 6.140625 -7.296875 L 5.984375 -7.265625 C 5.660156 -7.429688 5.304688 -7.515625 4.921875 -7.515625 C 4.234375 -7.515625 3.703125 -7.253906 3.328125 -6.734375 C 2.960938 -6.222656 2.78125 -5.390625 2.78125 -4.234375 L 2.78125 0 Z M 1.5 0 "/></g></g></g><g fill="#ffffff" fill-opacity="1"><g transform="translate(473.575547, 303.403959)"><g><path d="M 4.953125 0.171875 C 4.140625 0.171875 3.429688 0 2.828125 -0.34375 C 2.222656 -0.695312 1.757812 -1.207031 1.4375 -1.875 C 1.113281 -2.539062 0.953125 -3.351562 0.953125 -4.3125 C 0.953125 -5.257812 1.113281 -6.066406 1.4375 -6.734375 C 1.757812 -7.410156 2.222656 -7.921875 2.828125 -8.265625 C 3.429688 -8.609375 4.140625 -8.78125 4.953125 -8.78125 C 5.765625 -8.78125 6.46875 -8.609375 7.0625 -8.265625 C 7.664062 -7.921875 8.128906 -7.410156 8.453125 -6.734375 C 8.785156 -6.066406 8.953125 -5.257812 8.953125 -4.3125 C 8.953125 -3.351562 8.785156 -2.539062 8.453125 -1.875 C 8.128906 -1.207031 7.664062 -0.695312 7.0625 -0.34375 C 6.46875 0 5.765625 0.171875 4.953125 0.171875 Z M 4.953125 -0.984375 C 5.804688 -0.984375 6.460938 -1.253906 6.921875 -1.796875 C 7.378906 -2.335938 7.609375 -3.175781 7.609375 -4.3125 C 7.609375 -5.445312 7.378906 -6.285156 6.921875 -6.828125 C 6.460938 -7.367188 5.804688 -7.640625 4.953125 -7.640625 C 4.085938 -7.640625 3.425781 -7.367188 2.96875 -6.828125 C 2.507812 -6.285156 2.28125 -5.445312 2.28125 -4.3125 C 2.28125 -3.175781 2.507812 -2.335938 2.96875 -1.796875 C 3.425781 -1.253906 4.085938 -0.984375 4.953125 -0.984375 Z M 4.953125 -0.984375 "/></g></g></g><g fill="#ffffff" fill-opacity="1"><g transform="translate(483.46254, 303.403959)"><g><path d="M 3.5625 0.171875 C 2.707031 0.171875 2.039062 -0.0507812 1.5625 -0.5 C 1.09375 -0.945312 0.859375 -1.582031 0.859375 -2.40625 C 0.859375 -2.914062 0.960938 -3.34375 1.171875 -3.6875 C 1.378906 -4.039062 1.703125 -4.328125 2.140625 -4.546875 C 2.585938 -4.773438 3.171875 -4.945312 3.890625 -5.0625 C 4.515625 -5.164062 4.988281 -5.28125 5.3125 -5.40625 C 5.632812 -5.539062 5.851562 -5.6875 5.96875 -5.84375 C 6.082031 -6.007812 6.140625 -6.21875 6.140625 -6.46875 C 6.140625 -6.851562 6.003906 -7.148438 5.734375 -7.359375 C 5.460938 -7.566406 5.03125 -7.671875 4.4375 -7.671875 C 3.882812 -7.671875 3.40625 -7.5625 3 -7.34375 C 2.601562 -7.132812 2.238281 -6.816406 1.90625 -6.390625 L 1.75 -6.390625 L 1.125 -7.265625 C 1.488281 -7.734375 1.953125 -8.101562 2.515625 -8.375 C 3.078125 -8.644531 3.71875 -8.78125 4.4375 -8.78125 C 5.457031 -8.78125 6.207031 -8.554688 6.6875 -8.109375 C 7.164062 -7.671875 7.40625 -7.054688 7.40625 -6.265625 L 7.40625 -1.703125 C 7.40625 -1.222656 7.609375 -0.984375 8.015625 -0.984375 C 8.148438 -0.984375 8.28125 -1.003906 8.40625 -1.046875 L 8.515625 -1.015625 L 8.671875 -0.140625 C 8.578125 -0.078125 8.453125 -0.03125 8.296875 0 C 8.140625 0.0390625 7.984375 0.0625 7.828125 0.0625 C 7.347656 0.0625 6.988281 -0.0390625 6.75 -0.25 C 6.507812 -0.457031 6.351562 -0.765625 6.28125 -1.171875 L 6.125 -1.1875 C 5.875 -0.738281 5.539062 -0.398438 5.125 -0.171875 C 4.707031 0.0546875 4.1875 0.171875 3.5625 0.171875 Z M 3.84375 -0.859375 C 4.320312 -0.859375 4.734375 -0.96875 5.078125 -1.1875 C 5.429688 -1.40625 5.703125 -1.710938 5.890625 -2.109375 C 6.078125 -2.515625 6.171875 -2.984375 6.171875 -3.515625 L 6.171875 -4.609375 L 6.03125 -4.640625 C 5.832031 -4.503906 5.59375 -4.390625 5.3125 -4.296875 C 5.039062 -4.203125 4.660156 -4.117188 4.171875 -4.046875 C 3.671875 -3.984375 3.269531 -3.878906 2.96875 -3.734375 C 2.675781 -3.597656 2.46875 -3.421875 2.34375 -3.203125 C 2.21875 -2.984375 2.15625 -2.71875 2.15625 -2.40625 C 2.15625 -1.894531 2.300781 -1.507812 2.59375 -1.25 C 2.894531 -0.988281 3.3125 -0.859375 3.84375 -0.859375 Z M 3.84375 -0.859375 "/></g></g></g><g fill="#ffffff" fill-opacity="1"><g transform="translate(492.373335, 303.403959)"><g><path d="M 4.46875 0.171875 C 3.78125 0.171875 3.171875 0.00390625 2.640625 -0.328125 C 2.109375 -0.660156 1.691406 -1.160156 1.390625 -1.828125 C 1.097656 -2.492188 0.953125 -3.320312 0.953125 -4.3125 C 0.953125 -5.289062 1.109375 -6.113281 1.421875 -6.78125 C 1.734375 -7.457031 2.160156 -7.957031 2.703125 -8.28125 C 3.253906 -8.613281 3.894531 -8.78125 4.625 -8.78125 C 5.195312 -8.78125 5.710938 -8.671875 6.171875 -8.453125 C 6.628906 -8.242188 7.019531 -7.890625 7.34375 -7.390625 L 7.515625 -7.421875 L 7.515625 -12.078125 L 8.78125 -12.078125 L 8.78125 0 L 7.515625 0 L 7.515625 -1.265625 L 7.34375 -1.296875 C 7.0625 -0.867188 6.679688 -0.515625 6.203125 -0.234375 C 5.722656 0.0351562 5.144531 0.171875 4.46875 0.171875 Z M 4.875 -0.984375 C 5.675781 -0.984375 6.316406 -1.253906 6.796875 -1.796875 C 7.273438 -2.347656 7.515625 -3.1875 7.515625 -4.3125 C 7.515625 -5.4375 7.273438 -6.269531 6.796875 -6.8125 C 6.316406 -7.363281 5.675781 -7.640625 4.875 -7.640625 C 4.039062 -7.640625 3.398438 -7.367188 2.953125 -6.828125 C 2.503906 -6.296875 2.28125 -5.457031 2.28125 -4.3125 C 2.28125 -2.09375 3.144531 -0.984375 4.875 -0.984375 Z M 4.875 -0.984375 "/></g></g></g><g clip-path="url(#f1e7a9e479)"><g transform="matrix(1, 0, 0, 1, 64, 0.000000000000038893)"><g clip-path="url(#ba19640e54)"><g fill="#0b7077" fill-opacity="1"><g transform="translate(4.367817, 307.9132)"><g><path d="M 166.585938 -78.730469 C 166.585938 -67.445312 164.46875 -56.859375 160.230469 -46.96875 C 156 -37.097656 150.214844 -28.492188 142.871094 -21.152344 C 135.53125 -13.8125 126.925781 -8.023438 117.054688 -3.796875 C 107.164062 0.445312 96.578125 2.5625 85.292969 2.5625 C 74.007812 2.5625 63.417969 0.445312 53.527344 -3.796875 C 43.65625 -8.023438 35.050781 -13.8125 27.710938 -21.152344 C 20.371094 -28.492188 14.585938 -37.097656 10.355469 -46.96875 C 6.117188 -56.859375 3.996094 -67.445312 3.996094 -78.730469 L 3.996094 -157.460938 C 3.996094 -162.910156 5.980469 -167.613281 9.941406 -171.578125 C 13.90625 -175.539062 18.609375 -177.523438 24.058594 -177.523438 C 29.503906 -177.523438 34.207031 -175.539062 38.171875 -171.578125 C 42.132812 -167.613281 44.117188 -162.910156 44.117188 -157.460938 L 44.117188 -78.730469 C 44.117188 -73.070312 45.183594 -67.757812 47.324219 -62.796875 C 49.472656 -57.8125 52.433594 -53.429688 56.214844 -49.652344 C 59.992188 -45.875 64.371094 -42.910156 69.359375 -40.761719 C 74.320312 -38.625 79.628906 -37.554688 85.292969 -37.554688 C 90.953125 -37.554688 96.265625 -38.625 101.226562 -40.761719 C 106.210938 -42.910156 110.59375 -45.875 114.371094 -49.652344 C 118.148438 -53.429688 121.113281 -57.8125 123.261719 -62.796875 C 125.398438 -67.757812 126.46875 -73.070312 126.46875 -78.730469 L 126.46875 -157.460938 C 126.46875 -162.910156 128.449219 -167.613281 132.414062 -171.578125 C 136.378906 -175.539062 141.082031 -177.523438 146.527344 -177.523438 C 151.972656 -177.523438 156.679688 -175.539062 160.640625 -171.578125 C 164.605469 -167.613281 166.585938 -162.910156 166.585938 -157.460938 Z M 161.460938 -78.730469 L 161.460938 -157.460938 C 161.460938 -161.492188 159.980469 -164.988281 157.015625 -167.953125 C 154.054688 -170.914062 150.558594 -172.394531 146.527344 -172.394531 C 142.496094 -172.394531 139 -170.914062 136.039062 -167.953125 C 133.074219 -164.988281 131.59375 -161.492188 131.59375 -157.460938 L 131.59375 -78.730469 C 131.59375 -72.363281 130.386719 -66.375 127.96875 -60.769531 C 125.5625 -55.183594 122.238281 -50.269531 117.996094 -46.027344 C 113.753906 -41.789062 108.839844 -38.464844 103.257812 -36.054688 C 97.648438 -33.636719 91.660156 -32.429688 85.292969 -32.429688 C 78.925781 -32.429688 72.9375 -33.636719 67.328125 -36.054688 C 61.742188 -38.464844 56.828125 -41.789062 52.589844 -46.027344 C 48.347656 -50.269531 45.023438 -55.183594 42.617188 -60.769531 C 40.199219 -66.375 38.988281 -72.363281 38.988281 -78.730469 L 38.988281 -157.460938 C 38.988281 -161.492188 37.507812 -164.988281 34.546875 -167.953125 C 31.585938 -170.914062 28.085938 -172.394531 24.058594 -172.394531 C 20.027344 -172.394531 16.53125 -170.914062 13.566406 -167.953125 C 10.605469 -164.988281 9.125 -161.492188 9.125 -157.460938 L 9.125 -78.730469 C 9.125 -68.148438 11.105469 -58.230469 15.066406 -48.988281 C 19.039062 -39.722656 24.460938 -31.652344 31.335938 -24.777344 C 38.210938 -17.902344 46.28125 -12.476562 55.546875 -8.507812 C 64.792969 -4.542969 74.707031 -2.5625 85.292969 -2.5625 C 95.875 -2.5625 105.792969 -4.542969 115.039062 -8.507812 C 124.304688 -12.476562 132.375 -17.902344 139.25 -24.777344 C 146.125 -31.652344 151.546875 -39.722656 155.515625 -48.988281 C 159.480469 -58.230469 161.460938 -68.148438 161.460938 -78.730469 Z M 161.460938 -78.730469 "/></g></g></g><g fill="#0b7077" fill-opacity="1"><g transform="translate(174.93831, 307.9132)"><g><path d="M 6.183594 -122.472656 C 6.183594 -128.644531 8.347656 -133.898438 12.675781 -138.226562 C 17.003906 -142.554688 22.253906 -144.71875 28.429688 -144.71875 C 32.953125 -144.71875 37.019531 -143.527344 40.636719 -141.152344 C 44.261719 -138.769531 46.902344 -135.609375 48.5625 -131.667969 L 46.199219 -130.671875 L 44.960938 -132.917969 C 50.417969 -135.925781 56.109375 -138.277344 62.035156 -139.972656 C 68.007812 -141.675781 74.300781 -142.53125 80.917969 -142.53125 C 90.929688 -142.53125 100.332031 -140.636719 109.132812 -136.855469 C 117.90625 -133.078125 125.601562 -127.886719 132.210938 -121.277344 C 138.820312 -114.664062 144.015625 -106.972656 147.789062 -98.195312 C 151.574219 -89.398438 153.464844 -79.996094 153.464844 -69.984375 L 153.464844 -17.496094 C 153.464844 -12.050781 151.484375 -7.34375 147.519531 -3.382812 C 143.558594 0.582031 138.851562 2.5625 133.40625 2.5625 C 127.960938 2.5625 123.253906 0.582031 119.292969 -3.382812 C 115.328125 -7.34375 113.347656 -12.050781 113.347656 -17.496094 L 113.347656 -69.984375 C 113.347656 -74.546875 112.507812 -78.765625 110.824219 -82.628906 C 109.132812 -86.523438 106.804688 -89.953125 103.847656 -92.910156 C 100.886719 -95.871094 97.460938 -98.199219 93.566406 -99.890625 C 89.699219 -101.570312 85.484375 -102.414062 80.917969 -102.414062 C 76.351562 -102.414062 72.136719 -101.570312 68.273438 -99.890625 C 64.378906 -98.199219 60.949219 -95.871094 57.992188 -92.910156 C 55.03125 -89.953125 52.703125 -86.523438 51.011719 -82.628906 C 49.328125 -78.765625 48.488281 -74.546875 48.488281 -69.984375 L 48.488281 -17.496094 C 48.488281 -12.050781 46.507812 -7.34375 42.542969 -3.382812 C 38.582031 0.582031 33.878906 2.5625 28.429688 2.5625 C 22.984375 2.5625 18.28125 0.582031 14.316406 -3.382812 C 10.355469 -7.34375 8.371094 -12.050781 8.371094 -17.496094 L 8.371094 -69.984375 C 8.371094 -83.03125 11.589844 -94.949219 18.027344 -105.742188 L 20.230469 -104.429688 L 19.132812 -102.113281 C 15.238281 -103.957031 12.109375 -106.675781 9.75 -110.265625 C 7.375 -113.882812 6.183594 -117.949219 6.183594 -122.472656 Z M 11.3125 -122.472656 C 11.3125 -118.972656 12.21875 -115.84375 14.035156 -113.082031 C 15.867188 -110.292969 18.296875 -108.179688 21.328125 -106.746094 L 23.875 -105.539062 L 22.429688 -103.117188 C 16.476562 -93.132812 13.496094 -82.085938 13.496094 -69.984375 L 13.496094 -17.496094 C 13.496094 -13.464844 14.980469 -9.96875 17.941406 -7.007812 C 20.902344 -4.042969 24.398438 -2.5625 28.429688 -2.5625 C 32.460938 -2.5625 35.957031 -4.042969 38.921875 -7.007812 C 41.882812 -9.96875 43.363281 -13.464844 43.363281 -17.496094 L 43.363281 -69.984375 C 43.363281 -75.257812 44.347656 -80.15625 46.308594 -84.675781 C 48.261719 -89.164062 50.945312 -93.117188 54.367188 -96.535156 C 57.785156 -99.953125 61.738281 -102.640625 66.226562 -104.59375 C 70.746094 -106.554688 75.640625 -107.539062 80.917969 -107.539062 C 86.195312 -107.539062 91.089844 -106.554688 95.609375 -104.59375 C 100.097656 -102.640625 104.050781 -99.953125 107.472656 -96.535156 C 110.890625 -93.117188 113.574219 -89.164062 115.527344 -84.675781 C 117.492188 -80.15625 118.472656 -75.257812 118.472656 -69.984375 L 118.472656 -17.496094 C 118.472656 -13.464844 119.953125 -9.96875 122.917969 -7.007812 C 125.878906 -4.042969 129.375 -2.5625 133.40625 -2.5625 C 137.4375 -2.5625 140.933594 -4.042969 143.894531 -7.007812 C 146.859375 -9.96875 148.339844 -13.464844 148.339844 -17.496094 L 148.339844 -69.984375 C 148.339844 -79.289062 146.585938 -88.019531 143.078125 -96.171875 C 139.566406 -104.34375 134.734375 -111.503906 128.585938 -117.652344 C 122.441406 -123.796875 115.28125 -128.628906 107.105469 -132.144531 C 98.953125 -135.652344 90.226562 -137.402344 80.917969 -137.402344 C 74.777344 -137.402344 68.953125 -136.617188 63.441406 -135.042969 C 57.886719 -133.457031 52.554688 -131.25 47.4375 -128.429688 L 44.945312 -127.050781 L 43.839844 -129.675781 C 42.582031 -132.660156 40.578125 -135.058594 37.820312 -136.867188 C 35.058594 -138.683594 31.929688 -139.589844 28.429688 -139.589844 C 23.671875 -139.589844 19.628906 -137.925781 16.300781 -134.601562 C 12.972656 -131.273438 11.3125 -127.230469 11.3125 -122.472656 Z M 11.3125 -122.472656 "/></g></g></g><g fill="#0b7077" fill-opacity="1"><g transform="translate(332.387972, 307.9132)"><g><path d="M 74.359375 2.5625 C 64.347656 2.5625 54.941406 0.671875 46.144531 -3.113281 C 37.367188 -6.886719 29.675781 -12.082031 23.066406 -18.691406 C 16.453125 -25.300781 11.261719 -32.996094 7.488281 -41.769531 C 3.703125 -50.566406 1.8125 -59.972656 1.8125 -69.984375 C 1.8125 -79.996094 3.703125 -89.398438 7.488281 -98.195312 C 11.261719 -106.972656 16.453125 -114.664062 23.066406 -121.277344 C 29.675781 -127.886719 37.367188 -133.078125 46.144531 -136.855469 C 54.941406 -140.636719 64.347656 -142.53125 74.359375 -142.53125 C 84.367188 -142.53125 93.773438 -140.636719 102.570312 -136.855469 C 111.347656 -133.078125 119.039062 -127.886719 125.648438 -121.277344 C 132.261719 -114.664062 137.453125 -106.972656 141.226562 -98.195312 C 145.011719 -89.398438 146.902344 -79.996094 146.902344 -69.984375 C 146.902344 -64.539062 144.921875 -59.832031 140.960938 -55.871094 C 136.996094 -51.90625 132.292969 -49.925781 126.84375 -49.925781 L 44.011719 -49.925781 L 44.011719 -52.488281 L 46.222656 -53.785156 C 49.101562 -48.871094 53 -44.933594 57.914062 -41.96875 C 62.789062 -39.027344 68.273438 -37.554688 74.359375 -37.554688 L 91.851562 -37.554688 C 97.300781 -37.554688 102.003906 -35.574219 105.96875 -31.609375 C 109.929688 -27.648438 111.910156 -22.941406 111.910156 -17.496094 C 111.910156 -12.050781 109.929688 -7.34375 105.96875 -3.382812 C 102.003906 0.582031 97.300781 2.5625 91.851562 2.5625 Z M 74.359375 -2.5625 L 91.851562 -2.5625 C 95.882812 -2.5625 99.378906 -4.042969 102.34375 -7.007812 C 105.304688 -9.96875 106.785156 -13.464844 106.785156 -17.496094 C 106.785156 -21.527344 105.304688 -25.023438 102.34375 -27.984375 C 99.378906 -30.949219 95.882812 -32.429688 91.851562 -32.429688 L 74.359375 -32.429688 C 67.320312 -32.429688 60.957031 -34.144531 55.265625 -37.582031 C 49.605469 -40.996094 45.121094 -45.53125 41.800781 -51.191406 L 39.539062 -55.050781 L 126.84375 -55.050781 C 130.875 -55.050781 134.371094 -56.53125 137.335938 -59.492188 C 140.296875 -62.457031 141.777344 -65.953125 141.777344 -69.984375 C 141.777344 -79.289062 140.023438 -88.019531 136.519531 -96.171875 C 133.003906 -104.34375 128.171875 -111.503906 122.027344 -117.652344 C 115.878906 -123.796875 108.71875 -128.628906 100.546875 -132.144531 C 92.394531 -135.652344 83.664062 -137.402344 74.359375 -137.402344 C 65.050781 -137.402344 56.320312 -135.652344 48.167969 -132.144531 C 39.996094 -128.628906 32.835938 -123.796875 26.6875 -117.652344 C 20.542969 -111.503906 15.710938 -104.34375 12.195312 -96.171875 C 8.691406 -88.019531 6.9375 -79.289062 6.9375 -69.984375 C 6.9375 -60.675781 8.691406 -51.945312 12.195312 -43.796875 C 15.710938 -35.621094 20.542969 -28.460938 26.6875 -22.316406 C 32.835938 -16.167969 39.996094 -11.335938 48.167969 -7.820312 C 56.320312 -4.316406 65.050781 -2.5625 74.359375 -2.5625 Z M 74.359375 -102.414062 C 68.273438 -102.414062 62.789062 -100.941406 57.914062 -97.996094 C 53 -95.03125 49.101562 -91.09375 46.222656 -86.183594 L 44.011719 -87.480469 L 44.011719 -90.042969 L 104.703125 -90.042969 L 104.703125 -87.480469 L 102.492188 -86.183594 C 99.617188 -91.089844 95.679688 -95.023438 90.683594 -97.988281 C 85.710938 -100.9375 80.265625 -102.414062 74.359375 -102.414062 Z M 74.359375 -107.539062 C 81.203125 -107.539062 87.519531 -105.824219 93.296875 -102.394531 C 99.054688 -98.980469 103.589844 -94.441406 106.914062 -88.777344 L 109.175781 -84.917969 L 39.539062 -84.917969 L 41.800781 -88.777344 C 45.121094 -94.433594 49.605469 -98.972656 55.265625 -102.386719 C 60.957031 -105.820312 67.320312 -107.539062 74.359375 -107.539062 Z M 74.359375 -107.539062 "/></g></g></g><g fill="#0b7077" fill-opacity="1"><g transform="translate(481.090429, 307.9132)"><g><path d="M 48.488281 -17.496094 C 48.488281 -12.050781 46.507812 -7.34375 42.542969 -3.382812 C 38.582031 0.582031 33.878906 2.5625 28.429688 2.5625 C 22.984375 2.5625 18.28125 0.582031 14.316406 -3.382812 C 10.355469 -7.34375 8.371094 -12.050781 8.371094 -17.496094 L 8.371094 -157.460938 C 8.371094 -162.910156 10.355469 -167.613281 14.316406 -171.578125 C 18.28125 -175.539062 22.984375 -177.523438 28.429688 -177.523438 L 133.40625 -177.523438 C 138.851562 -177.523438 143.558594 -175.539062 147.519531 -171.578125 C 151.484375 -167.613281 153.464844 -162.910156 153.464844 -157.460938 C 153.464844 -152.015625 151.484375 -147.3125 147.519531 -143.347656 C 143.558594 -139.386719 138.851562 -137.402344 133.40625 -137.402344 L 45.925781 -137.402344 L 45.925781 -139.96875 L 48.488281 -139.96875 L 48.488281 -104.976562 L 45.925781 -104.976562 L 45.925781 -107.539062 L 111.535156 -107.539062 C 116.980469 -107.539062 121.6875 -105.554688 125.648438 -101.59375 C 129.613281 -97.628906 131.59375 -92.925781 131.59375 -87.480469 C 131.59375 -82.03125 129.613281 -77.328125 125.648438 -73.367188 C 121.6875 -69.402344 116.980469 -67.421875 111.535156 -67.421875 L 45.925781 -67.421875 L 45.925781 -69.984375 L 48.488281 -69.984375 Z M 43.363281 -17.496094 L 43.363281 -72.546875 L 111.535156 -72.546875 C 115.566406 -72.546875 119.0625 -74.027344 122.027344 -76.988281 C 124.988281 -79.953125 126.46875 -83.449219 126.46875 -87.480469 C 126.46875 -91.511719 124.988281 -95.007812 122.027344 -97.96875 C 119.0625 -100.929688 115.566406 -102.414062 111.535156 -102.414062 L 43.363281 -102.414062 L 43.363281 -142.53125 L 133.40625 -142.53125 C 137.4375 -142.53125 140.933594 -144.011719 143.894531 -146.972656 C 146.859375 -149.9375 148.339844 -153.433594 148.339844 -157.460938 C 148.339844 -161.492188 146.859375 -164.988281 143.894531 -167.953125 C 140.933594 -170.914062 137.4375 -172.394531 133.40625 -172.394531 L 28.429688 -172.394531 C 24.398438 -172.394531 20.902344 -170.914062 17.941406 -167.953125 C 14.980469 -164.988281 13.496094 -161.492188 13.496094 -157.460938 L 13.496094 -17.496094 C 13.496094 -13.464844 14.980469 -9.96875 17.941406 -7.007812 C 20.902344 -4.042969 24.398438 -2.5625 28.429688 -2.5625 C 32.460938 -2.5625 35.957031 -4.042969 38.921875 -7.007812 C 41.882812 -9.96875 43.363281 -13.464844 43.363281 -17.496094 Z M 43.363281 -17.496094 "/></g></g></g><g fill="#0b7077" fill-opacity="1"><g transform="translate(634.166515, 307.9132)"><g><path d="M 48.488281 -17.496094 C 48.488281 -12.050781 46.507812 -7.34375 42.542969 -3.382812 C 38.582031 0.582031 33.878906 2.5625 28.429688 2.5625 C 22.984375 2.5625 18.28125 0.582031 14.316406 -3.382812 C 10.355469 -7.34375 8.371094 -12.050781 8.371094 -17.496094 L 8.371094 -174.957031 C 8.371094 -180.40625 10.355469 -185.109375 14.316406 -189.074219 C 18.28125 -193.035156 22.984375 -195.015625 28.429688 -195.015625 C 33.878906 -195.015625 38.582031 -193.035156 42.542969 -189.074219 C 46.507812 -185.109375 48.488281 -180.40625 48.488281 -174.957031 Z M 43.363281 -17.496094 L 43.363281 -174.957031 C 43.363281 -178.988281 41.882812 -182.484375 38.921875 -185.449219 C 35.957031 -188.410156 32.460938 -189.890625 28.429688 -189.890625 C 24.398438 -189.890625 20.902344 -188.410156 17.941406 -185.449219 C 14.980469 -182.484375 13.496094 -178.988281 13.496094 -174.957031 L 13.496094 -17.496094 C 13.496094 -13.464844 14.980469 -9.96875 17.941406 -7.007812 C 20.902344 -4.042969 24.398438 -2.5625 28.429688 -2.5625 C 32.460938 -2.5625 35.957031 -4.042969 38.921875 -7.007812 C 41.882812 -9.96875 43.363281 -13.464844 43.363281 -17.496094 Z M 43.363281 -17.496094 "/></g></g></g><g fill="#0b7077" fill-opacity="1"><g transform="translate(691.023364, 307.9132)"><g><path d="M 76.542969 14.933594 C 84.148438 14.933594 90.816406 12.65625 96.546875 8.109375 C 102.296875 3.542969 106.101562 -2.292969 107.964844 -9.398438 L 110.441406 -8.746094 L 111.652344 -6.488281 C 106.378906 -3.664062 100.828125 -1.453125 94.992188 0.148438 C 89.121094 1.757812 82.972656 2.5625 76.542969 2.5625 C 66.535156 2.5625 57.128906 0.671875 48.332031 -3.113281 C 39.554688 -6.886719 31.863281 -12.082031 25.25 -18.691406 C 18.640625 -25.300781 13.449219 -32.996094 9.675781 -41.769531 C 5.890625 -50.566406 3.996094 -59.972656 3.996094 -69.984375 L 3.996094 -122.472656 C 3.996094 -127.917969 5.980469 -132.621094 9.941406 -136.585938 C 13.90625 -140.546875 18.609375 -142.53125 24.058594 -142.53125 C 29.503906 -142.53125 34.207031 -140.546875 38.171875 -136.585938 C 42.132812 -132.621094 44.117188 -127.917969 44.117188 -122.472656 L 44.117188 -69.984375 C 44.117188 -65.417969 44.957031 -61.203125 46.636719 -57.335938 C 48.328125 -53.441406 50.65625 -50.015625 53.617188 -47.054688 C 56.578125 -44.09375 60.003906 -41.769531 63.898438 -40.074219 C 67.761719 -38.394531 71.980469 -37.554688 76.542969 -37.554688 C 81.109375 -37.554688 85.324219 -38.394531 89.191406 -40.074219 C 93.085938 -41.769531 96.511719 -44.09375 99.472656 -47.054688 C 102.433594 -50.015625 104.757812 -53.441406 106.453125 -57.335938 C 108.132812 -61.203125 108.972656 -65.417969 108.972656 -69.984375 L 108.972656 -122.472656 C 108.972656 -127.917969 110.953125 -132.621094 114.917969 -136.585938 C 118.882812 -140.546875 123.585938 -142.53125 129.03125 -142.53125 C 134.476562 -142.53125 139.183594 -140.546875 143.144531 -136.585938 C 147.109375 -132.621094 149.089844 -127.917969 149.089844 -122.472656 L 149.089844 -17.496094 C 149.089844 -7.484375 147.199219 1.917969 143.414062 10.71875 C 139.640625 19.492188 134.449219 27.1875 127.835938 33.796875 C 121.226562 40.40625 113.535156 45.601562 104.757812 49.375 C 95.960938 53.160156 86.554688 55.050781 76.542969 55.050781 C 67.289062 55.050781 58.230469 53.304688 49.363281 49.816406 C 40.464844 46.3125 32.429688 40.972656 25.25 33.796875 C 21.289062 29.832031 19.308594 25.128906 19.308594 19.683594 C 19.308594 14.238281 21.289062 9.53125 25.25 5.570312 C 29.214844 1.605469 33.917969 -0.375 39.367188 -0.375 C 44.8125 -0.375 49.515625 1.605469 53.480469 5.570312 L 51.667969 7.382812 L 53.433594 5.523438 C 56.835938 8.753906 60.476562 11.128906 64.355469 12.648438 C 68.246094 14.171875 72.3125 14.933594 76.542969 14.933594 Z M 76.542969 20.058594 C 71.664062 20.058594 66.980469 19.179688 62.488281 17.421875 C 57.984375 15.660156 53.789062 12.933594 49.902344 9.238281 L 49.855469 9.191406 C 46.894531 6.230469 43.394531 4.75 39.367188 4.75 C 35.335938 4.75 31.839844 6.230469 28.875 9.191406 C 25.914062 12.15625 24.433594 15.652344 24.433594 19.683594 C 24.433594 23.714844 25.914062 27.210938 28.875 30.171875 C 35.550781 36.847656 43.003906 41.804688 51.238281 45.046875 C 59.503906 48.296875 67.9375 49.925781 76.542969 49.925781 C 85.851562 49.925781 94.582031 48.171875 102.730469 44.664062 C 110.90625 41.148438 118.066406 36.320312 124.210938 30.171875 C 130.359375 24.027344 135.191406 16.867188 138.707031 8.691406 C 142.210938 0.539062 143.964844 -8.1875 143.964844 -17.496094 L 143.964844 -122.472656 C 143.964844 -126.5 142.484375 -130 139.523438 -132.960938 C 136.558594 -135.921875 133.0625 -137.402344 129.03125 -137.402344 C 125 -137.402344 121.503906 -135.921875 118.542969 -132.960938 C 115.582031 -130 114.097656 -126.5 114.097656 -122.472656 L 114.097656 -69.984375 C 114.097656 -64.707031 113.117188 -59.808594 111.152344 -55.292969 C 109.199219 -50.804688 106.515625 -46.851562 103.097656 -43.429688 C 99.679688 -40.011719 95.722656 -37.328125 91.234375 -35.375 C 86.71875 -33.410156 81.820312 -32.429688 76.542969 -32.429688 C 71.269531 -32.429688 66.371094 -33.410156 61.855469 -35.375 C 57.363281 -37.328125 53.410156 -40.011719 49.992188 -43.429688 C 46.574219 -46.851562 43.886719 -50.804688 41.9375 -55.292969 C 39.972656 -59.808594 38.988281 -64.707031 38.988281 -69.984375 L 38.988281 -122.472656 C 38.988281 -126.5 37.507812 -130 34.546875 -132.960938 C 31.585938 -135.921875 28.085938 -137.402344 24.058594 -137.402344 C 20.027344 -137.402344 16.53125 -135.921875 13.566406 -132.960938 C 10.605469 -130 9.125 -126.5 9.125 -122.472656 L 9.125 -69.984375 C 9.125 -60.675781 10.875 -51.945312 14.382812 -43.796875 C 17.898438 -35.621094 22.730469 -28.460938 28.875 -22.316406 C 35.023438 -16.167969 42.183594 -11.335938 50.355469 -7.820312 C 58.507812 -4.316406 67.238281 -2.5625 76.542969 -2.5625 C 82.511719 -2.5625 88.207031 -3.308594 93.636719 -4.796875 C 99.101562 -6.292969 104.300781 -8.363281 109.230469 -11.007812 L 114.410156 -13.78125 L 112.921875 -8.097656 C 110.773438 0.105469 106.378906 6.847656 99.734375 12.121094 C 93.070312 17.414062 85.339844 20.058594 76.542969 20.058594 Z M 76.542969 20.058594 "/></g></g></g><g fill="#fd661f" fill-opacity="1"><g transform="translate(4.367817, 307.9132)"><g><path d="M 164.03125 -78.734375 C 164.03125 -67.796875 161.976562 -57.539062 157.875 -47.96875 C 153.769531 -38.40625 148.164062 -30.066406 141.0625 -22.953125 C 133.957031 -15.847656 125.617188 -10.242188 116.046875 -6.140625 C 106.484375 -2.046875 96.234375 0 85.296875 0 C 74.359375 0 64.101562 -2.046875 54.53125 -6.140625 C 44.96875 -10.242188 36.628906 -15.847656 29.515625 -22.953125 C 22.410156 -30.066406 16.804688 -38.40625 12.703125 -47.96875 C 8.609375 -57.539062 6.5625 -67.796875 6.5625 -78.734375 L 6.5625 -157.46875 C 6.5625 -162.207031 8.289062 -166.304688 11.75 -169.765625 C 15.21875 -173.222656 19.320312 -174.953125 24.0625 -174.953125 C 28.800781 -174.953125 32.898438 -173.222656 36.359375 -169.765625 C 39.816406 -166.304688 41.546875 -162.207031 41.546875 -157.46875 L 41.546875 -78.734375 C 41.546875 -72.710938 42.6875 -67.0625 44.96875 -61.78125 C 47.25 -56.5 50.394531 -51.851562 54.40625 -47.84375 C 58.414062 -43.832031 63.0625 -40.6875 68.34375 -38.40625 C 73.625 -36.125 79.273438 -34.984375 85.296875 -34.984375 C 91.304688 -34.984375 96.953125 -36.125 102.234375 -38.40625 C 107.523438 -40.6875 112.175781 -43.832031 116.1875 -47.84375 C 120.195312 -51.851562 123.335938 -56.5 125.609375 -61.78125 C 127.890625 -67.0625 129.03125 -72.710938 129.03125 -78.734375 L 129.03125 -157.46875 C 129.03125 -162.207031 130.757812 -166.304688 134.21875 -169.765625 C 137.6875 -173.222656 141.789062 -174.953125 146.53125 -174.953125 C 151.269531 -174.953125 155.367188 -173.222656 158.828125 -169.765625 C 162.296875 -166.304688 164.03125 -162.207031 164.03125 -157.46875 Z M 164.03125 -78.734375 "/></g></g></g><g fill="#fd661f" fill-opacity="1"><g transform="translate(174.93831, 307.9132)"><g><path d="M 8.75 -122.46875 C 8.75 -127.9375 10.660156 -132.582031 14.484375 -136.40625 C 18.316406 -140.238281 22.96875 -142.15625 28.4375 -142.15625 C 32.4375 -142.15625 36.03125 -141.109375 39.21875 -139.015625 C 42.414062 -136.921875 44.742188 -134.140625 46.203125 -130.671875 C 51.484375 -133.585938 56.992188 -135.863281 62.734375 -137.5 C 68.472656 -139.144531 74.535156 -139.96875 80.921875 -139.96875 C 90.578125 -139.96875 99.640625 -138.144531 108.109375 -134.5 C 116.585938 -130.851562 124.015625 -125.835938 130.390625 -119.453125 C 136.773438 -113.078125 141.789062 -105.648438 145.4375 -97.171875 C 149.082031 -88.703125 150.90625 -79.640625 150.90625 -69.984375 L 150.90625 -17.5 C 150.90625 -12.757812 149.171875 -8.65625 145.703125 -5.1875 C 142.242188 -1.726562 138.144531 0 133.40625 0 C 128.664062 0 124.5625 -1.726562 121.09375 -5.1875 C 117.632812 -8.65625 115.90625 -12.757812 115.90625 -17.5 L 115.90625 -69.984375 C 115.90625 -74.898438 114.992188 -79.453125 113.171875 -83.640625 C 111.347656 -87.835938 108.84375 -91.53125 105.65625 -94.71875 C 102.46875 -97.914062 98.773438 -100.421875 94.578125 -102.234375 C 90.390625 -104.054688 85.835938 -104.96875 80.921875 -104.96875 C 75.992188 -104.96875 71.4375 -104.054688 67.25 -102.234375 C 63.0625 -100.421875 59.367188 -97.914062 56.171875 -94.71875 C 52.984375 -91.53125 50.476562 -87.835938 48.65625 -83.640625 C 46.832031 -79.453125 45.921875 -74.898438 45.921875 -69.984375 L 45.921875 -17.5 C 45.921875 -12.757812 44.1875 -8.65625 40.71875 -5.1875 C 37.257812 -1.726562 33.164062 0 28.4375 0 C 23.695312 0 19.59375 -1.726562 16.125 -5.1875 C 12.664062 -8.65625 10.9375 -12.757812 10.9375 -17.5 L 10.9375 -69.984375 C 10.9375 -82.554688 14.035156 -94.035156 20.234375 -104.421875 C 16.765625 -106.066406 13.984375 -108.484375 11.890625 -111.671875 C 9.796875 -114.859375 8.75 -118.457031 8.75 -122.46875 Z M 8.75 -122.46875 "/></g></g></g><g fill="#fd661f" fill-opacity="1"><g transform="translate(332.387972, 307.9132)"><g><path d="M 74.359375 0 C 64.703125 0 55.632812 -1.820312 47.15625 -5.46875 C 38.675781 -9.113281 31.25 -14.125 24.875 -20.5 C 18.5 -26.882812 13.488281 -34.3125 9.84375 -42.78125 C 6.195312 -51.257812 4.375 -60.328125 4.375 -69.984375 C 4.375 -79.640625 6.195312 -88.703125 9.84375 -97.171875 C 13.488281 -105.648438 18.5 -113.078125 24.875 -119.453125 C 31.25 -125.835938 38.675781 -130.851562 47.15625 -134.5 C 55.632812 -138.144531 64.703125 -139.96875 74.359375 -139.96875 C 84.015625 -139.96875 93.078125 -138.144531 101.546875 -134.5 C 110.023438 -130.851562 117.453125 -125.835938 123.828125 -119.453125 C 130.210938 -113.078125 135.226562 -105.648438 138.875 -97.171875 C 142.519531 -88.703125 144.34375 -79.640625 144.34375 -69.984375 C 144.34375 -65.242188 142.609375 -61.140625 139.140625 -57.671875 C 135.679688 -54.210938 131.582031 -52.484375 126.84375 -52.484375 L 44.015625 -52.484375 C 47.109375 -47.203125 51.296875 -42.960938 56.578125 -39.765625 C 61.867188 -36.578125 67.796875 -34.984375 74.359375 -34.984375 L 91.859375 -34.984375 C 96.597656 -34.984375 100.695312 -33.253906 104.15625 -29.796875 C 107.613281 -26.335938 109.34375 -22.238281 109.34375 -17.5 C 109.34375 -12.757812 107.613281 -8.65625 104.15625 -5.1875 C 100.695312 -1.726562 96.597656 0 91.859375 0 Z M 74.359375 -104.96875 C 67.796875 -104.96875 61.867188 -103.375 56.578125 -100.1875 C 51.296875 -97 47.109375 -92.765625 44.015625 -87.484375 L 104.703125 -87.484375 C 101.609375 -92.765625 97.367188 -97 91.984375 -100.1875 C 86.609375 -103.375 80.734375 -104.96875 74.359375 -104.96875 Z M 74.359375 -104.96875 "/></g></g></g><g fill="#fd661f" fill-opacity="1"><g transform="translate(481.090429, 307.9132)"><g><path d="M 45.921875 -17.5 C 45.921875 -12.757812 44.1875 -8.65625 40.71875 -5.1875 C 37.257812 -1.726562 33.164062 0 28.4375 0 C 23.695312 0 19.59375 -1.726562 16.125 -5.1875 C 12.664062 -8.65625 10.9375 -12.757812 10.9375 -17.5 L 10.9375 -157.46875 C 10.9375 -162.207031 12.664062 -166.304688 16.125 -169.765625 C 19.59375 -173.222656 23.695312 -174.953125 28.4375 -174.953125 L 133.40625 -174.953125 C 138.144531 -174.953125 142.242188 -173.222656 145.703125 -169.765625 C 149.171875 -166.304688 150.90625 -162.207031 150.90625 -157.46875 C 150.90625 -152.726562 149.171875 -148.625 145.703125 -145.15625 C 142.242188 -141.695312 138.144531 -139.96875 133.40625 -139.96875 L 45.921875 -139.96875 L 45.921875 -104.96875 L 111.53125 -104.96875 C 116.269531 -104.96875 120.367188 -103.238281 123.828125 -99.78125 C 127.296875 -96.320312 129.03125 -92.222656 129.03125 -87.484375 C 129.03125 -82.742188 127.296875 -78.640625 123.828125 -75.171875 C 120.367188 -71.710938 116.269531 -69.984375 111.53125 -69.984375 L 45.921875 -69.984375 Z M 45.921875 -17.5 "/></g></g></g><g fill="#fd661f" fill-opacity="1"><g transform="translate(634.166515, 307.9132)"><g><path d="M 45.921875 -17.5 C 45.921875 -12.757812 44.1875 -8.65625 40.71875 -5.1875 C 37.257812 -1.726562 33.164062 0 28.4375 0 C 23.695312 0 19.59375 -1.726562 16.125 -5.1875 C 12.664062 -8.65625 10.9375 -12.757812 10.9375 -17.5 L 10.9375 -174.953125 C 10.9375 -179.691406 12.664062 -183.789062 16.125 -187.25 C 19.59375 -190.71875 23.695312 -192.453125 28.4375 -192.453125 C 33.164062 -192.453125 37.257812 -190.71875 40.71875 -187.25 C 44.1875 -183.789062 45.921875 -179.691406 45.921875 -174.953125 Z M 45.921875 -17.5 "/></g></g></g><g fill="#fd661f" fill-opacity="1"><g transform="translate(691.023364, 307.9132)"><g><path d="M 76.546875 17.5 C 84.742188 17.5 91.941406 15.035156 98.140625 10.109375 C 104.335938 5.191406 108.4375 -1.09375 110.4375 -8.75 C 105.332031 -6.007812 99.957031 -3.863281 94.3125 -2.3125 C 88.664062 -0.769531 82.742188 0 76.546875 0 C 66.890625 0 57.820312 -1.820312 49.34375 -5.46875 C 40.863281 -9.113281 33.4375 -14.125 27.0625 -20.5 C 20.6875 -26.882812 15.675781 -34.3125 12.03125 -42.78125 C 8.382812 -51.257812 6.5625 -60.328125 6.5625 -69.984375 L 6.5625 -122.46875 C 6.5625 -127.207031 8.289062 -131.304688 11.75 -134.765625 C 15.21875 -138.234375 19.320312 -139.96875 24.0625 -139.96875 C 28.800781 -139.96875 32.898438 -138.234375 36.359375 -134.765625 C 39.816406 -131.304688 41.546875 -127.207031 41.546875 -122.46875 L 41.546875 -69.984375 C 41.546875 -65.066406 42.457031 -60.507812 44.28125 -56.3125 C 46.101562 -52.125 48.609375 -48.429688 51.796875 -45.234375 C 54.992188 -42.046875 58.6875 -39.539062 62.875 -37.71875 C 67.0625 -35.894531 71.617188 -34.984375 76.546875 -34.984375 C 81.460938 -34.984375 86.015625 -35.894531 90.203125 -37.71875 C 94.398438 -39.539062 98.09375 -42.046875 101.28125 -45.234375 C 104.46875 -48.429688 106.972656 -52.125 108.796875 -56.3125 C 110.617188 -60.507812 111.53125 -65.066406 111.53125 -69.984375 L 111.53125 -122.46875 C 111.53125 -127.207031 113.257812 -131.304688 116.71875 -134.765625 C 120.1875 -138.234375 124.289062 -139.96875 129.03125 -139.96875 C 133.769531 -139.96875 137.867188 -138.234375 141.328125 -134.765625 C 144.796875 -131.304688 146.53125 -127.207031 146.53125 -122.46875 L 146.53125 -17.5 C 146.53125 -7.832031 144.707031 1.234375 141.0625 9.703125 C 137.414062 18.179688 132.398438 25.609375 126.015625 31.984375 C 119.640625 38.359375 112.210938 43.367188 103.734375 47.015625 C 95.265625 50.660156 86.203125 52.484375 76.546875 52.484375 C 67.617188 52.484375 58.867188 50.796875 50.296875 47.421875 C 41.734375 44.054688 33.988281 38.910156 27.0625 31.984375 C 23.601562 28.523438 21.875 24.425781 21.875 19.6875 C 21.875 14.945312 23.601562 10.84375 27.0625 7.375 C 30.53125 3.914062 34.628906 2.1875 39.359375 2.1875 C 44.097656 2.1875 48.203125 3.914062 51.671875 7.375 C 55.316406 10.84375 59.234375 13.394531 63.421875 15.03125 C 67.609375 16.675781 71.984375 17.5 76.546875 17.5 Z M 76.546875 17.5 "/></g></g></g><g clip-path="url(#af0f6ee851)"><g transform="matrix(1, 0, 0, 1, 5, 92)"><g clip-path="url(#058010fb15)"><g fill="#09585e" fill-opacity="1"><g transform="translate(0.764847, 219.510826)"><g><path d="M 166.25 -78.734375 C 166.25 -67.492188 164.136719 -56.949219 159.917969 -47.101562 C 155.703125 -37.273438 149.945312 -28.703125 142.632812 -21.394531 C 135.324219 -14.082031 126.753906 -8.324219 116.925781 -4.109375 C 107.078125 0.109375 96.535156 2.222656 85.292969 2.222656 C 74.054688 2.222656 63.511719 0.109375 53.664062 -4.109375 C 43.832031 -8.324219 35.265625 -14.082031 27.953125 -21.394531 C 20.644531 -28.703125 14.882812 -37.273438 10.671875 -47.101562 C 6.449219 -56.949219 4.339844 -67.492188 4.339844 -78.734375 L 4.339844 -157.464844 C 4.339844 -162.816406 6.289062 -167.441406 10.183594 -171.339844 C 14.082031 -175.234375 18.707031 -177.183594 24.058594 -177.183594 C 29.410156 -177.183594 34.035156 -175.234375 37.929688 -171.339844 C 41.828125 -167.441406 43.773438 -162.816406 43.773438 -157.464844 L 43.773438 -78.734375 C 43.773438 -73.023438 44.851562 -67.667969 47.011719 -62.664062 C 49.175781 -57.636719 52.164062 -53.222656 55.972656 -49.410156 C 59.78125 -45.601562 64.199219 -42.617188 69.222656 -40.449219 C 74.230469 -38.292969 79.585938 -37.214844 85.292969 -37.214844 C 91.003906 -37.214844 96.359375 -38.292969 101.363281 -40.449219 C 106.390625 -42.617188 110.804688 -45.601562 114.617188 -49.410156 C 118.425781 -53.222656 121.410156 -57.636719 123.578125 -62.664062 C 125.734375 -67.667969 126.8125 -73.023438 126.8125 -78.734375 L 126.8125 -157.464844 C 126.8125 -162.816406 128.761719 -167.441406 132.660156 -171.339844 C 136.554688 -175.234375 141.179688 -177.183594 146.53125 -177.183594 C 151.882812 -177.183594 156.507812 -175.234375 160.402344 -171.339844 C 164.300781 -167.441406 166.25 -162.816406 166.25 -157.464844 Z M 161.804688 -78.734375 L 161.804688 -157.464844 C 161.804688 -161.589844 160.292969 -165.167969 157.261719 -168.199219 C 154.234375 -171.226562 150.65625 -172.742188 146.53125 -172.742188 C 142.40625 -172.742188 138.828125 -171.226562 135.800781 -168.199219 C 132.769531 -165.167969 131.257812 -161.589844 131.257812 -157.464844 L 131.257812 -78.734375 C 131.257812 -72.414062 130.054688 -66.46875 127.65625 -60.90625 C 125.265625 -55.359375 121.964844 -50.480469 117.757812 -46.269531 C 113.546875 -42.0625 108.667969 -38.761719 103.121094 -36.371094 C 97.558594 -33.972656 91.613281 -32.769531 85.292969 -32.769531 C 78.972656 -32.769531 73.03125 -33.972656 67.464844 -36.371094 C 61.917969 -38.761719 57.042969 -42.0625 52.832031 -46.269531 C 48.621094 -50.480469 45.320312 -55.359375 42.929688 -60.90625 C 40.53125 -66.46875 39.332031 -72.414062 39.332031 -78.734375 L 39.332031 -157.464844 C 39.332031 -161.589844 37.816406 -165.167969 34.789062 -168.199219 C 31.757812 -171.226562 28.183594 -172.742188 24.058594 -172.742188 C 19.933594 -172.742188 16.355469 -171.226562 13.324219 -168.199219 C 10.296875 -165.167969 8.78125 -161.589844 8.78125 -157.464844 L 8.78125 -78.734375 C 8.78125 -68.101562 10.773438 -58.140625 14.753906 -48.851562 C 18.742188 -39.546875 24.1875 -31.441406 31.09375 -24.535156 C 38 -17.628906 46.109375 -12.179688 55.414062 -8.191406 C 64.703125 -4.210938 74.664062 -2.222656 85.292969 -2.222656 C 95.925781 -2.222656 105.886719 -4.210938 115.175781 -8.191406 C 124.480469 -12.179688 132.585938 -17.628906 139.492188 -24.535156 C 146.398438 -31.441406 151.847656 -39.546875 155.835938 -48.851562 C 159.816406 -58.140625 161.804688 -68.101562 161.804688 -78.734375 Z M 161.804688 -78.734375 "/></g></g></g><g fill="#09585e" fill-opacity="1"><g transform="translate(171.352934, 219.510826)"><g><path d="M 6.527344 -122.472656 C 6.527344 -128.554688 8.65625 -133.726562 12.917969 -137.988281 C 17.179688 -142.246094 22.351562 -144.378906 28.429688 -144.378906 C 32.882812 -144.378906 36.890625 -143.207031 40.449219 -140.871094 C 44.015625 -138.527344 46.617188 -135.414062 48.25 -131.535156 L 46.199219 -130.675781 L 45.128906 -132.621094 C 50.558594 -135.617188 56.226562 -137.957031 62.128906 -139.644531 C 68.070312 -141.34375 74.332031 -142.191406 80.921875 -142.191406 C 90.882812 -142.191406 100.242188 -140.308594 109 -136.542969 C 117.734375 -132.785156 125.390625 -127.617188 131.972656 -121.039062 C 138.550781 -114.457031 143.71875 -106.800781 147.476562 -98.0625 C 151.242188 -89.308594 153.125 -79.949219 153.125 -69.984375 L 153.125 -17.496094 C 153.125 -12.144531 151.179688 -7.519531 147.28125 -3.625 C 143.386719 0.273438 138.761719 2.222656 133.410156 2.222656 C 128.058594 2.222656 123.433594 0.273438 119.535156 -3.625 C 115.640625 -7.519531 113.691406 -12.144531 113.691406 -17.496094 L 113.691406 -69.984375 C 113.691406 -74.597656 112.839844 -78.859375 111.140625 -82.769531 C 109.429688 -86.703125 107.082031 -90.164062 104.089844 -93.15625 C 101.101562 -96.144531 97.636719 -98.496094 93.703125 -100.207031 C 89.792969 -101.90625 85.53125 -102.757812 80.921875 -102.757812 C 76.308594 -102.757812 72.046875 -101.90625 68.136719 -100.207031 C 64.203125 -98.496094 60.742188 -96.144531 57.75 -93.15625 C 54.757812 -90.164062 52.410156 -86.703125 50.699219 -82.769531 C 49 -78.859375 48.148438 -74.597656 48.148438 -69.984375 L 48.148438 -17.496094 C 48.148438 -12.144531 46.199219 -7.519531 42.304688 -3.625 C 38.40625 0.273438 33.785156 2.222656 28.429688 2.222656 C 23.078125 2.222656 18.457031 0.273438 14.558594 -3.625 C 10.664062 -7.519531 8.714844 -12.144531 8.714844 -17.496094 L 8.714844 -69.984375 C 8.714844 -82.96875 11.917969 -94.828125 18.324219 -105.570312 L 20.230469 -104.429688 L 19.277344 -102.421875 C 15.441406 -104.242188 12.359375 -106.917969 10.035156 -110.457031 C 7.695312 -114.015625 6.527344 -118.019531 6.527344 -122.472656 Z M 10.96875 -122.472656 C 10.96875 -118.90625 11.894531 -115.714844 13.75 -112.894531 C 15.617188 -110.054688 18.09375 -107.902344 21.179688 -106.4375 L 23.390625 -105.390625 L 22.136719 -103.292969 C 16.148438 -93.253906 13.15625 -82.152344 13.15625 -69.984375 L 13.15625 -17.496094 C 13.15625 -13.371094 14.671875 -9.792969 17.699219 -6.765625 C 20.730469 -3.734375 24.304688 -2.222656 28.429688 -2.222656 C 32.554688 -2.222656 36.132812 -3.734375 39.164062 -6.765625 C 42.191406 -9.792969 43.707031 -13.371094 43.707031 -17.496094 L 43.707031 -69.984375 C 43.707031 -75.214844 44.679688 -80.066406 46.625 -84.539062 C 48.558594 -88.988281 51.21875 -92.90625 54.609375 -96.296875 C 57.996094 -99.683594 61.914062 -102.347656 66.367188 -104.28125 C 70.839844 -106.226562 75.691406 -107.199219 80.921875 -107.199219 C 86.148438 -107.199219 91 -106.226562 95.476562 -104.28125 C 99.925781 -102.347656 103.84375 -99.683594 107.230469 -96.296875 C 110.621094 -92.90625 113.28125 -88.988281 115.214844 -84.539062 C 117.160156 -80.066406 118.132812 -75.214844 118.132812 -69.984375 L 118.132812 -17.496094 C 118.132812 -13.371094 119.648438 -9.792969 122.675781 -6.765625 C 125.707031 -3.734375 129.285156 -2.222656 133.410156 -2.222656 C 137.535156 -2.222656 141.109375 -3.734375 144.140625 -6.765625 C 147.167969 -9.792969 148.683594 -13.371094 148.683594 -17.496094 L 148.683594 -69.984375 C 148.683594 -79.339844 146.921875 -88.113281 143.398438 -96.308594 C 139.863281 -104.523438 135.007812 -111.71875 128.832031 -117.894531 C 122.652344 -124.074219 115.457031 -128.929688 107.242188 -132.460938 C 99.050781 -135.988281 90.273438 -137.75 80.921875 -137.75 C 74.75 -137.75 68.890625 -136.957031 63.351562 -135.375 C 57.769531 -133.78125 52.414062 -131.566406 47.273438 -128.730469 L 45.113281 -127.539062 L 44.152344 -129.8125 C 42.871094 -132.859375 40.824219 -135.308594 38.011719 -137.15625 C 35.191406 -139.007812 31.996094 -139.9375 28.429688 -139.9375 C 23.578125 -139.9375 19.453125 -138.238281 16.058594 -134.84375 C 12.667969 -131.453125 10.96875 -127.328125 10.96875 -122.472656 Z M 10.96875 -122.472656 "/></g></g></g><g fill="#09585e" fill-opacity="1"><g transform="translate(328.818875, 219.510826)"><g><path d="M 74.359375 2.222656 C 64.394531 2.222656 55.035156 0.339844 46.28125 -3.425781 C 37.542969 -7.183594 29.886719 -12.351562 23.308594 -18.933594 C 16.726562 -25.511719 11.558594 -33.171875 7.800781 -41.90625 C 4.035156 -50.660156 2.152344 -60.019531 2.152344 -69.984375 C 2.152344 -79.949219 4.035156 -89.308594 7.800781 -98.0625 C 11.558594 -106.800781 16.726562 -114.457031 23.308594 -121.039062 C 29.886719 -127.617188 37.542969 -132.785156 46.28125 -136.542969 C 55.035156 -140.308594 64.394531 -142.191406 74.359375 -142.191406 C 84.324219 -142.191406 93.683594 -140.308594 102.4375 -136.542969 C 111.171875 -132.785156 118.832031 -127.617188 125.410156 -121.039062 C 131.992188 -114.457031 137.160156 -106.800781 140.917969 -98.0625 C 144.683594 -89.308594 146.566406 -79.949219 146.566406 -69.984375 C 146.566406 -64.632812 144.617188 -60.007812 140.71875 -56.113281 C 136.824219 -52.214844 132.199219 -50.265625 126.847656 -50.265625 L 44.015625 -50.265625 L 44.015625 -52.488281 L 45.929688 -53.613281 C 48.839844 -48.652344 52.773438 -44.671875 57.738281 -41.679688 C 62.667969 -38.703125 68.210938 -37.214844 74.359375 -37.214844 L 91.855469 -37.214844 C 97.207031 -37.214844 101.832031 -35.265625 105.726562 -31.367188 C 109.625 -27.472656 111.574219 -22.847656 111.574219 -17.496094 C 111.574219 -12.144531 109.625 -7.519531 105.726562 -3.625 C 101.832031 0.273438 97.207031 2.222656 91.855469 2.222656 Z M 74.359375 -2.222656 L 91.855469 -2.222656 C 95.980469 -2.222656 99.558594 -3.734375 102.585938 -6.765625 C 105.617188 -9.792969 107.128906 -13.371094 107.128906 -17.496094 C 107.128906 -21.621094 105.617188 -25.199219 102.585938 -28.226562 C 99.558594 -31.257812 95.980469 -32.769531 91.855469 -32.769531 L 74.359375 -32.769531 C 67.386719 -32.769531 61.078125 -34.472656 55.441406 -37.875 C 49.835938 -41.257812 45.386719 -45.753906 42.097656 -51.367188 L 40.136719 -54.710938 L 126.847656 -54.710938 C 130.972656 -54.710938 134.550781 -56.222656 137.578125 -59.253906 C 140.609375 -62.28125 142.121094 -65.859375 142.121094 -69.984375 C 142.121094 -79.339844 140.359375 -88.113281 136.835938 -96.308594 C 133.304688 -104.523438 128.449219 -111.71875 122.269531 -117.894531 C 116.09375 -124.074219 108.894531 -128.929688 100.683594 -132.460938 C 92.488281 -135.988281 83.714844 -137.75 74.359375 -137.75 C 65.003906 -137.75 56.230469 -135.988281 48.035156 -132.460938 C 39.820312 -128.929688 32.625 -124.074219 26.449219 -117.894531 C 20.269531 -111.71875 15.414062 -104.523438 11.882812 -96.308594 C 8.359375 -88.113281 6.59375 -79.339844 6.59375 -69.984375 C 6.59375 -60.628906 8.359375 -51.855469 11.882812 -43.660156 C 15.414062 -35.449219 20.269531 -28.25 26.449219 -22.074219 C 32.625 -15.894531 39.820312 -11.039062 48.035156 -7.507812 C 56.230469 -3.984375 65.003906 -2.222656 74.359375 -2.222656 Z M 74.359375 -102.757812 C 68.210938 -102.757812 62.667969 -101.269531 57.738281 -98.292969 C 52.773438 -95.296875 48.839844 -91.320312 45.929688 -86.359375 L 44.015625 -87.480469 L 44.015625 -89.703125 L 104.703125 -89.703125 L 104.703125 -87.480469 L 102.789062 -86.359375 C 99.882812 -91.3125 95.90625 -95.289062 90.859375 -98.28125 C 85.832031 -101.265625 80.332031 -102.757812 74.359375 -102.757812 Z M 74.359375 -107.199219 C 81.144531 -107.199219 87.398438 -105.5 93.125 -102.105469 C 98.832031 -98.71875 103.328125 -94.21875 106.621094 -88.605469 L 108.582031 -85.261719 L 40.136719 -85.261719 L 42.097656 -88.605469 C 45.386719 -94.214844 49.835938 -98.710938 55.441406 -102.09375 C 61.078125 -105.496094 67.386719 -107.199219 74.359375 -107.199219 Z M 74.359375 -107.199219 "/></g></g></g><g fill="#ffffff" fill-opacity="1"><g transform="translate(0.764847, 219.510826)"><g><path d="M 164.03125 -78.734375 C 164.03125 -67.796875 161.976562 -57.539062 157.875 -47.96875 C 153.769531 -38.40625 148.164062 -30.066406 141.0625 -22.953125 C 133.957031 -15.847656 125.617188 -10.242188 116.046875 -6.140625 C 106.484375 -2.046875 96.234375 0 85.296875 0 C 74.359375 0 64.101562 -2.046875 54.53125 -6.140625 C 44.96875 -10.242188 36.628906 -15.847656 29.515625 -22.953125 C 22.410156 -30.066406 16.804688 -38.40625 12.703125 -47.96875 C 8.609375 -57.539062 6.5625 -67.796875 6.5625 -78.734375 L 6.5625 -157.46875 C 6.5625 -162.207031 8.289062 -166.304688 11.75 -169.765625 C 15.21875 -173.222656 19.320312 -174.953125 24.0625 -174.953125 C 28.800781 -174.953125 32.898438 -173.222656 36.359375 -169.765625 C 39.816406 -166.304688 41.546875 -162.207031 41.546875 -157.46875 L 41.546875 -78.734375 C 41.546875 -72.710938 42.6875 -67.0625 44.96875 -61.78125 C 47.25 -56.5 50.394531 -51.851562 54.40625 -47.84375 C 58.414062 -43.832031 63.0625 -40.6875 68.34375 -38.40625 C 73.625 -36.125 79.273438 -34.984375 85.296875 -34.984375 C 91.304688 -34.984375 96.953125 -36.125 102.234375 -38.40625 C 107.523438 -40.6875 112.175781 -43.832031 116.1875 -47.84375 C 120.195312 -51.851562 123.335938 -56.5 125.609375 -61.78125 C 127.890625 -67.0625 129.03125 -72.710938 129.03125 -78.734375 L 129.03125 -157.46875 C 129.03125 -162.207031 130.757812 -166.304688 134.21875 -169.765625 C 137.6875 -173.222656 141.789062 -174.953125 146.53125 -174.953125 C 151.269531 -174.953125 155.367188 -173.222656 158.828125 -169.765625 C 162.296875 -166.304688 164.03125 -162.207031 164.03125 -157.46875 Z M 164.03125 -78.734375 "/></g></g></g><g fill="#ffffff" fill-opacity="1"><g transform="translate(171.352934, 219.510826)"><g><path d="M 8.75 -122.46875 C 8.75 -127.9375 10.660156 -132.582031 14.484375 -136.40625 C 18.316406 -140.238281 22.96875 -142.15625 28.4375 -142.15625 C 32.4375 -142.15625 36.03125 -141.109375 39.21875 -139.015625 C 42.414062 -136.921875 44.742188 -134.140625 46.203125 -130.671875 C 51.484375 -133.585938 56.992188 -135.863281 62.734375 -137.5 C 68.472656 -139.144531 74.535156 -139.96875 80.921875 -139.96875 C 90.578125 -139.96875 99.640625 -138.144531 108.109375 -134.5 C 116.585938 -130.851562 124.015625 -125.835938 130.390625 -119.453125 C 136.773438 -113.078125 141.789062 -105.648438 145.4375 -97.171875 C 149.082031 -88.703125 150.90625 -79.640625 150.90625 -69.984375 L 150.90625 -17.5 C 150.90625 -12.757812 149.171875 -8.65625 145.703125 -5.1875 C 142.242188 -1.726562 138.144531 0 133.40625 0 C 128.664062 0 124.5625 -1.726562 121.09375 -5.1875 C 117.632812 -8.65625 115.90625 -12.757812 115.90625 -17.5 L 115.90625 -69.984375 C 115.90625 -74.898438 114.992188 -79.453125 113.171875 -83.640625 C 111.347656 -87.835938 108.84375 -91.53125 105.65625 -94.71875 C 102.46875 -97.914062 98.773438 -100.421875 94.578125 -102.234375 C 90.390625 -104.054688 85.835938 -104.96875 80.921875 -104.96875 C 75.992188 -104.96875 71.4375 -104.054688 67.25 -102.234375 C 63.0625 -100.421875 59.367188 -97.914062 56.171875 -94.71875 C 52.984375 -91.53125 50.476562 -87.835938 48.65625 -83.640625 C 46.832031 -79.453125 45.921875 -74.898438 45.921875 -69.984375 L 45.921875 -17.5 C 45.921875 -12.757812 44.1875 -8.65625 40.71875 -5.1875 C 37.257812 -1.726562 33.164062 0 28.4375 0 C 23.695312 0 19.59375 -1.726562 16.125 -5.1875 C 12.664062 -8.65625 10.9375 -12.757812 10.9375 -17.5 L 10.9375 -69.984375 C 10.9375 -82.554688 14.035156 -94.035156 20.234375 -104.421875 C 16.765625 -106.066406 13.984375 -108.484375 11.890625 -111.671875 C 9.796875 -114.859375 8.75 -118.457031 8.75 -122.46875 Z M 8.75 -122.46875 "/></g></g></g><g fill="#ffffff" fill-opacity="1"><g transform="translate(328.818875, 219.510826)"><g><path d="M 74.359375 0 C 64.703125 0 55.632812 -1.820312 47.15625 -5.46875 C 38.675781 -9.113281 31.25 -14.125 24.875 -20.5 C 18.5 -26.882812 13.488281 -34.3125 9.84375 -42.78125 C 6.195312 -51.257812 4.375 -60.328125 4.375 -69.984375 C 4.375 -79.640625 6.195312 -88.703125 9.84375 -97.171875 C 13.488281 -105.648438 18.5 -113.078125 24.875 -119.453125 C 31.25 -125.835938 38.675781 -130.851562 47.15625 -134.5 C 55.632812 -138.144531 64.703125 -139.96875 74.359375 -139.96875 C 84.015625 -139.96875 93.078125 -138.144531 101.546875 -134.5 C 110.023438 -130.851562 117.453125 -125.835938 123.828125 -119.453125 C 130.210938 -113.078125 135.226562 -105.648438 138.875 -97.171875 C 142.519531 -88.703125 144.34375 -79.640625 144.34375 -69.984375 C 144.34375 -65.242188 142.609375 -61.140625 139.140625 -57.671875 C 135.679688 -54.210938 131.582031 -52.484375 126.84375 -52.484375 L 44.015625 -52.484375 C 47.109375 -47.203125 51.296875 -42.960938 56.578125 -39.765625 C 61.867188 -36.578125 67.796875 -34.984375 74.359375 -34.984375 L 91.859375 -34.984375 C 96.597656 -34.984375 100.695312 -33.253906 104.15625 -29.796875 C 107.613281 -26.335938 109.34375 -22.238281 109.34375 -17.5 C 109.34375 -12.757812 107.613281 -8.65625 104.15625 -5.1875 C 100.695312 -1.726562 96.597656 0 91.859375 0 Z M 74.359375 -104.96875 C 67.796875 -104.96875 61.867188 -103.375 56.578125 -100.1875 C 51.296875 -97 47.109375 -92.765625 44.015625 -87.484375 L 104.703125 -87.484375 C 101.609375 -92.765625 97.367188 -97 91.984375 -100.1875 C 86.609375 -103.375 80.734375 -104.96875 74.359375 -104.96875 Z M 74.359375 -104.96875 "/></g></g></g></g></g></g><g clip-path="url(#d1975e81b5)"><path stroke-linecap="round" transform="matrix(3.640054, 0.0215376, -0.0215376, 3.640054, 289.537699, 29.250515)" fill="none" stroke-linejoin="miter" d="M 5.746567 14.983233 C 26.652354 0.317557 47.558117 0.338733 68.463863 15.047835 " stroke="#ff751f" stroke-width="8" stroke-opacity="1" stroke-miterlimit="4"/></g><g clip-path="url(#a4056d4448)"><g clip-path="url(#93a04acbbf)"><g transform="matrix(1, 0, 0, 1, 413, 69)"><g clip-path="url(#ad83482a67)"><g clip-path="url(#1c9be14b9e)"><g clip-path="url(#1d26494800)"><path fill="#09585e" d="M 0.460938 0.160156 L 25.492188 0.160156 L 25.492188 25.191406 L 0.460938 25.191406 Z M 0.460938 0.160156 " fill-opacity="1" fill-rule="nonzero"/></g></g></g></g></g></g><g clip-path="url(#b33da250a1)"><g clip-path="url(#173dd0ce2c)"><g transform="matrix(1, 0, 0, 1, 287, 0.000000000000038893)"><g clip-path="url(#4d79c99c83)"><g clip-path="url(#6a8ca2aba9)"><g clip-path="url(#a487c9c80b)"><g clip-path="url(#94c350ee76)"><path fill="#ffffff" d="M 253.304688 64.414062 L 269.320312 68.394531 L 297.996094 94.789062 Z M 241.742188 80.457031 C 241.777344 80.472656 241.820312 80.488281 241.863281 80.503906 L 304.019531 104.703125 L 177.265625 96.535156 L 215.078125 70.074219 Z M 246.949219 63.503906 L 301.9375 100.875 L 243.929688 78.285156 Z M 185.769531 52.191406 C 184.992188 51.917969 184.144531 52.328125 183.871094 53.101562 C 183.601562 53.878906 184.007812 54.726562 184.78125 55 L 184.894531 55.039062 L 185.179688 55.136719 L 185.460938 55.238281 L 185.734375 55.335938 L 186.011719 55.433594 L 186.285156 55.527344 L 186.554688 55.628906 L 186.824219 55.726562 L 187.355469 55.929688 L 187.617188 56.023438 L 187.875 56.121094 L 188.128906 56.21875 L 188.386719 56.316406 L 188.640625 56.414062 L 188.890625 56.515625 L 189.140625 56.609375 L 189.382812 56.703125 L 189.628906 56.800781 L 189.871094 56.894531 L 190.117188 56.992188 L 190.296875 57.066406 C 191.0625 57.375 191.929688 57.003906 192.238281 56.238281 C 192.542969 55.476562 192.171875 54.605469 191.410156 54.300781 L 191.222656 54.226562 L 190.976562 54.128906 L 190.726562 54.03125 L 190.472656 53.933594 L 190.222656 53.832031 L 189.964844 53.734375 L 189.710938 53.636719 L 189.453125 53.539062 L 189.1875 53.441406 L 188.921875 53.339844 L 188.660156 53.238281 L 188.390625 53.140625 L 188.121094 53.039062 L 187.851562 52.941406 L 187.019531 52.636719 L 186.734375 52.535156 L 186.453125 52.433594 L 186.171875 52.335938 L 185.882812 52.234375 Z M 171.367188 47.890625 C 170.566406 47.6875 169.757812 48.175781 169.558594 48.972656 C 169.355469 49.773438 169.839844 50.582031 170.640625 50.78125 L 170.816406 50.828125 L 171.1875 50.921875 L 172.289062 51.203125 L 172.648438 51.300781 L 173.011719 51.398438 L 173.371094 51.492188 L 173.726562 51.59375 L 174.082031 51.691406 L 174.433594 51.785156 L 174.78125 51.878906 L 175.128906 51.976562 L 175.472656 52.070312 L 175.8125 52.167969 L 176.15625 52.265625 L 176.335938 52.316406 C 177.128906 52.546875 177.953125 52.09375 178.183594 51.300781 C 178.410156 50.511719 177.957031 49.683594 177.167969 49.457031 L 176.980469 49.40625 L 176.632812 49.304688 L 176.28125 49.203125 L 175.929688 49.105469 L 175.574219 49.007812 L 175.21875 48.90625 L 174.859375 48.8125 L 174.496094 48.714844 L 174.136719 48.617188 L 173.402344 48.429688 L 173.035156 48.332031 L 172.660156 48.234375 L 172.285156 48.132812 L 171.910156 48.035156 L 171.53125 47.941406 Z M 156.667969 44.84375 C 155.855469 44.707031 155.089844 45.25 154.953125 46.0625 C 154.816406 46.875 155.363281 47.644531 156.175781 47.777344 L 156.539062 47.835938 L 156.980469 47.910156 L 157.417969 47.984375 L 157.859375 48.058594 L 158.292969 48.136719 L 158.726562 48.210938 L 159.160156 48.289062 L 159.585938 48.367188 L 160.445312 48.523438 L 161.289062 48.679688 L 161.707031 48.761719 L 161.980469 48.820312 C 162.789062 48.980469 163.570312 48.457031 163.730469 47.644531 C 163.894531 46.835938 163.367188 46.054688 162.558594 45.894531 L 162.28125 45.835938 L 161.855469 45.75 L 161.425781 45.667969 L 160.996094 45.582031 L 160.558594 45.5 L 160.121094 45.421875 L 159.6875 45.339844 L 159.246094 45.257812 L 158.363281 45.101562 L 157.917969 45.023438 L 157.46875 44.945312 L 157.019531 44.871094 Z M 141.792969 42.929688 C 140.972656 42.851562 140.25 43.453125 140.171875 44.277344 C 140.097656 45.097656 140.699219 45.820312 141.519531 45.898438 L 141.820312 45.921875 L 142.828125 46.023438 L 143.328125 46.078125 L 143.824219 46.128906 L 144.324219 46.179688 L 144.820312 46.234375 L 145.804688 46.34375 L 146.292969 46.402344 L 146.78125 46.457031 L 147.265625 46.515625 L 147.402344 46.535156 C 148.21875 46.636719 148.960938 46.050781 149.058594 45.234375 C 149.160156 44.417969 148.578125 43.675781 147.761719 43.578125 L 147.617188 43.5625 L 147.125 43.5 L 146.132812 43.382812 L 145.632812 43.332031 L 145.132812 43.277344 L 143.621094 43.125 L 143.109375 43.078125 L 142.601562 43.03125 L 142.089844 42.980469 Z M 126.785156 42.148438 C 125.960938 42.148438 125.296875 42.8125 125.296875 43.636719 C 125.292969 44.464844 125.960938 45.125 126.785156 45.128906 L 127.472656 45.128906 L 128.023438 45.132812 L 129.125 45.148438 L 129.671875 45.160156 L 130.214844 45.171875 L 130.757812 45.191406 L 131.300781 45.207031 L 131.84375 45.226562 L 132.378906 45.25 L 132.664062 45.265625 C 133.484375 45.304688 134.183594 44.675781 134.222656 43.855469 C 134.261719 43.035156 133.632812 42.335938 132.8125 42.292969 L 132.511719 42.28125 L 131.960938 42.253906 L 130.851562 42.214844 L 130.289062 42.195312 L 129.734375 42.183594 L 129.175781 42.171875 L 128.609375 42.160156 L 128.046875 42.15625 L 127.480469 42.152344 L 126.914062 42.152344 Z M 111.757812 43.011719 C 110.941406 43.105469 110.351562 43.839844 110.441406 44.660156 C 110.535156 45.472656 111.273438 46.0625 112.089844 45.972656 L 112.140625 45.964844 L 112.722656 45.902344 L 113.300781 45.839844 L 113.878906 45.785156 L 114.453125 45.726562 L 115.03125 45.671875 L 115.609375 45.621094 L 116.183594 45.574219 L 117.332031 45.488281 L 117.902344 45.445312 L 117.949219 45.441406 C 118.773438 45.386719 119.398438 44.679688 119.339844 43.859375 C 119.285156 43.035156 118.578125 42.414062 117.757812 42.472656 L 117.695312 42.476562 L 117.109375 42.515625 L 115.351562 42.65625 L 113.582031 42.820312 L 112.996094 42.882812 L 112.402344 42.941406 L 111.8125 43.011719 Z M 96.917969 45.480469 C 96.113281 45.65625 95.601562 46.449219 95.777344 47.253906 C 95.953125 48.058594 96.75 48.566406 97.554688 48.394531 L 98.117188 48.269531 L 98.703125 48.140625 L 99.292969 48.019531 L 99.878906 47.898438 L 100.460938 47.777344 L 101.046875 47.664062 L 101.632812 47.546875 L 102.222656 47.4375 L 102.808594 47.328125 L 103.339844 47.234375 C 104.152344 47.09375 104.695312 46.320312 104.546875 45.511719 C 104.40625 44.699219 103.632812 44.15625 102.824219 44.304688 L 102.28125 44.402344 L 101.679688 44.511719 L 101.082031 44.625 L 100.480469 44.738281 L 99.886719 44.855469 L 99.289062 44.972656 L 98.6875 45.101562 L 98.085938 45.226562 L 97.488281 45.359375 Z M 82.417969 49.535156 C 81.640625 49.800781 81.222656 50.648438 81.484375 51.425781 C 81.75 52.203125 82.597656 52.621094 83.375 52.355469 L 83.566406 52.292969 L 84.722656 51.910156 L 85.300781 51.722656 L 85.878906 51.539062 L 86.457031 51.351562 L 87.035156 51.171875 L 87.617188 50.992188 L 88.199219 50.816406 L 88.777344 50.644531 L 89 50.582031 C 89.792969 50.355469 90.25 49.527344 90.015625 48.738281 C 89.789062 47.949219 88.964844 47.492188 88.175781 47.722656 L 87.941406 47.789062 L 86.753906 48.140625 L 86.160156 48.320312 L 85.570312 48.503906 L 84.976562 48.691406 L 84.386719 48.878906 L 83.796875 49.070312 L 82.625 49.460938 Z M 68.476562 55.234375 C 67.734375 55.589844 67.421875 56.476562 67.777344 57.214844 C 68.132812 57.960938 69.023438 58.273438 69.761719 57.917969 L 70.0625 57.769531 L 70.613281 57.507812 L 71.167969 57.25 L 72.277344 56.742188 L 72.832031 56.492188 L 73.386719 56.246094 L 73.945312 56 L 74.503906 55.761719 L 75.0625 55.519531 L 75.136719 55.488281 C 75.894531 55.167969 76.253906 54.300781 75.9375 53.542969 C 75.617188 52.785156 74.746094 52.421875 73.988281 52.742188 L 73.90625 52.777344 L 73.328125 53.023438 L 72.757812 53.269531 L 71.625 53.769531 L 71.058594 54.023438 L 70.496094 54.285156 L 69.929688 54.542969 L 69.367188 54.808594 L 68.808594 55.074219 Z M 55.359375 62.6875 C 54.675781 63.140625 54.484375 64.066406 54.933594 64.75 C 55.386719 65.433594 56.3125 65.625 56.996094 65.175781 L 57.421875 64.890625 L 57.925781 64.558594 L 58.433594 64.234375 L 58.941406 63.90625 L 59.453125 63.585938 L 59.964844 63.269531 L 60.480469 62.953125 L 60.992188 62.644531 L 61.515625 62.332031 L 61.980469 62.058594 C 62.691406 61.640625 62.929688 60.726562 62.511719 60.019531 C 62.09375 59.308594 61.183594 59.066406 60.472656 59.484375 L 59.992188 59.769531 L 59.457031 60.089844 L 58.925781 60.410156 L 57.871094 61.058594 L 57.34375 61.394531 L 56.820312 61.726562 L 56.296875 62.0625 Z M 43.464844 72.023438 C 42.859375 72.582031 42.820312 73.523438 43.378906 74.128906 C 43.9375 74.730469 44.878906 74.769531 45.484375 74.210938 L 45.601562 74.101562 L 46.046875 73.691406 L 46.9375 72.894531 L 47.382812 72.5 L 47.835938 72.105469 L 48.75 71.332031 L 49.207031 70.949219 L 49.671875 70.570312 L 49.910156 70.378906 C 50.554688 69.863281 50.65625 68.925781 50.140625 68.285156 C 49.625 67.640625 48.6875 67.539062 48.042969 68.054688 L 47.792969 68.257812 L 47.3125 68.648438 L 46.835938 69.042969 L 46.363281 69.441406 L 45.894531 69.847656 L 45.425781 70.25 L 44.960938 70.660156 L 44.503906 71.074219 L 44.042969 71.484375 L 43.585938 71.90625 Z M 33.304688 83.25 C 32.8125 83.902344 32.9375 84.84375 33.589844 85.335938 C 34.246094 85.832031 35.183594 85.707031 35.679688 85.050781 L 35.925781 84.722656 L 36.296875 84.242188 L 36.664062 83.769531 L 37.035156 83.296875 L 37.410156 82.828125 L 38.167969 81.898438 L 38.554688 81.4375 L 38.945312 80.984375 L 39.335938 80.535156 L 39.351562 80.515625 C 39.898438 79.898438 39.839844 78.960938 39.226562 78.414062 C 38.609375 77.867188 37.671875 77.925781 37.125 78.539062 L 37.089844 78.574219 L 36.679688 79.042969 L 36.273438 79.519531 L 35.875 79.996094 L 35.480469 80.476562 L 35.089844 80.957031 L 34.699219 81.445312 L 34.3125 81.9375 L 33.929688 82.425781 L 33.550781 82.921875 Z M 25.433594 96.207031 C 25.074219 96.945312 25.378906 97.835938 26.121094 98.195312 C 26.859375 98.554688 27.753906 98.25 28.109375 97.507812 L 28.292969 97.128906 L 28.566406 96.574219 L 28.84375 96.023438 L 29.125 95.480469 L 29.414062 94.929688 L 29.992188 93.851562 L 30.292969 93.320312 L 30.589844 92.785156 L 30.847656 92.34375 C 31.257812 91.632812 31.019531 90.722656 30.308594 90.304688 C 29.597656 89.890625 28.6875 90.128906 28.269531 90.84375 L 28.003906 91.308594 L 27.6875 91.859375 L 27.378906 92.414062 L 27.070312 92.976562 L 26.773438 93.539062 L 26.472656 94.105469 L 26.179688 94.671875 L 25.890625 95.246094 L 25.609375 95.824219 Z M 20.238281 110.445312 C 20.027344 111.242188 20.503906 112.054688 21.292969 112.265625 C 22.089844 112.476562 22.902344 112 23.117188 111.207031 L 23.226562 110.78125 L 23.570312 109.523438 L 23.75 108.898438 L 23.933594 108.277344 L 24.121094 107.660156 L 24.320312 107.046875 L 24.515625 106.441406 L 24.792969 105.609375 C 25.0625 104.832031 24.652344 103.984375 23.875 103.714844 C 23.097656 103.441406 22.253906 103.855469 21.980469 104.632812 L 21.898438 104.875 L 21.683594 105.507812 L 21.476562 106.144531 L 21.28125 106.78125 L 21.082031 107.425781 L 20.890625 108.066406 L 20.703125 108.714844 L 20.519531 109.367188 L 20.347656 110.019531 Z M 17.785156 125.394531 C 17.722656 126.21875 18.335938 126.929688 19.15625 126.996094 C 19.976562 127.058594 20.6875 126.441406 20.753906 125.625 L 20.761719 125.53125 L 20.820312 124.824219 L 20.882812 124.121094 L 20.949219 123.417969 L 21.023438 122.722656 L 21.101562 122.027344 L 21.183594 121.339844 L 21.273438 120.65625 L 21.371094 119.972656 L 21.390625 119.8125 C 21.515625 119 20.957031 118.242188 20.140625 118.117188 C 19.328125 117.996094 18.570312 118.554688 18.449219 119.367188 L 18.425781 119.554688 L 18.324219 120.261719 L 18.230469 120.972656 L 18.148438 121.6875 L 18.0625 122.40625 L 17.988281 123.128906 L 17.917969 123.851562 L 17.851562 124.578125 L 17.789062 125.308594 Z M 203.433594 63.417969 C 204.121094 63.859375 205.042969 63.667969 205.492188 62.972656 C 205.9375 62.285156 205.742188 61.363281 205.050781 60.914062 L 205.042969 60.90625 L 205.039062 60.898438 L 205.023438 60.890625 L 205.015625 60.882812 L 205 60.871094 L 204.984375 60.863281 L 204.9375 60.832031 L 204.914062 60.820312 L 204.890625 60.804688 L 204.859375 60.792969 L 204.765625 60.734375 L 204.6875 60.6875 L 204.648438 60.667969 L 204.507812 60.585938 L 204.453125 60.558594 L 204.40625 60.527344 L 204.351562 60.496094 L 204.242188 60.425781 L 204.179688 60.394531 L 204.117188 60.355469 L 204.050781 60.316406 L 203.984375 60.28125 L 203.84375 60.195312 L 203.765625 60.15625 L 203.6875 60.109375 L 203.609375 60.066406 L 203.527344 60.023438 L 203.355469 59.921875 L 203.269531 59.875 L 203.179688 59.828125 L 203.085938 59.777344 L 202.992188 59.722656 L 202.894531 59.671875 L 202.796875 59.617188 L 202.695312 59.5625 L 202.59375 59.503906 L 202.488281 59.445312 L 202.269531 59.328125 L 202.15625 59.269531 L 201.929688 59.144531 L 201.808594 59.082031 L 201.6875 59.023438 L 201.5625 58.957031 L 201.441406 58.890625 L 201.3125 58.828125 L 201.054688 58.6875 L 200.917969 58.621094 L 200.644531 58.480469 L 200.503906 58.40625 L 200.359375 58.335938 L 200.21875 58.265625 L 200.066406 58.191406 L 199.917969 58.117188 L 199.765625 58.042969 L 199.667969 57.992188 C 198.933594 57.625 198.039062 57.925781 197.671875 58.660156 C 197.304688 59.398438 197.605469 60.292969 198.34375 60.65625 L 198.441406 60.707031 L 198.582031 60.78125 L 198.871094 60.921875 L 199.011719 60.992188 L 199.148438 61.066406 L 199.285156 61.132812 L 199.421875 61.203125 L 199.550781 61.269531 L 199.679688 61.339844 L 199.808594 61.40625 L 199.929688 61.472656 L 200.054688 61.539062 L 200.175781 61.597656 L 200.402344 61.722656 L 200.519531 61.785156 L 200.632812 61.84375 L 200.738281 61.902344 L 200.957031 62.019531 L 201.054688 62.078125 L 201.257812 62.1875 L 201.347656 62.242188 L 201.441406 62.292969 L 201.535156 62.347656 L 201.625 62.394531 L 201.710938 62.441406 L 201.796875 62.492188 L 201.878906 62.535156 L 201.964844 62.578125 L 202.042969 62.625 L 202.121094 62.667969 L 202.195312 62.707031 L 202.335938 62.792969 L 202.40625 62.828125 L 202.53125 62.90625 L 202.59375 62.9375 L 202.648438 62.972656 L 202.707031 63.007812 L 202.761719 63.042969 L 202.808594 63.078125 L 202.859375 63.109375 L 202.90625 63.140625 L 202.953125 63.164062 L 203 63.191406 L 203.039062 63.21875 L 203.117188 63.265625 L 203.152344 63.285156 L 203.214844 63.324219 L 203.242188 63.335938 L 203.269531 63.351562 L 203.292969 63.367188 L 203.3125 63.378906 L 203.339844 63.394531 L 203.363281 63.410156 L 203.378906 63.417969 L 203.382812 63.421875 L 203.394531 63.429688 L 203.433594 63.417969 L 203.441406 63.417969 Z M 270.292969 65.730469 L 246.386719 59.792969 C 246.351562 59.78125 246.3125 59.769531 246.273438 59.765625 C 245.507812 59.613281 244.765625 60.105469 244.613281 60.871094 L 241.269531 77.25 L 215.398438 67.175781 C 214.945312 67 214.449219 67.078125 214.082031 67.332031 L 172.363281 96.53125 C 171.726562 96.980469 171.566406 97.863281 172.011719 98.5 C 172.285156 98.886719 172.71875 99.097656 173.15625 99.105469 L 312.933594 108.109375 C 313.707031 108.15625 314.378906 107.5625 314.429688 106.789062 C 314.453125 106.347656 314.28125 105.945312 313.976562 105.667969 L 270.96875 66.078125 C 270.773438 65.894531 270.539062 65.777344 270.292969 65.730469 Z M 270.292969 65.730469 " fill-opacity="1" fill-rule="nonzero"/></g></g></g></g></g></g></g></g></g></g></svg>