<svg xmlns="http://www.w3.org/2000/svg" xmlns:xlink="http://www.w3.org/1999/xlink" width="70" zoomAndPan="magnify" viewBox="0 0 52.5 52.499999" height="70" preserveAspectRatio="xMidYMid meet" version="1.0"><defs><g/><clipPath id="56314d5a56"><path d="M 12 5.199219 L 26 5.199219 L 26 20 L 12 20 Z M 12 5.199219 " clip-rule="nonzero"/></clipPath><clipPath id="d1814a8738"><path d="M 0.320312 0.390625 L 2 0.390625 L 2 2 L 0.320312 2 Z M 0.320312 0.390625 " clip-rule="nonzero"/></clipPath><clipPath id="74b979d431"><path d="M 2 1 L 4.835938 1 L 4.835938 3 L 2 3 Z M 2 1 " clip-rule="nonzero"/></clipPath><clipPath id="6b68a4a6b3"><rect x="0" width="5" y="0" height="4"/></clipPath></defs><path fill="#2e3545" d="M 7.398438 32.164062 L 8.480469 27.757812 L 0.0234375 25.472656 L 0.378906 24.160156 L 12.121094 16.527344 L 13.289062 16.84375 L 10.578125 26.871094 L 12.820312 27.476562 L 12.453125 28.832031 L 10.210938 28.226562 L 9.175781 32.210938 Z M 2.222656 24.613281 L 9.03125 26.453125 L 11.109375 18.765625 Z M 2.222656 24.613281 " fill-opacity="1" fill-rule="nonzero"/><path fill="#2e3545" d="M 46.980469 31.886719 L 5.867188 31.886719 C 5.3125 31.886719 4.753906 31.878906 4.199219 31.886719 C 4.175781 31.886719 4.152344 31.886719 4.125 31.886719 C 3.800781 31.886719 3.800781 32.398438 4.125 32.398438 L 45.242188 32.398438 C 45.796875 32.398438 46.351562 32.40625 46.90625 32.398438 L 46.980469 32.398438 C 47.308594 32.398438 47.308594 31.886719 46.980469 31.886719 Z M 46.980469 31.886719 " fill-opacity="1" fill-rule="nonzero"/><path fill="#2e3545" d="M 33.011719 40.476562 C 33.652344 40.449219 34.011719 40.925781 33.59375 41.179688 C 31.511719 42.4375 27.863281 41.210938 29.941406 40.59375 C 30.195312 40.519531 32.015625 40.519531 33.011719 40.476562 Z M 33.011719 40.476562 " fill-opacity="1" fill-rule="nonzero"/><g clip-path="url(#56314d5a56)"><path fill="#2e3545" d="M 25.265625 12.589844 C 25.265625 14.015625 24.984375 15.285156 24.417969 16.394531 C 23.851562 17.503906 23.078125 18.375 22.097656 19.003906 C 21.113281 19.636719 19.988281 19.953125 18.71875 19.953125 C 17.46875 19.953125 16.351562 19.636719 15.371094 19.003906 C 14.386719 18.371094 13.609375 17.5 13.035156 16.394531 C 12.460938 15.285156 12.175781 14.015625 12.175781 12.589844 C 12.175781 11.164062 12.460938 9.894531 13.035156 8.785156 C 13.609375 7.675781 14.386719 6.800781 15.371094 6.160156 C 16.351562 5.519531 17.46875 5.199219 18.71875 5.199219 C 19.988281 5.199219 21.113281 5.519531 22.097656 6.160156 C 23.078125 6.800781 23.851562 7.675781 24.417969 8.785156 C 24.984375 9.894531 25.265625 11.164062 25.265625 12.589844 Z M 23.46875 12.589844 C 23.46875 11.445312 23.269531 10.433594 22.867188 9.5625 C 22.46875 8.691406 21.910156 8.011719 21.199219 7.519531 C 20.488281 7.027344 19.660156 6.78125 18.722656 6.78125 C 17.785156 6.777344 16.953125 7.027344 16.230469 7.519531 C 15.507812 8.011719 14.949219 8.691406 14.546875 9.5625 C 14.148438 10.433594 13.949219 11.441406 13.949219 12.589844 C 13.949219 13.734375 14.152344 14.742188 14.5625 15.617188 C 14.96875 16.488281 15.53125 17.164062 16.242188 17.648438 C 16.957031 18.132812 17.78125 18.375 18.71875 18.375 C 19.65625 18.375 20.484375 18.128906 21.195312 17.636719 C 21.90625 17.144531 22.464844 16.464844 22.863281 15.601562 C 23.265625 14.738281 23.464844 13.734375 23.464844 12.589844 Z M 23.46875 12.589844 " fill-opacity="1" fill-rule="nonzero"/></g><path fill="#fcdbc0" d="M 32.203125 12.003906 C 32.21875 12.070312 31.011719 13.3125 31.011719 13.3125 L 32.558594 13.769531 L 34.058594 11.972656 Z M 32.203125 12.003906 " fill-opacity="1" fill-rule="nonzero"/><path fill="#ffc801" d="M 21.320312 14.136719 C 21.402344 13.636719 21.347656 13.046875 20.941406 12.75 C 20.554688 12.46875 20.007812 12.5625 19.589844 12.792969 C 19.167969 13.023438 17.070312 13.945312 16.480469 14.285156 C 15.929688 14.601562 15.519531 15.21875 15.589844 15.855469 C 15.65625 16.488281 16.300781 17.039062 16.917969 16.882812 C 17.53125 16.722656 17.835938 16.019531 18.378906 15.679688 C 18.515625 15.589844 18.679688 15.527344 18.84375 15.546875 C 19.007812 15.566406 19.167969 15.683594 19.195312 15.847656 C 19.222656 16.027344 19.097656 16.226562 19.199219 16.378906 C 19.265625 16.484375 19.40625 16.503906 19.527344 16.511719 C 19.921875 16.535156 20.308594 16.5 20.691406 16.40625 C 20.773438 16.386719 20.863281 16.359375 20.914062 16.292969 C 20.96875 16.226562 20.972656 16.144531 20.976562 16.0625 C 20.992188 15.847656 21.234375 14.632812 21.320312 14.136719 Z M 21.320312 14.136719 " fill-opacity="1" fill-rule="nonzero"/><path fill="#0059fd" d="M 24.917969 17.632812 L 21.121094 18.980469 L 21.234375 15.515625 C 21.234375 15.515625 21.078125 14.902344 19.40625 15.480469 C 18.535156 15.78125 18.113281 16.402344 18.113281 16.402344 C 18.113281 16.402344 16.429688 22.417969 18.277344 23.390625 C 20.289062 24.453125 26.050781 21.507812 26.050781 21.507812 Z M 24.917969 17.632812 " fill-opacity="1" fill-rule="nonzero"/><path fill="#ffc801" d="M 30.140625 39.5 C 30.242188 40.136719 30.550781 40.824219 31.164062 41.015625 C 31.742188 41.195312 32.367188 40.851562 32.777344 40.40625 C 33.1875 39.957031 35.09375 38.285156 35.914062 37.316406 C 36.742188 36.339844 36.6875 35.792969 36.347656 35.058594 C 36.003906 34.324219 35 33.925781 34.324219 34.367188 C 33.648438 34.8125 33.566406 35.792969 33.054688 36.421875 C 32.921875 36.585938 32.75 36.730469 32.546875 36.777344 C 32.339844 36.820312 32.097656 36.746094 32 36.558594 C 31.890625 36.355469 31.960938 36.0625 31.777344 35.917969 C 31.65625 35.820312 31.476562 35.851562 31.324219 35.894531 C 30.84375 36.03125 30.390625 36.234375 29.964844 36.503906 C 29.875 36.5625 29.777344 36.632812 29.742188 36.734375 C 29.707031 36.832031 29.734375 36.9375 29.761719 37.039062 C 29.832031 37.300781 30.039062 38.863281 30.140625 39.5 Z M 30.140625 39.5 " fill-opacity="1" fill-rule="nonzero"/><path fill="#0059fd" d="M 25.257812 22.921875 C 25.257812 22.921875 27.492188 27.714844 27.875 29.71875 C 28.105469 30.9375 29.535156 39.339844 29.863281 37.621094 C 30.136719 36.214844 31.84375 35.699219 31.949219 36.324219 C 31.949219 36.324219 32.570312 32.40625 31.421875 27.203125 C 31.097656 25.722656 29.082031 21.25 29.082031 21.25 Z M 25.257812 22.921875 " fill-opacity="1" fill-rule="nonzero"/><path fill="#2e3545" d="M 25.910156 23.144531 C 26.464844 22.867188 27.035156 22.625 27.617188 22.40625 C 28.03125 22.253906 28.460938 22.117188 28.898438 22.15625 C 29.097656 22.171875 29.304688 22.226562 29.496094 22.164062 C 29.511719 22.210938 29.53125 22.257812 29.554688 22.304688 C 28.332031 22.519531 26.667969 23.085938 25.703125 23.871094 C 25.394531 23.554688 25.417969 23.222656 25.277344 22.886719 L 25.628906 23.089844 C 25.683594 23.125 25.738281 23.148438 25.800781 23.164062 C 25.863281 23.171875 25.933594 23.15625 25.910156 23.144531 Z M 25.910156 23.144531 " fill-opacity="1" fill-rule="nonzero"/><path fill="#628d4f" d="M 31.515625 12.890625 C 31.515625 12.890625 30.835938 11.835938 29.425781 13.308594 C 28.015625 14.78125 28.335938 14.9375 26.128906 16.246094 C 24.59375 17.160156 21.90625 17.457031 22.117188 17.820312 C 22.722656 18.875 24.570312 18.292969 24.570312 18.292969 C 24.570312 18.292969 23.160156 20.761719 22.636719 21.074219 C 22.113281 21.390625 25.875 23.175781 25.875 23.175781 C 25.875 23.175781 28.066406 21.96875 29.214844 22.175781 C 30.363281 22.386719 33.863281 18.242188 34.59375 16.824219 C 35.324219 15.40625 37.566406 16.25 37.566406 16.25 C 37.566406 16.25 39.707031 14.253906 39.96875 13.203125 L 33.832031 12.332031 C 33.832031 12.332031 33.078125 13.144531 32.734375 13.222656 C 32.210938 13.335938 31.515625 12.890625 31.515625 12.890625 Z M 31.515625 12.890625 " fill-opacity="1" fill-rule="nonzero"/><path fill="#2e3545" d="M 30.148438 18.3125 C 30.945312 17.21875 31.855469 16.515625 32.996094 15.800781 C 34.109375 15.097656 34.464844 15.179688 34.601562 15.148438 C 34.601562 15.148438 31.957031 17.957031 30.148438 18.3125 Z M 30.148438 18.3125 " fill-opacity="1" fill-rule="nonzero"/><path fill="#2e3545" d="M 25.449219 22.972656 C 25.429688 22.972656 25.414062 22.964844 25.40625 22.949219 C 25.386719 22.921875 25.394531 22.898438 25.421875 22.878906 C 29.226562 20.546875 33.3125 16.3125 33.355469 16.269531 C 33.378906 16.246094 33.402344 16.246094 33.425781 16.269531 C 33.453125 16.292969 33.453125 16.316406 33.429688 16.339844 C 33.386719 16.382812 29.289062 20.628906 25.476562 22.964844 C 25.464844 22.972656 25.457031 22.972656 25.449219 22.972656 Z M 25.449219 22.972656 " fill-opacity="1" fill-rule="nonzero"/><path fill="#2e3545" d="M 31.421875 36.011719 C 31.398438 36.007812 31.386719 35.996094 31.390625 35.972656 C 31.6875 32.347656 31.035156 28.792969 30.433594 26.449219 C 29.78125 23.90625 29.050781 22.199219 29.042969 22.183594 C 29.035156 22.164062 29.039062 22.148438 29.058594 22.140625 C 29.082031 22.128906 29.09375 22.136719 29.105469 22.15625 C 29.113281 22.171875 29.84375 23.882812 30.496094 26.429688 C 31.097656 28.78125 31.753906 32.34375 31.453125 35.980469 C 31.453125 36 31.441406 36.007812 31.421875 36.011719 Z M 31.421875 36.011719 " fill-opacity="1" fill-rule="nonzero"/><path fill="#2e3545" d="M 19.425781 23.105469 C 18.949219 23.105469 18.554688 22.972656 18.269531 22.71875 C 17.964844 22.445312 17.816406 22.03125 17.847656 21.554688 C 17.910156 20.605469 18.050781 19.6875 18.191406 18.804688 C 18.328125 17.917969 18.46875 17.007812 18.53125 16.058594 C 18.535156 16.027344 18.550781 16.011719 18.585938 16.011719 C 18.621094 16.015625 18.636719 16.03125 18.632812 16.066406 C 18.570312 17.019531 18.425781 17.933594 18.289062 18.820312 C 18.152344 19.703125 18.011719 20.613281 17.949219 21.5625 C 17.917969 22.011719 18.054688 22.386719 18.339844 22.644531 C 18.695312 22.964844 19.246094 23.074219 19.929688 22.957031 C 21.585938 22.679688 22.078125 22.46875 23.261719 21.953125 L 23.335938 21.917969 C 23.367188 21.90625 23.390625 21.914062 23.402344 21.945312 C 23.417969 21.976562 23.40625 22 23.378906 22.011719 L 23.300781 22.046875 C 22.109375 22.566406 21.613281 22.78125 19.945312 23.058594 C 19.773438 23.089844 19.601562 23.105469 19.425781 23.105469 Z M 19.425781 23.105469 " fill-opacity="1" fill-rule="nonzero"/><path fill="#2e3545" d="M 34.601562 15.199219 C 34.589844 15.199219 34.582031 15.195312 34.574219 15.191406 L 31.65625 13.394531 C 31.628906 13.375 31.621094 13.351562 31.640625 13.324219 C 31.660156 13.292969 31.683594 13.289062 31.710938 13.308594 L 34.628906 15.105469 C 34.648438 15.117188 34.65625 15.136719 34.648438 15.160156 C 34.644531 15.1875 34.625 15.199219 34.601562 15.199219 Z M 34.601562 15.199219 " fill-opacity="1" fill-rule="nonzero"/><path fill="#2e3545" d="M 37.605469 16.304688 C 37.605469 16.304688 39.746094 14.3125 40.003906 13.261719 C 39.46875 13.601562 38.855469 13.757812 38.5 14.289062 C 38.308594 14.578125 38.285156 14.832031 38.21875 15.171875 C 38.128906 15.613281 37.925781 15.988281 37.605469 16.304688 Z M 37.605469 16.304688 " fill-opacity="1" fill-rule="nonzero"/><path fill="#fcdbc0" d="M 39.652344 13.808594 L 44.179688 14.003906 C 44.179688 14.003906 45.949219 12.738281 46.578125 13.054688 C 47.207031 13.371094 45.882812 13.734375 45.882812 13.734375 C 45.882812 13.734375 47.050781 13.394531 47.585938 13.699219 C 48.125 14.003906 46.871094 14.605469 45.792969 14.378906 C 44.71875 14.15625 47.8125 14.515625 46.78125 14.984375 L 45.261719 14.871094 C 45.261719 14.871094 46.824219 14.878906 46.617188 15.125 C 46.410156 15.371094 45.242188 15.421875 44.183594 15.210938 C 43.128906 15 41.472656 15.183594 40.566406 15.175781 C 39.988281 15.171875 38.261719 14.988281 38.261719 14.988281 C 38.261719 14.988281 38.160156 14.789062 38.429688 14.320312 C 38.566406 14.085938 38.753906 13.90625 38.988281 13.773438 Z M 39.652344 13.808594 " fill-opacity="1" fill-rule="nonzero"/><path fill="#2e3545" d="M 45.167969 28.382812 L 46.460938 23.503906 L 37.933594 20.6875 L 38.371094 19.042969 L 50.804688 9.4375 L 51.984375 9.828125 L 48.652344 22.378906 L 50.90625 23.125 L 50.457031 24.824219 L 48.203125 24.078125 L 46.910156 28.957031 Z M 40.230469 19.597656 L 47.09375 21.863281 L 49.644531 12.242188 Z M 40.230469 19.597656 " fill-opacity="1" fill-rule="nonzero"/><path fill="#fcdbc0" d="M 32.757812 15.949219 C 34.007812 16.632812 35.917969 17.660156 37.402344 17.660156 C 38.136719 17.660156 38.855469 17.484375 39.585938 17.4375 C 40.683594 17.367188 41.753906 17.101562 42.878906 17.40625 C 43.023438 17.445312 43.214844 17.339844 43.144531 17.226562 C 43.109375 17.164062 43.003906 17.109375 42.882812 17.070312 C 42.457031 16.941406 42.167969 16.875 41.625 16.914062 C 42.871094 16.6875 42.484375 15.863281 43.390625 16.019531 C 43.632812 16.0625 44.214844 16.382812 44.34375 16.203125 C 44.421875 16.09375 44.054688 15.824219 43.804688 15.691406 C 43.683594 15.625 43.441406 15.503906 43.1875 15.488281 C 42.800781 15.464844 41.914062 15.691406 41.914062 15.691406 C 41.542969 15.839844 41.070312 16.019531 40.703125 16.1875 C 40.371094 16.335938 40.023438 16.476562 39.652344 16.515625 C 39.289062 16.558594 38.917969 16.5 38.558594 16.445312 C 37.359375 16.261719 36.105469 16.054688 35.160156 15.398438 C 35.058594 15.328125 34.730469 15.167969 34.601562 15.148438 C 34.5 15.128906 34.5 15.171875 34.375 15.191406 C 33.960938 15.25 32.609375 15.964844 32.757812 15.949219 Z M 32.757812 15.949219 " fill-opacity="1" fill-rule="nonzero"/><path fill="#fcdbc0" d="M 42.796875 15.953125 C 43.484375 16.054688 43.796875 16.234375 44.238281 16.351562 C 44.46875 16.410156 44.542969 16.511719 44.523438 16.566406 C 44.460938 16.765625 44.214844 16.746094 44.171875 16.738281 C 43.453125 16.609375 43.203125 16.457031 42.519531 16.398438 C 43.121094 16.554688 43.289062 16.546875 43.863281 16.753906 C 43.984375 16.796875 44.101562 16.976562 43.867188 17.078125 C 43.746094 17.132812 43.644531 17.097656 43.515625 17.078125 C 43.203125 17.035156 42.867188 16.96875 42.554688 16.914062 C 42.246094 16.863281 41.808594 16.957031 41.53125 16.957031 C 41.574219 16.875 41.753906 16.824219 41.832031 16.78125 C 41.914062 16.734375 42 16.699219 42.078125 16.648438 C 42.328125 16.488281 42.578125 16.117188 42.796875 15.953125 Z M 42.796875 15.953125 " fill-opacity="1" fill-rule="nonzero"/><path fill="#2e3545" d="M 37.605469 16.316406 C 37.589844 16.316406 37.578125 16.308594 37.566406 16.300781 C 37.542969 16.277344 37.542969 16.253906 37.566406 16.226562 C 37.878906 15.917969 38.078125 15.550781 38.167969 15.121094 C 38.179688 15.070312 38.1875 15.019531 38.195312 14.96875 C 38.246094 14.703125 38.289062 14.472656 38.457031 14.21875 C 38.710938 13.839844 39.082031 13.652344 39.472656 13.453125 C 39.640625 13.371094 39.8125 13.28125 39.976562 13.179688 C 40.007812 13.160156 40.03125 13.164062 40.046875 13.195312 C 40.066406 13.222656 40.0625 13.246094 40.03125 13.265625 C 39.863281 13.371094 39.691406 13.460938 39.519531 13.546875 C 39.140625 13.738281 38.78125 13.921875 38.542969 14.277344 C 38.386719 14.511719 38.347656 14.722656 38.296875 14.988281 C 38.289062 15.039062 38.277344 15.089844 38.269531 15.144531 C 38.175781 15.59375 37.964844 15.980469 37.636719 16.300781 C 37.628906 16.308594 37.617188 16.316406 37.605469 16.316406 Z M 37.605469 16.316406 " fill-opacity="1" fill-rule="nonzero"/><path fill="#2e3545" d="M 30.148438 18.363281 L 30.144531 18.363281 C 30.125 18.363281 30.113281 18.355469 30.105469 18.335938 C 29.738281 17.632812 29.207031 17.089844 28.507812 16.714844 C 28.476562 16.699219 28.46875 16.675781 28.484375 16.648438 C 28.5 16.617188 28.523438 16.609375 28.554688 16.625 C 29.246094 16.996094 29.78125 17.527344 30.15625 18.21875 C 31.015625 17.074219 32.492188 16.003906 33.515625 15.429688 C 33.863281 15.230469 34.261719 15.160156 34.476562 15.121094 C 34.527344 15.113281 34.566406 15.105469 34.589844 15.097656 C 34.621094 15.089844 34.644531 15.101562 34.652344 15.136719 C 34.660156 15.167969 34.648438 15.1875 34.613281 15.195312 C 34.585938 15.203125 34.546875 15.210938 34.496094 15.21875 C 34.289062 15.257812 33.898438 15.328125 33.566406 15.519531 C 32.535156 16.097656 31.03125 17.1875 30.191406 18.34375 C 30.179688 18.359375 30.167969 18.363281 30.148438 18.363281 Z M 30.148438 18.363281 " fill-opacity="1" fill-rule="nonzero"/><path fill="#2e3545" d="M 33.132812 15.230469 L 33.128906 15.230469 C 32.15625 15.070312 31.382812 14.59375 30.804688 13.792969 C 30.792969 13.777344 30.792969 13.761719 30.8125 13.746094 C 30.832031 13.734375 30.847656 13.738281 30.859375 13.753906 C 31.425781 14.539062 32.1875 15.007812 33.140625 15.164062 C 33.160156 15.164062 33.171875 15.175781 33.171875 15.199219 C 33.167969 15.222656 33.15625 15.234375 33.132812 15.230469 Z M 33.132812 15.230469 " fill-opacity="1" fill-rule="nonzero"/><path fill="#2e3545" d="M 37.671875 15.78125 C 37.648438 15.78125 37.636719 15.773438 37.636719 15.75 C 37.625 14.757812 38.214844 13.804688 39.09375 13.355469 C 37.546875 13.5 36.007812 13.167969 34.523438 12.84375 C 34.5 12.839844 34.492188 12.828125 34.496094 12.804688 C 34.5 12.78125 34.515625 12.773438 34.535156 12.777344 C 36.085938 13.113281 37.6875 13.460938 39.292969 13.265625 C 39.3125 13.261719 39.324219 13.269531 39.328125 13.289062 C 39.335938 13.308594 39.328125 13.324219 39.308594 13.328125 C 38.351562 13.722656 37.691406 14.714844 37.707031 15.75 C 37.707031 15.773438 37.695312 15.78125 37.671875 15.78125 Z M 37.671875 15.78125 " fill-opacity="1" fill-rule="nonzero"/><path fill="#2e3545" d="M 29.402344 22.113281 C 29.390625 22.113281 29.378906 22.109375 29.375 22.097656 C 29.359375 22.082031 29.363281 22.066406 29.382812 22.050781 C 31.058594 20.910156 32.402344 19.460938 33.414062 17.703125 C 33.425781 17.683594 33.441406 17.679688 33.460938 17.691406 C 33.480469 17.703125 33.484375 17.714844 33.472656 17.734375 C 32.457031 19.503906 31.105469 20.960938 29.421875 22.109375 C 29.414062 22.113281 29.410156 22.113281 29.402344 22.113281 Z M 29.402344 22.113281 " fill-opacity="1" fill-rule="nonzero"/><path fill="#2e3545" d="M 22.875 18.425781 C 23.449219 18.527344 24.019531 18.492188 24.578125 18.328125 C 24.109375 19.3125 23.011719 20.84375 22.726562 21.039062 C 22.667969 21.078125 22.617188 21.097656 22.613281 21.15625 C 22.609375 21.210938 22.648438 21.292969 22.726562 21.375 C 22.792969 21.449219 23.0625 21.640625 23.164062 21.707031 C 23.25 21.765625 23.644531 22 23.921875 22.183594 C 23.804688 22.21875 23.695312 22.25 23.589844 22.28125 C 23.410156 22.332031 23.234375 22.320312 23.066406 22.242188 C 22.898438 22.167969 22.773438 22.042969 22.691406 21.875 C 22.628906 21.742188 22.570312 21.609375 22.519531 21.484375 C 22.480469 21.390625 22.441406 21.292969 22.445312 21.191406 C 22.449219 20.984375 22.609375 20.824219 22.757812 20.675781 C 23.167969 20.265625 23.523438 19.808594 23.816406 19.304688 C 23.925781 19.117188 24.027344 18.90625 23.984375 18.695312 C 23.578125 18.757812 23.207031 18.667969 22.875 18.425781 Z M 22.875 18.425781 " fill-opacity="1" fill-rule="nonzero"/><path fill="#2e3545" d="M 29.890625 37.617188 C 29.898438 37.335938 30.0625 36.996094 30.242188 36.78125 C 30.441406 36.550781 30.671875 36.367188 30.933594 36.21875 C 31.101562 36.136719 31.234375 36.074219 31.417969 36.054688 C 31.601562 36.03125 31.804688 36.082031 31.925781 36.222656 L 31.949219 36.390625 C 30.839844 36.390625 30.179688 37.027344 29.957031 38.195312 C 29.90625 38.003906 29.886719 37.8125 29.890625 37.617188 Z M 29.890625 37.617188 " fill-opacity="1" fill-rule="nonzero"/><path fill="#2e3545" d="M 31.75 12.578125 C 32.203125 12.746094 33.054688 12.710938 33.539062 12.652344 C 33.351562 12.957031 32.992188 13.199219 32.644531 13.253906 C 32.621094 13.171875 32.574219 13.105469 32.503906 13.058594 C 32.4375 13.011719 32.363281 12.96875 32.289062 12.933594 C 32.101562 12.835938 31.898438 12.714844 31.75 12.578125 Z M 31.75 12.578125 " fill-opacity="1" fill-rule="nonzero"/><path fill="#2e3545" d="M 33.175781 39.542969 C 33.167969 39.542969 33.160156 39.542969 33.152344 39.535156 C 33.136719 39.515625 33.136719 39.5 33.152344 39.484375 C 35.757812 37.101562 35.914062 36.71875 36.082031 36.3125 C 36.210938 36 36.167969 35.570312 35.972656 35.273438 C 35.808594 35.003906 35.566406 34.867188 35.25 34.863281 C 34.96875 34.855469 34.746094 34.96875 34.582031 35.199219 C 34.570312 35.214844 34.554688 35.21875 34.535156 35.207031 C 34.519531 35.195312 34.515625 35.179688 34.527344 35.160156 C 34.703125 34.90625 34.945312 34.785156 35.25 34.792969 C 35.59375 34.800781 35.851562 34.945312 36.03125 35.234375 C 36.234375 35.550781 36.28125 36.003906 36.144531 36.339844 C 35.976562 36.75 35.8125 37.140625 33.199219 39.535156 C 33.195312 39.542969 33.1875 39.542969 33.175781 39.542969 Z M 33.175781 39.542969 " fill-opacity="1" fill-rule="nonzero"/><path fill="#2e3545" d="M 31.457031 40.820312 C 31.265625 40.820312 31.046875 40.769531 30.882812 40.605469 C 30.679688 40.402344 30.585938 40.199219 30.589844 39.984375 C 30.601562 39.542969 31.035156 39.144531 31.496094 38.726562 C 31.5625 38.667969 31.628906 38.609375 31.691406 38.550781 C 31.714844 38.535156 31.738281 38.535156 31.757812 38.558594 C 31.777344 38.578125 31.777344 38.601562 31.757812 38.625 C 31.695312 38.683594 31.628906 38.742188 31.566406 38.800781 C 31.121094 39.207031 30.699219 39.589844 30.691406 39.988281 C 30.683594 40.175781 30.769531 40.355469 30.953125 40.535156 C 31.183594 40.765625 31.550781 40.734375 31.714844 40.683594 C 31.75 40.675781 31.769531 40.6875 31.78125 40.71875 C 31.789062 40.75 31.777344 40.773438 31.746094 40.78125 C 31.652344 40.808594 31.554688 40.820312 31.457031 40.820312 Z M 31.457031 40.820312 " fill-opacity="1" fill-rule="nonzero"/><path fill="#2e3545" d="M 21.132812 15.246094 C 20.726562 14.976562 20.191406 14.949219 19.703125 15.007812 C 19.214844 15.0625 18.765625 15.324219 18.429688 15.683594 C 18.65625 15.558594 18.804688 15.519531 19.09375 15.65625 C 19.785156 15.367188 20.464844 15.105469 21.113281 15.367188 C 21.125 15.3125 21.125 15.296875 21.132812 15.246094 Z M 21.132812 15.246094 " fill-opacity="1" fill-rule="nonzero"/><path fill="#2e3545" d="M 15.835938 16.4375 C 15.8125 16.4375 15.796875 16.425781 15.789062 16.402344 C 15.59375 15.902344 15.78125 15.292969 16.066406 14.949219 C 16.570312 14.335938 17.238281 14.066406 17.945312 13.785156 C 18.132812 13.707031 18.324219 13.632812 18.519531 13.546875 C 18.664062 13.480469 18.84375 13.394531 19.03125 13.300781 C 19.710938 12.960938 20.558594 12.535156 20.949219 12.734375 C 20.984375 12.75 20.992188 12.773438 20.976562 12.804688 C 20.957031 12.835938 20.933594 12.84375 20.902344 12.824219 C 20.558594 12.648438 19.703125 13.078125 19.074219 13.390625 C 18.886719 13.484375 18.707031 13.574219 18.558594 13.640625 C 18.367188 13.726562 18.171875 13.804688 17.984375 13.878906 C 17.289062 14.160156 16.632812 14.421875 16.144531 15.011719 C 15.878906 15.335938 15.703125 15.902344 15.882812 16.367188 C 15.894531 16.398438 15.886719 16.421875 15.855469 16.433594 C 15.847656 16.4375 15.839844 16.4375 15.835938 16.4375 Z M 15.835938 16.4375 " fill-opacity="1" fill-rule="nonzero"/><path fill="#2e3545" d="M 38.027344 17.417969 C 37.636719 17.417969 37.253906 17.378906 36.871094 17.300781 C 36.839844 17.292969 36.824219 17.273438 36.832031 17.238281 C 36.839844 17.203125 36.859375 17.191406 36.894531 17.199219 C 37.925781 17.414062 38.9375 17.34375 39.929688 16.984375 C 39.960938 16.976562 39.980469 16.984375 39.992188 17.015625 C 40 17.046875 39.992188 17.066406 39.964844 17.078125 C 39.335938 17.304688 38.691406 17.417969 38.027344 17.417969 Z M 38.027344 17.417969 " fill-opacity="1" fill-rule="nonzero"/><path fill="#2e3545" d="M 19.503906 20.316406 C 19.484375 20.316406 19.46875 20.304688 19.457031 20.289062 C 19.449219 20.269531 19.449219 20.25 19.460938 20.234375 C 19.972656 19.515625 20.535156 19.085938 21.195312 18.925781 C 21.226562 18.917969 21.246094 18.929688 21.253906 18.960938 C 21.261719 18.992188 21.25 19.011719 21.21875 19.023438 C 20.585938 19.179688 20.039062 19.59375 19.546875 20.292969 C 19.535156 20.308594 19.519531 20.316406 19.503906 20.316406 Z M 19.503906 20.316406 " fill-opacity="1" fill-rule="nonzero"/><path fill="#2e3545" d="M 28.6875 32.097656 L 28.683594 32.097656 C 28.648438 32.09375 28.632812 32.078125 28.636719 32.042969 C 28.761719 30.339844 28.421875 28.734375 27.621094 27.226562 C 27.605469 27.195312 27.613281 27.171875 27.640625 27.15625 C 27.667969 27.140625 27.691406 27.148438 27.707031 27.175781 C 28.519531 28.703125 28.863281 30.328125 28.738281 32.050781 C 28.734375 32.082031 28.71875 32.097656 28.6875 32.097656 Z M 28.6875 32.097656 " fill-opacity="1" fill-rule="nonzero"/><path fill="#2e3545" d="M 24.480469 20.339844 C 24.464844 20.339844 24.453125 20.332031 24.449219 20.316406 C 24.441406 20.300781 24.449219 20.285156 24.460938 20.277344 C 25.359375 19.699219 25.960938 18.679688 26.035156 17.613281 C 26.039062 17.59375 26.050781 17.582031 26.070312 17.582031 C 26.09375 17.585938 26.105469 17.597656 26.105469 17.621094 C 26.027344 18.707031 25.414062 19.746094 24.5 20.332031 C 24.492188 20.335938 24.488281 20.339844 24.480469 20.339844 Z M 24.480469 20.339844 " fill-opacity="1" fill-rule="nonzero"/><path fill="#fcdbc0" d="M 31.894531 10.78125 C 31.800781 10.929688 31.691406 11.074219 31.625 11.238281 C 31.554688 11.421875 31.519531 11.609375 31.527344 11.808594 C 31.535156 12.109375 31.625 12.433594 31.859375 12.613281 C 32.0625 12.777344 32.339844 12.796875 32.597656 12.800781 C 32.839844 12.800781 33.078125 12.789062 33.316406 12.765625 C 33.59375 12.734375 33.886719 12.679688 34.074219 12.46875 C 34.148438 12.382812 34.210938 12.269531 34.316406 12.230469 C 34.371094 12.207031 34.433594 12.207031 34.496094 12.199219 C 34.613281 12.183594 34.714844 12.136719 34.800781 12.054688 C 34.921875 11.945312 34.984375 11.726562 34.863281 11.617188 C 34.828125 11.585938 34.785156 11.566406 34.753906 11.535156 C 34.617188 11.417969 34.679688 11.195312 34.710938 11.015625 C 34.769531 10.71875 34.726562 10.4375 34.585938 10.167969 C 34.421875 9.855469 34.128906 9.621094 33.800781 9.5 C 33.476562 9.375 33.125 9.222656 32.777344 9.273438 C 32.6875 9.28125 32.605469 9.308594 32.527344 9.359375 C 32.457031 9.410156 32.113281 10.441406 31.894531 10.78125 Z M 31.894531 10.78125 " fill-opacity="1" fill-rule="nonzero"/><path fill="#2e3545" d="M 32.628906 10.359375 C 32.621094 10.359375 32.613281 10.359375 32.605469 10.355469 C 32.519531 10.3125 32.425781 10.285156 32.332031 10.265625 C 32.296875 10.261719 32.285156 10.242188 32.289062 10.207031 C 32.292969 10.175781 32.3125 10.160156 32.347656 10.164062 C 32.453125 10.183594 32.554688 10.214844 32.648438 10.261719 C 32.671875 10.273438 32.683594 10.292969 32.675781 10.320312 C 32.671875 10.34375 32.652344 10.359375 32.628906 10.359375 Z M 32.628906 10.359375 " fill-opacity="1" fill-rule="nonzero"/><path fill="#2e3545" d="M 33.722656 11.359375 C 33.695312 11.359375 33.679688 11.347656 33.671875 11.320312 C 33.652344 11.238281 33.621094 11.160156 33.574219 11.085938 C 33.507812 10.984375 33.449219 10.929688 33.347656 10.921875 C 33.3125 10.917969 33.296875 10.898438 33.300781 10.863281 C 33.304688 10.832031 33.320312 10.816406 33.355469 10.820312 C 33.496094 10.832031 33.574219 10.90625 33.65625 11.027344 C 33.710938 11.109375 33.75 11.199219 33.773438 11.296875 C 33.78125 11.328125 33.765625 11.351562 33.734375 11.359375 C 33.730469 11.359375 33.726562 11.359375 33.722656 11.359375 Z M 33.722656 11.359375 " fill-opacity="1" fill-rule="nonzero"/><path fill="#2e3545" d="M 34.105469 10.914062 C 34.003906 10.628906 33.828125 10.398438 33.582031 10.230469 C 33.519531 10.1875 33.4375 10.15625 33.386719 10.203125 C 33.367188 10.222656 33.355469 10.242188 33.351562 10.265625 C 33.34375 10.339844 33.367188 10.398438 33.421875 10.449219 C 33.472656 10.492188 33.527344 10.527344 33.585938 10.554688 C 33.765625 10.648438 33.929688 10.761719 34.078125 10.894531 " fill-opacity="1" fill-rule="nonzero"/><path fill="#2e3545" d="M 34.523438 12.144531 C 34.507812 12.144531 34.496094 12.144531 34.480469 12.140625 C 34.449219 12.136719 34.433594 12.117188 34.4375 12.082031 C 34.445312 12.046875 34.464844 12.035156 34.5 12.039062 C 34.582031 12.054688 34.640625 12.023438 34.675781 11.945312 C 34.710938 11.867188 34.691406 11.800781 34.625 11.75 C 34.597656 11.726562 34.59375 11.703125 34.617188 11.675781 C 34.636719 11.648438 34.660156 11.648438 34.6875 11.667969 C 34.789062 11.746094 34.816406 11.84375 34.773438 11.964844 C 34.734375 12.085938 34.648438 12.144531 34.523438 12.140625 Z M 34.523438 12.144531 " fill-opacity="1" fill-rule="nonzero"/><path fill="#2e3545" d="M 32.042969 11.636719 C 32.007812 11.726562 32 11.816406 32.023438 11.910156 C 32.046875 12.007812 32.101562 12.074219 32.195312 12.109375 C 32.222656 12.121094 32.253906 12.121094 32.28125 12.109375 C 32.335938 12.089844 32.363281 12.027344 32.371094 11.96875 C 32.390625 11.863281 32.382812 11.757812 32.339844 11.652344 C 32.320312 11.605469 32.292969 11.570312 32.253906 11.539062 C 32.214844 11.511719 32.097656 11.515625 32.042969 11.636719 Z M 32.042969 11.636719 " fill-opacity="1" fill-rule="nonzero"/><path fill="#2e3545" d="M 33.007812 9.578125 C 32.699219 9.304688 32.523438 9.464844 32.011719 9.738281 C 31.789062 9.414062 31.910156 9.171875 32.0625 9.0625 C 31.980469 9.054688 31.898438 9.066406 31.824219 9.09375 C 31.773438 9.015625 31.828125 8.910156 31.890625 8.835938 C 32.105469 8.578125 32.386719 8.371094 32.707031 8.289062 C 33.027344 8.207031 33.386719 8.265625 33.648438 8.476562 C 33.691406 8.511719 33.734375 8.554688 33.789062 8.5625 C 33.828125 8.570312 33.867188 8.566406 33.90625 8.554688 C 34.222656 8.488281 34.558594 8.457031 34.867188 8.5625 C 35.242188 8.6875 35.539062 9.011719 35.695312 9.386719 C 35.847656 9.761719 35.871094 10.183594 35.808594 10.589844 C 35.792969 10.738281 35.75 10.882812 35.6875 11.023438 C 35.523438 11.335938 35.097656 11.488281 34.757812 11.535156 C 34.535156 11.34375 34.71875 11.125 34.695312 10.546875 C 34.683594 10.195312 34.386719 9.855469 34.0625 9.742188 C 33.738281 9.628906 33.351562 9.601562 33.007812 9.578125 Z M 33.007812 9.578125 " fill-opacity="1" fill-rule="nonzero"/><path fill="#2e3545" d="M 33.464844 10.902344 C 33.554688 10.9375 33.578125 11.019531 33.527344 11.144531 C 33.476562 11.273438 33.40625 11.316406 33.3125 11.28125 C 33.222656 11.242188 33.199219 11.164062 33.25 11.035156 C 33.300781 10.910156 33.371094 10.867188 33.464844 10.902344 Z M 33.464844 10.902344 " fill-opacity="1" fill-rule="nonzero"/><path fill="#2e3545" d="M 32.457031 10.25 C 32.550781 10.285156 32.570312 10.367188 32.523438 10.492188 C 32.472656 10.621094 32.402344 10.664062 32.308594 10.628906 C 32.21875 10.589844 32.195312 10.511719 32.246094 10.382812 C 32.296875 10.257812 32.367188 10.214844 32.457031 10.25 Z M 32.457031 10.25 " fill-opacity="1" fill-rule="nonzero"/><path fill="#2e3545" d="M 32.367188 9.898438 C 32.511719 9.890625 32.554688 9.871094 32.671875 9.882812 C 32.753906 9.890625 32.855469 9.917969 32.886719 10 C 32.890625 10.007812 32.890625 10.019531 32.886719 10.03125 C 32.878906 10.050781 32.863281 10.0625 32.84375 10.066406 C 32.65625 10.117188 32.515625 10.019531 32.367188 9.898438 Z M 32.367188 9.898438 " fill-opacity="1" fill-rule="nonzero"/><path fill="#2e3545" d="M 32.453125 11.324219 C 32.441406 11.324219 32.433594 11.324219 32.421875 11.324219 C 32.304688 11.300781 32.226562 11.234375 32.191406 11.117188 C 32.15625 11.011719 32.179688 10.921875 32.265625 10.851562 C 32.289062 10.820312 32.316406 10.820312 32.34375 10.847656 C 32.371094 10.878906 32.367188 10.902344 32.332031 10.925781 C 32.28125 10.96875 32.265625 11.023438 32.285156 11.089844 C 32.308594 11.164062 32.359375 11.207031 32.433594 11.222656 C 32.488281 11.230469 32.53125 11.210938 32.558594 11.160156 C 32.578125 11.132812 32.601562 11.125 32.628906 11.144531 C 32.660156 11.164062 32.664062 11.191406 32.640625 11.21875 C 32.597656 11.289062 32.535156 11.324219 32.453125 11.324219 Z M 32.453125 11.324219 " fill-opacity="1" fill-rule="nonzero"/><path fill="#2e3545" d="M 35.121094 11.238281 C 35.105469 11.238281 35.089844 11.238281 35.078125 11.234375 C 35.054688 11.230469 35.046875 11.21875 35.050781 11.195312 C 35.054688 11.171875 35.066406 11.164062 35.089844 11.167969 C 35.195312 11.183594 35.347656 11.105469 35.453125 10.988281 C 35.539062 10.878906 35.59375 10.757812 35.617188 10.621094 C 35.621094 10.597656 35.636719 10.589844 35.65625 10.59375 C 35.679688 10.597656 35.6875 10.613281 35.683594 10.632812 C 35.660156 10.78125 35.597656 10.914062 35.503906 11.03125 C 35.410156 11.136719 35.257812 11.238281 35.121094 11.238281 Z M 35.121094 11.238281 " fill-opacity="1" fill-rule="nonzero"/><path fill="#628d4f" d="M 17.050781 32.054688 C 16.617188 32.082031 16.203125 32 15.890625 31.703125 C 15.578125 31.40625 15.417969 30.992188 15.28125 30.582031 C 15.210938 30.367188 15.144531 30.148438 15.019531 29.964844 C 14.800781 29.648438 14.429688 29.472656 14.101562 29.269531 C 13.265625 28.753906 12.601562 27.960938 12.363281 27.011719 C 12.128906 26.058594 12.351562 24.957031 13.039062 24.160156 C 13.613281 24.457031 13.886719 25.085938 14.125 25.675781 L 14.628906 26.921875 C 14.738281 27.191406 14.863281 27.484375 15.125 27.625 C 15.304688 27.722656 15.527344 27.738281 15.734375 27.78125 C 16.800781 28.015625 17.398438 29.210938 17.113281 30.273438 C 17.035156 30.558594 16.90625 30.835938 16.875 31.125 C 16.84375 31.417969 16.957031 31.941406 17.226562 32.050781 Z M 17.050781 32.054688 " fill-opacity="1" fill-rule="nonzero"/><path fill="#628d4f" d="M 16.796875 32.0625 C 16.136719 32.015625 15.835938 31.539062 15.613281 30.871094 C 15.390625 30.203125 15.429688 29.476562 15.5 28.78125 C 15.539062 28.414062 15.585938 28.046875 15.535156 27.683594 C 15.445312 27.058594 15.074219 26.527344 14.773438 25.980469 C 14.011719 24.601562 13.640625 22.949219 13.898438 21.390625 C 14.160156 19.828125 15.101562 18.386719 16.457031 17.746094 C 17.011719 18.609375 16.988281 19.730469 16.941406 20.765625 L 16.84375 22.957031 C 16.820312 23.4375 16.808594 23.957031 17.058594 24.359375 C 17.230469 24.640625 17.507812 24.824219 17.742188 25.042969 C 18.96875 26.183594 19.023438 28.375 18.023438 29.707031 C 17.753906 30.0625 17.421875 30.371094 17.210938 30.769531 C 17 31.171875 16.9375 31.699219 17.210938 32.058594 C 17.074219 32.070312 16.933594 32.070312 16.796875 32.0625 Z M 16.796875 32.0625 " fill-opacity="1" fill-rule="nonzero"/><path fill="#2e3545" d="M 15.546875 27.773438 C 15.648438 29.070312 15.15625 29.328125 15.191406 30.070312 C 15.214844 30.613281 15.410156 31.007812 15.6875 31.46875 C 15.964844 31.933594 16.578125 32.246094 17.113281 32 C 16.558594 31.9375 16.089844 31.511719 15.847656 31.007812 C 15.605469 30.507812 15.554688 29.933594 15.554688 29.375 C 15.558594 28.816406 15.609375 27.800781 15.546875 27.773438 Z M 15.546875 27.773438 " fill-opacity="1" fill-rule="nonzero"/><path fill="#2e3545" d="M 17.179688 31.863281 C 17.0625 31.761719 16.964844 31.644531 16.878906 31.515625 C 16.800781 31.386719 16.734375 31.25 16.683594 31.101562 C 16.589844 30.808594 16.542969 30.507812 16.546875 30.199219 C 16.550781 29.890625 16.582031 29.589844 16.640625 29.289062 C 16.699219 28.988281 16.769531 28.691406 16.828125 28.394531 C 16.855469 28.246094 16.886719 28.097656 16.90625 27.949219 C 16.917969 27.875 16.925781 27.796875 16.933594 27.722656 C 16.941406 27.648438 16.949219 27.574219 16.949219 27.5 C 16.964844 27.195312 16.9375 26.898438 16.859375 26.609375 C 16.777344 26.316406 16.667969 26.039062 16.523438 25.773438 C 16.386719 25.503906 16.226562 25.246094 16.070312 24.988281 C 15.910156 24.726562 15.753906 24.464844 15.613281 24.195312 C 15.574219 24.128906 15.542969 24.058594 15.511719 23.988281 C 15.476562 23.917969 15.449219 23.847656 15.417969 23.777344 C 15.359375 23.636719 15.304688 23.492188 15.257812 23.347656 C 15.074219 22.753906 15 22.148438 15.03125 21.53125 C 15.058594 20.914062 15.1875 20.320312 15.417969 19.746094 C 15.648438 19.175781 15.972656 18.660156 16.390625 18.207031 C 16.191406 18.4375 16.011719 18.683594 15.855469 18.945312 C 15.703125 19.207031 15.570312 19.480469 15.464844 19.765625 C 15.246094 20.335938 15.128906 20.925781 15.105469 21.535156 C 15.097656 21.835938 15.113281 22.136719 15.148438 22.4375 C 15.1875 22.738281 15.253906 23.03125 15.347656 23.320312 C 15.390625 23.460938 15.445312 23.601562 15.503906 23.742188 C 15.53125 23.808594 15.5625 23.878906 15.597656 23.949219 C 15.628906 24.015625 15.660156 24.082031 15.699219 24.148438 C 15.839844 24.417969 15.996094 24.675781 16.15625 24.933594 C 16.3125 25.195312 16.472656 25.457031 16.609375 25.730469 C 16.753906 26 16.867188 26.289062 16.949219 26.585938 C 17.027344 26.886719 17.054688 27.191406 17.035156 27.5 C 17.019531 27.808594 16.972656 28.109375 16.902344 28.410156 C 16.777344 29.003906 16.601562 29.589844 16.597656 30.199219 C 16.585938 30.503906 16.625 30.800781 16.710938 31.09375 C 16.757812 31.238281 16.816406 31.378906 16.894531 31.507812 C 16.972656 31.640625 17.066406 31.757812 17.179688 31.863281 Z M 17.179688 31.863281 " fill-opacity="1" fill-rule="nonzero"/><path fill="#2e3545" d="M 13.09375 24.199219 C 13.136719 24.445312 13.15625 24.691406 13.175781 24.941406 C 13.195312 25.1875 13.203125 25.4375 13.214844 25.683594 C 13.230469 25.933594 13.25 26.179688 13.285156 26.421875 C 13.316406 26.667969 13.367188 26.90625 13.445312 27.140625 C 13.515625 27.375 13.617188 27.597656 13.742188 27.808594 C 13.871094 28.019531 14.03125 28.199219 14.222656 28.355469 C 14.410156 28.507812 14.636719 28.617188 14.851562 28.746094 C 14.957031 28.808594 15.058594 28.882812 15.152344 28.96875 C 15.175781 28.988281 15.199219 29.011719 15.21875 29.035156 C 15.242188 29.058594 15.261719 29.082031 15.28125 29.105469 C 15.300781 29.132812 15.316406 29.160156 15.332031 29.183594 C 15.351562 29.210938 15.363281 29.238281 15.375 29.269531 C 15.3125 29.160156 15.234375 29.066406 15.136719 28.988281 C 15.039062 28.910156 14.9375 28.84375 14.824219 28.789062 C 14.609375 28.671875 14.378906 28.574219 14.175781 28.417969 C 14.148438 28.402344 14.125 28.378906 14.097656 28.359375 C 14.074219 28.339844 14.050781 28.320312 14.027344 28.296875 C 13.980469 28.253906 13.933594 28.210938 13.894531 28.160156 C 13.808594 28.066406 13.730469 27.96875 13.664062 27.859375 C 13.53125 27.644531 13.425781 27.414062 13.347656 27.171875 C 13.273438 26.933594 13.21875 26.6875 13.191406 26.4375 C 13.160156 26.1875 13.144531 25.9375 13.136719 25.691406 C 13.121094 25.191406 13.136719 24.695312 13.09375 24.199219 Z M 13.09375 24.199219 " fill-opacity="1" fill-rule="nonzero"/><path fill="#2e3545" d="M 35.453125 20.335938 C 35.472656 20.074219 35.511719 19.820312 35.570312 19.566406 C 35.585938 19.492188 35.609375 19.410156 35.675781 19.375 C 35.742188 19.335938 35.832031 19.359375 35.910156 19.386719 C 36.054688 19.445312 36.195312 19.515625 36.328125 19.601562 C 36.4375 19.667969 36.542969 19.75 36.605469 19.863281 C 36.667969 19.976562 36.683594 20.113281 36.683594 20.242188 C 36.683594 20.402344 36.667969 20.558594 36.636719 20.714844 C 36.621094 20.792969 36.59375 20.882812 36.519531 20.914062 C 36.464844 20.941406 36.398438 20.925781 36.339844 20.90625 C 35.992188 20.796875 35.699219 20.605469 35.453125 20.335938 Z M 35.453125 20.335938 " fill-opacity="1" fill-rule="nonzero"/><path fill="#2e3545" d="M 38.742188 32.332031 C 38.734375 32.332031 38.722656 32.328125 38.714844 32.324219 C 37.65625 31.636719 37.710938 29.984375 37.753906 29.496094 C 37.796875 29.019531 37.898438 28.542969 37.996094 28.085938 C 38.105469 27.578125 38.214844 27.054688 38.246094 26.535156 C 38.347656 24.796875 37.570312 23.136719 36.882812 21.671875 C 36.863281 21.640625 36.871094 21.617188 36.902344 21.601562 C 36.9375 21.585938 36.960938 21.597656 36.972656 21.628906 C 37.667969 23.105469 38.453125 24.777344 38.347656 26.539062 C 38.316406 27.070312 38.203125 27.597656 38.09375 28.105469 C 37.996094 28.5625 37.894531 29.035156 37.855469 29.503906 C 37.8125 29.976562 37.757812 31.582031 38.769531 32.238281 C 38.792969 32.253906 38.800781 32.273438 38.792969 32.296875 C 38.785156 32.320312 38.769531 32.332031 38.742188 32.332031 Z M 38.742188 32.332031 " fill-opacity="1" fill-rule="nonzero"/><path fill="#628d4f" d="M 38.09375 32.066406 C 37.15625 31.828125 36.828125 30.867188 37.121094 30.132812 C 37.417969 29.398438 38.136719 28.828125 38.746094 28.222656 C 39.355469 27.621094 39.894531 26.878906 39.726562 26.121094 C 39.65625 25.804688 39.464844 25.511719 39.371094 25.195312 C 39.277344 24.882812 39.304688 24.511719 39.609375 24.289062 C 40.3125 24.695312 40.957031 25.199219 41.304688 25.824219 C 41.648438 26.453125 41.652344 27.222656 41.152344 27.785156 C 40.644531 28.351562 39.671875 28.691406 39.496094 29.367188 C 39.296875 30.128906 40.257812 30.863281 40.039062 31.625 C 39.929688 32 39.144531 32.277344 38.648438 32.300781 C 38.269531 32.320312 38.300781 32.335938 38.09375 32.066406 Z M 38.09375 32.066406 " fill-opacity="1" fill-rule="nonzero"/><path fill="#628d4f" d="M 37.695312 32.296875 C 36.871094 32.097656 36.179688 31.550781 35.738281 30.972656 C 35.296875 30.398438 35.136719 29.691406 35.304688 29.03125 C 35.4375 28.492188 35.78125 27.972656 35.738281 27.421875 C 35.675781 26.695312 34.933594 26.058594 34.96875 25.332031 C 35.726562 25.332031 36.476562 25.601562 36.960938 26.050781 C 37.445312 26.503906 37.65625 27.125 37.519531 27.703125 C 37.429688 28.085938 37.195312 28.46875 37.304688 28.847656 C 37.421875 29.253906 37.886719 29.527344 38.195312 29.867188 C 38.683594 30.410156 38.753906 31.121094 38.628906 31.777344 C 38.601562 31.929688 38.605469 32.019531 38.496094 32.148438 C 38.382812 32.277344 38.511719 32.304688 38.285156 32.304688 C 38.085938 32.300781 37.839844 32.304688 37.695312 32.296875 Z M 37.695312 32.296875 " fill-opacity="1" fill-rule="nonzero"/><path fill="#2e3545" d="M 37.621094 29.355469 C 37.433594 29.574219 37.207031 29.753906 37.015625 29.96875 C 36.824219 30.183594 36.527344 30.660156 36.511719 30.949219 C 36.449219 31.972656 37.335938 32.230469 37.632812 32.28125 C 37.90625 32.320312 38.175781 32.324219 38.449219 32.300781 C 37.878906 32.128906 37.519531 32.035156 37.21875 31.519531 C 36.984375 31.117188 36.972656 30.574219 37.167969 30.152344 C 37.28125 29.914062 37.328125 29.765625 37.621094 29.355469 Z M 37.621094 29.355469 " fill-opacity="1" fill-rule="nonzero"/><path fill="#2e3545" d="M 38.621094 32.324219 C 38.609375 32.324219 38.597656 32.320312 38.59375 32.308594 C 38.015625 31.378906 38.058594 30.113281 38.695312 29.222656 C 38.917969 28.914062 39.203125 28.652344 39.480469 28.398438 C 39.554688 28.332031 39.632812 28.257812 39.707031 28.1875 C 40.03125 27.882812 40.378906 27.507812 40.539062 27.042969 C 40.730469 26.484375 40.652344 25.960938 40.316406 25.476562 C 40.300781 25.457031 40.304688 25.441406 40.324219 25.425781 C 40.34375 25.410156 40.359375 25.414062 40.371094 25.4375 C 40.722656 25.941406 40.800781 26.480469 40.605469 27.0625 C 40.4375 27.542969 40.082031 27.925781 39.753906 28.234375 C 39.679688 28.304688 39.601562 28.378906 39.523438 28.449219 C 39.25 28.699219 38.96875 28.957031 38.75 29.261719 C 38.128906 30.128906 38.085938 31.363281 38.648438 32.269531 C 38.660156 32.289062 38.65625 32.304688 38.636719 32.316406 C 38.632812 32.320312 38.628906 32.324219 38.621094 32.324219 Z M 38.621094 32.324219 " fill-opacity="1" fill-rule="nonzero"/><path fill="#2e3545" d="M 36.566406 30.558594 C 36.5625 30.558594 36.558594 30.554688 36.554688 30.554688 C 36.476562 30.527344 36.121094 29.988281 36.140625 29.605469 C 36.160156 29.152344 36.269531 28.851562 36.410156 28.472656 C 36.429688 28.414062 36.453125 28.351562 36.476562 28.289062 C 36.496094 28.230469 36.519531 28.171875 36.539062 28.113281 C 36.695312 27.695312 36.871094 27.222656 36.722656 26.808594 C 36.523438 26.269531 36.132812 26.019531 35.523438 25.761719 C 35.503906 25.753906 35.496094 25.738281 35.507812 25.71875 C 35.515625 25.699219 35.53125 25.691406 35.550781 25.699219 C 36.175781 25.960938 36.578125 26.222656 36.785156 26.785156 C 36.945312 27.222656 36.765625 27.707031 36.605469 28.136719 C 36.582031 28.195312 36.5625 28.253906 36.539062 28.3125 C 36.519531 28.375 36.496094 28.4375 36.472656 28.496094 C 36.335938 28.867188 36.226562 29.164062 36.207031 29.609375 C 36.191406 29.976562 36.53125 30.460938 36.582031 30.488281 C 36.601562 30.5 36.605469 30.511719 36.601562 30.53125 C 36.59375 30.550781 36.582031 30.558594 36.566406 30.558594 Z M 36.566406 30.558594 " fill-opacity="1" fill-rule="nonzero"/><path fill="#0059fd" d="M 35.03125 20.925781 C 35.300781 21.234375 35.613281 21.53125 36.007812 21.683594 C 36.40625 21.832031 36.914062 21.800781 37.210938 21.511719 C 37.382812 21.339844 37.464844 21.101562 37.488281 20.867188 C 37.542969 20.363281 37.414062 19.90625 37.105469 19.503906 C 37.105469 19.511719 36.878906 19.34375 36.554688 19.65625 C 36.417969 19.785156 36.363281 19.972656 36.363281 20.152344 C 36.359375 20.332031 36.410156 20.507812 36.460938 20.683594 C 36.234375 20.390625 35.816406 20.238281 35.4375 20.304688 C 35.253906 20.335938 35.074219 20.421875 34.988281 20.574219 C 34.90625 20.722656 34.964844 20.941406 35.03125 20.925781 Z M 35.03125 20.925781 " fill-opacity="1" fill-rule="nonzero"/><path fill="#2e3545" d="M 36.808594 21.488281 C 36.792969 21.488281 36.78125 21.480469 36.777344 21.460938 C 36.773438 21.445312 36.777344 21.433594 36.792969 21.425781 C 36.976562 21.328125 37.113281 21.183594 37.195312 20.992188 C 37.28125 20.800781 37.296875 20.601562 37.242188 20.398438 C 37.203125 20.265625 37.144531 20.136719 37.074219 20.011719 C 37.011719 19.902344 36.957031 19.785156 36.914062 19.664062 C 36.90625 19.640625 36.914062 19.628906 36.9375 19.621094 C 36.957031 19.613281 36.972656 19.621094 36.980469 19.640625 C 37.019531 19.761719 37.070312 19.871094 37.132812 19.980469 C 37.207031 20.109375 37.265625 20.242188 37.308594 20.382812 C 37.363281 20.601562 37.347656 20.8125 37.257812 21.015625 C 37.167969 21.222656 37.023438 21.378906 36.824219 21.484375 C 36.820312 21.488281 36.8125 21.488281 36.808594 21.488281 Z M 36.808594 21.488281 " fill-opacity="1" fill-rule="nonzero"/><path fill="#2e3545" d="M 36.277344 19.832031 C 36.269531 19.835938 36.257812 19.832031 36.253906 19.824219 C 36.125 19.679688 35.972656 19.582031 35.785156 19.535156 C 35.765625 19.53125 35.753906 19.515625 35.761719 19.496094 C 35.765625 19.472656 35.78125 19.464844 35.800781 19.46875 C 36 19.519531 36.167969 19.625 36.304688 19.777344 C 36.3125 19.789062 36.316406 19.800781 36.308594 19.8125 C 36.304688 19.828125 36.292969 19.832031 36.277344 19.832031 Z M 36.277344 19.832031 " fill-opacity="1" fill-rule="nonzero"/><path fill="#2e3545" d="M 16.710938 16.5625 C 16.5 16.5625 16.289062 16.5 16.132812 16.34375 C 16.113281 16.328125 16.113281 16.3125 16.132812 16.292969 C 16.148438 16.277344 16.164062 16.277344 16.179688 16.296875 C 16.433594 16.542969 16.835938 16.53125 17.125 16.40625 C 17.445312 16.273438 17.707031 16.007812 17.9375 15.773438 C 17.953125 15.757812 17.96875 15.757812 17.984375 15.773438 C 18 15.789062 18 15.804688 17.984375 15.820312 C 17.75 16.058594 17.484375 16.332031 17.152344 16.46875 C 17.011719 16.53125 16.863281 16.558594 16.710938 16.5625 Z M 16.710938 16.5625 " fill-opacity="1" fill-rule="nonzero"/><path fill="#2e3545" d="M 32.289062 37.144531 C 32.199219 37.144531 32.113281 37.128906 32.03125 37.089844 C 31.847656 37.007812 31.617188 36.699219 31.597656 36.511719 C 31.59375 36.488281 31.605469 36.476562 31.628906 36.476562 C 31.648438 36.472656 31.660156 36.480469 31.664062 36.503906 C 31.679688 36.667969 31.898438 36.957031 32.058594 37.027344 C 32.234375 37.105469 32.40625 37.097656 32.574219 37.003906 C 32.59375 36.992188 32.609375 36.996094 32.621094 37.015625 C 32.632812 37.035156 32.628906 37.050781 32.609375 37.0625 C 32.507812 37.117188 32.402344 37.144531 32.289062 37.144531 Z M 32.289062 37.144531 " fill-opacity="1" fill-rule="nonzero"/><path fill="#628d4f" d="M 2.703125 24.730469 C 2.914062 24.859375 2.929688 25.207031 2.894531 25.453125 C 2.683594 26.953125 1.328125 28.066406 0.972656 29.535156 C 0.675781 30.769531 1.183594 32.160156 2.207031 32.90625 C 2.777344 32.542969 3.191406 32.261719 3.707031 31.46875 C 3.984375 31.035156 3.882812 30.53125 3.71875 30.042969 C 3.554688 29.554688 3.289062 29.09375 3.238281 28.585938 C 3.125 27.386719 4.230469 26.3125 4.121094 25.113281 C 3.648438 25 3.183594 24.847656 2.703125 24.730469 Z M 2.703125 24.730469 " fill-opacity="1" fill-rule="nonzero"/><path fill="#2e3545" d="M 3.515625 24.953125 C 3.5 25.117188 3.484375 25.28125 3.460938 25.445312 C 3.433594 25.609375 3.40625 25.773438 3.375 25.933594 C 3.304688 26.257812 3.21875 26.578125 3.117188 26.890625 C 3.015625 27.207031 2.890625 27.511719 2.761719 27.816406 C 2.628906 28.121094 2.480469 28.414062 2.359375 28.71875 C 2.234375 29.019531 2.132812 29.332031 2.101562 29.65625 C 2.074219 29.980469 2.128906 30.300781 2.195312 30.621094 C 2.265625 30.941406 2.351562 31.265625 2.382812 31.59375 C 2.398438 31.761719 2.398438 31.925781 2.378906 32.09375 C 2.367188 32.175781 2.351562 32.253906 2.328125 32.335938 C 2.304688 32.414062 2.277344 32.492188 2.242188 32.566406 C 2.300781 32.414062 2.339844 32.253906 2.351562 32.089844 C 2.363281 31.925781 2.355469 31.761719 2.332031 31.597656 C 2.289062 31.273438 2.195312 30.960938 2.117188 30.636719 C 2.039062 30.316406 1.980469 29.984375 2.007812 29.648438 C 2.03125 29.308594 2.136719 28.988281 2.261719 28.679688 C 2.386719 28.375 2.535156 28.078125 2.667969 27.777344 C 2.800781 27.480469 2.929688 27.175781 3.042969 26.867188 C 3.261719 26.246094 3.421875 25.605469 3.515625 24.953125 Z M 3.515625 24.953125 " fill-opacity="1" fill-rule="nonzero"/><g transform="matrix(1, 0, 0, 1, 8, 26)"><g clip-path="url(#6b68a4a6b3)"><g clip-path="url(#d1814a8738)"><g fill="#000000" fill-opacity="1"><g transform="translate(0.62894, 1.47713)"><g><path d="M 0.09375 0.03125 L 0.203125 -0.34375 L 0.140625 -0.375 L 0.15625 -0.4375 L 0.21875 -0.40625 C 0.226562 -0.425781 0.234375 -0.445312 0.234375 -0.46875 C 0.242188 -0.488281 0.253906 -0.507812 0.265625 -0.53125 C 0.285156 -0.550781 0.304688 -0.5625 0.328125 -0.5625 C 0.347656 -0.570312 0.375 -0.570312 0.40625 -0.5625 C 0.445312 -0.539062 0.476562 -0.519531 0.5 -0.5 L 0.453125 -0.453125 C 0.441406 -0.484375 0.421875 -0.503906 0.390625 -0.515625 C 0.359375 -0.523438 0.335938 -0.519531 0.328125 -0.5 C 0.316406 -0.488281 0.304688 -0.472656 0.296875 -0.453125 C 0.296875 -0.429688 0.296875 -0.410156 0.296875 -0.390625 L 0.421875 -0.34375 L 0.40625 -0.28125 L 0.28125 -0.328125 L 0.171875 0.046875 Z M 0.09375 0.03125 "/></g></g><g transform="translate(0.940681, 1.566321)"><g><path d="M 0.171875 0.0625 C 0.140625 0.0507812 0.117188 0.03125 0.109375 0 C 0.0976562 -0.0195312 0.0976562 -0.046875 0.109375 -0.078125 L 0.25 -0.59375 L 0.3125 -0.5625 L 0.171875 -0.046875 C 0.160156 -0.0351562 0.160156 -0.0234375 0.171875 -0.015625 C 0.179688 -0.00390625 0.1875 0 0.1875 0 C 0.195312 0 0.210938 0.00390625 0.234375 0.015625 L 0.234375 0.0625 C 0.222656 0.0625 0.210938 0.0625 0.203125 0.0625 C 0.191406 0.0625 0.179688 0.0625 0.171875 0.0625 Z M 0.171875 0.0625 "/></g></g><g transform="translate(1.178651, 1.634406)"><g><path d="M 0.046875 0.21875 C 0.0234375 0.207031 0.0078125 0.195312 0 0.1875 C -0.0078125 0.175781 -0.0195312 0.171875 -0.03125 0.171875 L 0 0.109375 L 0 0.125 C 0 0.132812 0.00390625 0.140625 0.015625 0.140625 C 0.0351562 0.140625 0.0507812 0.144531 0.0625 0.15625 C 0.0703125 0.15625 0.0820312 0.15625 0.09375 0.15625 C 0.113281 0.15625 0.128906 0.148438 0.140625 0.140625 C 0.148438 0.128906 0.15625 0.113281 0.15625 0.09375 L 0.203125 0.078125 L 0.15625 -0.4375 L 0.21875 -0.40625 L 0.25 -0.015625 L 0.5 -0.328125 L 0.5625 -0.3125 L 0.21875 0.125 C 0.207031 0.15625 0.1875 0.175781 0.15625 0.1875 C 0.132812 0.207031 0.113281 0.21875 0.09375 0.21875 C 0.0820312 0.21875 0.0664062 0.21875 0.046875 0.21875 Z M 0.046875 0.21875 "/></g></g></g></g><g fill="#000000" fill-opacity="1"><g transform="translate(1.631589, 1.763995)"><g><path d="M 0.171875 0.0625 C 0.128906 0.0507812 0.0976562 0.03125 0.078125 0 C 0.0546875 -0.03125 0.0507812 -0.0664062 0.0625 -0.109375 C 0.0703125 -0.140625 0.0859375 -0.160156 0.109375 -0.171875 C 0.128906 -0.191406 0.148438 -0.203125 0.171875 -0.203125 C 0.203125 -0.203125 0.238281 -0.195312 0.28125 -0.1875 C 0.300781 -0.195312 0.320312 -0.203125 0.34375 -0.203125 C 0.363281 -0.203125 0.378906 -0.203125 0.390625 -0.203125 C 0.398438 -0.203125 0.40625 -0.210938 0.40625 -0.234375 C 0.414062 -0.253906 0.410156 -0.269531 0.390625 -0.28125 C 0.378906 -0.300781 0.363281 -0.316406 0.34375 -0.328125 C 0.300781 -0.335938 0.269531 -0.335938 0.25 -0.328125 C 0.238281 -0.328125 0.21875 -0.316406 0.1875 -0.296875 L 0.171875 -0.359375 C 0.191406 -0.367188 0.21875 -0.375 0.25 -0.375 C 0.28125 -0.382812 0.316406 -0.382812 0.359375 -0.375 C 0.398438 -0.351562 0.429688 -0.328125 0.453125 -0.296875 C 0.472656 -0.273438 0.476562 -0.242188 0.46875 -0.203125 L 0.40625 0.015625 C 0.394531 0.046875 0.398438 0.0625 0.421875 0.0625 C 0.429688 0.0703125 0.441406 0.078125 0.453125 0.078125 L 0.4375 0.109375 C 0.4375 0.117188 0.429688 0.117188 0.421875 0.109375 C 0.410156 0.109375 0.398438 0.109375 0.390625 0.109375 C 0.367188 0.109375 0.351562 0.0976562 0.34375 0.078125 C 0.332031 0.0664062 0.328125 0.0507812 0.328125 0.03125 L 0.3125 0.03125 C 0.300781 0.0390625 0.285156 0.0507812 0.265625 0.0625 C 0.242188 0.0703125 0.210938 0.0703125 0.171875 0.0625 Z M 0.203125 0.015625 C 0.234375 0.0234375 0.253906 0.0234375 0.265625 0.015625 C 0.285156 0.00390625 0.304688 -0.00390625 0.328125 -0.015625 C 0.347656 -0.0351562 0.359375 -0.0546875 0.359375 -0.078125 L 0.375 -0.140625 L 0.359375 -0.140625 C 0.359375 -0.148438 0.347656 -0.148438 0.328125 -0.140625 C 0.316406 -0.140625 0.300781 -0.140625 0.28125 -0.140625 C 0.25 -0.148438 0.222656 -0.148438 0.203125 -0.140625 C 0.179688 -0.140625 0.164062 -0.132812 0.15625 -0.125 C 0.15625 -0.125 0.148438 -0.113281 0.140625 -0.09375 C 0.140625 -0.0703125 0.144531 -0.046875 0.15625 -0.015625 C 0.164062 0.00390625 0.179688 0.015625 0.203125 0.015625 Z M 0.203125 0.015625 "/></g></g><g transform="translate(2.084129, 1.89347)"><g><path d="M 0.296875 0.09375 C 0.253906 0.0820312 0.222656 0.0664062 0.203125 0.046875 C 0.179688 0.0234375 0.171875 0.00390625 0.171875 -0.015625 L 0.15625 -0.015625 L 0.140625 0.046875 L 0.078125 0.015625 L 0.25 -0.59375 L 0.3125 -0.5625 L 0.25 -0.328125 L 0.265625 -0.328125 C 0.304688 -0.359375 0.359375 -0.367188 0.421875 -0.359375 C 0.453125 -0.347656 0.476562 -0.328125 0.5 -0.296875 C 0.53125 -0.273438 0.546875 -0.242188 0.546875 -0.203125 C 0.546875 -0.171875 0.539062 -0.128906 0.53125 -0.078125 C 0.519531 -0.0234375 0.503906 0.015625 0.484375 0.046875 C 0.460938 0.078125 0.429688 0.09375 0.390625 0.09375 C 0.359375 0.101562 0.328125 0.101562 0.296875 0.09375 Z M 0.296875 0.03125 C 0.378906 0.0507812 0.4375 0.00390625 0.46875 -0.109375 C 0.488281 -0.160156 0.488281 -0.203125 0.46875 -0.234375 C 0.457031 -0.273438 0.429688 -0.300781 0.390625 -0.3125 C 0.347656 -0.320312 0.3125 -0.3125 0.28125 -0.28125 C 0.25 -0.257812 0.222656 -0.222656 0.203125 -0.171875 C 0.191406 -0.117188 0.191406 -0.0703125 0.203125 -0.03125 C 0.222656 0 0.253906 0.0195312 0.296875 0.03125 Z M 0.296875 0.03125 "/></g></g><g transform="translate(2.606077, 2.042803)"><g><path d="M 0.078125 0.015625 L 0.203125 -0.421875 L 0.265625 -0.390625 L 0.25 -0.328125 L 0.265625 -0.328125 C 0.285156 -0.367188 0.328125 -0.378906 0.390625 -0.359375 C 0.410156 -0.347656 0.429688 -0.34375 0.453125 -0.34375 L 0.421875 -0.28125 L 0.40625 -0.28125 C 0.394531 -0.289062 0.378906 -0.296875 0.359375 -0.296875 C 0.328125 -0.304688 0.296875 -0.300781 0.265625 -0.28125 C 0.242188 -0.257812 0.222656 -0.222656 0.203125 -0.171875 L 0.140625 0.046875 Z M 0.078125 0.015625 "/></g></g></g><g clip-path="url(#74b979d431)"><g fill="#000000" fill-opacity="1"><g transform="translate(2.932494, 2.136193)"><g><path d="M 0.25 0.09375 C 0.207031 0.0703125 0.171875 0.0507812 0.140625 0.03125 C 0.117188 0.0078125 0.101562 -0.0195312 0.09375 -0.0625 C 0.09375 -0.113281 0.0976562 -0.160156 0.109375 -0.203125 C 0.117188 -0.253906 0.132812 -0.289062 0.15625 -0.3125 C 0.1875 -0.34375 0.21875 -0.363281 0.25 -0.375 C 0.289062 -0.382812 0.332031 -0.378906 0.375 -0.359375 C 0.414062 -0.347656 0.445312 -0.332031 0.46875 -0.3125 C 0.5 -0.289062 0.515625 -0.257812 0.515625 -0.21875 C 0.523438 -0.1875 0.523438 -0.144531 0.515625 -0.09375 C 0.503906 -0.0507812 0.484375 -0.015625 0.453125 0.015625 C 0.429688 0.0546875 0.398438 0.0820312 0.359375 0.09375 C 0.328125 0.101562 0.289062 0.101562 0.25 0.09375 Z M 0.265625 0.03125 C 0.304688 0.0390625 0.335938 0.0351562 0.359375 0.015625 C 0.390625 -0.00390625 0.414062 -0.046875 0.4375 -0.109375 C 0.457031 -0.160156 0.457031 -0.203125 0.4375 -0.234375 C 0.425781 -0.273438 0.398438 -0.300781 0.359375 -0.3125 C 0.316406 -0.332031 0.28125 -0.328125 0.25 -0.296875 C 0.21875 -0.273438 0.191406 -0.238281 0.171875 -0.1875 C 0.148438 -0.125 0.148438 -0.078125 0.171875 -0.046875 C 0.191406 -0.015625 0.222656 0.0078125 0.265625 0.03125 Z M 0.265625 0.03125 "/></g></g><g transform="translate(3.434611, 2.279852)"><g><path d="M 0.171875 0.0625 C 0.128906 0.0507812 0.0976562 0.03125 0.078125 0 C 0.0546875 -0.03125 0.0507812 -0.0664062 0.0625 -0.109375 C 0.0703125 -0.140625 0.0859375 -0.160156 0.109375 -0.171875 C 0.128906 -0.191406 0.148438 -0.203125 0.171875 -0.203125 C 0.203125 -0.203125 0.238281 -0.195312 0.28125 -0.1875 C 0.300781 -0.195312 0.320312 -0.203125 0.34375 -0.203125 C 0.363281 -0.203125 0.378906 -0.203125 0.390625 -0.203125 C 0.398438 -0.203125 0.40625 -0.210938 0.40625 -0.234375 C 0.414062 -0.253906 0.410156 -0.269531 0.390625 -0.28125 C 0.378906 -0.300781 0.363281 -0.316406 0.34375 -0.328125 C 0.300781 -0.335938 0.269531 -0.335938 0.25 -0.328125 C 0.238281 -0.328125 0.21875 -0.316406 0.1875 -0.296875 L 0.171875 -0.359375 C 0.191406 -0.367188 0.21875 -0.375 0.25 -0.375 C 0.28125 -0.382812 0.316406 -0.382812 0.359375 -0.375 C 0.398438 -0.351562 0.429688 -0.328125 0.453125 -0.296875 C 0.472656 -0.273438 0.476562 -0.242188 0.46875 -0.203125 L 0.40625 0.015625 C 0.394531 0.046875 0.398438 0.0625 0.421875 0.0625 C 0.429688 0.0703125 0.441406 0.078125 0.453125 0.078125 L 0.4375 0.109375 C 0.4375 0.117188 0.429688 0.117188 0.421875 0.109375 C 0.410156 0.109375 0.398438 0.109375 0.390625 0.109375 C 0.367188 0.109375 0.351562 0.0976562 0.34375 0.078125 C 0.332031 0.0664062 0.328125 0.0507812 0.328125 0.03125 L 0.3125 0.03125 C 0.300781 0.0390625 0.285156 0.0507812 0.265625 0.0625 C 0.242188 0.0703125 0.210938 0.0703125 0.171875 0.0625 Z M 0.203125 0.015625 C 0.234375 0.0234375 0.253906 0.0234375 0.265625 0.015625 C 0.285156 0.00390625 0.304688 -0.00390625 0.328125 -0.015625 C 0.347656 -0.0351562 0.359375 -0.0546875 0.359375 -0.078125 L 0.375 -0.140625 L 0.359375 -0.140625 C 0.359375 -0.148438 0.347656 -0.148438 0.328125 -0.140625 C 0.316406 -0.140625 0.300781 -0.140625 0.28125 -0.140625 C 0.25 -0.148438 0.222656 -0.148438 0.203125 -0.140625 C 0.179688 -0.140625 0.164062 -0.132812 0.15625 -0.125 C 0.15625 -0.125 0.148438 -0.113281 0.140625 -0.09375 C 0.140625 -0.0703125 0.144531 -0.046875 0.15625 -0.015625 C 0.164062 0.00390625 0.179688 0.015625 0.203125 0.015625 Z M 0.203125 0.015625 "/></g></g><g transform="translate(3.887152, 2.409327)"><g><path d="M 0.234375 0.078125 C 0.191406 0.0664062 0.160156 0.0507812 0.140625 0.03125 C 0.117188 0.0078125 0.101562 -0.0195312 0.09375 -0.0625 C 0.09375 -0.101562 0.0976562 -0.148438 0.109375 -0.203125 C 0.117188 -0.253906 0.132812 -0.289062 0.15625 -0.3125 C 0.1875 -0.34375 0.21875 -0.363281 0.25 -0.375 C 0.28125 -0.382812 0.316406 -0.382812 0.359375 -0.375 C 0.390625 -0.363281 0.414062 -0.351562 0.4375 -0.34375 C 0.457031 -0.332031 0.472656 -0.304688 0.484375 -0.265625 L 0.546875 -0.5 L 0.609375 -0.484375 L 0.4375 0.125 L 0.375 0.109375 L 0.390625 0.046875 C 0.378906 0.0664062 0.359375 0.078125 0.328125 0.078125 C 0.296875 0.0859375 0.265625 0.0859375 0.234375 0.078125 Z M 0.25 0.015625 C 0.289062 0.0351562 0.328125 0.03125 0.359375 0 C 0.398438 -0.0195312 0.425781 -0.0546875 0.4375 -0.109375 C 0.457031 -0.160156 0.457031 -0.203125 0.4375 -0.234375 C 0.414062 -0.273438 0.382812 -0.304688 0.34375 -0.328125 C 0.3125 -0.335938 0.28125 -0.328125 0.25 -0.296875 C 0.21875 -0.273438 0.191406 -0.238281 0.171875 -0.1875 C 0.140625 -0.0703125 0.164062 -0.00390625 0.25 0.015625 Z M 0.25 0.015625 "/></g></g></g></g></g></g></svg>