<svg xmlns="http://www.w3.org/2000/svg" xmlns:xlink="http://www.w3.org/1999/xlink" width="50" zoomAndPan="magnify" viewBox="0 0 37.5 30.000001" height="40" preserveAspectRatio="xMidYMid meet" version="1.0"><defs><g/><clipPath id="c63dcb0ed3"><path d="M 5.1875 1.195312 L 31.828125 1.195312 L 31.828125 27.835938 L 5.1875 27.835938 Z M 5.1875 1.195312 " clip-rule="nonzero"/></clipPath><clipPath id="39124006a4"><path d="M 18.507812 1.195312 C 11.152344 1.195312 5.1875 7.160156 5.1875 14.515625 C 5.1875 21.871094 11.152344 27.835938 18.507812 27.835938 C 25.863281 27.835938 31.828125 21.871094 31.828125 14.515625 C 31.828125 7.160156 25.863281 1.195312 18.507812 1.195312 Z M 18.507812 1.195312 " clip-rule="nonzero"/></clipPath><clipPath id="0d22fdf59a"><path d="M 0.1875 0.195312 L 26.828125 0.195312 L 26.828125 26.835938 L 0.1875 26.835938 Z M 0.1875 0.195312 " clip-rule="nonzero"/></clipPath><clipPath id="8e3af4a071"><path d="M 13.507812 0.195312 C 6.152344 0.195312 0.1875 6.160156 0.1875 13.515625 C 0.1875 20.871094 6.152344 26.835938 13.507812 26.835938 C 20.863281 26.835938 26.828125 20.871094 26.828125 13.515625 C 26.828125 6.160156 20.863281 0.195312 13.507812 0.195312 Z M 13.507812 0.195312 " clip-rule="nonzero"/></clipPath><clipPath id="a731ee526b"><rect x="0" width="27" y="0" height="27"/></clipPath><clipPath id="844da69cf0"><path d="M 6.894531 2.902344 L 30.121094 2.902344 L 30.121094 26.128906 L 6.894531 26.128906 Z M 6.894531 2.902344 " clip-rule="nonzero"/></clipPath><clipPath id="96959f5279"><path d="M 0.296875 1 L 4 1 L 4 3.851562 L 0.296875 3.851562 Z M 0.296875 1 " clip-rule="nonzero"/></clipPath><clipPath id="b425f832be"><path d="M 3 1 L 7 1 L 7 3.851562 L 3 3.851562 Z M 3 1 " clip-rule="nonzero"/></clipPath><clipPath id="0032c7b6cf"><rect x="0" width="8" y="0" height="4"/></clipPath></defs><g clip-path="url(#c63dcb0ed3)"><g clip-path="url(#39124006a4)"><g transform="matrix(1, 0, 0, 1, 5, 1)"><g clip-path="url(#a731ee526b)"><g clip-path="url(#0d22fdf59a)"><g clip-path="url(#8e3af4a071)"><path fill="#b0c7ee" d="M 0.1875 0.195312 L 26.828125 0.195312 L 26.828125 26.835938 L 0.1875 26.835938 Z M 0.1875 0.195312 " fill-opacity="1" fill-rule="nonzero"/></g></g></g></g></g></g><g clip-path="url(#844da69cf0)"><path fill="#b0c7ee" d="M 18.507812 26.128906 C 24.902344 26.128906 30.121094 20.914062 30.121094 14.515625 C 30.121094 8.121094 24.902344 2.902344 18.507812 2.902344 C 12.113281 2.902344 6.894531 8.121094 6.894531 14.515625 C 6.894531 20.914062 12.113281 26.128906 18.507812 26.128906 Z M 18.507812 26.128906 " fill-opacity="1" fill-rule="evenodd"/></g><path fill="#6699ff" d="M 11.933594 14.175781 L 11.933594 20.773438 L 16.050781 16.660156 Z M 11.933594 14.175781 " fill-opacity="1" fill-rule="evenodd"/><path fill="#6699ff" d="M 23.851562 13.050781 L 23.851562 14.457031 L 24.933594 13.804688 Z M 23.851562 13.050781 " fill-opacity="1" fill-rule="evenodd"/><path fill="#6699ff" d="M 21.460938 8.222656 L 21.460938 9.9375 L 23.175781 9.9375 Z M 21.460938 8.222656 " fill-opacity="1" fill-rule="evenodd"/><path fill="#6699ff" d="M 13.164062 13.050781 L 12.082031 13.804688 L 13.164062 14.457031 Z M 13.164062 13.050781 " fill-opacity="1" fill-rule="evenodd"/><path fill="#6699ff" d="M 25.082031 20.773438 L 25.082031 14.175781 L 20.964844 16.660156 Z M 25.082031 20.773438 " fill-opacity="1" fill-rule="evenodd"/><path fill="#6699ff" d="M 20.824219 18.511719 C 20.824219 19.785156 19.785156 20.824219 18.507812 20.824219 C 17.230469 20.824219 16.195312 19.785156 16.195312 18.511719 C 16.195312 17.234375 17.230469 16.195312 18.507812 16.195312 C 19.785156 16.195312 20.824219 17.234375 20.824219 18.511719 Z M 18.507812 15.132812 C 18.265625 15.132812 18.039062 15.226562 17.871094 15.398438 L 12.179688 21.089844 L 24.835938 21.089844 L 19.144531 15.398438 C 18.976562 15.226562 18.75 15.132812 18.507812 15.132812 Z M 18.507812 15.132812 " fill-opacity="1" fill-rule="evenodd"/><path fill="#003399" d="M 14.445312 9.105469 L 20.433594 9.105469 C 20.542969 9.105469 20.632812 9.015625 20.632812 8.90625 C 20.632812 8.796875 20.542969 8.707031 20.433594 8.707031 L 14.445312 8.707031 C 14.335938 8.707031 14.25 8.796875 14.25 8.90625 C 14.25 9.015625 14.335938 9.105469 14.445312 9.105469 Z M 14.445312 9.105469 " fill-opacity="1" fill-rule="evenodd"/><path fill="#003399" d="M 22.894531 14.089844 C 22.894531 13.980469 22.808594 13.890625 22.699219 13.890625 L 14.445312 13.890625 C 14.335938 13.890625 14.25 13.980469 14.25 14.089844 C 14.25 14.199219 14.335938 14.289062 14.445312 14.289062 L 22.699219 14.289062 C 22.808594 14.289062 22.894531 14.199219 22.894531 14.089844 Z M 22.894531 14.089844 " fill-opacity="1" fill-rule="evenodd"/><path fill="#003399" d="M 19.441406 17.765625 C 19.464844 17.742188 19.496094 17.738281 19.511719 17.738281 C 19.527344 17.738281 19.554688 17.742188 19.578125 17.769531 C 19.617188 17.804688 19.617188 17.867188 19.578125 17.90625 L 18.441406 19.042969 L 18.234375 19.253906 C 18.195312 19.292969 18.132812 19.292969 18.09375 19.253906 L 17.4375 18.59375 C 17.398438 18.558594 17.398438 18.496094 17.4375 18.457031 C 17.457031 18.4375 17.480469 18.429688 17.507812 18.429688 C 17.53125 18.429688 17.558594 18.4375 17.574219 18.457031 L 18.023438 18.90625 C 18.0625 18.941406 18.109375 18.964844 18.164062 18.964844 C 18.214844 18.964844 18.265625 18.945312 18.304688 18.90625 Z M 17.855469 18.175781 C 17.664062 17.984375 17.351562 17.984375 17.15625 18.175781 C 17.0625 18.269531 17.011719 18.394531 17.011719 18.527344 C 17.011719 18.65625 17.0625 18.78125 17.15625 18.875 L 17.816406 19.53125 C 17.910156 19.628906 18.039062 19.675781 18.164062 19.675781 C 18.289062 19.675781 18.417969 19.628906 18.511719 19.53125 L 18.722656 19.324219 L 19.859375 18.1875 C 20.050781 17.996094 20.050781 17.679688 19.859375 17.488281 C 19.765625 17.394531 19.644531 17.34375 19.511719 17.34375 C 19.378906 17.34375 19.253906 17.394531 19.160156 17.488281 L 18.164062 18.488281 Z M 17.855469 18.175781 " fill-opacity="1" fill-rule="evenodd"/><path fill="#003399" d="M 20.425781 18.511719 C 20.425781 19.570312 19.566406 20.429688 18.507812 20.429688 C 17.449219 20.429688 16.589844 19.570312 16.589844 18.511719 C 16.589844 17.453125 17.449219 16.589844 18.507812 16.589844 C 19.566406 16.589844 20.425781 17.453125 20.425781 18.511719 Z M 16.195312 18.511719 C 16.195312 19.785156 17.230469 20.824219 18.507812 20.824219 C 19.785156 20.824219 20.824219 19.785156 20.824219 18.511719 C 20.824219 17.234375 19.785156 16.195312 18.507812 16.195312 C 17.230469 16.195312 16.195312 17.234375 16.195312 18.511719 Z M 16.195312 18.511719 " fill-opacity="1" fill-rule="evenodd"/><path fill="#003399" d="M 14.445312 10.140625 L 20.433594 10.140625 C 20.542969 10.140625 20.632812 10.054688 20.632812 9.945312 C 20.632812 9.835938 20.542969 9.746094 20.433594 9.746094 L 14.445312 9.746094 C 14.335938 9.746094 14.25 9.835938 14.25 9.945312 C 14.25 10.054688 14.335938 10.140625 14.445312 10.140625 Z M 14.445312 10.140625 " fill-opacity="1" fill-rule="evenodd"/><path fill="#003399" d="M 14.445312 11.179688 L 22.699219 11.179688 C 22.808594 11.179688 22.894531 11.089844 22.894531 10.980469 C 22.894531 10.871094 22.808594 10.78125 22.699219 10.78125 L 14.445312 10.78125 C 14.335938 10.78125 14.25 10.871094 14.25 10.980469 C 14.25 11.089844 14.335938 11.179688 14.445312 11.179688 Z M 14.445312 11.179688 " fill-opacity="1" fill-rule="evenodd"/><path fill="#003399" d="M 14.445312 12.214844 L 22.699219 12.214844 C 22.808594 12.214844 22.894531 12.125 22.894531 12.015625 C 22.894531 11.90625 22.808594 11.820312 22.699219 11.820312 L 14.445312 11.820312 C 14.335938 11.820312 14.25 11.90625 14.25 12.015625 C 14.25 12.125 14.335938 12.214844 14.445312 12.214844 Z M 14.445312 12.214844 " fill-opacity="1" fill-rule="evenodd"/><path fill="#003399" d="M 14.445312 13.25 L 22.699219 13.25 C 22.808594 13.25 22.894531 13.164062 22.894531 13.054688 C 22.894531 12.945312 22.808594 12.855469 22.699219 12.855469 L 14.445312 12.855469 C 14.335938 12.855469 14.25 12.945312 14.25 13.054688 C 14.25 13.164062 14.335938 13.25 14.445312 13.25 Z M 14.445312 13.25 " fill-opacity="1" fill-rule="evenodd"/><path fill="#003399" d="M 25.082031 20.773438 L 20.964844 16.660156 L 25.082031 14.175781 Z M 12.179688 21.089844 L 17.871094 15.398438 C 18.039062 15.226562 18.265625 15.132812 18.507812 15.132812 C 18.75 15.132812 18.976562 15.226562 19.144531 15.398438 L 24.835938 21.089844 Z M 11.933594 14.175781 L 16.050781 16.660156 L 11.933594 20.773438 Z M 13.164062 13.050781 L 13.164062 14.457031 L 12.082031 13.804688 Z M 13.5625 7.945312 L 21.066406 7.945312 L 21.066406 10.136719 C 21.066406 10.246094 21.15625 10.332031 21.261719 10.332031 L 23.457031 10.332031 L 23.457031 14.695312 L 20.679688 16.371094 L 19.425781 15.117188 C 19.179688 14.875 18.855469 14.738281 18.507812 14.738281 C 18.160156 14.738281 17.835938 14.875 17.59375 15.117188 L 16.339844 16.371094 L 13.5625 14.695312 Z M 21.460938 8.222656 L 23.175781 9.9375 L 21.460938 9.9375 Z M 23.851562 13.050781 L 24.933594 13.804688 L 23.851562 14.457031 Z M 25.390625 13.640625 L 23.851562 12.570312 L 23.851562 10.136719 C 23.851562 10.128906 23.851562 10.125 23.851562 10.117188 C 23.847656 10.109375 23.847656 10.105469 23.847656 10.101562 C 23.847656 10.101562 23.847656 10.097656 23.847656 10.097656 C 23.847656 10.089844 23.84375 10.085938 23.84375 10.078125 C 23.839844 10.074219 23.839844 10.066406 23.835938 10.0625 C 23.835938 10.054688 23.832031 10.050781 23.828125 10.042969 C 23.824219 10.039062 23.820312 10.035156 23.820312 10.027344 C 23.820312 10.027344 23.816406 10.027344 23.816406 10.027344 C 23.816406 10.023438 23.8125 10.019531 23.808594 10.015625 C 23.808594 10.011719 23.808594 10.011719 23.804688 10.011719 C 23.800781 10.003906 23.796875 10 23.792969 9.996094 L 21.402344 7.605469 C 21.398438 7.601562 21.394531 7.597656 21.390625 7.59375 C 21.386719 7.59375 21.386719 7.59375 21.386719 7.589844 C 21.382812 7.589844 21.378906 7.585938 21.371094 7.582031 C 21.367188 7.578125 21.363281 7.574219 21.355469 7.574219 C 21.355469 7.570312 21.355469 7.570312 21.355469 7.570312 C 21.351562 7.570312 21.34375 7.566406 21.339844 7.5625 C 21.332031 7.5625 21.328125 7.558594 21.320312 7.558594 C 21.3125 7.554688 21.308594 7.554688 21.300781 7.550781 L 21.296875 7.550781 C 21.292969 7.550781 21.289062 7.550781 21.285156 7.550781 C 21.277344 7.550781 21.269531 7.546875 21.261719 7.546875 L 13.363281 7.546875 C 13.253906 7.546875 13.164062 7.636719 13.164062 7.746094 L 13.164062 12.570312 L 11.625 13.640625 C 11.574219 13.675781 11.539062 13.738281 11.539062 13.800781 L 11.539062 21.285156 C 11.539062 21.394531 11.628906 21.484375 11.738281 21.484375 L 25.277344 21.484375 C 25.386719 21.484375 25.476562 21.394531 25.476562 21.285156 L 25.476562 13.800781 C 25.476562 13.738281 25.445312 13.675781 25.390625 13.640625 Z M 25.390625 13.640625 " fill-opacity="1" fill-rule="evenodd"/><g transform="matrix(1, 0, 0, 1, 14, 21)"><g clip-path="url(#0032c7b6cf)"><g clip-path="url(#96959f5279)"><g fill="#b0c7ee" fill-opacity="1"><g transform="translate(0.328569, 3.091795)"><g><path d="M 0.4375 0.015625 C 0.332031 0.015625 0.25 -0.0078125 0.1875 -0.0625 C 0.132812 -0.113281 0.109375 -0.191406 0.109375 -0.296875 C 0.109375 -0.359375 0.117188 -0.410156 0.140625 -0.453125 C 0.171875 -0.492188 0.210938 -0.523438 0.265625 -0.546875 C 0.316406 -0.578125 0.382812 -0.597656 0.46875 -0.609375 C 0.539062 -0.617188 0.597656 -0.628906 0.640625 -0.640625 C 0.679688 -0.660156 0.707031 -0.679688 0.71875 -0.703125 C 0.738281 -0.722656 0.75 -0.75 0.75 -0.78125 C 0.75 -0.832031 0.726562 -0.867188 0.6875 -0.890625 C 0.65625 -0.910156 0.601562 -0.921875 0.53125 -0.921875 C 0.46875 -0.921875 0.410156 -0.90625 0.359375 -0.875 C 0.316406 -0.851562 0.273438 -0.816406 0.234375 -0.765625 L 0.21875 -0.765625 L 0.140625 -0.875 C 0.179688 -0.9375 0.234375 -0.984375 0.296875 -1.015625 C 0.367188 -1.046875 0.445312 -1.0625 0.53125 -1.0625 C 0.65625 -1.0625 0.742188 -1.035156 0.796875 -0.984375 C 0.859375 -0.929688 0.890625 -0.859375 0.890625 -0.765625 L 0.890625 -0.203125 C 0.890625 -0.148438 0.914062 -0.125 0.96875 -0.125 C 0.988281 -0.125 1.003906 -0.125 1.015625 -0.125 L 1.03125 -0.125 L 1.046875 -0.015625 C 1.035156 -0.00390625 1.019531 0 1 0 C 0.976562 0 0.960938 0 0.953125 0 C 0.890625 0 0.84375 -0.0078125 0.8125 -0.03125 C 0.78125 -0.0507812 0.765625 -0.0859375 0.765625 -0.140625 L 0.734375 -0.140625 C 0.710938 -0.0859375 0.675781 -0.046875 0.625 -0.015625 C 0.570312 0.00390625 0.507812 0.015625 0.4375 0.015625 Z M 0.46875 -0.109375 C 0.519531 -0.109375 0.566406 -0.117188 0.609375 -0.140625 C 0.648438 -0.171875 0.679688 -0.207031 0.703125 -0.25 C 0.734375 -0.300781 0.75 -0.359375 0.75 -0.421875 L 0.75 -0.5625 L 0.734375 -0.5625 C 0.703125 -0.539062 0.671875 -0.523438 0.640625 -0.515625 C 0.609375 -0.503906 0.5625 -0.492188 0.5 -0.484375 C 0.4375 -0.484375 0.390625 -0.472656 0.359375 -0.453125 C 0.328125 -0.429688 0.300781 -0.40625 0.28125 -0.375 C 0.269531 -0.351562 0.265625 -0.328125 0.265625 -0.296875 C 0.265625 -0.234375 0.28125 -0.1875 0.3125 -0.15625 C 0.351562 -0.125 0.40625 -0.109375 0.46875 -0.109375 Z M 0.46875 -0.109375 "/></g></g><g transform="translate(1.406884, 3.091795)"><g><path d="M 0.6875 0.015625 C 0.613281 0.015625 0.546875 0.00390625 0.484375 -0.015625 C 0.429688 -0.046875 0.390625 -0.0859375 0.359375 -0.140625 L 0.328125 -0.140625 L 0.328125 0 L 0.1875 0 L 0.1875 -1.46875 L 0.328125 -1.46875 L 0.328125 -0.890625 L 0.359375 -0.890625 C 0.429688 -1.003906 0.546875 -1.0625 0.703125 -1.0625 C 0.785156 -1.0625 0.859375 -1.039062 0.921875 -1 C 0.992188 -0.957031 1.046875 -0.894531 1.078125 -0.8125 C 1.109375 -0.738281 1.125 -0.640625 1.125 -0.515625 C 1.125 -0.398438 1.101562 -0.300781 1.0625 -0.21875 C 1.03125 -0.132812 0.984375 -0.0703125 0.921875 -0.03125 C 0.859375 0 0.78125 0.015625 0.6875 0.015625 Z M 0.65625 -0.125 C 0.863281 -0.125 0.96875 -0.253906 0.96875 -0.515625 C 0.96875 -0.660156 0.941406 -0.765625 0.890625 -0.828125 C 0.835938 -0.890625 0.757812 -0.921875 0.65625 -0.921875 C 0.5625 -0.921875 0.484375 -0.882812 0.421875 -0.8125 C 0.359375 -0.75 0.328125 -0.648438 0.328125 -0.515625 C 0.328125 -0.378906 0.359375 -0.28125 0.421875 -0.21875 C 0.484375 -0.15625 0.5625 -0.125 0.65625 -0.125 Z M 0.65625 -0.125 "/></g></g><g transform="translate(2.650585, 3.091795)"><g><path d="M 0.1875 0 L 0.1875 -1.046875 L 0.328125 -1.046875 L 0.328125 -0.875 L 0.34375 -0.875 C 0.394531 -0.988281 0.488281 -1.046875 0.625 -1.046875 C 0.695312 -1.046875 0.75 -1.035156 0.78125 -1.015625 L 0.75 -0.890625 L 0.71875 -0.875 C 0.6875 -0.894531 0.644531 -0.90625 0.59375 -0.90625 C 0.507812 -0.90625 0.441406 -0.875 0.390625 -0.8125 C 0.347656 -0.75 0.328125 -0.648438 0.328125 -0.515625 L 0.328125 0 Z M 0.1875 0 "/></g></g></g></g><g clip-path="url(#b425f832be)"><g fill="#b0c7ee" fill-opacity="1"><g transform="translate(3.428371, 3.091795)"><g><path d="M 0.59375 0.015625 C 0.5 0.015625 0.414062 -0.00390625 0.34375 -0.046875 C 0.269531 -0.0859375 0.210938 -0.144531 0.171875 -0.21875 C 0.128906 -0.300781 0.109375 -0.398438 0.109375 -0.515625 C 0.109375 -0.628906 0.128906 -0.726562 0.171875 -0.8125 C 0.210938 -0.894531 0.269531 -0.957031 0.34375 -1 C 0.414062 -1.039062 0.5 -1.0625 0.59375 -1.0625 C 0.695312 -1.0625 0.785156 -1.039062 0.859375 -1 C 0.929688 -0.957031 0.984375 -0.894531 1.015625 -0.8125 C 1.054688 -0.726562 1.078125 -0.628906 1.078125 -0.515625 C 1.078125 -0.398438 1.054688 -0.300781 1.015625 -0.21875 C 0.984375 -0.144531 0.929688 -0.0859375 0.859375 -0.046875 C 0.785156 -0.00390625 0.695312 0.015625 0.59375 0.015625 Z M 0.59375 -0.125 C 0.695312 -0.125 0.773438 -0.15625 0.828125 -0.21875 C 0.890625 -0.28125 0.921875 -0.378906 0.921875 -0.515625 C 0.921875 -0.660156 0.890625 -0.765625 0.828125 -0.828125 C 0.773438 -0.890625 0.695312 -0.921875 0.59375 -0.921875 C 0.488281 -0.921875 0.410156 -0.890625 0.359375 -0.828125 C 0.304688 -0.765625 0.28125 -0.660156 0.28125 -0.515625 C 0.28125 -0.378906 0.304688 -0.28125 0.359375 -0.21875 C 0.410156 -0.15625 0.488281 -0.125 0.59375 -0.125 Z M 0.59375 -0.125 "/></g></g><g transform="translate(4.624819, 3.091795)"><g><path d="M 0.4375 0.015625 C 0.332031 0.015625 0.25 -0.0078125 0.1875 -0.0625 C 0.132812 -0.113281 0.109375 -0.191406 0.109375 -0.296875 C 0.109375 -0.359375 0.117188 -0.410156 0.140625 -0.453125 C 0.171875 -0.492188 0.210938 -0.523438 0.265625 -0.546875 C 0.316406 -0.578125 0.382812 -0.597656 0.46875 -0.609375 C 0.539062 -0.617188 0.597656 -0.628906 0.640625 -0.640625 C 0.679688 -0.660156 0.707031 -0.679688 0.71875 -0.703125 C 0.738281 -0.722656 0.75 -0.75 0.75 -0.78125 C 0.75 -0.832031 0.726562 -0.867188 0.6875 -0.890625 C 0.65625 -0.910156 0.601562 -0.921875 0.53125 -0.921875 C 0.46875 -0.921875 0.410156 -0.90625 0.359375 -0.875 C 0.316406 -0.851562 0.273438 -0.816406 0.234375 -0.765625 L 0.21875 -0.765625 L 0.140625 -0.875 C 0.179688 -0.9375 0.234375 -0.984375 0.296875 -1.015625 C 0.367188 -1.046875 0.445312 -1.0625 0.53125 -1.0625 C 0.65625 -1.0625 0.742188 -1.035156 0.796875 -0.984375 C 0.859375 -0.929688 0.890625 -0.859375 0.890625 -0.765625 L 0.890625 -0.203125 C 0.890625 -0.148438 0.914062 -0.125 0.96875 -0.125 C 0.988281 -0.125 1.003906 -0.125 1.015625 -0.125 L 1.03125 -0.125 L 1.046875 -0.015625 C 1.035156 -0.00390625 1.019531 0 1 0 C 0.976562 0 0.960938 0 0.953125 0 C 0.890625 0 0.84375 -0.0078125 0.8125 -0.03125 C 0.78125 -0.0507812 0.765625 -0.0859375 0.765625 -0.140625 L 0.734375 -0.140625 C 0.710938 -0.0859375 0.675781 -0.046875 0.625 -0.015625 C 0.570312 0.00390625 0.507812 0.015625 0.4375 0.015625 Z M 0.46875 -0.109375 C 0.519531 -0.109375 0.566406 -0.117188 0.609375 -0.140625 C 0.648438 -0.171875 0.679688 -0.207031 0.703125 -0.25 C 0.734375 -0.300781 0.75 -0.359375 0.75 -0.421875 L 0.75 -0.5625 L 0.734375 -0.5625 C 0.703125 -0.539062 0.671875 -0.523438 0.640625 -0.515625 C 0.609375 -0.503906 0.5625 -0.492188 0.5 -0.484375 C 0.4375 -0.484375 0.390625 -0.472656 0.359375 -0.453125 C 0.328125 -0.429688 0.300781 -0.40625 0.28125 -0.375 C 0.269531 -0.351562 0.265625 -0.328125 0.265625 -0.296875 C 0.265625 -0.234375 0.28125 -0.1875 0.3125 -0.15625 C 0.351562 -0.125 0.40625 -0.109375 0.46875 -0.109375 Z M 0.46875 -0.109375 "/></g></g><g transform="translate(5.703134, 3.091795)"><g><path d="M 0.546875 0.015625 C 0.460938 0.015625 0.382812 0 0.3125 -0.03125 C 0.25 -0.0703125 0.195312 -0.132812 0.15625 -0.21875 C 0.125 -0.300781 0.109375 -0.398438 0.109375 -0.515625 C 0.109375 -0.640625 0.128906 -0.738281 0.171875 -0.8125 C 0.210938 -0.894531 0.265625 -0.957031 0.328125 -1 C 0.390625 -1.039062 0.46875 -1.0625 0.5625 -1.0625 C 0.625 -1.0625 0.679688 -1.046875 0.734375 -1.015625 C 0.796875 -0.992188 0.847656 -0.953125 0.890625 -0.890625 L 0.90625 -0.90625 L 0.90625 -1.46875 L 1.0625 -1.46875 L 1.0625 0 L 0.90625 0 L 0.90625 -0.15625 L 0.890625 -0.15625 C 0.859375 -0.101562 0.8125 -0.0625 0.75 -0.03125 C 0.6875 0 0.617188 0.015625 0.546875 0.015625 Z M 0.59375 -0.125 C 0.6875 -0.125 0.757812 -0.15625 0.8125 -0.21875 C 0.875 -0.28125 0.90625 -0.378906 0.90625 -0.515625 C 0.90625 -0.648438 0.875 -0.75 0.8125 -0.8125 C 0.757812 -0.882812 0.6875 -0.921875 0.59375 -0.921875 C 0.488281 -0.921875 0.410156 -0.890625 0.359375 -0.828125 C 0.304688 -0.765625 0.28125 -0.660156 0.28125 -0.515625 C 0.28125 -0.253906 0.382812 -0.125 0.59375 -0.125 Z M 0.59375 -0.125 "/></g></g></g></g></g></g></svg>