<svg xmlns="http://www.w3.org/2000/svg" xmlns:xlink="http://www.w3.org/1999/xlink" width="50" zoomAndPan="magnify" viewBox="0 0 37.5 30.000001" height="40" preserveAspectRatio="xMidYMid meet" version="1.0"><defs><g/><clipPath id="966f229029"><path d="M 5.1875 1.636719 L 31.828125 1.636719 L 31.828125 28.273438 L 5.1875 28.273438 Z M 5.1875 1.636719 " clip-rule="nonzero"/></clipPath><clipPath id="6b1197b617"><path d="M 18.507812 1.636719 C 11.152344 1.636719 5.1875 7.597656 5.1875 14.957031 C 5.1875 22.3125 11.152344 28.273438 18.507812 28.273438 C 25.863281 28.273438 31.828125 22.3125 31.828125 14.957031 C 31.828125 7.597656 25.863281 1.636719 18.507812 1.636719 Z M 18.507812 1.636719 " clip-rule="nonzero"/></clipPath><clipPath id="09a591fc05"><path d="M 0.1875 0.636719 L 26.828125 0.636719 L 26.828125 27.273438 L 0.1875 27.273438 Z M 0.1875 0.636719 " clip-rule="nonzero"/></clipPath><clipPath id="aa91161ad2"><path d="M 13.507812 0.636719 C 6.152344 0.636719 0.1875 6.597656 0.1875 13.957031 C 0.1875 21.3125 6.152344 27.273438 13.507812 27.273438 C 20.863281 27.273438 26.828125 21.3125 26.828125 13.957031 C 26.828125 6.597656 20.863281 0.636719 13.507812 0.636719 Z M 13.507812 0.636719 " clip-rule="nonzero"/></clipPath><clipPath id="cf9e58ecab"><rect x="0" width="27" y="0" height="28"/></clipPath><clipPath id="cd62681e61"><path d="M 9 6.609375 L 13 6.609375 L 13 9 L 9 9 Z M 9 6.609375 " clip-rule="nonzero"/></clipPath><clipPath id="e3962bbfa7"><path d="M 13 13 L 20 13 L 20 23.304688 L 13 23.304688 Z M 13 13 " clip-rule="nonzero"/></clipPath><clipPath id="3c4b43466e"><path d="M 8.75 6.609375 L 15 6.609375 L 15 13 L 8.75 13 Z M 8.75 6.609375 " clip-rule="nonzero"/></clipPath><clipPath id="196129e354"><path d="M 13 6.609375 L 15 6.609375 L 15 9 L 13 9 Z M 13 6.609375 " clip-rule="nonzero"/></clipPath><clipPath id="6344206e7a"><path d="M 12 6.609375 L 15 6.609375 L 15 9 L 12 9 Z M 12 6.609375 " clip-rule="nonzero"/></clipPath><clipPath id="4256eb4293"><path d="M 19 7 L 28.347656 7 L 28.347656 23 L 19 23 Z M 19 7 " clip-rule="nonzero"/></clipPath><clipPath id="d85b6d4184"><path d="M 11 21 L 15 21 L 15 23.304688 L 11 23.304688 Z M 11 21 " clip-rule="nonzero"/></clipPath><clipPath id="4a7615123f"><path d="M 0.15625 1 L 4 1 L 4 3 L 0.15625 3 Z M 0.15625 1 " clip-rule="nonzero"/></clipPath><clipPath id="652d5fdc3d"><rect x="0" width="8" y="0" height="4"/></clipPath></defs><g clip-path="url(#966f229029)"><g clip-path="url(#6b1197b617)"><g transform="matrix(1, 0, 0, 1, 5, 1)"><g clip-path="url(#cf9e58ecab)"><g clip-path="url(#09a591fc05)"><g clip-path="url(#aa91161ad2)"><path fill="#9383ab" d="M 0.1875 0.636719 L 26.828125 0.636719 L 26.828125 27.273438 L 0.1875 27.273438 Z M 0.1875 0.636719 " fill-opacity="1" fill-rule="nonzero"/></g></g></g></g></g></g><g clip-path="url(#cd62681e61)"><path fill="#ffce00" d="M 12.476562 7.703125 C 11.824219 7.613281 11.1875 7.46875 10.566406 7.261719 C 10.261719 7.160156 9.960938 7.046875 9.664062 6.921875 C 9.546875 6.867188 9.054688 6.609375 9.164062 6.992188 C 9.199219 7.105469 9.304688 7.175781 9.402344 7.238281 C 9.867188 7.519531 10.371094 7.734375 10.882812 7.921875 C 11 7.964844 12.285156 8.351562 12.285156 8.367188 C 12.308594 8.128906 12.347656 7.910156 12.476562 7.703125 Z M 12.476562 7.703125 " fill-opacity="1" fill-rule="nonzero"/><path fill="#ffce00" d="M 12.492188 7.648438 C 11.78125 7.546875 11.078125 7.355469 10.40625 7.113281 C 10.136719 7.015625 9.871094 6.90625 9.609375 6.789062 C 9.480469 6.730469 9.285156 6.636719 9.148438 6.71875 C 8.941406 6.839844 9.105469 7.136719 9.238281 7.238281 C 9.363281 7.335938 9.507812 7.410156 9.648438 7.484375 C 9.800781 7.5625 9.957031 7.640625 10.113281 7.710938 C 10.496094 7.882812 10.890625 8.027344 11.292969 8.152344 C 11.496094 8.214844 11.699219 8.28125 11.90625 8.34375 C 11.984375 8.371094 12.066406 8.394531 12.144531 8.421875 L 12.21875 8.445312 C 12.226562 8.449219 12.234375 8.453125 12.242188 8.457031 C 12.222656 8.449219 12.207031 8.4375 12.199219 8.417969 C 12.253906 8.511719 12.375 8.460938 12.382812 8.367188 C 12.410156 8.148438 12.457031 7.945312 12.558594 7.75 C 12.621094 7.640625 12.460938 7.550781 12.394531 7.652344 C 12.253906 7.867188 12.214844 8.117188 12.183594 8.367188 L 12.371094 8.316406 C 12.332031 8.25 12.203125 8.230469 12.136719 8.210938 C 11.976562 8.160156 11.816406 8.109375 11.65625 8.058594 C 11.378906 7.972656 11.09375 7.898438 10.820312 7.796875 C 10.515625 7.6875 10.214844 7.5625 9.921875 7.417969 C 9.777344 7.34375 9.636719 7.269531 9.5 7.1875 C 9.402344 7.128906 9.242188 7.042969 9.246094 6.90625 C 9.246094 6.867188 9.269531 6.878906 9.320312 6.890625 C 9.390625 6.90625 9.460938 6.929688 9.527344 6.960938 C 9.765625 7.066406 10.003906 7.164062 10.25 7.25 C 10.96875 7.5 11.707031 7.65625 12.460938 7.761719 C 12.535156 7.769531 12.566406 7.65625 12.492188 7.648438 Z M 12.492188 7.648438 " fill-opacity="1" fill-rule="nonzero"/></g><path fill="#ffffff" d="M 16.582031 11.519531 C 17.617188 12.300781 18.914062 12.800781 20.226562 12.738281 C 20.941406 12.707031 21.664062 12.492188 22.210938 12.035156 C 22.683594 11.640625 23.003906 11.085938 23.171875 10.492188 C 23.339844 9.902344 23.359375 9.277344 23.292969 8.667969 C 23.265625 8.414062 23.273438 8.230469 23.449219 8.054688 C 23.582031 7.917969 23.578125 7.761719 23.476562 7.578125 C 23.300781 7.257812 22.867188 7.085938 22.515625 7.101562 C 22.121094 7.121094 21.75 7.324219 21.484375 7.609375 C 21.070312 8.050781 20.894531 8.679688 20.726562 9.242188 C 20.621094 9.585938 20.5 9.972656 20.316406 10.28125 C 20.144531 10.574219 19.777344 10.523438 19.46875 10.460938 C 19.160156 10.398438 18.894531 10.257812 18.59375 10.15625 C 18.261719 10.046875 17.921875 9.949219 17.578125 9.871094 C 17.363281 9.820312 17.140625 9.777344 16.917969 9.765625 C 16.546875 9.746094 16.191406 9.808594 15.847656 9.957031 " fill-opacity="1" fill-rule="nonzero"/><path fill="#232323" d="M 16.546875 11.570312 C 17.671875 12.421875 19.109375 12.960938 20.535156 12.789062 C 21.214844 12.707031 21.882812 12.453125 22.386719 11.980469 C 22.894531 11.503906 23.195312 10.851562 23.324219 10.179688 C 23.394531 9.792969 23.421875 9.402344 23.398438 9.011719 C 23.390625 8.832031 23.359375 8.648438 23.359375 8.46875 C 23.359375 8.394531 23.375 8.324219 23.402344 8.257812 C 23.433594 8.179688 23.496094 8.125 23.546875 8.058594 C 23.734375 7.8125 23.5625 7.488281 23.359375 7.3125 C 23.144531 7.128906 22.851562 7.027344 22.570312 7.027344 C 21.890625 7.023438 21.34375 7.53125 21.054688 8.101562 C 20.742188 8.726562 20.652344 9.433594 20.347656 10.058594 C 20.28125 10.199219 20.214844 10.34375 20.0625 10.398438 C 19.925781 10.449219 19.769531 10.433594 19.628906 10.410156 C 19.277344 10.355469 18.964844 10.203125 18.632812 10.089844 C 18.253906 9.957031 17.863281 9.851562 17.46875 9.765625 C 17.09375 9.6875 16.714844 9.65625 16.335938 9.726562 C 16.15625 9.761719 15.984375 9.816406 15.816406 9.894531 C 15.742188 9.925781 15.792969 10.054688 15.871094 10.023438 C 16.214844 9.882812 16.570312 9.820312 16.941406 9.839844 C 17.332031 9.867188 17.71875 9.972656 18.089844 10.078125 C 18.445312 10.179688 18.78125 10.316406 19.125 10.4375 C 19.386719 10.53125 19.699219 10.613281 19.980469 10.574219 C 20.292969 10.53125 20.417969 10.289062 20.535156 10.023438 C 20.667969 9.71875 20.761719 9.398438 20.859375 9.078125 C 21.042969 8.464844 21.265625 7.792969 21.824219 7.421875 C 22.082031 7.246094 22.402344 7.140625 22.714844 7.1875 C 23 7.230469 23.300781 7.382812 23.429688 7.648438 C 23.464844 7.71875 23.492188 7.800781 23.46875 7.878906 C 23.449219 7.957031 23.378906 8.011719 23.332031 8.074219 C 23.257812 8.179688 23.214844 8.296875 23.210938 8.425781 C 23.199219 8.59375 23.234375 8.765625 23.242188 8.933594 C 23.253906 9.121094 23.257812 9.304688 23.25 9.492188 C 23.222656 10.195312 23.039062 10.898438 22.625 11.476562 C 22.226562 12.035156 21.632812 12.394531 20.972656 12.558594 C 19.628906 12.890625 18.167969 12.476562 17.027344 11.746094 C 16.886719 11.65625 16.75 11.5625 16.617188 11.460938 C 16.550781 11.414062 16.488281 11.523438 16.550781 11.570312 Z M 16.546875 11.570312 " fill-opacity="1" fill-rule="nonzero"/><path fill="#232323" d="M 18.539062 16.984375 C 18.539062 17.257812 18.507812 17.535156 18.394531 17.777344 C 18.234375 18.125 17.925781 18.382812 17.585938 18.5625 C 16.726562 19.011719 15.90625 18.863281 15.011719 18.683594 C 14.484375 18.574219 13.605469 18.457031 13.171875 18.949219 C 13.0625 19.074219 12.925781 19.195312 12.761719 19.203125 C 12.585938 19.210938 12.4375 19.074219 12.382812 18.914062 C 12.332031 18.75 12.351562 18.570312 12.382812 18.398438 C 12.476562 17.886719 12.652344 17.40625 12.90625 16.953125 C 12.953125 16.863281 13.015625 16.769531 13.105469 16.726562 C 13.164062 16.703125 13.222656 16.691406 13.28125 16.6875 C 13.9375 16.644531 14.585938 16.726562 15.21875 16.835938 C 15.816406 16.9375 16.382812 16.96875 17 16.910156 " fill-opacity="1" fill-rule="nonzero"/><path fill="#232323" d="M 18.488281 16.984375 C 18.480469 17.441406 18.351562 17.867188 18.007812 18.183594 C 17.675781 18.488281 17.230469 18.675781 16.789062 18.746094 C 15.964844 18.875 15.183594 18.546875 14.371094 18.5 C 14.039062 18.480469 13.683594 18.507812 13.386719 18.667969 C 13.226562 18.75 13.128906 18.882812 12.996094 18.996094 C 12.832031 19.136719 12.617188 19.152344 12.503906 18.941406 C 12.390625 18.738281 12.46875 18.460938 12.515625 18.246094 C 12.566406 18.019531 12.632812 17.796875 12.71875 17.582031 C 12.800781 17.363281 12.902344 17.152344 13.023438 16.949219 C 13.085938 16.84375 13.15625 16.800781 13.28125 16.789062 C 13.414062 16.777344 13.546875 16.777344 13.683594 16.777344 C 14.257812 16.777344 14.816406 16.878906 15.382812 16.960938 C 15.917969 17.042969 16.457031 17.058594 17 17.007812 C 17.121094 16.996094 17.125 16.804688 17 16.816406 C 16.464844 16.859375 15.929688 16.84375 15.398438 16.765625 C 14.859375 16.683594 14.328125 16.589844 13.78125 16.578125 C 13.648438 16.574219 13.515625 16.578125 13.382812 16.585938 C 13.261719 16.589844 13.132812 16.589844 13.027344 16.652344 C 12.835938 16.769531 12.738281 17.039062 12.648438 17.234375 C 12.542969 17.464844 12.453125 17.703125 12.386719 17.945312 C 12.316406 18.1875 12.246094 18.445312 12.25 18.699219 C 12.253906 18.910156 12.332031 19.128906 12.523438 19.238281 C 12.703125 19.34375 12.910156 19.296875 13.070312 19.175781 C 13.222656 19.058594 13.328125 18.902344 13.503906 18.816406 C 13.667969 18.730469 13.859375 18.695312 14.042969 18.6875 C 14.425781 18.660156 14.796875 18.734375 15.167969 18.808594 C 15.632812 18.898438 16.113281 18.972656 16.585938 18.933594 C 17.113281 18.886719 17.632812 18.695312 18.039062 18.351562 C 18.226562 18.195312 18.367188 18.003906 18.46875 17.78125 C 18.574219 17.527344 18.589844 17.257812 18.589844 16.988281 C 18.589844 16.921875 18.488281 16.921875 18.488281 16.988281 Z M 18.488281 16.984375 " fill-opacity="1" fill-rule="nonzero"/><path fill="#ffce00" d="M 14.925781 14.71875 C 14.808594 14.554688 14.703125 14.367188 14.699219 14.164062 C 14.691406 13.890625 14.878906 13.640625 15.113281 13.496094 C 16.152344 12.855469 17.191406 13.5 17.890625 14.3125 C 18.578125 15.105469 18.921875 16.15625 18.882812 17.199219 C 18.871094 17.480469 18.832031 17.769531 18.710938 18.027344 C 18.535156 18.394531 18.207031 18.675781 17.855469 18.871094 C 16.964844 19.363281 16.128906 19.234375 15.21875 19.074219 C 14.949219 19.023438 14.71875 19.027344 14.453125 19.046875 C 14.15625 19.070312 14.152344 18.835938 14.121094 18.566406 C 14.058594 18.078125 14.082031 17.554688 14.226562 17.082031 C 14.375 16.589844 14.808594 16.765625 15.21875 16.835938 C 15.816406 16.9375 16.378906 16.964844 17 16.910156 " fill-opacity="1" fill-rule="nonzero"/><path fill="#ffce00" d="M 14.972656 14.695312 C 14.792969 14.441406 14.679688 14.144531 14.847656 13.855469 C 15 13.597656 15.296875 13.445312 15.578125 13.367188 C 16.125 13.214844 16.683594 13.40625 17.132812 13.726562 C 18.09375 14.398438 18.6875 15.539062 18.777344 16.695312 C 18.824219 17.289062 18.785156 17.925781 18.351562 18.378906 C 17.9375 18.8125 17.320312 19.0625 16.730469 19.109375 C 16.433594 19.132812 16.136719 19.113281 15.84375 19.074219 C 15.542969 19.035156 15.242188 18.957031 14.941406 18.941406 C 14.785156 18.933594 14.628906 18.933594 14.472656 18.949219 C 14.371094 18.953125 14.300781 18.945312 14.265625 18.84375 C 14.230469 18.742188 14.222656 18.621094 14.210938 18.511719 C 14.195312 18.355469 14.1875 18.199219 14.1875 18.039062 C 14.191406 17.722656 14.226562 17.398438 14.328125 17.09375 C 14.398438 16.875 14.570312 16.832031 14.785156 16.855469 C 15.03125 16.886719 15.273438 16.949219 15.523438 16.980469 C 15.84375 17.023438 16.171875 17.042969 16.496094 17.035156 C 16.664062 17.035156 16.832031 17.023438 17 17.007812 C 17.121094 16.996094 17.125 16.804688 17 16.816406 C 16.632812 16.847656 16.265625 16.847656 15.894531 16.820312 C 15.574219 16.796875 15.261719 16.738281 14.945312 16.679688 C 14.730469 16.640625 14.488281 16.613281 14.3125 16.761719 C 14.214844 16.839844 14.160156 16.957031 14.125 17.074219 C 14.074219 17.238281 14.039062 17.410156 14.019531 17.582031 C 13.976562 17.929688 13.984375 18.273438 14.027344 18.621094 C 14.050781 18.828125 14.078125 19.089844 14.324219 19.140625 C 14.480469 19.175781 14.65625 19.132812 14.816406 19.136719 C 14.992188 19.136719 15.164062 19.164062 15.335938 19.195312 C 15.660156 19.253906 15.992188 19.304688 16.324219 19.316406 C 17 19.34375 17.671875 19.167969 18.214844 18.753906 C 18.457031 18.566406 18.671875 18.339844 18.796875 18.0625 C 18.9375 17.753906 18.976562 17.417969 18.980469 17.082031 C 18.992188 15.789062 18.417969 14.519531 17.390625 13.714844 C 16.925781 13.347656 16.347656 13.085938 15.742188 13.179688 C 15.210938 13.265625 14.484375 13.691406 14.664062 14.328125 C 14.707031 14.480469 14.792969 14.617188 14.882812 14.746094 C 14.921875 14.800781 15.007812 14.75 14.972656 14.695312 Z M 14.972656 14.695312 " fill-opacity="1" fill-rule="nonzero"/><g clip-path="url(#e3962bbfa7)"><path fill="#232323" d="M 16.351562 14.945312 C 17.175781 16.6875 17.554688 18.71875 17.886719 20.585938 C 17.980469 21.089844 18.128906 21.792969 18.664062 21.9375 C 18.8125 21.976562 18.972656 22.046875 19.042969 22.195312 C 19.117188 22.355469 19.058594 22.5625 18.941406 22.695312 C 18.824219 22.824219 18.660156 22.898438 18.496094 22.953125 C 18.03125 23.117188 17.550781 23.195312 17.054688 23.1875 C 16.957031 23.183594 16.851562 23.175781 16.777344 23.113281 C 16.734375 23.070312 16.699219 23.023438 16.679688 22.964844 C 16.070312 21.425781 16.136719 20.175781 15.695312 18.875 C 15.539062 18.402344 15.207031 18.042969 15 17.589844 C 14.785156 17.121094 14.457031 16.714844 14.226562 16.253906 C 13.855469 15.503906 13.753906 14.71875 13.914062 13.902344 " fill-opacity="1" fill-rule="nonzero"/><path fill="#232323" d="M 16.304688 14.972656 C 16.605469 15.605469 16.828125 16.277344 17.019531 16.949219 C 17.214844 17.628906 17.371094 18.320312 17.507812 19.015625 C 17.632812 19.648438 17.71875 20.289062 17.859375 20.914062 C 17.960938 21.375 18.15625 21.882812 18.652344 22.03125 C 18.792969 22.070312 18.949219 22.140625 18.976562 22.304688 C 19.003906 22.46875 18.898438 22.628906 18.769531 22.722656 C 18.640625 22.8125 18.480469 22.863281 18.328125 22.910156 C 18.148438 22.96875 17.964844 23.011719 17.777344 23.042969 C 17.59375 23.074219 17.410156 23.089844 17.222656 23.09375 C 17.070312 23.097656 16.875 23.121094 16.789062 22.972656 C 16.699219 22.8125 16.652344 22.617188 16.597656 22.441406 C 16.542969 22.269531 16.496094 22.101562 16.453125 21.929688 C 16.292969 21.300781 16.203125 20.65625 16.085938 20.019531 C 16.027344 19.710938 15.957031 19.40625 15.871094 19.101562 C 15.78125 18.789062 15.648438 18.496094 15.476562 18.21875 C 15.390625 18.074219 15.296875 17.933594 15.210938 17.785156 C 15.128906 17.636719 15.0625 17.480469 14.980469 17.332031 C 14.816406 17.027344 14.613281 16.742188 14.441406 16.441406 C 14.082031 15.824219 13.917969 15.160156 13.945312 14.449219 C 13.953125 14.273438 13.972656 14.097656 14.007812 13.925781 C 14.03125 13.804688 13.84375 13.753906 13.820312 13.875 C 13.675781 14.597656 13.734375 15.300781 14 15.988281 C 14.136719 16.332031 14.324219 16.644531 14.523438 16.953125 C 14.617188 17.105469 14.714844 17.257812 14.796875 17.417969 C 14.882812 17.570312 14.953125 17.734375 15.039062 17.886719 C 15.214844 18.191406 15.433594 18.476562 15.5625 18.804688 C 15.683594 19.113281 15.761719 19.445312 15.832031 19.769531 C 15.972656 20.429688 16.054688 21.101562 16.203125 21.757812 C 16.289062 22.125 16.394531 22.488281 16.527344 22.84375 C 16.582031 22.988281 16.632812 23.148438 16.777344 23.226562 C 16.921875 23.304688 17.105469 23.285156 17.261719 23.28125 C 17.640625 23.265625 18.015625 23.203125 18.378906 23.089844 C 18.679688 22.996094 19.011719 22.871094 19.132812 22.550781 C 19.25 22.242188 19.066406 21.976562 18.773438 21.875 C 18.644531 21.828125 18.53125 21.796875 18.429688 21.703125 C 18.339844 21.617188 18.269531 21.519531 18.214844 21.410156 C 18.097656 21.175781 18.042969 20.914062 17.992188 20.65625 C 17.925781 20.3125 17.863281 19.96875 17.796875 19.625 C 17.523438 18.199219 17.214844 16.738281 16.617188 15.40625 C 16.546875 15.242188 16.472656 15.082031 16.394531 14.921875 C 16.367188 14.863281 16.277344 14.914062 16.304688 14.972656 Z M 16.304688 14.972656 " fill-opacity="1" fill-rule="nonzero"/></g><path fill="#ffce00" d="M 16.460938 14.191406 C 17.480469 16.082031 18 18.648438 18.335938 20.515625 C 18.355469 20.625 18.363281 20.734375 18.429688 20.828125 C 18.492188 20.917969 18.582031 20.929688 18.589844 21.046875 C 18.597656 21.175781 18.457031 21.296875 18.363281 21.359375 C 17.84375 21.714844 17.265625 21.898438 16.632812 21.910156 C 16.324219 21.914062 16.125 21.730469 16.085938 21.429688 C 16.039062 21.085938 15.972656 20.746094 15.890625 20.40625 C 15.78125 19.941406 15.667969 19.472656 15.515625 19.015625 C 15.355469 18.542969 15.207031 18.042969 15 17.589844 C 14.785156 17.121094 14.457031 16.714844 14.226562 16.253906 C 13.855469 15.503906 13.753906 14.71875 13.914062 13.902344 " fill-opacity="1" fill-rule="nonzero"/><path fill="#ffce00" d="M 16.414062 14.214844 C 16.683594 14.714844 16.894531 15.25 17.085938 15.78125 C 17.277344 16.324219 17.441406 16.875 17.589844 17.433594 C 17.863281 18.484375 18.074219 19.550781 18.257812 20.621094 C 18.28125 20.746094 18.320312 20.863281 18.414062 20.949219 C 18.457031 20.988281 18.507812 21.015625 18.488281 21.082031 C 18.476562 21.140625 18.421875 21.191406 18.375 21.230469 C 18.164062 21.414062 17.875 21.542969 17.609375 21.636719 C 17.320312 21.742188 17.023438 21.800781 16.71875 21.8125 C 16.484375 21.820312 16.269531 21.757812 16.199219 21.511719 C 16.160156 21.367188 16.152344 21.207031 16.128906 21.058594 C 16.101562 20.902344 16.070312 20.746094 16.035156 20.589844 C 15.964844 20.265625 15.886719 19.941406 15.800781 19.625 C 15.71875 19.304688 15.613281 18.988281 15.507812 18.675781 C 15.410156 18.375 15.3125 18.074219 15.191406 17.78125 C 15.074219 17.5 14.9375 17.230469 14.773438 16.972656 C 14.609375 16.710938 14.4375 16.449219 14.300781 16.171875 C 14.03125 15.621094 13.917969 15 13.949219 14.390625 C 13.960938 14.234375 13.980469 14.078125 14.007812 13.925781 C 14.03125 13.804688 13.847656 13.75 13.820312 13.875 C 13.691406 14.515625 13.726562 15.144531 13.925781 15.769531 C 14.023438 16.070312 14.15625 16.359375 14.324219 16.632812 C 14.492188 16.910156 14.675781 17.175781 14.824219 17.460938 C 14.980469 17.757812 15.09375 18.074219 15.203125 18.390625 C 15.3125 18.71875 15.425781 19.046875 15.523438 19.375 C 15.722656 20.046875 15.886719 20.738281 15.980469 21.429688 C 16.011719 21.65625 16.125 21.863281 16.347656 21.953125 C 16.597656 22.058594 16.917969 21.996094 17.171875 21.949219 C 17.484375 21.890625 17.78125 21.789062 18.066406 21.644531 C 18.273438 21.535156 18.601562 21.382812 18.667969 21.132812 C 18.703125 21.011719 18.652344 20.914062 18.566406 20.835938 C 18.449219 20.730469 18.441406 20.59375 18.414062 20.449219 C 18.367188 20.183594 18.316406 19.921875 18.265625 19.65625 C 18.15625 19.089844 18.03125 18.523438 17.890625 17.960938 C 17.601562 16.796875 17.257812 15.613281 16.703125 14.546875 C 16.640625 14.417969 16.570312 14.292969 16.503906 14.167969 C 16.472656 14.109375 16.382812 14.160156 16.414062 14.21875 Z M 16.414062 14.214844 " fill-opacity="1" fill-rule="nonzero"/><path fill="#ffffff" d="M 15.300781 9.820312 C 15.148438 9.75 14.941406 9.835938 14.785156 9.902344 C 14.175781 10.160156 13.910156 10.84375 13.785156 11.445312 C 13.703125 11.84375 13.578125 12.269531 13.574219 12.679688 C 13.574219 12.804688 13.605469 12.925781 13.609375 13.050781 C 13.609375 13.265625 13.566406 13.472656 13.585938 13.6875 C 13.597656 13.878906 13.636719 14.070312 13.589844 14.25 C 13.570312 14.332031 13.53125 14.410156 13.523438 14.492188 C 13.519531 14.574219 13.554688 14.671875 13.636719 14.695312 C 13.734375 14.726562 13.824219 14.636719 13.894531 14.558594 C 14.140625 14.289062 14.449219 14.160156 14.769531 14 C 15.121094 13.824219 15.496094 13.71875 15.886719 13.683594 C 16.148438 13.660156 16.402344 13.683594 16.664062 13.714844 C 16.820312 13.734375 17.117188 13.820312 17.261719 13.734375 C 17.3125 13.699219 17.34375 13.652344 17.359375 13.59375 C 17.402344 13.441406 17.339844 13.277344 17.25 13.148438 C 17.066406 12.878906 16.8125 12.683594 16.867188 12.324219 C 16.90625 12.085938 16.972656 11.851562 16.992188 11.609375 C 17.007812 11.371094 16.96875 11.113281 16.8125 10.929688 " fill-opacity="1" fill-rule="nonzero"/><path fill="#232323" d="M 15.320312 9.761719 C 15.132812 9.6875 14.925781 9.773438 14.753906 9.847656 C 14.582031 9.921875 14.433594 10.027344 14.304688 10.160156 C 14.046875 10.429688 13.890625 10.785156 13.789062 11.144531 C 13.730469 11.347656 13.691406 11.558594 13.644531 11.765625 C 13.589844 12 13.535156 12.238281 13.515625 12.480469 C 13.492188 12.730469 13.546875 12.96875 13.53125 13.21875 C 13.519531 13.339844 13.507812 13.457031 13.507812 13.574219 C 13.507812 13.707031 13.53125 13.839844 13.535156 13.972656 C 13.542969 14.097656 13.527344 14.214844 13.484375 14.332031 C 13.453125 14.429688 13.433594 14.527344 13.46875 14.621094 C 13.539062 14.808594 13.738281 14.804688 13.871094 14.691406 C 13.953125 14.621094 14.019531 14.535156 14.101562 14.46875 C 14.199219 14.390625 14.304688 14.320312 14.414062 14.261719 C 14.621094 14.144531 14.835938 14.042969 15.054688 13.953125 C 15.539062 13.769531 16.035156 13.726562 16.546875 13.777344 C 16.847656 13.808594 17.410156 14 17.449219 13.527344 C 17.464844 13.292969 17.316406 13.101562 17.183594 12.929688 C 17.035156 12.742188 16.90625 12.558594 16.949219 12.308594 C 17.027344 11.828125 17.207031 11.296875 16.867188 10.875 C 16.804688 10.796875 16.699219 10.90625 16.757812 10.980469 C 17.042969 11.335938 16.878906 11.828125 16.808594 12.230469 C 16.777344 12.402344 16.78125 12.5625 16.859375 12.726562 C 16.933594 12.878906 17.050781 13.003906 17.152344 13.136719 C 17.242188 13.265625 17.417969 13.59375 17.1875 13.683594 C 17.042969 13.738281 16.84375 13.664062 16.695312 13.640625 C 16.261719 13.582031 15.828125 13.582031 15.398438 13.6875 C 15 13.785156 14.609375 13.96875 14.253906 14.179688 C 14.078125 14.28125 13.941406 14.410156 13.796875 14.550781 C 13.765625 14.582031 13.710938 14.640625 13.65625 14.621094 C 13.613281 14.609375 13.601562 14.546875 13.601562 14.503906 C 13.601562 14.394531 13.667969 14.289062 13.679688 14.179688 C 13.710938 13.953125 13.652344 13.726562 13.660156 13.5 C 13.667969 13.277344 13.691406 13.066406 13.664062 12.847656 C 13.609375 12.398438 13.753906 11.949219 13.847656 11.515625 C 13.925781 11.140625 14.027344 10.769531 14.246094 10.445312 C 14.351562 10.285156 14.488281 10.148438 14.652344 10.042969 C 14.820312 9.9375 15.085938 9.804688 15.285156 9.875 C 15.359375 9.902344 15.390625 9.789062 15.320312 9.761719 Z M 15.320312 9.761719 " fill-opacity="1" fill-rule="nonzero"/><path fill="#ffffff" d="M 15.777344 14.789062 C 15.847656 14.980469 15.703125 15.164062 15.671875 15.347656 C 15.636719 15.535156 15.742188 15.722656 15.800781 15.898438 C 15.953125 16.328125 16.097656 16.761719 16.230469 17.195312 C 16.503906 18.070312 16.742188 18.957031 16.957031 19.851562 C 17.078125 20.359375 17.179688 20.867188 17.296875 21.375 C 17.308594 21.421875 17.378906 21.402344 17.371094 21.355469 C 17.207031 20.453125 16.980469 19.558594 16.746094 18.671875 C 16.507812 17.789062 16.242188 16.90625 15.941406 16.039062 C 15.898438 15.917969 15.855469 15.796875 15.808594 15.671875 C 15.765625 15.550781 15.730469 15.441406 15.761719 15.308594 C 15.804688 15.128906 15.914062 14.957031 15.839844 14.773438 C 15.824219 14.734375 15.761719 14.75 15.777344 14.789062 Z M 15.777344 14.789062 " fill-opacity="1" fill-rule="nonzero"/><path fill="#ffffff" d="M 15.417969 14.878906 C 15.410156 14.953125 15.378906 15.019531 15.332031 15.078125 C 15.316406 15.097656 15.316406 15.113281 15.335938 15.128906 C 15.359375 15.144531 15.375 15.144531 15.390625 15.121094 C 15.445312 15.050781 15.472656 14.96875 15.476562 14.878906 C 15.476562 14.839844 15.425781 14.84375 15.417969 14.878906 Z M 15.417969 14.878906 " fill-opacity="1" fill-rule="nonzero"/><path fill="#ffce00" d="M 18.070312 21.054688 C 18.121094 21.019531 18.175781 20.984375 18.226562 20.953125 C 18.265625 20.925781 18.226562 20.859375 18.1875 20.886719 C 18.136719 20.921875 18.085938 20.953125 18.03125 20.988281 C 17.992188 21.015625 18.03125 21.078125 18.070312 21.054688 Z M 18.070312 21.054688 " fill-opacity="1" fill-rule="nonzero"/><path fill="#ffffff" d="M 14.625 18.769531 C 14.605469 18.691406 14.597656 18.613281 14.59375 18.535156 C 14.59375 18.515625 14.582031 18.507812 14.5625 18.507812 C 14.542969 18.507812 14.53125 18.515625 14.53125 18.535156 C 14.53125 18.621094 14.539062 18.703125 14.5625 18.785156 C 14.570312 18.824219 14.632812 18.808594 14.625 18.769531 Z M 14.625 18.769531 " fill-opacity="1" fill-rule="nonzero"/><path fill="#ffffff" d="M 14.394531 15.824219 C 14.496094 15.78125 14.597656 15.738281 14.707031 15.714844 L 14.65625 15.664062 C 14.617188 15.757812 14.652344 15.847656 14.703125 15.929688 C 14.765625 16.03125 14.824219 16.140625 14.875 16.25 C 14.925781 16.363281 14.964844 16.480469 14.996094 16.601562 C 15.027344 16.734375 15.054688 16.867188 14.984375 16.992188 C 14.976562 17.011719 14.980469 17.027344 14.996094 17.039062 C 15.011719 17.050781 15.027344 17.050781 15.046875 17.039062 C 15.195312 16.894531 15.089844 16.59375 15.035156 16.425781 C 15 16.3125 14.953125 16.203125 14.898438 16.097656 C 14.835938 15.980469 14.683594 15.820312 14.734375 15.683594 C 14.746094 15.640625 14.726562 15.625 14.683594 15.636719 C 14.574219 15.664062 14.464844 15.699219 14.371094 15.765625 C 14.34375 15.785156 14.359375 15.839844 14.394531 15.824219 Z M 14.394531 15.824219 " fill-opacity="1" fill-rule="nonzero"/><path fill="#ffffff" d="M 14.78125 9.898438 C 13.773438 9.875 12.453125 10.109375 11.839844 10.191406 C 11.5625 10.230469 11.289062 10.226562 11.007812 10.246094 C 10.757812 10.265625 10.546875 10.550781 10.453125 10.761719 C 10.445312 10.785156 10.433594 10.808594 10.425781 10.832031 C 10.332031 11.105469 10.351562 11.371094 10.480469 11.628906 C 10.609375 11.886719 10.84375 12.078125 11.105469 12.195312 C 11.367188 12.308594 11.660156 12.351562 11.945312 12.355469 C 12.0625 12.359375 12.179688 12.351562 12.292969 12.324219 C 12.554688 12.257812 12.769531 12.085938 13.011719 11.980469 C 13.292969 11.855469 14.285156 11.777344 14.578125 11.683594 " fill-opacity="1" fill-rule="nonzero"/><path fill="#232323" d="M 14.78125 9.839844 C 14.0625 9.808594 13.34375 9.898438 12.632812 10 C 12.339844 10.042969 12.054688 10.09375 11.761719 10.125 C 11.546875 10.148438 11.328125 10.152344 11.109375 10.167969 C 10.941406 10.175781 10.8125 10.210938 10.683594 10.320312 C 10.421875 10.539062 10.273438 10.898438 10.296875 11.238281 C 10.320312 11.589844 10.507812 11.890625 10.789062 12.097656 C 11.097656 12.328125 11.488281 12.417969 11.871094 12.429688 C 12.074219 12.4375 12.273438 12.425781 12.460938 12.351562 C 12.640625 12.277344 12.800781 12.167969 12.96875 12.082031 C 13.214844 11.960938 13.515625 11.9375 13.785156 11.898438 C 14.050781 11.859375 14.335938 11.835938 14.59375 11.75 C 14.675781 11.722656 14.644531 11.597656 14.558594 11.621094 C 14.355469 11.679688 14.136719 11.699219 13.925781 11.726562 C 13.675781 11.761719 13.421875 11.792969 13.175781 11.851562 C 12.894531 11.917969 12.671875 12.101562 12.40625 12.210938 C 12.21875 12.285156 12.015625 12.289062 11.816406 12.277344 C 11.613281 12.269531 11.417969 12.230469 11.230469 12.164062 C 10.910156 12.046875 10.613281 11.816406 10.5 11.484375 C 10.378906 11.121094 10.445312 10.796875 10.707031 10.511719 C 10.753906 10.453125 10.8125 10.40625 10.878906 10.367188 C 10.964844 10.324219 11.054688 10.324219 11.148438 10.320312 C 11.351562 10.308594 11.558594 10.304688 11.761719 10.28125 C 12.019531 10.253906 12.273438 10.207031 12.527344 10.171875 C 13.273438 10.0625 14.027344 9.960938 14.78125 9.964844 C 14.859375 9.964844 14.859375 9.84375 14.78125 9.84375 Z M 14.78125 9.839844 " fill-opacity="1" fill-rule="nonzero"/><path fill="#ffffff" d="M 20.753906 9.226562 C 20.871094 8.808594 20.917969 8.367188 20.996094 7.945312 C 21.011719 7.859375 21.039062 7.761719 21.121094 7.734375 C 21.210938 7.710938 21.292969 7.796875 21.335938 7.878906 C 21.378906 7.972656 21.40625 8.066406 21.417969 8.167969 C 21.421875 8.207031 21.421875 8.246094 21.441406 8.277344 C 21.488281 8.351562 21.597656 8.34375 21.683594 8.351562 C 21.75 8.359375 21.816406 8.382812 21.871094 8.417969 C 21.929688 8.457031 21.976562 8.503906 22.011719 8.5625 C 22.046875 8.621094 22.066406 8.6875 22.070312 8.753906 C 22.074219 8.824219 22.0625 8.890625 22.035156 8.953125 " fill-opacity="1" fill-rule="nonzero"/><path fill="#232323" d="M 20.808594 9.242188 C 20.894531 8.957031 20.949219 8.671875 20.996094 8.378906 C 21.019531 8.238281 21.039062 8.09375 21.070312 7.953125 C 21.082031 7.914062 21.09375 7.824219 21.140625 7.816406 C 21.210938 7.800781 21.261719 7.917969 21.28125 7.964844 C 21.320312 8.070312 21.308594 8.195312 21.355469 8.296875 C 21.402344 8.398438 21.5 8.425781 21.601562 8.433594 C 21.714844 8.445312 21.816406 8.46875 21.898438 8.558594 C 21.988281 8.664062 22 8.804688 21.953125 8.929688 C 21.914062 9.035156 22.078125 9.078125 22.121094 8.976562 C 22.175781 8.839844 22.171875 8.707031 22.113281 8.570312 C 22.054688 8.4375 21.957031 8.347656 21.820312 8.292969 C 21.757812 8.273438 21.695312 8.261719 21.628906 8.257812 C 21.597656 8.257812 21.546875 8.257812 21.519531 8.234375 C 21.496094 8.210938 21.503906 8.144531 21.496094 8.113281 C 21.476562 7.976562 21.429688 7.824219 21.328125 7.726562 C 21.242188 7.648438 21.113281 7.617188 21.019531 7.703125 C 20.914062 7.800781 20.910156 7.980469 20.890625 8.113281 C 20.832031 8.480469 20.789062 8.851562 20.695312 9.210938 C 20.679688 9.28125 20.785156 9.3125 20.808594 9.242188 Z M 20.808594 9.242188 " fill-opacity="1" fill-rule="nonzero"/><g clip-path="url(#3c4b43466e)"><path fill="#ffffff" d="M 14.691406 11.660156 C 14.070312 11.769531 13.5 12.074219 12.894531 12.25 C 11.761719 12.578125 10.058594 12.59375 9.351562 11.488281 C 9.191406 11.234375 9.09375 10.949219 9.015625 10.660156 C 8.824219 9.960938 8.851562 9.273438 8.992188 8.566406 C 9.070312 8.164062 9.160156 7.609375 9.40625 7.273438 C 9.460938 7.199219 9.523438 7.136719 9.597656 7.082031 C 9.9375 6.816406 10.402344 6.671875 10.808594 6.8125 C 10.972656 6.867188 11.121094 6.964844 11.285156 7.011719 C 11.4375 7.054688 11.597656 7.070312 11.75 7.125 C 11.933594 7.195312 12.074219 7.347656 12.097656 7.546875 C 12.105469 7.617188 12.070312 7.707031 11.996094 7.710938 C 11.789062 7.730469 11.699219 7.441406 11.457031 7.523438 C 11.253906 7.589844 11.234375 7.800781 11.347656 7.957031 C 11.414062 8.046875 11.492188 8.113281 11.589844 8.160156 C 11.691406 8.210938 11.839844 8.257812 11.84375 8.390625 C 11.847656 8.511719 11.800781 8.65625 11.757812 8.765625 C 11.613281 9.15625 11.441406 9.539062 11.320312 9.941406 C 11.199219 10.339844 11.125 10.761719 11.175781 11.175781 " fill-opacity="1" fill-rule="nonzero"/><path fill="#232323" d="M 14.671875 11.597656 C 14.015625 11.71875 13.425781 12.039062 12.78125 12.207031 C 12.3125 12.332031 11.835938 12.386719 11.347656 12.367188 C 10.871094 12.347656 10.382812 12.246094 9.972656 11.992188 C 9.472656 11.679688 9.230469 11.175781 9.082031 10.621094 C 8.898438 9.925781 8.945312 9.21875 9.078125 8.519531 C 9.132812 8.238281 9.183594 7.957031 9.28125 7.6875 C 9.328125 7.558594 9.386719 7.425781 9.472656 7.3125 C 9.570312 7.179688 9.714844 7.082031 9.855469 7.003906 C 10.121094 6.855469 10.445312 6.785156 10.746094 6.871094 C 10.890625 6.914062 11.023438 6.996094 11.167969 7.050781 C 11.324219 7.113281 11.496094 7.128906 11.660156 7.175781 C 11.800781 7.21875 11.925781 7.300781 11.988281 7.4375 C 12.007812 7.484375 12.054688 7.601562 11.992188 7.628906 C 11.949219 7.652344 11.890625 7.605469 11.855469 7.585938 C 11.777344 7.53125 11.710938 7.464844 11.617188 7.441406 C 11.503906 7.417969 11.402344 7.441406 11.3125 7.519531 C 11.121094 7.683594 11.214844 7.945312 11.367188 8.097656 C 11.464844 8.191406 11.582031 8.230469 11.695312 8.296875 C 11.828125 8.382812 11.746094 8.570312 11.707031 8.6875 C 11.480469 9.339844 11.167969 9.953125 11.097656 10.648438 C 11.078125 10.824219 11.082031 11 11.105469 11.175781 C 11.117188 11.265625 11.257812 11.269531 11.25 11.175781 C 11.171875 10.410156 11.480469 9.695312 11.753906 9 C 11.835938 8.78125 12.054688 8.378906 11.8125 8.191406 C 11.699219 8.109375 11.566406 8.078125 11.464844 7.976562 C 11.378906 7.886719 11.292969 7.71875 11.425781 7.625 C 11.539062 7.542969 11.636719 7.609375 11.726562 7.679688 C 11.808594 7.738281 11.894531 7.796875 12 7.789062 C 12.121094 7.777344 12.183594 7.65625 12.175781 7.546875 C 12.164062 7.417969 12.097656 7.292969 12.007812 7.203125 C 11.769531 6.964844 11.390625 6.992188 11.101562 6.855469 C 10.957031 6.789062 10.816406 6.722656 10.660156 6.695312 C 10.507812 6.671875 10.355469 6.679688 10.207031 6.710938 C 9.90625 6.769531 9.597656 6.933594 9.394531 7.164062 C 9.203125 7.382812 9.109375 7.679688 9.042969 7.953125 C 8.875 8.621094 8.757812 9.328125 8.820312 10.015625 C 8.878906 10.644531 9.066406 11.355469 9.519531 11.824219 C 9.871094 12.183594 10.351562 12.378906 10.839844 12.464844 C 11.34375 12.550781 11.867188 12.535156 12.371094 12.445312 C 13.003906 12.332031 13.578125 12.054688 14.1875 11.855469 C 14.359375 11.800781 14.53125 11.753906 14.707031 11.71875 C 14.785156 11.707031 14.753906 11.585938 14.671875 11.597656 Z M 14.671875 11.597656 " fill-opacity="1" fill-rule="nonzero"/></g><path fill="#232323" d="M 16.28125 13.03125 C 16.550781 12.957031 16.832031 12.902344 17.085938 13.058594 C 17.140625 13.09375 17.210938 13.007812 17.15625 12.964844 C 16.894531 12.746094 16.546875 12.835938 16.25 12.921875 C 16.183594 12.945312 16.210938 13.046875 16.28125 13.03125 Z M 16.28125 13.03125 " fill-opacity="1" fill-rule="nonzero"/><path fill="#232323" d="M 15.21875 9.429688 C 15.429688 9.527344 15.773438 9.554688 15.929688 9.347656 C 15.976562 9.289062 15.890625 9.226562 15.835938 9.253906 C 15.742188 9.304688 15.667969 9.355469 15.558594 9.367188 C 15.453125 9.378906 15.355469 9.367188 15.257812 9.332031 C 15.199219 9.308594 15.160156 9.402344 15.214844 9.429688 Z M 15.21875 9.429688 " fill-opacity="1" fill-rule="nonzero"/><path fill="#232323" d="M 15.300781 7.308594 C 15.484375 7.238281 15.746094 7.191406 15.914062 7.324219 C 16.019531 7.40625 16.078125 7.527344 16.148438 7.640625 C 16.214844 7.753906 16.304688 7.867188 16.429688 7.90625 C 16.519531 7.929688 16.617188 7.917969 16.703125 7.953125 C 16.863281 8.027344 16.898438 8.242188 16.867188 8.414062 C 16.804688 8.773438 16.542969 8.894531 16.207031 8.855469 C 16.054688 8.835938 15.890625 8.886719 15.738281 8.886719 C 15.359375 8.886719 14.972656 8.796875 14.648438 8.585938 " fill-opacity="1" fill-rule="nonzero"/><path fill="#232323" d="M 15.3125 7.355469 C 15.441406 7.3125 15.605469 7.285156 15.738281 7.320312 C 15.90625 7.363281 15.984375 7.515625 16.0625 7.652344 C 16.128906 7.769531 16.210938 7.886719 16.332031 7.949219 C 16.453125 8.015625 16.640625 7.972656 16.730469 8.082031 C 16.875 8.265625 16.769531 8.617188 16.574219 8.722656 C 16.472656 8.777344 16.355469 8.78125 16.246094 8.773438 C 16.078125 8.761719 15.921875 8.796875 15.753906 8.800781 C 15.371094 8.8125 15.023438 8.699219 14.691406 8.515625 C 14.597656 8.464844 14.523438 8.597656 14.609375 8.65625 C 14.914062 8.878906 15.328125 8.96875 15.703125 8.972656 C 15.800781 8.972656 15.894531 8.964844 15.988281 8.949219 C 16.082031 8.9375 16.175781 8.9375 16.269531 8.945312 C 16.40625 8.953125 16.542969 8.933594 16.660156 8.867188 C 16.90625 8.734375 17.007812 8.410156 16.941406 8.148438 C 16.90625 8.003906 16.808594 7.886719 16.65625 7.855469 C 16.566406 7.835938 16.46875 7.847656 16.386719 7.800781 C 16.304688 7.75 16.246094 7.660156 16.195312 7.574219 C 16.101562 7.421875 16.003906 7.257812 15.816406 7.199219 C 15.632812 7.144531 15.457031 7.199219 15.285156 7.261719 C 15.226562 7.285156 15.25 7.378906 15.3125 7.355469 Z M 15.3125 7.355469 " fill-opacity="1" fill-rule="nonzero"/><path fill="#ffffff" d="M 14.582031 8.636719 C 14.5625 8.839844 14.601562 9.03125 14.707031 9.207031 C 14.746094 9.277344 14.824219 9.34375 14.84375 9.421875 C 14.863281 9.488281 14.863281 9.578125 14.859375 9.644531 C 14.851562 9.757812 14.847656 9.789062 14.726562 9.820312 C 14.539062 9.871094 14.347656 9.902344 14.15625 9.90625 C 14.351562 10.28125 14.535156 10.628906 14.972656 10.757812 C 15.289062 10.851562 15.625 10.847656 15.898438 10.65625 C 16.027344 10.570312 16.144531 10.460938 16.226562 10.332031 C 16.304688 10.199219 16.351562 10.039062 16.328125 9.886719 C 16.324219 9.878906 16.324219 9.871094 16.316406 9.863281 C 16.308594 9.847656 16.285156 9.851562 16.269531 9.855469 C 16.070312 9.882812 15.640625 9.847656 15.714844 9.550781 C 15.738281 9.460938 15.871094 9.433594 15.941406 9.378906 C 16.03125 9.308594 16.097656 9.21875 16.140625 9.109375 C 16.230469 8.875 16.179688 8.601562 16.046875 8.386719 C 15.996094 8.300781 15.933594 8.21875 15.859375 8.148438 C 15.640625 7.933594 15.386719 7.863281 15.089844 7.929688 C 14.832031 7.992188 14.648438 8.300781 14.597656 8.542969 C 14.589844 8.574219 14.585938 8.605469 14.582031 8.636719 Z M 14.582031 8.636719 " fill-opacity="1" fill-rule="nonzero"/><path fill="#232323" d="M 14.523438 8.636719 C 14.503906 8.796875 14.523438 8.949219 14.578125 9.101562 C 14.597656 9.160156 14.625 9.214844 14.660156 9.269531 C 14.703125 9.335938 14.765625 9.390625 14.78125 9.472656 C 14.792969 9.542969 14.792969 9.613281 14.78125 9.683594 C 14.773438 9.730469 14.757812 9.734375 14.707031 9.75 C 14.527344 9.800781 14.34375 9.828125 14.15625 9.832031 C 14.125 9.832031 14.105469 9.84375 14.089844 9.871094 C 14.074219 9.894531 14.074219 9.921875 14.089844 9.949219 C 14.203125 10.171875 14.324219 10.40625 14.507812 10.582031 C 14.703125 10.769531 14.957031 10.863281 15.222656 10.890625 C 15.527344 10.929688 15.800781 10.851562 16.039062 10.660156 C 16.261719 10.480469 16.441406 10.214844 16.417969 9.921875 C 16.40625 9.777344 16.324219 9.769531 16.203125 9.777344 C 16.109375 9.785156 16.019531 9.777344 15.933594 9.75 C 15.863281 9.730469 15.777344 9.683594 15.792969 9.597656 C 15.800781 9.542969 15.851562 9.523438 15.898438 9.503906 C 15.953125 9.476562 16.003906 9.441406 16.046875 9.398438 C 16.492188 8.976562 16.210938 8.230469 15.742188 7.953125 C 15.503906 7.8125 15.148438 7.761719 14.902344 7.921875 C 14.667969 8.078125 14.535156 8.363281 14.503906 8.636719 C 14.488281 8.742188 14.652344 8.738281 14.664062 8.636719 C 14.699219 8.378906 14.863281 8.058594 15.140625 8.003906 C 15.484375 7.9375 15.792969 8.136719 15.96875 8.417969 C 16.136719 8.683594 16.179688 9.097656 15.894531 9.308594 C 15.804688 9.375 15.6875 9.398438 15.640625 9.511719 C 15.601562 9.613281 15.617188 9.707031 15.6875 9.792969 C 15.753906 9.871094 15.859375 9.910156 15.957031 9.929688 C 16.015625 9.941406 16.074219 9.945312 16.132812 9.949219 C 16.164062 9.949219 16.253906 9.925781 16.277344 9.9375 L 16.238281 9.886719 C 16.328125 10.136719 16.085938 10.414062 15.902344 10.554688 C 15.683594 10.714844 15.425781 10.761719 15.160156 10.71875 C 14.933594 10.679688 14.734375 10.585938 14.574219 10.417969 C 14.425781 10.261719 14.324219 10.0625 14.222656 9.871094 L 14.15625 9.988281 C 14.359375 9.976562 14.566406 9.953125 14.761719 9.894531 C 14.878906 9.855469 14.925781 9.792969 14.933594 9.671875 C 14.945312 9.496094 14.921875 9.375 14.8125 9.234375 C 14.683594 9.0625 14.632812 8.851562 14.644531 8.636719 C 14.648438 8.558594 14.53125 8.5625 14.523438 8.636719 Z M 14.523438 8.636719 " fill-opacity="1" fill-rule="nonzero"/><path fill="#232323" d="M 15.0625 9.132812 C 15.050781 9.125 15.039062 9.117188 15.03125 9.105469 C 15 9.054688 15.003906 8.984375 14.964844 8.9375 C 14.917969 8.882812 14.863281 8.816406 14.796875 8.789062 C 14.722656 8.761719 14.621094 8.792969 14.597656 8.871094 C 14.589844 8.90625 14.59375 8.941406 14.605469 8.976562 C 14.636719 9.066406 14.671875 9.152344 14.722656 9.230469 C 14.773438 9.320312 14.820312 9.472656 14.660156 9.449219 C 14.433594 9.414062 14.199219 9.0625 14.105469 8.882812 C 13.957031 8.589844 13.914062 8.285156 13.984375 7.964844 C 14.003906 7.867188 14.042969 7.769531 14.089844 7.679688 C 14.226562 7.441406 14.539062 7.238281 14.804688 7.175781 C 15.019531 7.128906 15.257812 7.175781 15.425781 7.3125 C 15.65625 7.496094 15.652344 7.769531 15.695312 8.027344 C 15.707031 8.109375 15.644531 8.183594 15.570312 8.214844 C 15.492188 8.246094 15.410156 8.242188 15.328125 8.238281 C 15.355469 8.316406 15.339844 8.378906 15.277344 8.433594 C 15.214844 8.484375 15.144531 8.492188 15.074219 8.449219 C 15.140625 8.625 15.175781 8.808594 15.183594 8.996094 C 15.1875 9.027344 15.183594 9.058594 15.171875 9.089844 C 15.148438 9.140625 15.101562 9.152344 15.0625 9.132812 Z M 15.0625 9.132812 " fill-opacity="1" fill-rule="nonzero"/><path fill="#232323" d="M 15.089844 9.085938 C 15.054688 9.058594 15.054688 8.980469 15.035156 8.941406 C 15.023438 8.917969 15.007812 8.894531 14.988281 8.871094 C 14.9375 8.808594 14.875 8.738281 14.789062 8.71875 C 14.714844 8.695312 14.648438 8.710938 14.589844 8.765625 C 14.53125 8.820312 14.511719 8.882812 14.527344 8.960938 C 14.542969 9.058594 14.59375 9.152344 14.640625 9.238281 C 14.65625 9.269531 14.671875 9.300781 14.683594 9.332031 C 14.699219 9.378906 14.707031 9.382812 14.65625 9.371094 C 14.488281 9.324219 14.363281 9.144531 14.269531 9.007812 C 14.039062 8.65625 13.945312 8.199219 14.113281 7.800781 C 14.261719 7.453125 14.714844 7.175781 15.097656 7.242188 C 15.332031 7.285156 15.503906 7.445312 15.5625 7.675781 C 15.585938 7.777344 15.601562 7.882812 15.609375 7.988281 C 15.632812 8.164062 15.464844 8.167969 15.328125 8.164062 C 15.265625 8.164062 15.242188 8.195312 15.257812 8.257812 C 15.285156 8.351562 15.207031 8.4375 15.109375 8.390625 C 15.058594 8.371094 14.988281 8.40625 15.007812 8.46875 C 15.042969 8.5625 15.066406 8.660156 15.085938 8.753906 C 15.089844 8.777344 15.140625 9.089844 15.082031 9.070312 C 15 9.039062 14.964844 9.167969 15.042969 9.199219 C 15.183594 9.25 15.253906 9.113281 15.25 8.996094 C 15.25 8.804688 15.203125 8.609375 15.140625 8.433594 L 15.039062 8.511719 C 15.242188 8.605469 15.457031 8.4375 15.398438 8.21875 L 15.328125 8.308594 C 15.554688 8.324219 15.800781 8.25 15.761719 7.976562 C 15.730469 7.761719 15.71875 7.539062 15.578125 7.359375 C 15.277344 6.96875 14.722656 7.046875 14.359375 7.292969 C 14.167969 7.425781 14.023438 7.597656 13.949219 7.816406 C 13.863281 8.058594 13.855469 8.324219 13.914062 8.574219 C 13.960938 8.796875 14.070312 9.007812 14.210938 9.1875 C 14.320312 9.332031 14.484375 9.523438 14.683594 9.523438 C 14.933594 9.527344 14.816406 9.253906 14.753906 9.132812 C 14.722656 9.074219 14.65625 8.972656 14.667969 8.90625 C 14.683594 8.796875 14.808594 8.867188 14.851562 8.90625 C 14.90625 8.957031 14.929688 9.003906 14.953125 9.074219 C 14.96875 9.117188 14.996094 9.152344 15.035156 9.179688 C 15.09375 9.21875 15.144531 9.125 15.089844 9.085938 Z M 15.089844 9.085938 " fill-opacity="1" fill-rule="nonzero"/><path fill="#232323" d="M 15.605469 8.613281 L 15.601562 8.613281 L 15.609375 8.613281 L 15.605469 8.613281 L 15.617188 8.613281 C 15.617188 8.613281 15.613281 8.613281 15.613281 8.613281 L 15.621094 8.617188 C 15.621094 8.617188 15.621094 8.613281 15.617188 8.613281 L 15.625 8.621094 C 15.625 8.621094 15.625 8.617188 15.625 8.617188 L 15.632812 8.632812 C 15.632812 8.632812 15.632812 8.632812 15.632812 8.628906 L 15.632812 8.640625 C 15.632812 8.640625 15.632812 8.636719 15.632812 8.636719 L 15.632812 8.648438 C 15.632812 8.644531 15.632812 8.644531 15.632812 8.644531 L 15.628906 8.652344 C 15.628906 8.652344 15.632812 8.648438 15.632812 8.648438 L 15.625 8.65625 L 15.628906 8.652344 L 15.621094 8.660156 L 15.613281 8.664062 L 15.617188 8.664062 L 15.605469 8.664062 L 15.609375 8.664062 L 15.597656 8.664062 L 15.601562 8.664062 L 15.589844 8.65625 C 15.59375 8.660156 15.59375 8.660156 15.59375 8.660156 L 15.585938 8.652344 C 15.585938 8.65625 15.589844 8.65625 15.589844 8.65625 L 15.582031 8.648438 C 15.585938 8.648438 15.585938 8.652344 15.585938 8.652344 L 15.582031 8.644531 L 15.582031 8.628906 C 15.578125 8.640625 15.582031 8.648438 15.585938 8.660156 C 15.59375 8.671875 15.605469 8.679688 15.625 8.675781 C 15.640625 8.675781 15.652344 8.667969 15.65625 8.648438 C 15.664062 8.621094 15.65625 8.597656 15.625 8.585938 C 15.597656 8.574219 15.578125 8.582031 15.5625 8.609375 C 15.546875 8.632812 15.550781 8.65625 15.566406 8.675781 C 15.585938 8.691406 15.601562 8.695312 15.625 8.691406 C 15.636719 8.6875 15.644531 8.679688 15.648438 8.671875 C 15.664062 8.648438 15.660156 8.628906 15.636719 8.613281 C 15.625 8.609375 15.613281 8.609375 15.605469 8.609375 Z M 15.605469 8.613281 " fill-opacity="1" fill-rule="nonzero"/><path fill="#232323" d="M 16.007812 8.585938 L 16.003906 8.585938 L 16.015625 8.585938 C 16.015625 8.585938 16.011719 8.585938 16.011719 8.585938 L 16.023438 8.585938 C 16.019531 8.585938 16.019531 8.585938 16.015625 8.585938 L 16.027344 8.589844 C 16.027344 8.589844 16.023438 8.585938 16.023438 8.585938 L 16.03125 8.59375 C 16.03125 8.59375 16.03125 8.589844 16.027344 8.589844 L 16.035156 8.597656 L 16.039062 8.605469 C 16.039062 8.605469 16.039062 8.605469 16.039062 8.601562 L 16.039062 8.613281 C 16.039062 8.613281 16.039062 8.609375 16.039062 8.609375 L 16.039062 8.621094 C 16.039062 8.617188 16.039062 8.617188 16.039062 8.617188 L 16.035156 8.625 C 16.035156 8.625 16.035156 8.621094 16.035156 8.621094 L 16.03125 8.628906 L 16.035156 8.625 L 16.027344 8.632812 L 16.019531 8.636719 L 16 8.636719 L 16.003906 8.636719 L 15.996094 8.632812 C 15.996094 8.632812 15.996094 8.632812 16 8.632812 L 15.992188 8.628906 L 15.988281 8.621094 C 15.988281 8.621094 15.988281 8.625 15.988281 8.625 L 15.984375 8.617188 L 15.984375 8.609375 L 15.984375 8.613281 L 15.984375 8.601562 C 15.984375 8.613281 15.984375 8.621094 15.988281 8.632812 C 16 8.648438 16.011719 8.652344 16.027344 8.652344 C 16.042969 8.648438 16.054688 8.640625 16.058594 8.625 C 16.070312 8.59375 16.058594 8.574219 16.03125 8.558594 C 16.003906 8.546875 15.980469 8.554688 15.964844 8.582031 C 15.949219 8.605469 15.953125 8.628906 15.972656 8.648438 C 15.988281 8.664062 16.007812 8.667969 16.03125 8.664062 C 16.046875 8.660156 16.058594 8.648438 16.058594 8.628906 C 16.0625 8.609375 16.054688 8.597656 16.039062 8.589844 C 16.03125 8.582031 16.019531 8.582031 16.007812 8.585938 Z M 16.007812 8.585938 " fill-opacity="1" fill-rule="nonzero"/><path fill="#232323" d="M 15.949219 8.410156 C 15.867188 8.441406 15.792969 8.492188 15.792969 8.589844 C 15.792969 8.632812 15.8125 8.671875 15.828125 8.710938 C 15.839844 8.742188 15.855469 8.769531 15.871094 8.800781 C 15.898438 8.863281 15.894531 8.851562 15.839844 8.863281 C 15.796875 8.867188 15.816406 8.933594 15.859375 8.929688 C 15.914062 8.921875 15.96875 8.90625 15.957031 8.84375 C 15.941406 8.703125 15.734375 8.546875 15.960938 8.460938 C 15.992188 8.449219 15.980469 8.398438 15.949219 8.410156 Z M 15.949219 8.410156 " fill-opacity="1" fill-rule="nonzero"/><path fill="#232323" d="M 15.6875 8.460938 C 15.589844 8.40625 15.507812 8.421875 15.433594 8.507812 C 15.414062 8.535156 15.441406 8.582031 15.476562 8.5625 C 15.503906 8.546875 15.527344 8.523438 15.554688 8.511719 C 15.589844 8.5 15.625 8.5 15.65625 8.515625 C 15.691406 8.53125 15.722656 8.484375 15.6875 8.460938 Z M 15.6875 8.460938 " fill-opacity="1" fill-rule="nonzero"/><path fill="#232323" d="M 15.367188 9.453125 C 15.449219 9.507812 15.535156 9.539062 15.628906 9.550781 C 15.726562 9.5625 15.8125 9.527344 15.894531 9.484375 C 15.984375 9.441406 15.90625 9.308594 15.816406 9.351562 C 15.757812 9.378906 15.695312 9.414062 15.628906 9.410156 C 15.558594 9.40625 15.488281 9.390625 15.421875 9.363281 C 15.390625 9.347656 15.367188 9.355469 15.351562 9.382812 C 15.335938 9.414062 15.339844 9.4375 15.367188 9.457031 Z M 15.367188 9.453125 " fill-opacity="1" fill-rule="nonzero"/><path fill="#232323" d="M 14.75 10.097656 C 14.867188 10 14.910156 9.847656 14.933594 9.703125 C 14.949219 9.621094 14.824219 9.582031 14.808594 9.667969 C 14.78125 9.792969 14.761719 9.925781 14.671875 10.023438 C 14.625 10.074219 14.699219 10.144531 14.75 10.097656 Z M 14.75 10.097656 " fill-opacity="1" fill-rule="nonzero"/><path fill="#232323" d="M 16.503906 13.84375 C 16.609375 14.039062 16.710938 14.234375 16.816406 14.429688 C 16.867188 14.527344 16.902344 14.617188 16.894531 14.730469 C 16.890625 14.832031 16.871094 14.925781 16.882812 15.027344 C 16.890625 15.101562 17.007812 15.101562 17 15.027344 C 16.988281 14.921875 17.011719 14.820312 17.011719 14.710938 C 17.011719 14.613281 16.992188 14.519531 16.945312 14.433594 C 16.839844 14.214844 16.710938 14.003906 16.59375 13.792969 C 16.5625 13.734375 16.472656 13.785156 16.503906 13.84375 Z M 16.503906 13.84375 " fill-opacity="1" fill-rule="nonzero"/><path fill="#ffffff" d="M 17.582031 15.097656 C 18.035156 15.792969 18.109375 16.652344 17.835938 17.429688 C 17.820312 17.472656 17.890625 17.492188 17.910156 17.449219 C 18.21875 16.675781 18.09375 15.757812 17.628906 15.070312 C 17.609375 15.042969 17.5625 15.070312 17.582031 15.101562 Z M 17.582031 15.097656 " fill-opacity="1" fill-rule="nonzero"/><g clip-path="url(#196129e354)"><path fill="#232323" d="M 14.515625 7.765625 C 14.625 7.523438 14.59375 7.199219 14.378906 7.046875 C 14.304688 6.992188 14.222656 6.960938 14.128906 6.945312 C 14.019531 6.925781 13.898438 6.929688 13.796875 6.976562 C 13.691406 7.027344 13.609375 7.128906 13.605469 7.242188 C 13.386719 7.214844 13.171875 7.378906 13.101562 7.585938 C 13.03125 7.796875 13.089844 8.035156 13.214844 8.21875 C 13.261719 8.292969 13.320312 8.351562 13.398438 8.398438 C 13.480469 8.449219 13.570312 8.46875 13.667969 8.46875 C 13.917969 8.460938 14.105469 8.34375 14.21875 8.121094 " fill-opacity="1" fill-rule="nonzero"/></g><g clip-path="url(#6344206e7a)"><path fill="#232323" d="M 14.566406 7.792969 C 14.699219 7.507812 14.671875 7.125 14.378906 6.949219 C 14.074219 6.765625 13.554688 6.824219 13.511719 7.242188 L 13.605469 7.148438 C 13.375 7.125 13.148438 7.269531 13.046875 7.472656 C 12.929688 7.707031 12.96875 7.988281 13.097656 8.207031 C 13.230469 8.4375 13.449219 8.585938 13.726562 8.558594 C 13.988281 8.53125 14.179688 8.402344 14.296875 8.167969 C 14.347656 8.0625 14.195312 7.96875 14.136719 8.074219 C 14.054688 8.222656 13.917969 8.335938 13.742188 8.363281 C 13.53125 8.402344 13.363281 8.292969 13.261719 8.113281 C 13.171875 7.957031 13.128906 7.75 13.203125 7.582031 C 13.28125 7.40625 13.414062 7.324219 13.605469 7.335938 C 13.660156 7.339844 13.695312 7.289062 13.699219 7.242188 C 13.726562 6.9375 14.199219 6.992188 14.363281 7.136719 C 14.53125 7.285156 14.535156 7.554688 14.460938 7.75 C 14.441406 7.808594 14.539062 7.851562 14.566406 7.792969 Z M 14.566406 7.792969 " fill-opacity="1" fill-rule="nonzero"/></g><path fill="#232323" d="M 19.074219 10.3125 C 18.902344 10.324219 18.800781 10.492188 18.714844 10.621094 C 18.605469 10.789062 18.515625 10.96875 18.445312 11.160156 C 18.371094 11.34375 18.320312 11.539062 18.28125 11.734375 C 18.242188 11.933594 18.199219 12.152344 18.203125 12.359375 C 18.203125 12.445312 18.347656 12.472656 18.363281 12.378906 C 18.394531 12.207031 18.398438 12.035156 18.429688 11.863281 C 18.457031 11.6875 18.5 11.515625 18.550781 11.347656 C 18.601562 11.179688 18.667969 11.015625 18.75 10.863281 C 18.792969 10.785156 18.835938 10.710938 18.878906 10.636719 C 18.925781 10.570312 18.984375 10.453125 19.074219 10.4375 C 19.152344 10.429688 19.15625 10.304688 19.074219 10.3125 Z M 19.074219 10.3125 " fill-opacity="1" fill-rule="nonzero"/><path fill="#232323" d="M 16.496094 14.398438 C 17.050781 15.496094 17.488281 16.667969 17.816406 17.851562 C 17.90625 18.171875 17.988281 18.496094 18.058594 18.820312 C 18.078125 18.910156 18.210938 18.871094 18.195312 18.785156 C 18.070312 18.1875 17.894531 17.601562 17.699219 17.023438 C 17.5 16.421875 17.273438 15.832031 17.019531 15.25 C 16.886719 14.945312 16.734375 14.644531 16.582031 14.351562 C 16.550781 14.292969 16.46875 14.34375 16.496094 14.398438 Z M 16.496094 14.398438 " fill-opacity="1" fill-rule="nonzero"/><path fill="#232323" d="M 13.714844 15.058594 C 13.777344 15.773438 14.09375 16.410156 14.472656 17.007812 C 14.675781 17.324219 14.898438 17.628906 15.035156 17.980469 C 15.171875 18.328125 15.238281 18.699219 15.304688 19.0625 C 15.324219 19.152344 15.457031 19.113281 15.441406 19.027344 C 15.382812 18.664062 15.316406 18.300781 15.183594 17.960938 C 15.050781 17.621094 14.847656 17.328125 14.652344 17.027344 C 14.257812 16.433594 13.886719 15.78125 13.820312 15.058594 C 13.816406 14.992188 13.710938 14.992188 13.714844 15.058594 Z M 13.714844 15.058594 " fill-opacity="1" fill-rule="nonzero"/><path fill="#232323" d="M 15.632812 9.054688 C 15.675781 9.097656 15.730469 9.113281 15.789062 9.109375 C 15.816406 9.109375 15.832031 9.09375 15.828125 9.066406 C 15.824219 9.039062 15.808594 9.027344 15.78125 9.035156 C 15.742188 9.042969 15.707031 9.035156 15.679688 9.007812 C 15.648438 8.980469 15.601562 9.027344 15.632812 9.054688 Z M 15.632812 9.054688 " fill-opacity="1" fill-rule="nonzero"/><path fill="#ffffff" d="M 18.398438 21.945312 C 18.457031 21.835938 18.527344 21.753906 18.644531 21.707031 C 18.683594 21.691406 18.667969 21.632812 18.628906 21.648438 C 18.5 21.6875 18.378906 21.789062 18.335938 21.917969 C 18.332031 21.9375 18.335938 21.953125 18.355469 21.960938 C 18.375 21.96875 18.390625 21.960938 18.398438 21.945312 Z M 18.398438 21.945312 " fill-opacity="1" fill-rule="nonzero"/><path fill="#ffffff" d="M 18.65625 22.035156 L 18.769531 21.894531 C 18.796875 21.863281 18.75 21.8125 18.722656 21.847656 L 18.609375 21.992188 C 18.582031 22.023438 18.628906 22.070312 18.65625 22.035156 Z M 18.65625 22.035156 " fill-opacity="1" fill-rule="nonzero"/><path fill="#ffffff" d="M 13.328125 18.640625 C 13.382812 18.730469 13.421875 18.820312 13.445312 18.921875 C 13.453125 18.953125 13.507812 18.949219 13.503906 18.914062 C 13.492188 18.800781 13.453125 18.699219 13.386719 18.609375 C 13.363281 18.574219 13.304688 18.605469 13.328125 18.640625 Z M 13.328125 18.640625 " fill-opacity="1" fill-rule="nonzero"/><path fill="#ffffff" d="M 13.128906 18.757812 C 13.171875 18.84375 13.203125 18.933594 13.214844 19.027344 C 13.21875 19.066406 13.273438 19.070312 13.273438 19.027344 C 13.269531 18.917969 13.242188 18.816406 13.183594 18.722656 C 13.171875 18.707031 13.160156 18.703125 13.140625 18.714844 C 13.125 18.726562 13.121094 18.738281 13.128906 18.757812 Z M 13.128906 18.757812 " fill-opacity="1" fill-rule="nonzero"/><path fill="#ffffff" d="M 13.242188 17.300781 C 13.132812 17.367188 13.191406 17.535156 13.316406 17.535156 C 13.460938 17.535156 13.527344 17.332031 13.40625 17.25 C 13.378906 17.226562 13.34375 17.265625 13.359375 17.292969 C 13.378906 17.328125 13.398438 17.355469 13.394531 17.394531 C 13.390625 17.4375 13.367188 17.460938 13.328125 17.46875 C 13.257812 17.484375 13.203125 17.390625 13.269531 17.347656 C 13.296875 17.328125 13.273438 17.28125 13.242188 17.300781 Z M 13.242188 17.300781 " fill-opacity="1" fill-rule="nonzero"/><path fill="#ffffff" d="M 17.105469 22.382812 C 16.941406 22.480469 17.042969 22.738281 17.226562 22.703125 C 17.449219 22.664062 17.445312 22.375 17.261719 22.285156 C 17.21875 22.265625 17.179688 22.328125 17.222656 22.351562 C 17.328125 22.40625 17.375 22.570312 17.242188 22.621094 C 17.191406 22.640625 17.132812 22.632812 17.105469 22.582031 C 17.074219 22.523438 17.085938 22.476562 17.140625 22.441406 C 17.15625 22.429688 17.160156 22.414062 17.152344 22.398438 C 17.140625 22.378906 17.125 22.375 17.105469 22.386719 Z M 17.105469 22.382812 " fill-opacity="1" fill-rule="nonzero"/><g clip-path="url(#4256eb4293)"><path fill="#ffffff" d="M 21.445312 21.667969 C 21.4375 21.617188 21.4375 21.5625 21.433594 21.511719 C 21.414062 20.835938 21.414062 20.15625 21.296875 19.492188 C 21.070312 18.21875 20.101562 17.375 19.746094 16.164062 C 19.367188 14.878906 19.984375 13.539062 20.207031 12.21875 C 20.410156 11.027344 20.304688 9.859375 19.886719 8.722656 C 19.847656 8.609375 22.410156 8.015625 22.644531 7.980469 C 23.242188 7.894531 23.84375 7.863281 24.441406 7.835938 C 24.75 7.820312 25.769531 7.578125 25.984375 7.777344 C 26.09375 7.878906 26.136719 8.027344 26.167969 8.171875 C 26.433594 9.417969 26.316406 11.125 25.8125 12.308594 C 25.394531 13.285156 25.042969 14.414062 25.765625 15.378906 C 26.179688 15.929688 26.875 16.199219 27.355469 16.695312 C 27.835938 17.195312 28.066406 17.882812 28.210938 18.5625 C 28.238281 18.683594 28.257812 18.8125 28.210938 18.921875 C 28.15625 19.058594 28.011719 19.132812 27.882812 19.199219 L 24.742188 20.757812 C 23.878906 21.1875 22.957031 21.800781 22.03125 22.066406 C 21.867188 22.113281 21.671875 22.085938 21.558594 21.960938 C 21.484375 21.882812 21.457031 21.777344 21.445312 21.667969 Z M 21.445312 21.667969 " fill-opacity="1" fill-rule="nonzero"/><path fill="#232323" d="M 21.496094 21.667969 C 21.457031 21.261719 21.476562 20.847656 21.453125 20.4375 C 21.433594 20.054688 21.398438 19.660156 21.308594 19.285156 C 21.160156 18.660156 20.824219 18.109375 20.496094 17.5625 C 20.144531 16.984375 19.800781 16.382812 19.714844 15.703125 C 19.621094 14.945312 19.808594 14.1875 19.992188 13.457031 C 20.179688 12.710938 20.355469 11.972656 20.371094 11.199219 C 20.382812 10.425781 20.273438 9.671875 20.035156 8.933594 C 20.019531 8.894531 20.003906 8.851562 19.992188 8.8125 C 19.984375 8.785156 19.976562 8.761719 19.96875 8.742188 C 19.949219 8.703125 19.972656 8.699219 19.953125 8.734375 C 19.941406 8.757812 19.9375 8.753906 19.953125 8.75 C 19.992188 8.734375 20.023438 8.71875 20.0625 8.703125 C 20.203125 8.652344 20.34375 8.609375 20.488281 8.570312 C 20.894531 8.457031 21.300781 8.355469 21.710938 8.257812 C 22.011719 8.1875 22.3125 8.109375 22.617188 8.054688 C 22.929688 7.996094 23.25 7.976562 23.5625 7.953125 C 23.898438 7.929688 24.242188 7.933594 24.578125 7.890625 C 24.808594 7.859375 25.039062 7.820312 25.273438 7.792969 C 25.394531 7.777344 25.515625 7.769531 25.636719 7.769531 C 25.722656 7.769531 25.820312 7.769531 25.902344 7.804688 C 26.03125 7.867188 26.070312 8.050781 26.097656 8.175781 C 26.132812 8.328125 26.160156 8.484375 26.179688 8.644531 C 26.222656 8.972656 26.242188 9.300781 26.238281 9.632812 C 26.234375 10.308594 26.152344 10.992188 25.96875 11.644531 C 25.792969 12.273438 25.46875 12.851562 25.339844 13.5 C 25.210938 14.148438 25.28125 14.820312 25.671875 15.375 C 26.054688 15.90625 26.664062 16.175781 27.144531 16.597656 C 27.675781 17.058594 27.9375 17.71875 28.097656 18.386719 C 28.136719 18.546875 28.222656 18.769531 28.128906 18.925781 C 28.046875 19.070312 27.84375 19.136719 27.703125 19.207031 L 26.582031 19.761719 C 25.851562 20.125 25.109375 20.476562 24.386719 20.859375 C 23.707031 21.222656 23.042969 21.632812 22.316406 21.898438 C 22.167969 21.953125 22.003906 22.027344 21.84375 22.019531 C 21.640625 22.007812 21.53125 21.859375 21.507812 21.667969 C 21.496094 21.585938 21.371094 21.585938 21.382812 21.667969 C 21.402344 21.816406 21.441406 21.960938 21.566406 22.054688 C 21.675781 22.140625 21.824219 22.167969 21.964844 22.148438 C 22.140625 22.121094 22.320312 22.046875 22.488281 21.984375 C 22.671875 21.914062 22.851562 21.835938 23.027344 21.75 C 23.386719 21.574219 23.738281 21.382812 24.085938 21.1875 C 24.4375 20.996094 24.796875 20.8125 25.15625 20.632812 C 25.933594 20.25 26.710938 19.863281 27.484375 19.476562 C 27.664062 19.386719 27.847656 19.304688 28.023438 19.207031 C 28.152344 19.132812 28.269531 19.03125 28.300781 18.878906 C 28.335938 18.71875 28.28125 18.539062 28.246094 18.378906 C 28.203125 18.207031 28.160156 18.035156 28.101562 17.867188 C 27.992188 17.539062 27.847656 17.21875 27.648438 16.933594 C 27.453125 16.664062 27.203125 16.445312 26.933594 16.25 C 26.65625 16.046875 26.359375 15.867188 26.101562 15.636719 C 25.828125 15.394531 25.632812 15.097656 25.515625 14.75 C 25.300781 14.074219 25.480469 13.355469 25.722656 12.714844 C 25.839844 12.40625 25.976562 12.105469 26.074219 11.789062 C 26.171875 11.457031 26.246094 11.121094 26.292969 10.78125 C 26.390625 10.09375 26.410156 9.394531 26.324219 8.707031 C 26.308594 8.550781 26.285156 8.394531 26.253906 8.238281 C 26.222656 8.085938 26.1875 7.917969 26.089844 7.789062 C 25.960938 7.625 25.738281 7.625 25.546875 7.632812 C 25.292969 7.644531 25.039062 7.683594 24.789062 7.722656 C 24.507812 7.765625 24.226562 7.773438 23.941406 7.792969 C 23.414062 7.824219 22.875 7.855469 22.355469 7.96875 C 21.964844 8.054688 21.574219 8.148438 21.1875 8.246094 C 20.8125 8.339844 20.4375 8.429688 20.074219 8.554688 C 20.003906 8.582031 19.875 8.609375 19.832031 8.679688 C 19.824219 8.699219 19.820312 8.71875 19.824219 8.738281 C 19.832031 8.824219 19.886719 8.921875 19.914062 9.007812 C 19.976562 9.195312 20.027344 9.386719 20.070312 9.582031 C 20.253906 10.386719 20.289062 11.199219 20.175781 12.015625 C 20.0625 12.808594 19.800781 13.566406 19.65625 14.351562 C 19.523438 15.097656 19.523438 15.835938 19.8125 16.542969 C 20.066406 17.15625 20.457031 17.699219 20.777344 18.277344 C 20.9375 18.574219 21.082031 18.882812 21.175781 19.207031 C 21.285156 19.601562 21.320312 20.011719 21.34375 20.417969 C 21.371094 20.832031 21.355469 21.253906 21.394531 21.667969 C 21.398438 21.730469 21.5 21.734375 21.496094 21.667969 Z M 21.496094 21.667969 " fill-opacity="1" fill-rule="nonzero"/></g><path fill="#ffffff" d="M 22.132812 8.089844 C 22.132812 8.1875 22.1875 8.292969 22.28125 8.328125 C 22.375 8.359375 22.496094 8.300781 22.503906 8.199219 C 22.546875 8.289062 22.613281 8.320312 22.707031 8.300781 C 22.804688 8.273438 22.847656 8.210938 22.839844 8.113281 C 22.882812 8.210938 22.957031 8.246094 23.058594 8.222656 C 23.164062 8.195312 23.214844 8.132812 23.210938 8.023438 C 23.253906 8.144531 23.523438 8.132812 23.59375 8.039062 C 23.625 7.992188 23.636719 7.941406 23.632812 7.886719 C 23.628906 7.398438 22.933594 7.082031 22.515625 7.101562 C 22.265625 7.117188 22.035156 7.195312 21.824219 7.328125 " fill-opacity="1" fill-rule="nonzero"/><path fill="#232323" d="M 21.722656 7.492188 C 21.980469 7.289062 22.316406 7.152344 22.644531 7.183594 C 22.902344 7.207031 23.171875 7.320312 23.359375 7.496094 C 23.449219 7.578125 23.523438 7.679688 23.550781 7.800781 C 23.5625 7.859375 23.574219 7.957031 23.527344 8.003906 C 23.492188 8.035156 23.429688 8.039062 23.382812 8.039062 C 23.339844 8.039062 23.289062 8.03125 23.273438 7.988281 C 23.242188 7.917969 23.136719 7.957031 23.136719 8.023438 C 23.132812 8.164062 22.960938 8.203125 22.898438 8.078125 C 22.867188 8.019531 22.765625 8.042969 22.769531 8.113281 C 22.777344 8.242188 22.621094 8.277344 22.558594 8.167969 C 22.527344 8.105469 22.445312 8.140625 22.4375 8.199219 C 22.429688 8.257812 22.347656 8.285156 22.296875 8.265625 C 22.230469 8.238281 22.199219 8.15625 22.195312 8.089844 C 22.191406 8.007812 22.066406 8.007812 22.070312 8.089844 C 22.074219 8.222656 22.152344 8.367188 22.292969 8.394531 C 22.359375 8.410156 22.421875 8.398438 22.476562 8.359375 C 22.53125 8.320312 22.5625 8.265625 22.570312 8.199219 L 22.449219 8.234375 C 22.507812 8.351562 22.601562 8.394531 22.726562 8.363281 C 22.855469 8.328125 22.914062 8.242188 22.910156 8.113281 L 22.777344 8.148438 C 22.839844 8.269531 22.9375 8.316406 23.074219 8.292969 C 23.199219 8.265625 23.277344 8.148438 23.28125 8.023438 L 23.140625 8.042969 C 23.195312 8.175781 23.34375 8.199219 23.472656 8.179688 C 23.640625 8.152344 23.714844 8.023438 23.707031 7.855469 C 23.6875 7.566406 23.460938 7.347656 23.21875 7.210938 C 22.960938 7.070312 22.664062 7 22.371094 7.042969 C 22.101562 7.082031 21.84375 7.203125 21.628906 7.375 " fill-opacity="1" fill-rule="nonzero"/><path fill="#232323" d="M 21.96875 7.886719 C 22.019531 7.957031 22.046875 8.035156 22.054688 8.121094 C 22.0625 8.199219 22.175781 8.199219 22.179688 8.121094 C 22.179688 8 22.136719 7.902344 22.050781 7.824219 C 22.007812 7.785156 21.929688 7.835938 21.96875 7.886719 Z M 21.96875 7.886719 " fill-opacity="1" fill-rule="nonzero"/><path fill="#232323" d="M 12.589844 10.15625 C 12.730469 10.558594 12.792969 10.972656 12.78125 11.398438 C 12.769531 11.707031 12.746094 12.023438 12.507812 12.242188 C 12.4375 12.304688 12.527344 12.414062 12.605469 12.371094 C 12.910156 12.203125 12.941406 11.753906 12.945312 11.449219 C 12.957031 10.988281 12.882812 10.535156 12.6875 10.113281 C 12.664062 10.058594 12.566406 10.097656 12.589844 10.15625 Z M 12.589844 10.15625 " fill-opacity="1" fill-rule="nonzero"/><path fill="#ffce00" d="M 21.738281 10.28125 C 21.394531 10.46875 20.960938 10.808594 20.847656 10.277344 C 20.832031 10.210938 20.84375 9.507812 20.765625 9.527344 L 21.398438 9.359375 C 21.4375 9.351562 21.480469 9.34375 21.511719 9.367188 C 21.53125 9.386719 21.542969 9.410156 21.546875 9.433594 C 21.625 9.714844 21.6875 9.996094 21.738281 10.28125 Z M 21.738281 10.28125 " fill-opacity="1" fill-rule="nonzero"/><path fill="#ffce00" d="M 21.710938 10.234375 C 21.539062 10.328125 21.367188 10.460938 21.171875 10.496094 C 21.085938 10.511719 21.015625 10.492188 20.972656 10.414062 C 20.9375 10.351562 20.921875 10.28125 20.921875 10.207031 C 20.917969 10.050781 20.917969 9.894531 20.90625 9.742188 C 20.898438 9.660156 20.898438 9.433594 20.765625 9.441406 L 20.789062 9.609375 C 20.914062 9.578125 21.035156 9.546875 21.160156 9.515625 L 21.347656 9.464844 C 21.359375 9.460938 21.445312 9.429688 21.457031 9.4375 C 21.46875 9.445312 21.472656 9.5 21.476562 9.515625 C 21.546875 9.777344 21.601562 10.042969 21.648438 10.308594 C 21.667969 10.421875 21.84375 10.375 21.824219 10.257812 C 21.796875 10.089844 21.761719 9.921875 21.722656 9.753906 C 21.703125 9.671875 21.679688 9.589844 21.65625 9.507812 C 21.640625 9.445312 21.628906 9.375 21.589844 9.324219 C 21.5 9.214844 21.335938 9.289062 21.226562 9.316406 C 21.0625 9.359375 20.902344 9.402344 20.742188 9.445312 C 20.652344 9.46875 20.667969 9.625 20.765625 9.613281 C 20.71875 9.574219 20.699219 9.566406 20.714844 9.589844 C 20.710938 9.582031 20.710938 9.585938 20.714844 9.597656 C 20.714844 9.609375 20.71875 9.621094 20.722656 9.632812 C 20.730469 9.664062 20.734375 9.699219 20.734375 9.730469 C 20.746094 9.820312 20.75 9.914062 20.753906 10.003906 C 20.757812 10.144531 20.75 10.292969 20.8125 10.425781 C 21.015625 10.84375 21.503906 10.472656 21.761719 10.328125 C 21.824219 10.292969 21.769531 10.203125 21.710938 10.234375 Z M 21.710938 10.234375 " fill-opacity="1" fill-rule="nonzero"/><path fill="#ffce00" d="M 20.921875 13.214844 L 20.925781 12.113281 C 21.1875 12.152344 21.445312 12.148438 21.703125 12.105469 C 21.769531 12.09375 21.851562 12.082031 21.890625 12.136719 C 21.914062 12.167969 21.914062 12.207031 21.914062 12.246094 C 21.914062 12.449219 21.914062 12.65625 21.914062 12.859375 C 21.914062 12.90625 21.910156 12.957031 21.882812 12.996094 C 21.847656 13.042969 21.789062 13.058594 21.734375 13.070312 L 21.058594 13.210938 " fill-opacity="1" fill-rule="nonzero"/><path fill="#ffce00" d="M 20.988281 13.214844 C 20.996094 12.847656 21 12.480469 21.003906 12.113281 L 20.90625 12.1875 C 21.113281 12.21875 21.320312 12.226562 21.53125 12.207031 C 21.578125 12.203125 21.621094 12.199219 21.667969 12.191406 C 21.699219 12.1875 21.761719 12.164062 21.796875 12.179688 C 21.863281 12.203125 21.828125 12.410156 21.828125 12.476562 L 21.824219 12.78125 C 21.824219 12.824219 21.835938 12.882812 21.820312 12.921875 C 21.800781 12.96875 21.75 12.972656 21.710938 12.984375 C 21.484375 13.03125 21.257812 13.066406 21.039062 13.132812 C 20.953125 13.15625 20.964844 13.304688 21.058594 13.292969 C 21.203125 13.277344 21.339844 13.242188 21.480469 13.214844 C 21.601562 13.1875 21.746094 13.175781 21.863281 13.121094 C 21.957031 13.074219 21.996094 12.992188 22 12.886719 C 22.007812 12.75 22 12.613281 22 12.476562 C 22 12.367188 22.023438 12.21875 21.976562 12.117188 C 21.933594 12.035156 21.84375 12.007812 21.753906 12.015625 C 21.628906 12.023438 21.503906 12.054688 21.375 12.058594 C 21.222656 12.066406 21.074219 12.058594 20.925781 12.039062 C 20.886719 12.03125 20.847656 12.078125 20.847656 12.113281 C 20.847656 12.480469 20.847656 12.847656 20.855469 13.214844 C 20.859375 13.300781 20.984375 13.300781 20.988281 13.214844 Z M 20.988281 13.214844 " fill-opacity="1" fill-rule="nonzero"/><path fill="#ffce00" d="M 21.101562 14.695312 C 21.15625 15.003906 21.28125 15.273438 21.386719 15.5625 C 21.179688 15.683594 20.972656 16.101562 20.714844 15.960938 C 20.457031 15.820312 20.363281 15.078125 20.386719 14.820312 C 20.554688 14.734375 20.722656 14.660156 20.898438 14.597656 C 20.953125 14.578125 21.019531 14.5625 21.0625 14.601562 C 21.085938 14.625 21.09375 14.660156 21.101562 14.695312 Z M 21.101562 14.695312 " fill-opacity="1" fill-rule="nonzero"/><path fill="#ffce00" d="M 21.046875 14.710938 C 21.097656 15.011719 21.214844 15.292969 21.316406 15.582031 L 21.347656 15.5 C 21.199219 15.589844 21.105469 15.742188 20.96875 15.84375 C 20.828125 15.957031 20.714844 15.898438 20.636719 15.75 C 20.5 15.484375 20.449219 15.117188 20.472656 14.816406 L 20.429688 14.890625 C 20.535156 14.839844 20.640625 14.792969 20.746094 14.75 C 20.792969 14.730469 20.839844 14.710938 20.886719 14.695312 C 20.941406 14.675781 21 14.640625 21.015625 14.714844 C 21.039062 14.828125 21.203125 14.78125 21.183594 14.667969 C 21.121094 14.316406 20.679688 14.578125 20.492188 14.667969 C 20.4375 14.691406 20.339844 14.71875 20.308594 14.773438 C 20.289062 14.804688 20.296875 14.855469 20.292969 14.890625 C 20.296875 14.984375 20.300781 15.078125 20.3125 15.171875 C 20.347656 15.445312 20.453125 16.148438 20.878906 16.0625 C 21.117188 16.011719 21.226562 15.75 21.421875 15.625 C 21.453125 15.605469 21.464844 15.578125 21.453125 15.542969 C 21.347656 15.257812 21.21875 14.976562 21.15625 14.675781 C 21.140625 14.609375 21.035156 14.640625 21.046875 14.710938 Z M 21.046875 14.710938 " fill-opacity="1" fill-rule="nonzero"/><path fill="#ffce00" d="M 22.25 17.859375 C 22.042969 17.957031 21.71875 18.371094 21.515625 18.078125 C 21.398438 17.910156 21.425781 17.699219 21.21875 17.527344 C 21.199219 17.515625 21.183594 17.496094 21.179688 17.472656 C 21.171875 17.4375 21.207031 17.410156 21.238281 17.390625 C 21.515625 17.214844 21.808594 17.070312 22.117188 16.953125 L 22.378906 17.460938 C 22.421875 17.539062 22.460938 17.628906 22.429688 17.710938 C 22.402344 17.785156 22.320312 17.828125 22.25 17.859375 Z M 22.25 17.859375 " fill-opacity="1" fill-rule="nonzero"/><path fill="#ffce00" d="M 22.21875 17.808594 C 22.074219 17.878906 21.960938 18 21.816406 18.074219 C 21.753906 18.109375 21.675781 18.132812 21.613281 18.082031 C 21.539062 18.019531 21.515625 17.910156 21.488281 17.824219 C 21.460938 17.734375 21.421875 17.648438 21.367188 17.574219 C 21.351562 17.550781 21.257812 17.476562 21.257812 17.457031 C 21.257812 17.46875 21.394531 17.386719 21.40625 17.382812 C 21.640625 17.246094 21.886719 17.128906 22.140625 17.03125 L 22.042969 16.996094 C 22.117188 17.136719 22.1875 17.277344 22.257812 17.417969 C 22.289062 17.480469 22.34375 17.558594 22.347656 17.628906 C 22.351562 17.714844 22.269531 17.75 22.203125 17.78125 C 22.097656 17.832031 22.191406 17.984375 22.296875 17.9375 C 22.476562 17.855469 22.582031 17.710938 22.503906 17.511719 C 22.421875 17.304688 22.292969 17.105469 22.1875 16.910156 C 22.167969 16.875 22.136719 16.863281 22.09375 16.871094 C 21.789062 16.996094 21.472656 17.136719 21.199219 17.320312 C 21.109375 17.382812 21.0625 17.476562 21.144531 17.566406 C 21.199219 17.625 21.253906 17.667969 21.289062 17.738281 C 21.316406 17.796875 21.339844 17.855469 21.355469 17.914062 C 21.421875 18.097656 21.542969 18.296875 21.769531 18.238281 C 21.96875 18.183594 22.101562 18.003906 22.28125 17.914062 C 22.351562 17.875 22.289062 17.773438 22.21875 17.808594 Z M 22.21875 17.808594 " fill-opacity="1" fill-rule="nonzero"/><path fill="#ffce00" d="M 22.171875 20.496094 L 22.085938 19.71875 C 22.082031 19.695312 22.082031 19.675781 22.09375 19.65625 C 22.105469 19.632812 22.128906 19.621094 22.152344 19.613281 L 22.859375 19.332031 C 22.960938 19.59375 23.003906 19.867188 22.984375 20.144531 C 22.984375 20.175781 22.976562 20.203125 22.957031 20.226562 C 22.941406 20.238281 22.921875 20.25 22.902344 20.253906 L 22.324219 20.421875 " fill-opacity="1" fill-rule="nonzero"/><path fill="#ffce00" d="M 22.234375 20.496094 C 22.222656 20.367188 22.210938 20.238281 22.199219 20.105469 C 22.191406 20.042969 22.1875 19.976562 22.179688 19.914062 C 22.175781 19.863281 22.144531 19.761719 22.160156 19.71875 C 22.175781 19.660156 22.273438 19.648438 22.324219 19.628906 L 22.492188 19.5625 L 22.882812 19.414062 L 22.78125 19.355469 C 22.867188 19.585938 22.90625 19.824219 22.902344 20.070312 C 22.898438 20.125 22.910156 20.15625 22.855469 20.171875 L 22.683594 20.222656 C 22.554688 20.257812 22.429688 20.296875 22.300781 20.332031 C 22.1875 20.367188 22.234375 20.542969 22.347656 20.511719 C 22.503906 20.464844 22.65625 20.421875 22.808594 20.375 C 22.925781 20.339844 23.042969 20.324219 23.066406 20.1875 C 23.09375 20.050781 23.074219 19.894531 23.054688 19.761719 C 23.035156 19.605469 22.996094 19.457031 22.941406 19.3125 C 22.925781 19.273438 22.882812 19.238281 22.839844 19.253906 L 22.390625 19.433594 C 22.316406 19.464844 22.242188 19.496094 22.167969 19.523438 C 22.117188 19.546875 22.066406 19.5625 22.035156 19.609375 C 22 19.664062 22.011719 19.71875 22.019531 19.777344 L 22.050781 20.011719 L 22.109375 20.496094 C 22.121094 20.574219 22.242188 20.578125 22.234375 20.496094 Z M 22.234375 20.496094 " fill-opacity="1" fill-rule="nonzero"/><path fill="#232323" d="M 22.242188 9.789062 C 22.378906 9.957031 22.632812 9.996094 22.8125 9.871094 C 22.992188 9.746094 23.03125 9.492188 22.929688 9.304688 L 22.8125 9.394531 C 23.152344 9.664062 23.59375 9.585938 23.984375 9.484375 C 24.222656 9.417969 24.449219 9.367188 24.695312 9.359375 C 24.925781 9.355469 25.148438 9.351562 25.359375 9.261719 C 25.441406 9.226562 25.382812 9.085938 25.300781 9.121094 C 25.101562 9.203125 24.890625 9.199219 24.679688 9.203125 C 24.464844 9.210938 24.257812 9.246094 24.050781 9.304688 C 23.679688 9.402344 23.242188 9.535156 22.902344 9.277344 C 22.839844 9.230469 22.765625 9.320312 22.796875 9.382812 C 22.871094 9.503906 22.84375 9.675781 22.722656 9.761719 C 22.597656 9.851562 22.425781 9.8125 22.324219 9.707031 C 22.273438 9.648438 22.195312 9.730469 22.242188 9.789062 Z M 22.242188 9.789062 " fill-opacity="1" fill-rule="nonzero"/><path fill="#232323" d="M 22.683594 12.203125 C 22.542969 12.210938 22.464844 12.28125 22.449219 12.417969 C 22.433594 12.542969 22.519531 12.652344 22.632812 12.695312 C 22.761719 12.746094 22.898438 12.710938 23.003906 12.625 C 23.140625 12.511719 23.195312 12.339844 23.234375 12.175781 L 23.085938 12.195312 C 23.167969 12.316406 23.273438 12.347656 23.40625 12.296875 C 23.46875 12.273438 23.511719 12.238281 23.539062 12.179688 C 23.546875 12.171875 23.554688 12.132812 23.5625 12.125 C 23.578125 12.113281 23.613281 12.128906 23.632812 12.128906 C 23.675781 12.136719 23.722656 12.144531 23.769531 12.152344 C 24.144531 12.199219 24.558594 12.125 24.875 11.910156 C 24.914062 11.882812 24.921875 11.847656 24.898438 11.808594 C 24.871094 11.765625 24.839844 11.757812 24.796875 11.777344 C 24.5 11.929688 24.191406 12.019531 23.855469 12 C 23.738281 11.992188 23.550781 11.90625 23.453125 11.996094 C 23.410156 12.039062 23.414062 12.109375 23.363281 12.140625 C 23.320312 12.164062 23.257812 12.15625 23.226562 12.113281 C 23.191406 12.058594 23.097656 12.0625 23.078125 12.132812 C 23.042969 12.289062 22.988281 12.488281 22.824219 12.550781 C 22.753906 12.578125 22.667969 12.570312 22.617188 12.511719 C 22.5625 12.445312 22.59375 12.332031 22.683594 12.328125 C 22.761719 12.324219 22.761719 12.203125 22.683594 12.207031 Z M 22.683594 12.203125 " fill-opacity="1" fill-rule="nonzero"/><path fill="#232323" d="M 22.203125 14.707031 C 22.054688 14.757812 22.035156 14.960938 22.15625 15.050781 C 22.230469 15.109375 22.332031 15.109375 22.417969 15.074219 C 22.519531 15.035156 22.578125 14.949219 22.65625 14.878906 C 22.710938 14.828125 22.746094 14.824219 22.8125 14.851562 C 22.863281 14.875 22.914062 14.886719 22.96875 14.886719 C 23.109375 14.890625 23.242188 14.832031 23.375 14.796875 C 23.660156 14.722656 23.953125 14.703125 24.25 14.714844 C 24.351562 14.71875 24.347656 14.570312 24.25 14.558594 C 24.035156 14.539062 23.820312 14.550781 23.605469 14.582031 C 23.5 14.601562 23.398438 14.625 23.292969 14.652344 C 23.191406 14.683594 23.078125 14.734375 22.96875 14.730469 C 22.882812 14.730469 22.8125 14.671875 22.726562 14.679688 C 22.65625 14.683594 22.597656 14.722656 22.546875 14.773438 C 22.484375 14.832031 22.433594 14.921875 22.34375 14.949219 C 22.300781 14.960938 22.246094 14.964844 22.21875 14.925781 C 22.195312 14.898438 22.191406 14.835938 22.234375 14.820312 C 22.304688 14.792969 22.273438 14.683594 22.203125 14.707031 Z M 22.203125 14.707031 " fill-opacity="1" fill-rule="nonzero"/><path fill="#232323" d="M 23.078125 16.640625 C 22.953125 16.71875 22.964844 16.886719 23.0625 16.984375 C 23.210938 17.128906 23.433594 17.011719 23.570312 16.914062 C 23.671875 16.847656 23.75 16.796875 23.871094 16.785156 C 23.972656 16.769531 24.070312 16.742188 24.164062 16.699219 C 24.421875 16.585938 24.683594 16.476562 24.9375 16.355469 C 25.015625 16.320312 24.960938 16.183594 24.878906 16.214844 C 24.695312 16.289062 24.515625 16.363281 24.339844 16.441406 C 24.171875 16.511719 24.007812 16.601562 23.824219 16.625 C 23.667969 16.648438 23.566406 16.730469 23.441406 16.816406 C 23.375 16.859375 23.296875 16.90625 23.21875 16.898438 C 23.15625 16.894531 23.0625 16.796875 23.140625 16.746094 C 23.207031 16.703125 23.144531 16.597656 23.078125 16.640625 Z M 23.078125 16.640625 " fill-opacity="1" fill-rule="nonzero"/><path fill="#232323" d="M 23.734375 19.082031 C 23.5625 19.226562 23.699219 19.484375 23.902344 19.496094 C 24.019531 19.503906 24.128906 19.445312 24.199219 19.351562 C 24.234375 19.308594 24.261719 19.257812 24.28125 19.207031 C 24.300781 19.152344 24.308594 19.078125 24.34375 19.035156 C 24.410156 18.945312 24.59375 19.09375 24.6875 19.101562 C 24.820312 19.117188 24.941406 19.054688 25.054688 18.988281 C 25.320312 18.820312 25.585938 18.675781 25.886719 18.574219 C 25.980469 18.542969 25.945312 18.394531 25.847656 18.425781 C 25.617188 18.492188 25.402344 18.585938 25.195312 18.703125 C 25.09375 18.761719 25 18.832031 24.894531 18.886719 C 24.761719 18.957031 24.675781 18.9375 24.546875 18.878906 C 24.367188 18.800781 24.230469 18.863281 24.167969 19.046875 C 24.136719 19.144531 24.113281 19.25 24.019531 19.308594 C 23.972656 19.34375 23.898438 19.359375 23.847656 19.324219 C 23.777344 19.28125 23.769531 19.230469 23.828125 19.175781 C 23.894531 19.117188 23.800781 19.027344 23.738281 19.082031 Z M 23.734375 19.082031 " fill-opacity="1" fill-rule="nonzero"/><path fill="#232323" d="M 21.058594 9.925781 C 21.132812 9.976562 21.246094 10.085938 21.34375 10.074219 C 21.441406 10.066406 21.492188 9.945312 21.535156 9.875 C 21.660156 9.671875 21.765625 9.460938 21.851562 9.238281 C 21.890625 9.140625 21.734375 9.097656 21.695312 9.195312 C 21.632812 9.359375 21.558594 9.515625 21.472656 9.667969 C 21.453125 9.703125 21.433594 9.734375 21.417969 9.765625 C 21.398438 9.796875 21.371094 9.867188 21.339844 9.886719 L 21.316406 9.914062 C 21.296875 9.902344 21.277344 9.890625 21.253906 9.878906 L 21.128906 9.808594 C 21.050781 9.765625 20.984375 9.878906 21.058594 9.925781 Z M 21.058594 9.925781 " fill-opacity="1" fill-rule="nonzero"/><path fill="#232323" d="M 20.75 15.167969 C 20.816406 15.222656 20.886719 15.28125 20.953125 15.335938 C 20.992188 15.367188 21.03125 15.40625 21.085938 15.40625 C 21.214844 15.410156 21.25 15.261719 21.285156 15.167969 C 21.402344 14.851562 21.519531 14.539062 21.632812 14.222656 C 21.667969 14.121094 21.507812 14.082031 21.472656 14.179688 C 21.386719 14.40625 21.300781 14.632812 21.21875 14.863281 C 21.179688 14.972656 21.144531 15.085938 21.097656 15.195312 C 21.089844 15.222656 21.085938 15.242188 21.066406 15.242188 C 21.042969 15.242188 21.007812 15.203125 20.988281 15.191406 L 20.824219 15.070312 C 20.769531 15.03125 20.699219 15.121094 20.75 15.167969 Z M 20.75 15.167969 " fill-opacity="1" fill-rule="nonzero"/><path fill="#232323" d="M 10.976562 7.261719 C 11.042969 7.234375 11.105469 7.199219 11.175781 7.175781 C 11.242188 7.15625 11.3125 7.148438 11.382812 7.132812 C 11.457031 7.117188 11.4375 7 11.363281 7 C 11.207031 6.996094 11.019531 7.066406 10.90625 7.171875 C 10.855469 7.222656 10.921875 7.289062 10.976562 7.261719 Z M 10.976562 7.261719 " fill-opacity="1" fill-rule="nonzero"/><path fill="#ffffff" d="M 12.589844 7.816406 C 12.742188 8.027344 12.910156 8.21875 13.101562 8.394531 C 12.875 8.417969 12.648438 8.433594 12.421875 8.4375 C 12.398438 8.441406 12.378906 8.4375 12.359375 8.429688 C 12.324219 8.410156 12.320312 8.363281 12.316406 8.324219 C 12.3125 8.265625 12.320312 8.207031 12.339844 8.152344 C 12.359375 8.09375 12.398438 8.054688 12.457031 8.03125 C 12.378906 7.898438 12.402344 7.785156 12.523438 7.695312 " fill-opacity="1" fill-rule="nonzero"/><path fill="#232323" d="M 12.5625 7.832031 C 12.710938 8.046875 12.882812 8.242188 13.074219 8.421875 L 13.101562 8.359375 C 12.933594 8.375 12.769531 8.386719 12.601562 8.394531 C 12.53125 8.394531 12.386719 8.425781 12.359375 8.34375 C 12.332031 8.253906 12.378906 8.105469 12.464844 8.070312 C 12.496094 8.058594 12.503906 8.039062 12.492188 8.011719 C 12.425781 7.898438 12.445312 7.800781 12.550781 7.722656 C 12.585938 7.695312 12.539062 7.636719 12.507812 7.664062 C 12.363281 7.769531 12.335938 7.898438 12.421875 8.050781 L 12.445312 7.996094 C 12.359375 8.03125 12.308594 8.097656 12.289062 8.191406 C 12.273438 8.261719 12.257812 8.382812 12.316406 8.445312 C 12.378906 8.515625 12.539062 8.476562 12.621094 8.472656 C 12.78125 8.464844 12.941406 8.449219 13.101562 8.433594 C 13.128906 8.429688 13.152344 8.394531 13.125 8.371094 C 12.9375 8.195312 12.769531 8.003906 12.617188 7.800781 C 12.59375 7.765625 12.535156 7.796875 12.5625 7.832031 Z M 12.5625 7.832031 " fill-opacity="1" fill-rule="nonzero"/><path fill="#232323" d="M 12.910156 8.410156 C 12.910156 8.386719 12.910156 8.371094 12.90625 8.347656 C 12.90625 8.335938 12.90625 8.324219 12.90625 8.3125 C 12.90625 8.300781 12.902344 8.300781 12.910156 8.300781 C 12.921875 8.300781 12.949219 8.335938 12.957031 8.34375 C 12.976562 8.359375 12.996094 8.375 13.011719 8.394531 L 13.042969 8.316406 C 13 8.316406 12.957031 8.316406 12.914062 8.316406 L 12.960938 8.363281 C 12.960938 8.351562 12.960938 8.335938 12.964844 8.324219 C 12.972656 8.300781 12.960938 8.285156 12.9375 8.273438 C 12.914062 8.261719 12.898438 8.269531 12.882812 8.289062 C 12.871094 8.3125 12.863281 8.335938 12.867188 8.363281 C 12.867188 8.394531 12.882812 8.410156 12.914062 8.410156 C 12.957031 8.410156 13 8.410156 13.042969 8.40625 C 13.066406 8.40625 13.078125 8.394531 13.085938 8.375 C 13.089844 8.351562 13.085938 8.335938 13.066406 8.324219 C 13.015625 8.285156 12.949219 8.183594 12.871094 8.226562 C 12.808594 8.261719 12.828125 8.359375 12.851562 8.417969 C 12.863281 8.445312 12.910156 8.445312 12.910156 8.40625 Z M 12.910156 8.410156 " fill-opacity="1" fill-rule="nonzero"/><path fill="#232323" d="M 12.179688 8.34375 C 12.179688 8.15625 12.226562 7.984375 12.316406 7.824219 C 12.335938 7.785156 12.277344 7.753906 12.257812 7.789062 C 12.164062 7.964844 12.121094 8.148438 12.121094 8.34375 C 12.125 8.359375 12.132812 8.371094 12.152344 8.371094 C 12.167969 8.371094 12.179688 8.359375 12.179688 8.34375 Z M 12.179688 8.34375 " fill-opacity="1" fill-rule="nonzero"/><g clip-path="url(#d85b6d4184)"><path fill="#232323" d="M 12.058594 22.882812 C 11.894531 22.738281 11.785156 22.558594 11.734375 22.347656 C 11.714844 22.277344 11.652344 21.992188 11.792969 22.019531 C 11.882812 22.039062 11.9375 22.152344 12.011719 22.199219 C 12.054688 22.226562 12.089844 22.175781 12.074219 22.140625 C 11.996094 21.980469 12.082031 21.808594 12.195312 21.695312 C 12.253906 21.632812 12.320312 21.585938 12.398438 21.554688 C 12.453125 21.535156 12.511719 21.523438 12.5625 21.550781 C 12.613281 21.582031 12.640625 21.640625 12.609375 21.691406 L 12.691406 21.738281 C 12.773438 21.574219 12.960938 21.445312 13.144531 21.546875 C 13.363281 21.671875 13.230469 21.9375 13.132812 22.097656 C 13.109375 22.144531 13.121094 22.167969 13.175781 22.167969 C 13.300781 22.175781 13.476562 22.089844 13.578125 22.195312 C 13.65625 22.277344 13.660156 22.414062 13.574219 22.488281 C 13.558594 22.503906 13.554688 22.519531 13.5625 22.539062 C 13.570312 22.558594 13.585938 22.570312 13.605469 22.570312 C 13.761719 22.558594 13.949219 22.539062 14.085938 22.632812 C 14.199219 22.710938 14.265625 22.890625 14.152344 22.996094 C 14.109375 23.035156 14.171875 23.097656 14.214844 23.0625 C 14.34375 22.945312 14.316406 22.75 14.214844 22.628906 C 14.070312 22.453125 13.8125 22.460938 13.605469 22.476562 L 13.636719 22.554688 C 13.75 22.457031 13.753906 22.292969 13.679688 22.171875 C 13.558594 21.984375 13.351562 22.082031 13.175781 22.074219 L 13.214844 22.144531 C 13.339844 21.9375 13.460938 21.621094 13.191406 21.464844 C 12.964844 21.339844 12.710938 21.480469 12.609375 21.691406 C 12.585938 21.746094 12.660156 21.792969 12.691406 21.738281 C 12.742188 21.648438 12.710938 21.546875 12.628906 21.488281 C 12.515625 21.398438 12.363281 21.457031 12.257812 21.527344 C 12.050781 21.664062 11.867188 21.9375 11.996094 22.183594 L 12.058594 22.125 C 11.953125 22.0625 11.886719 21.914062 11.742188 21.9375 C 11.636719 21.960938 11.628906 22.078125 11.632812 22.167969 C 11.652344 22.472656 11.78125 22.730469 12.015625 22.929688 C 12.046875 22.957031 12.09375 22.914062 12.0625 22.886719 Z M 12.058594 22.882812 " fill-opacity="1" fill-rule="nonzero"/></g><path fill="#232323" d="M 14.464844 22.703125 C 14.464844 22.671875 14.527344 22.683594 14.546875 22.6875 C 14.574219 22.699219 14.597656 22.714844 14.617188 22.734375 C 14.660156 22.777344 14.675781 22.828125 14.667969 22.886719 C 14.660156 22.910156 14.667969 22.925781 14.691406 22.929688 C 14.71875 22.9375 14.730469 22.929688 14.738281 22.90625 C 14.773438 22.800781 14.714844 22.691406 14.621094 22.640625 C 14.574219 22.613281 14.527344 22.605469 14.476562 22.613281 C 14.433594 22.625 14.386719 22.664062 14.40625 22.710938 C 14.410156 22.726562 14.421875 22.734375 14.4375 22.730469 C 14.453125 22.730469 14.460938 22.71875 14.464844 22.703125 Z M 14.464844 22.703125 " fill-opacity="1" fill-rule="nonzero"/><path fill="#232323" d="M 13.980469 22.167969 C 13.964844 21.941406 13.964844 21.71875 13.984375 21.492188 C 14.003906 21.277344 14.03125 21.039062 14.113281 20.835938 C 14.121094 20.8125 14.132812 20.789062 14.148438 20.769531 L 14.175781 20.734375 L 14.25 20.746094 C 14.269531 20.769531 14.246094 20.886719 14.246094 20.917969 C 14.238281 21.039062 14.222656 21.152344 14.199219 21.269531 C 14.160156 21.476562 14.0625 21.675781 14.046875 21.890625 C 14.042969 21.941406 14.117188 21.945312 14.132812 21.902344 C 14.175781 21.777344 14.253906 21.523438 14.417969 21.503906 C 14.539062 21.488281 14.433594 21.640625 14.402344 21.6875 C 14.359375 21.757812 14.304688 21.820312 14.246094 21.875 C 14.207031 21.910156 14.265625 21.96875 14.304688 21.933594 C 14.378906 21.867188 14.722656 21.488281 14.511719 21.410156 C 14.421875 21.375 14.304688 21.457031 14.242188 21.515625 C 14.140625 21.613281 14.09375 21.75 14.050781 21.878906 L 14.132812 21.890625 C 14.144531 21.742188 14.199219 21.601562 14.234375 21.460938 C 14.273438 21.324219 14.296875 21.191406 14.3125 21.054688 C 14.320312 20.960938 14.378906 20.492188 14.152344 20.65625 C 14.082031 20.707031 14.046875 20.792969 14.023438 20.871094 C 13.984375 21.015625 13.953125 21.160156 13.933594 21.308594 C 13.894531 21.597656 13.890625 21.882812 13.914062 22.167969 C 13.917969 22.210938 13.988281 22.214844 13.984375 22.167969 Z M 13.980469 22.167969 " fill-opacity="1" fill-rule="nonzero"/><path fill="#232323" d="M 13.777344 21.714844 C 13.769531 21.664062 13.742188 21.628906 13.695312 21.613281 C 13.675781 21.609375 13.664062 21.613281 13.652344 21.628906 C 13.625 21.6875 13.632812 21.742188 13.675781 21.789062 C 13.699219 21.820312 13.757812 21.777344 13.730469 21.746094 C 13.710938 21.71875 13.707031 21.6875 13.71875 21.65625 L 13.675781 21.679688 C 13.699219 21.6875 13.71875 21.703125 13.726562 21.730469 C 13.734375 21.742188 13.742188 21.746094 13.757812 21.742188 C 13.769531 21.738281 13.777344 21.730469 13.777344 21.714844 Z M 13.777344 21.714844 " fill-opacity="1" fill-rule="nonzero"/><g transform="matrix(1, 0, 0, 1, 16, 23)"><g clip-path="url(#652d5fdc3d)"><g clip-path="url(#4a7615123f)"><g fill="#9383ab" fill-opacity="1"><g transform="translate(0.351917, 2.678171)"><g><path d="M 0.4375 0.015625 C 0.332031 0.015625 0.25 -0.0078125 0.1875 -0.0625 C 0.132812 -0.113281 0.109375 -0.191406 0.109375 -0.296875 C 0.109375 -0.359375 0.117188 -0.410156 0.140625 -0.453125 C 0.171875 -0.492188 0.210938 -0.523438 0.265625 -0.546875 C 0.316406 -0.578125 0.382812 -0.597656 0.46875 -0.609375 C 0.539062 -0.617188 0.597656 -0.628906 0.640625 -0.640625 C 0.679688 -0.660156 0.707031 -0.679688 0.71875 -0.703125 C 0.738281 -0.722656 0.75 -0.75 0.75 -0.78125 C 0.75 -0.832031 0.726562 -0.867188 0.6875 -0.890625 C 0.65625 -0.910156 0.601562 -0.921875 0.53125 -0.921875 C 0.46875 -0.921875 0.410156 -0.90625 0.359375 -0.875 C 0.316406 -0.851562 0.273438 -0.816406 0.234375 -0.765625 L 0.21875 -0.765625 L 0.140625 -0.875 C 0.179688 -0.9375 0.234375 -0.984375 0.296875 -1.015625 C 0.367188 -1.046875 0.445312 -1.0625 0.53125 -1.0625 C 0.65625 -1.0625 0.742188 -1.035156 0.796875 -0.984375 C 0.859375 -0.929688 0.890625 -0.859375 0.890625 -0.765625 L 0.890625 -0.203125 C 0.890625 -0.148438 0.914062 -0.125 0.96875 -0.125 C 0.988281 -0.125 1.003906 -0.125 1.015625 -0.125 L 1.03125 -0.125 L 1.046875 -0.015625 C 1.035156 -0.00390625 1.019531 0 1 0 C 0.976562 0 0.960938 0 0.953125 0 C 0.890625 0 0.84375 -0.0078125 0.8125 -0.03125 C 0.78125 -0.0507812 0.765625 -0.0859375 0.765625 -0.140625 L 0.734375 -0.140625 C 0.710938 -0.0859375 0.675781 -0.046875 0.625 -0.015625 C 0.570312 0.00390625 0.507812 0.015625 0.4375 0.015625 Z M 0.46875 -0.109375 C 0.519531 -0.109375 0.566406 -0.117188 0.609375 -0.140625 C 0.648438 -0.171875 0.679688 -0.207031 0.703125 -0.25 C 0.734375 -0.300781 0.75 -0.359375 0.75 -0.421875 L 0.75 -0.5625 L 0.734375 -0.5625 C 0.703125 -0.539062 0.671875 -0.523438 0.640625 -0.515625 C 0.609375 -0.503906 0.5625 -0.492188 0.5 -0.484375 C 0.4375 -0.484375 0.390625 -0.472656 0.359375 -0.453125 C 0.328125 -0.429688 0.300781 -0.40625 0.28125 -0.375 C 0.269531 -0.351562 0.265625 -0.328125 0.265625 -0.296875 C 0.265625 -0.234375 0.28125 -0.1875 0.3125 -0.15625 C 0.351562 -0.125 0.40625 -0.109375 0.46875 -0.109375 Z M 0.46875 -0.109375 "/></g></g><g transform="translate(1.430232, 2.678171)"><g><path d="M 0.6875 0.015625 C 0.613281 0.015625 0.546875 0.00390625 0.484375 -0.015625 C 0.429688 -0.046875 0.390625 -0.0859375 0.359375 -0.140625 L 0.328125 -0.140625 L 0.328125 0 L 0.1875 0 L 0.1875 -1.46875 L 0.328125 -1.46875 L 0.328125 -0.890625 L 0.359375 -0.890625 C 0.429688 -1.003906 0.546875 -1.0625 0.703125 -1.0625 C 0.785156 -1.0625 0.859375 -1.039062 0.921875 -1 C 0.992188 -0.957031 1.046875 -0.894531 1.078125 -0.8125 C 1.109375 -0.738281 1.125 -0.640625 1.125 -0.515625 C 1.125 -0.398438 1.101562 -0.300781 1.0625 -0.21875 C 1.03125 -0.132812 0.984375 -0.0703125 0.921875 -0.03125 C 0.859375 0 0.78125 0.015625 0.6875 0.015625 Z M 0.65625 -0.125 C 0.863281 -0.125 0.96875 -0.253906 0.96875 -0.515625 C 0.96875 -0.660156 0.941406 -0.765625 0.890625 -0.828125 C 0.835938 -0.890625 0.757812 -0.921875 0.65625 -0.921875 C 0.5625 -0.921875 0.484375 -0.882812 0.421875 -0.8125 C 0.359375 -0.75 0.328125 -0.648438 0.328125 -0.515625 C 0.328125 -0.378906 0.359375 -0.28125 0.421875 -0.21875 C 0.484375 -0.15625 0.5625 -0.125 0.65625 -0.125 Z M 0.65625 -0.125 "/></g></g><g transform="translate(2.673934, 2.678171)"><g><path d="M 0.1875 0 L 0.1875 -1.046875 L 0.328125 -1.046875 L 0.328125 -0.875 L 0.34375 -0.875 C 0.394531 -0.988281 0.488281 -1.046875 0.625 -1.046875 C 0.695312 -1.046875 0.75 -1.035156 0.78125 -1.015625 L 0.75 -0.890625 L 0.71875 -0.875 C 0.6875 -0.894531 0.644531 -0.90625 0.59375 -0.90625 C 0.507812 -0.90625 0.441406 -0.875 0.390625 -0.8125 C 0.347656 -0.75 0.328125 -0.648438 0.328125 -0.515625 L 0.328125 0 Z M 0.1875 0 "/></g></g></g></g><g fill="#9383ab" fill-opacity="1"><g transform="translate(3.451719, 2.678171)"><g><path d="M 0.59375 0.015625 C 0.5 0.015625 0.414062 -0.00390625 0.34375 -0.046875 C 0.269531 -0.0859375 0.210938 -0.144531 0.171875 -0.21875 C 0.128906 -0.300781 0.109375 -0.398438 0.109375 -0.515625 C 0.109375 -0.628906 0.128906 -0.726562 0.171875 -0.8125 C 0.210938 -0.894531 0.269531 -0.957031 0.34375 -1 C 0.414062 -1.039062 0.5 -1.0625 0.59375 -1.0625 C 0.695312 -1.0625 0.785156 -1.039062 0.859375 -1 C 0.929688 -0.957031 0.984375 -0.894531 1.015625 -0.8125 C 1.054688 -0.726562 1.078125 -0.628906 1.078125 -0.515625 C 1.078125 -0.398438 1.054688 -0.300781 1.015625 -0.21875 C 0.984375 -0.144531 0.929688 -0.0859375 0.859375 -0.046875 C 0.785156 -0.00390625 0.695312 0.015625 0.59375 0.015625 Z M 0.59375 -0.125 C 0.695312 -0.125 0.773438 -0.15625 0.828125 -0.21875 C 0.890625 -0.28125 0.921875 -0.378906 0.921875 -0.515625 C 0.921875 -0.660156 0.890625 -0.765625 0.828125 -0.828125 C 0.773438 -0.890625 0.695312 -0.921875 0.59375 -0.921875 C 0.488281 -0.921875 0.410156 -0.890625 0.359375 -0.828125 C 0.304688 -0.765625 0.28125 -0.660156 0.28125 -0.515625 C 0.28125 -0.378906 0.304688 -0.28125 0.359375 -0.21875 C 0.410156 -0.15625 0.488281 -0.125 0.59375 -0.125 Z M 0.59375 -0.125 "/></g></g><g transform="translate(4.648167, 2.678171)"><g><path d="M 0.4375 0.015625 C 0.332031 0.015625 0.25 -0.0078125 0.1875 -0.0625 C 0.132812 -0.113281 0.109375 -0.191406 0.109375 -0.296875 C 0.109375 -0.359375 0.117188 -0.410156 0.140625 -0.453125 C 0.171875 -0.492188 0.210938 -0.523438 0.265625 -0.546875 C 0.316406 -0.578125 0.382812 -0.597656 0.46875 -0.609375 C 0.539062 -0.617188 0.597656 -0.628906 0.640625 -0.640625 C 0.679688 -0.660156 0.707031 -0.679688 0.71875 -0.703125 C 0.738281 -0.722656 0.75 -0.75 0.75 -0.78125 C 0.75 -0.832031 0.726562 -0.867188 0.6875 -0.890625 C 0.65625 -0.910156 0.601562 -0.921875 0.53125 -0.921875 C 0.46875 -0.921875 0.410156 -0.90625 0.359375 -0.875 C 0.316406 -0.851562 0.273438 -0.816406 0.234375 -0.765625 L 0.21875 -0.765625 L 0.140625 -0.875 C 0.179688 -0.9375 0.234375 -0.984375 0.296875 -1.015625 C 0.367188 -1.046875 0.445312 -1.0625 0.53125 -1.0625 C 0.65625 -1.0625 0.742188 -1.035156 0.796875 -0.984375 C 0.859375 -0.929688 0.890625 -0.859375 0.890625 -0.765625 L 0.890625 -0.203125 C 0.890625 -0.148438 0.914062 -0.125 0.96875 -0.125 C 0.988281 -0.125 1.003906 -0.125 1.015625 -0.125 L 1.03125 -0.125 L 1.046875 -0.015625 C 1.035156 -0.00390625 1.019531 0 1 0 C 0.976562 0 0.960938 0 0.953125 0 C 0.890625 0 0.84375 -0.0078125 0.8125 -0.03125 C 0.78125 -0.0507812 0.765625 -0.0859375 0.765625 -0.140625 L 0.734375 -0.140625 C 0.710938 -0.0859375 0.675781 -0.046875 0.625 -0.015625 C 0.570312 0.00390625 0.507812 0.015625 0.4375 0.015625 Z M 0.46875 -0.109375 C 0.519531 -0.109375 0.566406 -0.117188 0.609375 -0.140625 C 0.648438 -0.171875 0.679688 -0.207031 0.703125 -0.25 C 0.734375 -0.300781 0.75 -0.359375 0.75 -0.421875 L 0.75 -0.5625 L 0.734375 -0.5625 C 0.703125 -0.539062 0.671875 -0.523438 0.640625 -0.515625 C 0.609375 -0.503906 0.5625 -0.492188 0.5 -0.484375 C 0.4375 -0.484375 0.390625 -0.472656 0.359375 -0.453125 C 0.328125 -0.429688 0.300781 -0.40625 0.28125 -0.375 C 0.269531 -0.351562 0.265625 -0.328125 0.265625 -0.296875 C 0.265625 -0.234375 0.28125 -0.1875 0.3125 -0.15625 C 0.351562 -0.125 0.40625 -0.109375 0.46875 -0.109375 Z M 0.46875 -0.109375 "/></g></g><g transform="translate(5.726483, 2.678171)"><g><path d="M 0.546875 0.015625 C 0.460938 0.015625 0.382812 0 0.3125 -0.03125 C 0.25 -0.0703125 0.195312 -0.132812 0.15625 -0.21875 C 0.125 -0.300781 0.109375 -0.398438 0.109375 -0.515625 C 0.109375 -0.640625 0.128906 -0.738281 0.171875 -0.8125 C 0.210938 -0.894531 0.265625 -0.957031 0.328125 -1 C 0.390625 -1.039062 0.46875 -1.0625 0.5625 -1.0625 C 0.625 -1.0625 0.679688 -1.046875 0.734375 -1.015625 C 0.796875 -0.992188 0.847656 -0.953125 0.890625 -0.890625 L 0.90625 -0.90625 L 0.90625 -1.46875 L 1.0625 -1.46875 L 1.0625 0 L 0.90625 0 L 0.90625 -0.15625 L 0.890625 -0.15625 C 0.859375 -0.101562 0.8125 -0.0625 0.75 -0.03125 C 0.6875 0 0.617188 0.015625 0.546875 0.015625 Z M 0.59375 -0.125 C 0.6875 -0.125 0.757812 -0.15625 0.8125 -0.21875 C 0.875 -0.28125 0.90625 -0.378906 0.90625 -0.515625 C 0.90625 -0.648438 0.875 -0.75 0.8125 -0.8125 C 0.757812 -0.882812 0.6875 -0.921875 0.59375 -0.921875 C 0.488281 -0.921875 0.410156 -0.890625 0.359375 -0.828125 C 0.304688 -0.765625 0.28125 -0.660156 0.28125 -0.515625 C 0.28125 -0.253906 0.382812 -0.125 0.59375 -0.125 Z M 0.59375 -0.125 "/></g></g></g></g></g></svg>