<svg xmlns="http://www.w3.org/2000/svg" xmlns:xlink="http://www.w3.org/1999/xlink" width="1080" zoomAndPan="magnify" viewBox="0 0 810 809.999993" height="1080" preserveAspectRatio="xMidYMid meet" version="1.0"><defs><g/><clipPath id="97a2941f32"><path d="M 262 12.101562 L 546 12.101562 L 546 296 L 262 296 Z M 262 12.101562 " clip-rule="nonzero"/></clipPath><clipPath id="41c193ebaa"><path d="M 34 276 L 773 276 L 773 795.101562 L 34 795.101562 Z M 34 276 " clip-rule="nonzero"/></clipPath></defs><g clip-path="url(#97a2941f32)"><path fill="#fd661f" d="M 545.285156 153.609375 C 545.285156 155.921875 545.226562 158.238281 545.113281 160.550781 C 545 162.863281 544.828125 165.171875 544.601562 167.476562 C 544.375 169.78125 544.09375 172.082031 543.753906 174.371094 C 543.414062 176.660156 543.015625 178.941406 542.566406 181.214844 C 542.113281 183.484375 541.605469 185.746094 541.042969 187.992188 C 540.480469 190.238281 539.863281 192.46875 539.191406 194.683594 C 538.519531 196.902344 537.792969 199.097656 537.011719 201.28125 C 536.230469 203.460938 535.398438 205.621094 534.511719 207.761719 C 533.625 209.898438 532.6875 212.015625 531.699219 214.109375 C 530.707031 216.203125 529.667969 218.269531 528.574219 220.3125 C 527.484375 222.355469 526.34375 224.371094 525.152344 226.355469 C 523.960938 228.34375 522.722656 230.300781 521.4375 232.226562 C 520.148438 234.148438 518.816406 236.042969 517.4375 237.902344 C 516.058594 239.761719 514.632812 241.589844 513.164062 243.378906 C 511.695312 245.167969 510.183594 246.921875 508.628906 248.636719 C 507.070312 250.355469 505.476562 252.03125 503.839844 253.667969 C 502.199219 255.304688 500.523438 256.902344 498.808594 258.457031 C 497.089844 260.011719 495.339844 261.523438 493.546875 262.992188 C 491.757812 264.464844 489.933594 265.886719 488.074219 267.265625 C 486.210938 268.648438 484.320312 269.980469 482.394531 271.265625 C 480.46875 272.554688 478.511719 273.792969 476.527344 274.980469 C 474.539062 276.171875 472.527344 277.3125 470.484375 278.40625 C 468.441406 279.496094 466.371094 280.539062 464.28125 281.527344 C 462.1875 282.519531 460.070312 283.457031 457.929688 284.34375 C 455.789062 285.230469 453.628906 286.0625 451.449219 286.84375 C 449.269531 287.621094 447.070312 288.347656 444.855469 289.019531 C 442.636719 289.695312 440.40625 290.3125 438.160156 290.875 C 435.914062 291.4375 433.65625 291.945312 431.382812 292.394531 C 429.113281 292.847656 426.832031 293.242188 424.539062 293.582031 C 422.25 293.921875 419.953125 294.207031 417.648438 294.433594 C 415.34375 294.660156 413.035156 294.832031 410.722656 294.945312 C 408.40625 295.058594 406.09375 295.113281 403.777344 295.113281 C 401.460938 295.113281 399.148438 295.058594 396.832031 294.945312 C 394.519531 294.832031 392.210938 294.660156 389.90625 294.433594 C 387.601562 294.207031 385.304688 293.921875 383.015625 293.582031 C 380.722656 293.242188 378.441406 292.847656 376.171875 292.394531 C 373.898438 291.945312 371.640625 291.4375 369.394531 290.875 C 367.148438 290.3125 364.917969 289.695312 362.699219 289.019531 C 360.484375 288.347656 358.285156 287.621094 356.105469 286.84375 C 353.925781 286.0625 351.765625 285.230469 349.625 284.34375 C 347.484375 283.457031 345.367188 282.519531 343.273438 281.527344 C 341.183594 280.539062 339.113281 279.496094 337.070312 278.40625 C 335.027344 277.3125 333.015625 276.171875 331.027344 274.980469 C 329.042969 273.792969 327.085938 272.554688 325.160156 271.265625 C 323.234375 269.980469 321.34375 268.648438 319.480469 267.265625 C 317.621094 265.886719 315.796875 264.464844 314.007812 262.992188 C 312.214844 261.523438 310.464844 260.011719 308.746094 258.457031 C 307.03125 256.902344 305.355469 255.304688 303.714844 253.667969 C 302.078125 252.03125 300.484375 250.355469 298.925781 248.636719 C 297.371094 246.921875 295.859375 245.167969 294.390625 243.378906 C 292.921875 241.589844 291.496094 239.761719 290.117188 237.902344 C 288.738281 236.042969 287.40625 234.148438 286.117188 232.222656 C 284.832031 230.300781 283.59375 228.34375 282.402344 226.355469 C 281.210938 224.371094 280.070312 222.355469 278.980469 220.3125 C 277.886719 218.269531 276.847656 216.203125 275.855469 214.109375 C 274.867188 212.015625 273.929688 209.898438 273.042969 207.761719 C 272.15625 205.621094 271.324219 203.460938 270.542969 201.28125 C 269.761719 199.097656 269.035156 196.902344 268.363281 194.683594 C 267.691406 192.46875 267.074219 190.238281 266.511719 187.992188 C 265.949219 185.746094 265.441406 183.484375 264.988281 181.214844 C 264.539062 178.941406 264.140625 176.660156 263.800781 174.371094 C 263.460938 172.082031 263.179688 169.78125 262.953125 167.476562 C 262.726562 165.171875 262.554688 162.863281 262.441406 160.550781 C 262.328125 158.238281 262.269531 155.921875 262.269531 153.609375 C 262.269531 151.292969 262.328125 148.976562 262.441406 146.664062 C 262.554688 144.351562 262.726562 142.042969 262.953125 139.738281 C 263.179688 137.433594 263.460938 135.136719 263.800781 132.84375 C 264.140625 130.554688 264.539062 128.273438 264.988281 126 C 265.441406 123.730469 265.949219 121.46875 266.511719 119.222656 C 267.074219 116.976562 267.691406 114.746094 268.363281 112.53125 C 269.035156 110.3125 269.761719 108.117188 270.542969 105.933594 C 271.324219 103.753906 272.15625 101.59375 273.042969 99.457031 C 273.929688 97.316406 274.867188 95.199219 275.855469 93.105469 C 276.847656 91.011719 277.886719 88.945312 278.980469 86.902344 C 280.070312 84.859375 281.210938 82.84375 282.402344 80.859375 C 283.59375 78.871094 284.832031 76.914062 286.117188 74.992188 C 287.40625 73.066406 288.738281 71.171875 290.117188 69.3125 C 291.496094 67.453125 292.921875 65.625 294.390625 63.835938 C 295.859375 62.046875 297.371094 60.292969 298.925781 58.578125 C 300.484375 56.859375 302.078125 55.183594 303.714844 53.546875 C 305.355469 51.910156 307.03125 50.3125 308.746094 48.757812 C 310.464844 47.203125 312.214844 45.691406 314.007812 44.222656 C 315.796875 42.75 317.621094 41.328125 319.480469 39.949219 C 321.34375 38.570312 323.234375 37.234375 325.160156 35.949219 C 327.085938 34.660156 329.042969 33.421875 331.027344 32.234375 C 333.015625 31.042969 335.027344 29.902344 337.070312 28.808594 C 339.113281 27.71875 341.183594 26.675781 343.273438 25.6875 C 345.367188 24.695312 347.484375 23.757812 349.625 22.871094 C 351.765625 21.984375 353.925781 21.152344 356.105469 20.371094 C 358.285156 19.59375 360.484375 18.867188 362.699219 18.195312 C 364.917969 17.519531 367.148438 16.902344 369.394531 16.339844 C 371.640625 15.777344 373.898438 15.269531 376.171875 14.820312 C 378.441406 14.367188 380.722656 13.972656 383.015625 13.632812 C 385.304688 13.292969 387.601562 13.007812 389.90625 12.78125 C 392.210938 12.554688 394.519531 12.382812 396.832031 12.269531 C 399.148438 12.15625 401.460938 12.101562 403.777344 12.101562 C 406.09375 12.101562 408.40625 12.15625 410.722656 12.269531 C 413.035156 12.382812 415.34375 12.554688 417.648438 12.78125 C 419.953125 13.007812 422.25 13.292969 424.539062 13.632812 C 426.832031 13.972656 429.113281 14.367188 431.382812 14.820312 C 433.65625 15.269531 435.914062 15.777344 438.160156 16.339844 C 440.40625 16.902344 442.636719 17.519531 444.855469 18.195312 C 447.070312 18.867188 449.269531 19.59375 451.449219 20.371094 C 453.628906 21.152344 455.789062 21.984375 457.929688 22.871094 C 460.070312 23.757812 462.1875 24.695312 464.28125 25.6875 C 466.371094 26.675781 468.441406 27.71875 470.484375 28.808594 C 472.527344 29.902344 474.539062 31.042969 476.527344 32.234375 C 478.511719 33.421875 480.46875 34.660156 482.394531 35.949219 C 484.320312 37.234375 486.210938 38.570312 488.074219 39.949219 C 489.933594 41.328125 491.757812 42.75 493.546875 44.222656 C 495.339844 45.691406 497.089844 47.203125 498.808594 48.757812 C 500.523438 50.3125 502.199219 51.910156 503.839844 53.546875 C 505.476562 55.183594 507.070312 56.859375 508.628906 58.578125 C 510.183594 60.292969 511.695312 62.046875 513.164062 63.835938 C 514.632812 65.625 516.058594 67.453125 517.4375 69.3125 C 518.816406 71.171875 520.148438 73.066406 521.4375 74.992188 C 522.722656 76.914062 523.960938 78.871094 525.152344 80.859375 C 526.34375 82.84375 527.484375 84.859375 528.574219 86.902344 C 529.667969 88.945312 530.707031 91.011719 531.699219 93.105469 C 532.6875 95.199219 533.625 97.316406 534.511719 99.457031 C 535.398438 101.59375 536.230469 103.753906 537.011719 105.933594 C 537.792969 108.117188 538.519531 110.3125 539.191406 112.53125 C 539.863281 114.746094 540.480469 116.976562 541.042969 119.222656 C 541.605469 121.46875 542.113281 123.730469 542.566406 126 C 543.015625 128.273438 543.414062 130.554688 543.753906 132.84375 C 544.09375 135.136719 544.375 137.433594 544.601562 139.738281 C 544.828125 142.042969 545 144.351562 545.113281 146.664062 C 545.226562 148.976562 545.285156 151.292969 545.285156 153.609375 Z M 545.285156 153.609375 " fill-opacity="1" fill-rule="nonzero"/></g><g clip-path="url(#41c193ebaa)"><path fill="#fd661f" d="M 742.164062 670.617188 L 742.164062 567.558594 C 760.292969 559.804688 772.925781 542.609375 772.925781 522.589844 L 772.925781 486.007812 C 772.925781 465.988281 760.292969 448.792969 742.164062 441.039062 L 742.164062 350.488281 C 742.164062 339.675781 735.511719 332.816406 726.339844 332.816406 C 724.03125 332.816406 721.558594 333.253906 718.992188 334.171875 L 641.585938 361.886719 C 609.496094 321.742188 566.625 291.511719 515.949219 276.003906 C 486.375 303.136719 446.980469 319.722656 403.777344 319.722656 C 360.59375 319.722656 321.21875 303.152344 291.644531 276.042969 C 238.816406 292.203125 194.429688 324.308594 161.9375 367.015625 L 88.71875 342.414062 C 86.269531 341.589844 83.910156 341.199219 81.683594 341.199219 C 72.265625 341.199219 65.390625 348.234375 65.390625 359.1875 L 65.390625 441.039062 C 47.265625 448.792969 34.628906 465.988281 34.628906 486.007812 L 34.628906 522.589844 C 34.628906 542.609375 47.265625 559.804688 65.390625 567.558594 L 65.390625 666.265625 C 65.390625 679.800781 75.929688 694.277344 88.808594 698.4375 L 378.570312 792.054688 C 385.207031 794.199219 394.03125 795.277344 402.800781 795.277344 C 411.046875 795.277344 419.242188 794.320312 425.515625 792.398438 L 718.636719 702.445312 C 731.578125 698.472656 742.164062 684.152344 742.164062 670.617188 Z M 391.472656 769.800781 C 389.28125 769.449219 387.402344 769.046875 386.132812 768.636719 L 96.371094 675.019531 C 93.632812 674.136719 90 669.140625 90 666.265625 L 90 571.828125 C 117.445312 570.316406 139.21875 548.886719 139.21875 522.589844 L 139.21875 486.007812 C 139.21875 459.710938 117.445312 438.28125 90 436.769531 L 90 368.808594 L 370.820312 463.160156 C 377.789062 465.503906 385.074219 466.640625 391.472656 467.160156 Z M 717.554688 436.769531 C 690.113281 438.28125 668.335938 459.710938 668.335938 486.007812 L 668.335938 522.589844 C 668.335938 548.886719 690.113281 570.316406 717.554688 571.828125 L 717.554688 670.617188 C 717.554688 673.316406 713.996094 678.128906 711.417969 678.917969 L 418.300781 768.871094 C 417.648438 769.074219 416.859375 769.238281 416.082031 769.40625 L 416.082031 466.511719 C 422.40625 465.671875 428.355469 464.371094 433.453125 462.546875 L 717.554688 360.828125 Z M 717.554688 436.769531 " fill-opacity="1" fill-rule="nonzero"/></g><g fill="#fd661f" fill-opacity="1"><g transform="translate(350.391697, 398.299248)"><g><path d="M 3.609375 0 L 3.609375 -14.203125 L 0.796875 -14.203125 L 0.796875 -16.171875 L 3.609375 -16.171875 C 3.429688 -16.878906 3.34375 -17.546875 3.34375 -18.171875 C 3.34375 -19.222656 3.5625 -20.109375 4 -20.828125 C 4.445312 -21.546875 5.066406 -22.078125 5.859375 -22.421875 C 6.648438 -22.773438 7.5625 -22.953125 8.59375 -22.953125 C 10.207031 -22.953125 11.445312 -22.609375 12.3125 -21.921875 L 11.375 -20.234375 L 11.078125 -20.171875 C 10.441406 -20.679688 9.613281 -20.9375 8.59375 -20.9375 C 7.644531 -20.9375 6.929688 -20.691406 6.453125 -20.203125 C 5.972656 -19.710938 5.734375 -19.019531 5.734375 -18.125 C 5.734375 -17.5625 5.816406 -16.910156 5.984375 -16.171875 L 11.140625 -16.171875 L 11.140625 -14.203125 L 5.984375 -14.203125 L 5.984375 0 Z M 3.609375 0 "/></g></g><g transform="translate(361.905368, 398.299248)"><g><path d="M 6.4375 0.3125 C 5.289062 0.3125 4.390625 -0.0078125 3.734375 -0.65625 C 3.078125 -1.3125 2.75 -2.285156 2.75 -3.578125 L 2.75 -22.640625 L 5.140625 -22.640625 L 5.140625 -3.734375 C 5.140625 -3.054688 5.269531 -2.566406 5.53125 -2.265625 C 5.789062 -1.972656 6.191406 -1.828125 6.734375 -1.828125 C 7.066406 -1.828125 7.40625 -1.882812 7.75 -2 L 7.953125 -1.9375 L 8.234375 -0.0625 C 8.054688 0.0625 7.800781 0.15625 7.46875 0.21875 C 7.144531 0.28125 6.800781 0.3125 6.4375 0.3125 Z M 6.4375 0.3125 "/></g></g><g transform="translate(370.69443, 398.299248)"><g><path d="M 3.234375 6.859375 C 2.691406 6.859375 2.179688 6.8125 1.703125 6.71875 C 1.234375 6.625 0.828125 6.492188 0.484375 6.328125 L 0.921875 4.4375 L 1.1875 4.34375 C 1.414062 4.46875 1.707031 4.570312 2.0625 4.65625 C 2.414062 4.738281 2.78125 4.78125 3.15625 4.78125 C 3.800781 4.78125 4.335938 4.691406 4.765625 4.515625 C 5.203125 4.335938 5.570312 4.046875 5.875 3.640625 C 6.1875 3.234375 6.472656 2.675781 6.734375 1.96875 L 7.3125 0.375 L 0.828125 -16.15625 L 3.40625 -16.15625 L 8.484375 -2.96875 L 8.765625 -2.96875 L 13.6875 -16.15625 L 16.125 -16.15625 L 8.90625 2.53125 C 8.5 3.570312 8.039062 4.40625 7.53125 5.03125 C 7.019531 5.664062 6.414062 6.128906 5.71875 6.421875 C 5.03125 6.710938 4.203125 6.859375 3.234375 6.859375 Z M 3.234375 6.859375 "/></g></g></g><g fill="#fd661f" fill-opacity="1"><g transform="translate(387.422945, 398.299248)"><g><path d="M 6.671875 0.3125 C 5.078125 0.3125 3.832031 -0.101562 2.9375 -0.9375 C 2.039062 -1.769531 1.59375 -2.957031 1.59375 -4.5 C 1.59375 -5.457031 1.789062 -6.265625 2.1875 -6.921875 C 2.582031 -7.578125 3.195312 -8.113281 4.03125 -8.53125 C 4.863281 -8.945312 5.945312 -9.269531 7.28125 -9.5 C 8.445312 -9.6875 9.335938 -9.898438 9.953125 -10.140625 C 10.566406 -10.390625 10.976562 -10.664062 11.1875 -10.96875 C 11.394531 -11.269531 11.5 -11.648438 11.5 -12.109375 C 11.5 -12.847656 11.242188 -13.410156 10.734375 -13.796875 C 10.234375 -14.191406 9.429688 -14.390625 8.328125 -14.390625 C 7.273438 -14.390625 6.375 -14.1875 5.625 -13.78125 C 4.882812 -13.375 4.203125 -12.769531 3.578125 -11.96875 L 3.28125 -11.96875 L 2.109375 -13.625 C 2.796875 -14.488281 3.664062 -15.175781 4.71875 -15.6875 C 5.769531 -16.207031 6.972656 -16.46875 8.328125 -16.46875 C 10.222656 -16.46875 11.625 -16.046875 12.53125 -15.203125 C 13.4375 -14.367188 13.890625 -13.21875 13.890625 -11.75 L 13.890625 -3.171875 C 13.890625 -2.273438 14.269531 -1.828125 15.03125 -1.828125 C 15.28125 -1.828125 15.523438 -1.875 15.765625 -1.96875 L 15.96875 -1.90625 L 16.25 -0.25 C 16.070312 -0.132812 15.835938 -0.046875 15.546875 0.015625 C 15.265625 0.0859375 14.96875 0.125 14.65625 0.125 C 13.769531 0.125 13.097656 -0.0703125 12.640625 -0.46875 C 12.191406 -0.863281 11.90625 -1.441406 11.78125 -2.203125 L 11.46875 -2.234375 C 11.007812 -1.378906 10.390625 -0.738281 9.609375 -0.3125 C 8.828125 0.101562 7.847656 0.3125 6.671875 0.3125 Z M 7.1875 -1.59375 C 8.09375 -1.59375 8.875 -1.800781 9.53125 -2.21875 C 10.1875 -2.632812 10.691406 -3.21875 11.046875 -3.96875 C 11.398438 -4.71875 11.578125 -5.585938 11.578125 -6.578125 L 11.578125 -8.625 L 11.296875 -8.6875 C 10.929688 -8.4375 10.488281 -8.222656 9.96875 -8.046875 C 9.457031 -7.878906 8.738281 -7.726562 7.8125 -7.59375 C 6.875 -7.457031 6.128906 -7.257812 5.578125 -7 C 5.023438 -6.738281 4.628906 -6.40625 4.390625 -6 C 4.160156 -5.59375 4.046875 -5.09375 4.046875 -4.5 C 4.046875 -3.550781 4.320312 -2.828125 4.875 -2.328125 C 5.4375 -1.835938 6.207031 -1.59375 7.1875 -1.59375 Z M 7.1875 -1.59375 "/></g></g><g transform="translate(404.136811, 398.299248)"><g><path d="M 10.734375 0.3125 C 9.535156 0.3125 8.492188 0.0820312 7.609375 -0.375 C 6.722656 -0.84375 6.023438 -1.460938 5.515625 -2.234375 L 5.203125 -2.171875 L 5.203125 0 L 2.8125 0 L 2.8125 -22.640625 L 5.203125 -22.640625 L 5.203125 -13.734375 L 5.515625 -13.6875 C 6.742188 -15.539062 8.53125 -16.46875 10.875 -16.46875 C 12.195312 -16.46875 13.351562 -16.160156 14.34375 -15.546875 C 15.34375 -14.929688 16.117188 -13.992188 16.671875 -12.734375 C 17.222656 -11.484375 17.5 -9.929688 17.5 -8.078125 C 17.5 -6.234375 17.207031 -4.679688 16.625 -3.421875 C 16.050781 -2.171875 15.253906 -1.234375 14.234375 -0.609375 C 13.222656 0.00390625 12.054688 0.3125 10.734375 0.3125 Z M 10.171875 -1.828125 C 13.390625 -1.828125 15 -3.910156 15 -8.078125 C 15 -10.234375 14.578125 -11.8125 13.734375 -12.8125 C 12.898438 -13.820312 11.710938 -14.328125 10.171875 -14.328125 C 8.648438 -14.328125 7.441406 -13.8125 6.546875 -12.78125 C 5.648438 -11.75 5.203125 -10.179688 5.203125 -8.078125 C 5.203125 -5.972656 5.648438 -4.40625 6.546875 -3.375 C 7.441406 -2.34375 8.648438 -1.828125 10.171875 -1.828125 Z M 10.171875 -1.828125 "/></g></g><g transform="translate(423.414154, 398.299248)"><g><path d="M 2.8125 0 L 2.8125 -16.15625 L 5.078125 -16.15625 L 5.078125 -13.625 L 5.390625 -13.546875 C 6.140625 -15.378906 7.554688 -16.296875 9.640625 -16.296875 C 10.742188 -16.296875 11.566406 -16.097656 12.109375 -15.703125 L 11.5 -13.6875 L 11.203125 -13.625 C 10.597656 -13.925781 9.9375 -14.078125 9.21875 -14.078125 C 7.925781 -14.078125 6.929688 -13.59375 6.234375 -12.625 C 5.546875 -11.65625 5.203125 -10.085938 5.203125 -7.921875 L 5.203125 0 Z M 2.8125 0 "/></g></g></g><g fill="#fd661f" fill-opacity="1"><g transform="translate(435.469818, 398.299248)"><g><path d="M 9.265625 0.3125 C 7.742188 0.3125 6.421875 -0.0078125 5.296875 -0.65625 C 4.171875 -1.300781 3.300781 -2.25 2.6875 -3.5 C 2.070312 -4.757812 1.765625 -6.285156 1.765625 -8.078125 C 1.765625 -9.859375 2.070312 -11.378906 2.6875 -12.640625 C 3.300781 -13.898438 4.171875 -14.851562 5.296875 -15.5 C 6.421875 -16.144531 7.742188 -16.46875 9.265625 -16.46875 C 10.796875 -16.46875 12.125 -16.144531 13.25 -15.5 C 14.375 -14.851562 15.238281 -13.898438 15.84375 -12.640625 C 16.457031 -11.378906 16.765625 -9.859375 16.765625 -8.078125 C 16.765625 -6.285156 16.457031 -4.757812 15.84375 -3.5 C 15.238281 -2.25 14.375 -1.300781 13.25 -0.65625 C 12.125 -0.0078125 10.796875 0.3125 9.265625 0.3125 Z M 9.265625 -1.828125 C 10.878906 -1.828125 12.113281 -2.332031 12.96875 -3.34375 C 13.820312 -4.363281 14.25 -5.941406 14.25 -8.078125 C 14.25 -10.210938 13.820312 -11.785156 12.96875 -12.796875 C 12.113281 -13.816406 10.878906 -14.328125 9.265625 -14.328125 C 7.660156 -14.328125 6.425781 -13.816406 5.5625 -12.796875 C 4.707031 -11.773438 4.28125 -10.203125 4.28125 -8.078125 C 4.28125 -5.941406 4.707031 -4.363281 5.5625 -3.34375 C 6.425781 -2.332031 7.660156 -1.828125 9.265625 -1.828125 Z M 9.265625 -1.828125 "/></g></g><g transform="translate(454.014738, 398.299248)"><g><path d="M 6.671875 0.3125 C 5.078125 0.3125 3.832031 -0.101562 2.9375 -0.9375 C 2.039062 -1.769531 1.59375 -2.957031 1.59375 -4.5 C 1.59375 -5.457031 1.789062 -6.265625 2.1875 -6.921875 C 2.582031 -7.578125 3.195312 -8.113281 4.03125 -8.53125 C 4.863281 -8.945312 5.945312 -9.269531 7.28125 -9.5 C 8.445312 -9.6875 9.335938 -9.898438 9.953125 -10.140625 C 10.566406 -10.390625 10.976562 -10.664062 11.1875 -10.96875 C 11.394531 -11.269531 11.5 -11.648438 11.5 -12.109375 C 11.5 -12.847656 11.242188 -13.410156 10.734375 -13.796875 C 10.234375 -14.191406 9.429688 -14.390625 8.328125 -14.390625 C 7.273438 -14.390625 6.375 -14.1875 5.625 -13.78125 C 4.882812 -13.375 4.203125 -12.769531 3.578125 -11.96875 L 3.28125 -11.96875 L 2.109375 -13.625 C 2.796875 -14.488281 3.664062 -15.175781 4.71875 -15.6875 C 5.769531 -16.207031 6.972656 -16.46875 8.328125 -16.46875 C 10.222656 -16.46875 11.625 -16.046875 12.53125 -15.203125 C 13.4375 -14.367188 13.890625 -13.21875 13.890625 -11.75 L 13.890625 -3.171875 C 13.890625 -2.273438 14.269531 -1.828125 15.03125 -1.828125 C 15.28125 -1.828125 15.523438 -1.875 15.765625 -1.96875 L 15.96875 -1.90625 L 16.25 -0.25 C 16.070312 -0.132812 15.835938 -0.046875 15.546875 0.015625 C 15.265625 0.0859375 14.96875 0.125 14.65625 0.125 C 13.769531 0.125 13.097656 -0.0703125 12.640625 -0.46875 C 12.191406 -0.863281 11.90625 -1.441406 11.78125 -2.203125 L 11.46875 -2.234375 C 11.007812 -1.378906 10.390625 -0.738281 9.609375 -0.3125 C 8.828125 0.101562 7.847656 0.3125 6.671875 0.3125 Z M 7.1875 -1.59375 C 8.09375 -1.59375 8.875 -1.800781 9.53125 -2.21875 C 10.1875 -2.632812 10.691406 -3.21875 11.046875 -3.96875 C 11.398438 -4.71875 11.578125 -5.585938 11.578125 -6.578125 L 11.578125 -8.625 L 11.296875 -8.6875 C 10.929688 -8.4375 10.488281 -8.222656 9.96875 -8.046875 C 9.457031 -7.878906 8.738281 -7.726562 7.8125 -7.59375 C 6.875 -7.457031 6.128906 -7.257812 5.578125 -7 C 5.023438 -6.738281 4.628906 -6.40625 4.390625 -6 C 4.160156 -5.59375 4.046875 -5.09375 4.046875 -4.5 C 4.046875 -3.550781 4.320312 -2.828125 4.875 -2.328125 C 5.4375 -1.835938 6.207031 -1.59375 7.1875 -1.59375 Z M 7.1875 -1.59375 "/></g></g><g transform="translate(470.728605, 398.299248)"><g><path d="M 8.375 0.3125 C 7.082031 0.3125 5.9375 0.00390625 4.9375 -0.609375 C 3.945312 -1.234375 3.171875 -2.171875 2.609375 -3.421875 C 2.046875 -4.671875 1.765625 -6.222656 1.765625 -8.078125 C 1.765625 -9.921875 2.054688 -11.46875 2.640625 -12.71875 C 3.234375 -13.976562 4.046875 -14.914062 5.078125 -15.53125 C 6.109375 -16.15625 7.300781 -16.46875 8.65625 -16.46875 C 9.726562 -16.46875 10.691406 -16.265625 11.546875 -15.859375 C 12.410156 -15.453125 13.148438 -14.785156 13.765625 -13.859375 L 14.078125 -13.921875 L 14.078125 -22.640625 L 16.46875 -22.640625 L 16.46875 0 L 14.078125 0 L 14.078125 -2.359375 L 13.765625 -2.421875 C 13.242188 -1.617188 12.53125 -0.960938 11.625 -0.453125 C 10.71875 0.0546875 9.632812 0.3125 8.375 0.3125 Z M 9.125 -1.828125 C 10.625 -1.828125 11.820312 -2.34375 12.71875 -3.375 C 13.625 -4.40625 14.078125 -5.972656 14.078125 -8.078125 C 14.078125 -10.179688 13.625 -11.75 12.71875 -12.78125 C 11.820312 -13.8125 10.625 -14.328125 9.125 -14.328125 C 7.570312 -14.328125 6.375 -13.820312 5.53125 -12.8125 C 4.695312 -11.8125 4.28125 -10.234375 4.28125 -8.078125 C 4.28125 -3.910156 5.894531 -1.828125 9.125 -1.828125 Z M 9.125 -1.828125 "/></g></g></g></svg>