<svg xmlns="http://www.w3.org/2000/svg" xmlns:xlink="http://www.w3.org/1999/xlink" width="1080" zoomAndPan="magnify" viewBox="0 0 810 809.999993" height="1080" preserveAspectRatio="xMidYMid meet" version="1.0"><defs><g/><clipPath id="7f28204532"><path d="M 37 29.109375 L 784 29.109375 L 784 791.859375 L 37 791.859375 Z M 37 29.109375 " clip-rule="nonzero"/></clipPath></defs><g clip-path="url(#7f28204532)"><path fill="#fd661f" d="M 481.53125 352.210938 L 759.488281 29.109375 L 693.617188 29.109375 L 452.28125 309.636719 L 259.507812 29.109375 L 37.1875 29.109375 L 328.691406 453.359375 L 37.1875 792.160156 L 103.058594 792.160156 L 357.941406 495.894531 L 561.503906 792.160156 L 783.828125 792.160156 Z M 391.324219 457.082031 L 361.773438 414.839844 L 126.800781 78.679688 L 227.988281 78.679688 L 417.632812 349.9375 L 447.183594 392.179688 L 693.691406 744.789062 L 592.503906 744.789062 L 391.324219 457.042969 Z M 391.324219 457.082031 " fill-opacity="1" fill-rule="nonzero"/></g><g fill="#fd661f" fill-opacity="1"><g transform="translate(330.942268, 427.134795)"><g><path d="M 2.046875 2.984375 L 13.765625 -5.046875 L 12.171875 -7.375 L 13.796875 -8.484375 L 15.390625 -6.15625 C 15.867188 -6.71875 16.363281 -7.175781 16.875 -7.53125 C 17.738281 -8.125 18.59375 -8.4375 19.4375 -8.46875 C 20.28125 -8.507812 21.070312 -8.300781 21.8125 -7.84375 C 22.550781 -7.394531 23.210938 -6.742188 23.796875 -5.890625 C 24.710938 -4.566406 25.128906 -3.347656 25.046875 -2.234375 L 23.125 -2.0625 L 22.90625 -2.265625 C 22.957031 -3.085938 22.695312 -3.914062 22.125 -4.75 C 21.59375 -5.53125 20.988281 -5.976562 20.3125 -6.09375 C 19.644531 -6.21875 18.941406 -6.023438 18.203125 -5.515625 C 17.734375 -5.191406 17.242188 -4.753906 16.734375 -4.203125 L 19.640625 0.046875 L 18.015625 1.15625 L 15.109375 -3.09375 L 3.390625 4.9375 Z M 2.046875 2.984375 "/></g></g><g transform="translate(337.453567, 436.630458)"><g><path d="M 3.390625 5.484375 C 2.742188 4.535156 2.503906 3.609375 2.671875 2.703125 C 2.835938 1.796875 3.453125 0.972656 4.515625 0.234375 L 20.234375 -10.53125 L 21.578125 -8.5625 L 5.984375 2.125 C 5.429688 2.507812 5.101562 2.894531 5 3.28125 C 4.894531 3.664062 5 4.078125 5.3125 4.515625 C 5.5 4.796875 5.738281 5.046875 6.03125 5.265625 L 6.09375 5.46875 L 4.703125 6.765625 C 4.492188 6.691406 4.273438 6.535156 4.046875 6.296875 C 3.816406 6.054688 3.597656 5.785156 3.390625 5.484375 Z M 3.390625 5.484375 "/></g></g><g transform="translate(342.424024, 443.879055)"><g><path d="M -3.828125 6.546875 C -4.128906 6.097656 -4.375 5.648438 -4.5625 5.203125 C -4.757812 4.765625 -4.882812 4.359375 -4.9375 3.984375 L -3.140625 3.28125 L -2.90625 3.4375 C -2.882812 3.695312 -2.804688 3.992188 -2.671875 4.328125 C -2.535156 4.671875 -2.363281 5 -2.15625 5.3125 C -1.789062 5.84375 -1.410156 6.234375 -1.015625 6.484375 C -0.628906 6.742188 -0.179688 6.882812 0.328125 6.90625 C 0.835938 6.9375 1.457031 6.851562 2.1875 6.65625 L 3.828125 6.25 L 13.796875 -8.453125 L 15.25 -6.328125 L 7.25 5.328125 L 7.40625 5.5625 L 21.0625 2.140625 L 22.453125 4.15625 L 2.9375 8.78125 C 1.851562 9.03125 0.90625 9.125 0.09375 9.0625 C -0.707031 9 -1.421875 8.757812 -2.046875 8.34375 C -2.679688 7.9375 -3.273438 7.335938 -3.828125 6.546875 Z M -3.828125 6.546875 "/></g></g></g><g fill="#fd661f" fill-opacity="1"><g transform="translate(351.884461, 457.675553)"><g><path d="M 3.515625 5.671875 C 2.617188 4.359375 2.257812 3.097656 2.4375 1.890625 C 2.613281 0.679688 3.34375 -0.359375 4.625 -1.234375 C 5.40625 -1.773438 6.175781 -2.066406 6.9375 -2.109375 C 7.707031 -2.148438 8.5 -1.941406 9.3125 -1.484375 C 10.125 -1.035156 11.003906 -0.332031 11.953125 0.625 C 12.765625 1.488281 13.445312 2.101562 14 2.46875 C 14.550781 2.832031 15.007812 3.015625 15.375 3.015625 C 15.738281 3.023438 16.109375 2.898438 16.484375 2.640625 C 17.097656 2.222656 17.421875 1.691406 17.453125 1.046875 C 17.492188 0.410156 17.203125 -0.359375 16.578125 -1.265625 C 15.984375 -2.140625 15.304688 -2.769531 14.546875 -3.15625 C 13.785156 -3.539062 12.90625 -3.757812 11.90625 -3.8125 L 11.734375 -4.0625 L 12.421875 -5.96875 C 13.535156 -5.882812 14.597656 -5.554688 15.609375 -4.984375 C 16.628906 -4.410156 17.519531 -3.5625 18.28125 -2.4375 C 19.351562 -0.875 19.800781 0.515625 19.625 1.734375 C 19.445312 2.953125 18.753906 3.976562 17.546875 4.8125 L 10.46875 9.65625 C 9.726562 10.164062 9.570312 10.734375 10 11.359375 C 10.144531 11.566406 10.328125 11.742188 10.546875 11.890625 L 10.609375 12.09375 L 9.390625 13.265625 C 9.203125 13.179688 8.992188 13.039062 8.765625 12.84375 C 8.546875 12.644531 8.347656 12.421875 8.171875 12.171875 C 7.671875 11.429688 7.457031 10.765625 7.53125 10.171875 C 7.601562 9.578125 7.914062 9.007812 8.46875 8.46875 L 8.328125 8.1875 C 7.359375 8.300781 6.476562 8.148438 5.6875 7.734375 C 4.90625 7.328125 4.179688 6.640625 3.515625 5.671875 Z M 5.375 5.015625 C 5.882812 5.765625 6.5 6.289062 7.21875 6.59375 C 7.9375 6.90625 8.703125 6.992188 9.515625 6.859375 C 10.335938 6.734375 11.15625 6.390625 11.96875 5.828125 L 13.65625 4.671875 L 13.5625 4.40625 C 13.144531 4.238281 12.71875 3.992188 12.28125 3.671875 C 11.851562 3.347656 11.320312 2.835938 10.6875 2.140625 C 10.039062 1.453125 9.453125 0.953125 8.921875 0.640625 C 8.398438 0.335938 7.90625 0.203125 7.4375 0.234375 C 6.96875 0.273438 6.488281 0.460938 6 0.796875 C 5.207031 1.335938 4.765625 1.972656 4.671875 2.703125 C 4.585938 3.441406 4.820312 4.210938 5.375 5.015625 Z M 5.375 5.015625 "/></g></g><g transform="translate(361.336614, 471.45997)"><g><path d="M 5.828125 9.03125 C 5.140625 8.039062 4.734375 7.050781 4.609375 6.0625 C 4.492188 5.070312 4.613281 4.144531 4.96875 3.28125 L 4.734375 3.0625 L 2.9375 4.296875 L 1.59375 2.3125 L 20.265625 -10.484375 L 21.609375 -8.5 L 14.265625 -3.46875 L 14.40625 -3.1875 C 16.625 -3.226562 18.398438 -2.28125 19.734375 -0.34375 C 20.472656 0.75 20.867188 1.878906 20.921875 3.046875 C 20.984375 4.210938 20.648438 5.378906 19.921875 6.546875 C 19.203125 7.710938 18.078125 8.820312 16.546875 9.875 C 15.023438 10.914062 13.585938 11.550781 12.234375 11.78125 C 10.878906 12.007812 9.65625 11.878906 8.5625 11.390625 C 7.476562 10.898438 6.566406 10.113281 5.828125 9.03125 Z M 7.25 7.359375 C 9.070312 10.015625 11.703125 10.164062 15.140625 7.8125 C 16.921875 6.59375 17.988281 5.347656 18.34375 4.078125 C 18.695312 2.816406 18.4375 1.550781 17.5625 0.28125 C 16.707031 -0.976562 15.597656 -1.679688 14.234375 -1.828125 C 12.878906 -1.984375 11.332031 -1.460938 9.59375 -0.265625 C 7.863281 0.921875 6.828125 2.171875 6.484375 3.484375 C 6.140625 4.804688 6.394531 6.097656 7.25 7.359375 Z M 7.25 7.359375 "/></g></g><g transform="translate(372.238484, 487.358561)"><g><path d="M 1.59375 2.3125 L 14.921875 -6.828125 L 16.203125 -4.953125 L 14.109375 -3.515625 L 14.21875 -3.203125 C 16.15625 -3.628906 17.710938 -2.984375 18.890625 -1.265625 C 19.515625 -0.359375 19.816406 0.429688 19.796875 1.109375 L 17.78125 1.75 L 17.5625 1.53125 C 17.476562 0.851562 17.234375 0.222656 16.828125 -0.359375 C 16.097656 -1.429688 15.132812 -1.972656 13.9375 -1.984375 C 12.75 -2.003906 11.257812 -1.40625 9.46875 -0.1875 L 2.9375 4.296875 Z M 1.59375 2.3125 "/></g></g></g><g fill="#fd661f" fill-opacity="1"><g transform="translate(379.056294, 497.30122)"><g><path d="M 4.984375 7.8125 C 4.128906 6.5625 3.648438 5.289062 3.546875 4 C 3.441406 2.707031 3.734375 1.453125 4.421875 0.234375 C 5.109375 -0.984375 6.1875 -2.097656 7.65625 -3.109375 C 9.125 -4.117188 10.550781 -4.722656 11.9375 -4.921875 C 13.332031 -5.128906 14.613281 -4.953125 15.78125 -4.390625 C 16.945312 -3.828125 17.957031 -2.921875 18.8125 -1.671875 C 19.675781 -0.410156 20.160156 0.863281 20.265625 2.15625 C 20.378906 3.445312 20.085938 4.703125 19.390625 5.921875 C 18.691406 7.140625 17.609375 8.253906 16.140625 9.265625 C 14.671875 10.273438 13.242188 10.878906 11.859375 11.078125 C 10.484375 11.285156 9.207031 11.109375 8.03125 10.546875 C 6.863281 9.984375 5.847656 9.070312 4.984375 7.8125 Z M 6.734375 6.609375 C 7.648438 7.941406 8.769531 8.671875 10.09375 8.796875 C 11.414062 8.929688 12.957031 8.394531 14.71875 7.1875 C 16.476562 5.976562 17.535156 4.734375 17.890625 3.453125 C 18.242188 2.171875 17.960938 0.863281 17.046875 -0.46875 C 16.140625 -1.789062 15.023438 -2.515625 13.703125 -2.640625 C 12.378906 -2.773438 10.835938 -2.238281 9.078125 -1.03125 C 7.316406 0.175781 6.257812 1.421875 5.90625 2.703125 C 5.550781 3.984375 5.828125 5.285156 6.734375 6.609375 Z M 6.734375 6.609375 "/></g></g><g transform="translate(389.543959, 512.595761)"><g><path d="M 3.515625 5.671875 C 2.617188 4.359375 2.257812 3.097656 2.4375 1.890625 C 2.613281 0.679688 3.34375 -0.359375 4.625 -1.234375 C 5.40625 -1.773438 6.175781 -2.066406 6.9375 -2.109375 C 7.707031 -2.148438 8.5 -1.941406 9.3125 -1.484375 C 10.125 -1.035156 11.003906 -0.332031 11.953125 0.625 C 12.765625 1.488281 13.445312 2.101562 14 2.46875 C 14.550781 2.832031 15.007812 3.015625 15.375 3.015625 C 15.738281 3.023438 16.109375 2.898438 16.484375 2.640625 C 17.097656 2.222656 17.421875 1.691406 17.453125 1.046875 C 17.492188 0.410156 17.203125 -0.359375 16.578125 -1.265625 C 15.984375 -2.140625 15.304688 -2.769531 14.546875 -3.15625 C 13.785156 -3.539062 12.90625 -3.757812 11.90625 -3.8125 L 11.734375 -4.0625 L 12.421875 -5.96875 C 13.535156 -5.882812 14.597656 -5.554688 15.609375 -4.984375 C 16.628906 -4.410156 17.519531 -3.5625 18.28125 -2.4375 C 19.351562 -0.875 19.800781 0.515625 19.625 1.734375 C 19.445312 2.953125 18.753906 3.976562 17.546875 4.8125 L 10.46875 9.65625 C 9.726562 10.164062 9.570312 10.734375 10 11.359375 C 10.144531 11.566406 10.328125 11.742188 10.546875 11.890625 L 10.609375 12.09375 L 9.390625 13.265625 C 9.203125 13.179688 8.992188 13.039062 8.765625 12.84375 C 8.546875 12.644531 8.347656 12.421875 8.171875 12.171875 C 7.671875 11.429688 7.457031 10.765625 7.53125 10.171875 C 7.601562 9.578125 7.914062 9.007812 8.46875 8.46875 L 8.328125 8.1875 C 7.359375 8.300781 6.476562 8.148438 5.6875 7.734375 C 4.90625 7.328125 4.179688 6.640625 3.515625 5.671875 Z M 5.375 5.015625 C 5.882812 5.765625 6.5 6.289062 7.21875 6.59375 C 7.9375 6.90625 8.703125 6.992188 9.515625 6.859375 C 10.335938 6.734375 11.15625 6.390625 11.96875 5.828125 L 13.65625 4.671875 L 13.5625 4.40625 C 13.144531 4.238281 12.71875 3.992188 12.28125 3.671875 C 11.851562 3.347656 11.320312 2.835938 10.6875 2.140625 C 10.039062 1.453125 9.453125 0.953125 8.921875 0.640625 C 8.398438 0.335938 7.90625 0.203125 7.4375 0.234375 C 6.96875 0.273438 6.488281 0.460938 6 0.796875 C 5.207031 1.335938 4.765625 1.972656 4.671875 2.703125 C 4.585938 3.441406 4.820312 4.210938 5.375 5.015625 Z M 5.375 5.015625 "/></g></g><g transform="translate(398.996112, 526.380178)"><g><path d="M 4.484375 7.078125 C 3.753906 6.015625 3.363281 4.894531 3.3125 3.71875 C 3.257812 2.550781 3.585938 1.378906 4.296875 0.203125 C 5.015625 -0.960938 6.132812 -2.066406 7.65625 -3.109375 C 9.175781 -4.148438 10.617188 -4.785156 11.984375 -5.015625 C 13.359375 -5.242188 14.59375 -5.101562 15.6875 -4.59375 C 16.78125 -4.09375 17.707031 -3.285156 18.46875 -2.171875 C 19.082031 -1.285156 19.460938 -0.375 19.609375 0.5625 C 19.765625 1.5 19.632812 2.484375 19.21875 3.515625 L 19.453125 3.734375 L 26.640625 -1.1875 L 27.984375 0.78125 L 9.3125 13.578125 L 7.96875 11.609375 L 9.921875 10.28125 L 9.78125 9.984375 C 8.820312 10.003906 7.878906 9.785156 6.953125 9.328125 C 6.023438 8.867188 5.203125 8.117188 4.484375 7.078125 Z M 6.65625 6.5 C 7.507812 7.726562 8.617188 8.421875 9.984375 8.578125 C 11.347656 8.742188 12.894531 8.234375 14.625 7.046875 C 16.363281 5.847656 17.398438 4.582031 17.734375 3.25 C 18.078125 1.925781 17.820312 0.648438 16.96875 -0.578125 C 16.09375 -1.859375 15.003906 -2.554688 13.703125 -2.671875 C 12.398438 -2.796875 10.859375 -2.25 9.078125 -1.03125 C 5.640625 1.320312 4.832031 3.832031 6.65625 6.5 Z M 6.65625 6.5 "/></g></g></g></svg>